<?xml version="1.0" encoding="utf-8"?>
<!-- Generator: Adobe Illustrator 15.1.0, SVG Export Plug-In . SVG Version: 6.00 Build 0)  -->
<!DOCTYPE svg PUBLIC "-//W3C//DTD SVG 1.1//EN" "http://www.w3.org/Graphics/SVG/1.1/DTD/svg11.dtd">
<svg version="1.1" xmlns="http://www.w3.org/2000/svg" xmlns:xlink="http://www.w3.org/1999/xlink" x="0px" y="0px"
	 width="1297.009px" height="1285.779px" viewBox="0 0 1297.009 1285.779" enable-background="new 0 0 1297.009 1285.779"
	 xml:space="preserve">
<g id="compass_icon">
</g>
<g id="Layer_3">
</g>
<g id="Layer_5">
	<g>
		<line fill="#FFFFFF" x1="1154.385" y1="641.875" x2="142.385" y2="641.875"/>
		<g>
			<rect x="228.385" y="611.875" fill="#FFFFFF" width="840" height="60"/>
			<g>
				<polygon fill="#FFFFFF" points="1050.385,583.045 1154.008,642.869 1050.385,702.705 				"/>
			</g>
			<g>
				<polygon fill="#FFFFFF" points="246.385,583.045 142.762,642.869 246.385,702.705 				"/>
			</g>
		</g>
	</g>
</g>
<g id="Layer_4" display="none">
	<g display="inline">
		<path fill="#FFFFFF" d="M815.251,369.96c1.566,1.004,3.815,1.767,6.226,1.767c3.574,0,5.662-1.888,5.662-4.618
			c0-2.49-1.445-3.976-5.101-5.342c-4.417-1.606-7.148-3.936-7.148-7.711c0-4.217,3.494-7.35,8.755-7.35
			c2.731,0,4.779,0.643,5.944,1.325l-0.964,2.852c-0.844-0.521-2.65-1.285-5.101-1.285c-3.694,0-5.101,2.209-5.101,4.057
			c0,2.53,1.646,3.775,5.382,5.221c4.578,1.768,6.867,3.977,6.867,7.952c0,4.177-3.052,7.831-9.438,7.831
			c-2.61,0-5.462-0.803-6.908-1.767L815.251,369.96z"/>
		<path fill="#FFFFFF" d="M835.372,345.702h3.534v12.169h0.081c0.562-1.004,1.445-1.928,2.529-2.53
			c1.045-0.603,2.289-0.964,3.615-0.964c2.609,0,6.787,1.606,6.787,8.273v11.566h-3.535v-11.165c0-3.132-1.164-5.743-4.498-5.743
			c-2.289,0-4.056,1.606-4.738,3.494c-0.201,0.522-0.241,1.045-0.241,1.688v11.727h-3.534V345.702z"/>
		<path fill="#FFFFFF" d="M873.925,368.875c0,2.049,0.04,3.815,0.161,5.342h-3.133l-0.201-3.173h-0.08
			c-0.883,1.566-2.972,3.614-6.426,3.614c-3.053,0-6.707-1.727-6.707-8.514v-11.365h3.534v10.723c0,3.694,1.165,6.225,4.338,6.225
			c2.369,0,4.016-1.646,4.658-3.253c0.201-0.481,0.321-1.124,0.321-1.808v-11.887h3.534V368.875z"/>
		<path fill="#FFFFFF" d="M880.15,374.217V357.47h-2.69v-2.69h2.69v-0.924c0-2.731,0.643-5.222,2.249-6.787
			c1.325-1.285,3.092-1.808,4.738-1.808c1.285,0,2.33,0.281,3.013,0.563l-0.481,2.73c-0.522-0.241-1.205-0.441-2.25-0.441
			c-3.012,0-3.775,2.61-3.775,5.622v1.045h4.699v2.69h-4.699v16.747H880.15z"/>
		<path fill="#FFFFFF" d="M891.875,374.217V357.47h-2.69v-2.69h2.69v-0.924c0-2.731,0.643-5.222,2.249-6.787
			c1.325-1.285,3.093-1.808,4.739-1.808c1.285,0,2.329,0.281,3.012,0.563l-0.481,2.73c-0.522-0.241-1.205-0.441-2.249-0.441
			c-3.012,0-3.775,2.61-3.775,5.622v1.045h4.699v2.69h-4.699v16.747H891.875z"/>
		<path fill="#FFFFFF" d="M903.241,345.702h3.534v28.515h-3.534V345.702z"/>
		<path fill="#FFFFFF" d="M914.686,365.141c0.08,4.779,3.093,6.747,6.667,6.747c2.53,0,4.097-0.442,5.382-1.004l0.643,2.53
			c-1.245,0.562-3.414,1.244-6.506,1.244c-5.984,0-9.559-3.976-9.559-9.839c0-5.864,3.453-10.442,9.116-10.442
			c6.386,0,8.032,5.543,8.032,9.117c0,0.723-0.04,1.244-0.12,1.646H914.686z M925.047,362.61c0.041-2.209-0.924-5.703-4.899-5.703
			c-3.614,0-5.141,3.253-5.421,5.703H925.047z"/>
		<path fill="#FFFFFF" d="M941.071,370.201c1.004,0.602,3.293,1.605,5.783,1.605c4.498,0,5.943-2.851,5.903-5.06
			c-0.04-3.655-3.333-5.222-6.747-5.222h-1.968v-2.65h1.968c2.57,0,5.823-1.325,5.823-4.418c0-2.088-1.325-3.936-4.578-3.936
			c-2.089,0-4.097,0.924-5.221,1.728l-0.964-2.57c1.405-1.005,4.057-2.009,6.867-2.009c5.141,0,7.471,3.053,7.471,6.226
			c0,2.73-1.647,5.02-4.82,6.185v0.08c3.213,0.603,5.783,3.013,5.824,6.667c0,4.177-3.294,7.831-9.519,7.831
			c-2.932,0-5.502-0.924-6.787-1.767L941.071,370.201z"/>
		<path fill="#FFFFFF" d="M962.074,347.47c1.687-0.281,3.896-0.522,6.707-0.522c3.454,0,5.983,0.804,7.591,2.249
			c1.445,1.285,2.369,3.253,2.369,5.663c0,2.449-0.723,4.377-2.088,5.783c-1.889,1.968-4.86,2.972-8.273,2.972
			c-1.045,0-2.008-0.04-2.812-0.241v10.844h-3.494V347.47z M965.568,360.521c0.763,0.201,1.727,0.281,2.892,0.281
			c4.217,0,6.787-2.088,6.787-5.743c0-3.614-2.57-5.341-6.386-5.341c-1.526,0-2.69,0.12-3.293,0.281V360.521z"/>
	</g>
	<g display="inline">
		<g>
			<path fill="#FFFFFF" d="M826.103,302.337c3.396-0.08,6.646-0.402,9.911-1c3.249-0.574,6.437-1.418,9.524-2.533
				c6.185-2.223,11.938-5.533,17.207-9.547c5.3-3.984,10.143-8.646,14.728-13.613c4.593-4.965,8.964-10.215,13.323-15.551
				c4.354-5.342,8.735-10.744,13.399-16.002c4.658-5.256,9.595-10.391,15.089-15.051c5.498-4.639,11.601-8.771,18.301-11.861
				c6.688-3.082,13.94-5.129,21.282-5.779c2.379-0.211,4.479,1.547,4.69,3.926c0.208,2.342-1.501,4.416-3.824,4.68
				c-6.409,0.721-12.676,2.33-18.537,5.039c-5.873,2.672-11.337,6.326-16.42,10.559c-10.237,8.449-18.883,19.086-27.887,29.584
				c-4.503,5.262-9.066,10.565-13.998,15.614c-4.938,5.037-10.227,9.857-16.109,14.008c-5.889,4.119-12.396,7.525-19.326,9.697
				c-3.459,1.09-7.011,1.877-10.59,2.354c-3.564,0.457-7.229,0.607-10.74,0.496l-0.044-0.002c-1.385-0.043-2.472-1.201-2.428-2.586
				C823.697,303.431,824.784,302.372,826.103,302.337z"/>
			<g>
				<polygon fill="#FFFFFF" points="955.577,228.508 977.3,216.11 955.702,203.493 				"/>
			</g>
		</g>
	</g>
	<g display="inline">
		<g>
			<path fill="#FFFFFF" d="M826.359,205.917c3.513-0.113,7.176,0.039,10.74,0.494c3.58,0.477,7.131,1.266,10.59,2.355
				c6.932,2.172,13.438,5.578,19.328,9.699c5.883,4.15,11.172,8.971,16.107,14.008c4.934,5.051,9.495,10.352,14,15.617
				c9.004,10.49,17.648,21.137,27.886,29.583c5.085,4.23,10.548,7.887,16.421,10.561c5.861,2.709,12.129,4.314,18.538,5.035
				c2.373,0.268,4.081,2.408,3.813,4.781c-0.263,2.336-2.349,4.027-4.679,3.824c-7.342-0.65-14.597-2.693-21.284-5.777
				c-6.7-3.088-12.802-7.225-18.301-11.861c-5.495-4.66-10.431-9.795-15.09-15.051c-4.67-5.264-9.035-10.653-13.4-16.002
				c-4.357-5.334-8.73-10.588-13.322-15.553c-4.586-4.965-9.428-9.629-14.729-13.613c-5.269-4.014-11.021-7.326-17.206-9.549
				c-3.089-1.115-6.276-1.959-9.524-2.533c-3.266-0.598-6.516-0.92-9.912-1.002c-1.385-0.031-2.481-1.182-2.449-2.566
				c0.032-1.336,1.103-2.404,2.422-2.449H826.359z"/>
			<g>
				<polygon fill="#FFFFFF" points="955.922,309.62 977.532,297.024 955.818,284.606 				"/>
			</g>
		</g>
	</g>
	<g display="inline">
		<line fill="#FFFFFF" x1="40.385" y1="652.875" x2="1052.385" y2="652.875"/>
		<g>
			
				<line fill="none" stroke="#FFFFFF" stroke-width="60" stroke-miterlimit="10" x1="126.385" y1="652.875" x2="966.385" y2="652.875"/>
			<g>
				<polygon fill="#FFFFFF" points="144.385,712.371 40.762,652.547 144.385,592.711 				"/>
			</g>
			<g>
				<polygon fill="#FFFFFF" points="949.385,712.371 1053.008,652.547 949.385,592.711 				"/>
			</g>
		</g>
	</g>
</g>
</svg>
