<?xml version="1.0" encoding="utf-8"?>
<!-- Generator: Adobe Illustrator 15.1.0, SVG Export Plug-In . SVG Version: 6.00 Build 0)  -->
<!DOCTYPE svg PUBLIC "-//W3C//DTD SVG 1.1//EN" "http://www.w3.org/Graphics/SVG/1.1/DTD/svg11.dtd" [
	<!ENTITY ns_extend "http://ns.adobe.com/Extensibility/1.0/">
	<!ENTITY ns_ai "http://ns.adobe.com/AdobeIllustrator/10.0/">
	<!ENTITY ns_graphs "http://ns.adobe.com/Graphs/1.0/">
	<!ENTITY ns_vars "http://ns.adobe.com/Variables/1.0/">
	<!ENTITY ns_imrep "http://ns.adobe.com/ImageReplacement/1.0/">
	<!ENTITY ns_sfw "http://ns.adobe.com/SaveForWeb/1.0/">
	<!ENTITY ns_custom "http://ns.adobe.com/GenericCustomNamespace/1.0/">
	<!ENTITY ns_adobe_xpath "http://ns.adobe.com/XPath/1.0/">
]>
<svg version="1.1" xmlns:x="&ns_extend;" xmlns:i="&ns_ai;" xmlns:graph="&ns_graphs;"
	 xmlns="http://www.w3.org/2000/svg" xmlns:xlink="http://www.w3.org/1999/xlink" x="0px" y="0px" width="231px" height="229px"
	 viewBox="0 0 231 229" enable-background="new 0 0 231 229" xml:space="preserve">
<metadata>
	<sfw  xmlns="&ns_sfw;">
		<slices></slices>
		<sliceSourceBounds  height="16383" width="16383" y="-8306" x="-8076" bottomLeftOrigin="true"></sliceSourceBounds>
	</sfw>
</metadata>
<g id="compass_icon">
</g>
<g id="Layer_3">
</g>
<g id="Layer_4">
	<g>
		<path fill="#FFFFFF" d="M42.313,192.793c2.168-0.322,4.699-0.563,7.47-0.563c5.02,0,8.595,1.125,10.964,3.334
			c2.45,2.207,3.855,5.381,3.855,9.758c0,4.418-1.406,8.033-3.896,10.523c-2.57,2.529-6.747,3.895-12.008,3.895
			c-2.53,0-4.578-0.08-6.385-0.32V192.793z M45.847,216.77c0.883,0.16,2.168,0.16,3.534,0.16c7.47,0.039,11.526-4.178,11.526-11.486
			c0.041-6.467-3.574-10.441-10.964-10.441c-1.807,0-3.173,0.16-4.096,0.361V216.77z"/>
		<path fill="#FFFFFF" d="M70.746,196.486c-1.326,0-2.209-1.043-2.209-2.289c0-1.244,0.924-2.248,2.289-2.248
			c1.366,0,2.249,1.004,2.249,2.248c0,1.246-0.883,2.289-2.289,2.289H70.746z M69.059,219.5v-19.438h3.534V219.5H69.059z"/>
		<path fill="#FFFFFF" d="M78.777,219.5v-16.748h-2.691v-2.689h2.691v-0.924c0-2.732,0.643-5.223,2.29-6.787
			c1.325-1.285,3.092-1.809,4.699-1.809c1.285,0,2.329,0.281,3.012,0.563l-0.442,2.73c-0.563-0.24-1.245-0.441-2.29-0.441
			c-2.972,0-3.775,2.65-3.775,5.623v1.045h4.699v2.689h-4.659V219.5H78.777z"/>
		<path fill="#FFFFFF" d="M90.503,219.5v-16.748h-2.691v-2.689h2.691v-0.924c0-2.732,0.643-5.223,2.29-6.787
			c1.325-1.285,3.092-1.809,4.699-1.809c1.285,0,2.329,0.281,3.012,0.563l-0.442,2.73c-0.563-0.24-1.245-0.441-2.29-0.441
			c-2.972,0-3.775,2.65-3.775,5.623v1.045h4.699v2.689h-4.659V219.5H90.503z"/>
		<path fill="#FFFFFF" d="M103.596,196.486c-1.325,0-2.209-1.043-2.209-2.289c0-1.244,0.924-2.248,2.289-2.248
			c1.366,0,2.249,1.004,2.249,2.248c0,1.246-0.883,2.289-2.289,2.289H103.596z M101.909,219.5v-19.438h3.534V219.5H101.909z"/>
		<path fill="#FFFFFF" d="M125.161,218.816c-0.923,0.441-2.972,1.125-5.582,1.125c-5.864,0-9.679-3.977-9.679-9.961
			c0-5.982,4.096-10.361,10.441-10.361c2.089,0,3.936,0.523,4.9,1.045l-0.804,2.691c-0.843-0.443-2.169-0.924-4.097-0.924
			c-4.458,0-6.867,3.332-6.867,7.389c0,4.498,2.892,7.27,6.747,7.27c2.008,0,3.333-0.482,4.337-0.924L125.161,218.816z"/>
		<path fill="#FFFFFF" d="M145.563,214.199c0,2.008,0.041,3.773,0.161,5.301h-3.133l-0.2-3.174h-0.081
			c-0.884,1.566-2.972,3.615-6.426,3.615c-3.052,0-6.707-1.727-6.707-8.514v-11.365h3.534v10.723c0,3.693,1.165,6.225,4.338,6.225
			c2.369,0,4.016-1.646,4.658-3.254c0.201-0.48,0.321-1.123,0.321-1.807v-11.887h3.534V214.199z"/>
		<path fill="#FFFFFF" d="M151.426,190.984h3.533V219.5h-3.533V190.984z"/>
		<path fill="#FFFFFF" d="M165.08,195.402v4.66h5.06v2.689h-5.06v10.482c0,2.41,0.682,3.775,2.65,3.775
			c0.963,0,1.525-0.08,2.048-0.24l0.161,2.689c-0.684,0.242-1.768,0.482-3.133,0.482c-1.646,0-2.973-0.563-3.815-1.486
			c-0.964-1.084-1.366-2.811-1.366-5.1v-10.604h-3.012v-2.689h3.012v-3.576L165.08,195.402z"/>
		<path fill="#FFFFFF" d="M175.762,200.063l4.217,11.484c0.481,1.285,0.964,2.813,1.285,3.977h0.08
			c0.361-1.164,0.764-2.65,1.245-4.057l3.855-11.404h3.735l-5.302,13.855c-2.53,6.666-4.257,10.08-6.667,12.209
			c-1.767,1.484-3.453,2.088-4.337,2.248l-0.884-2.973c0.884-0.24,2.049-0.803,3.092-1.727c0.965-0.762,2.129-2.129,2.973-3.936
			c0.16-0.361,0.281-0.602,0.281-0.844c0-0.199-0.08-0.48-0.281-0.883l-7.148-17.951H175.762z"/>
	</g>
	<g>
	</g>
	
		<line fill="none" stroke="#FFFFFF" stroke-width="10" stroke-miterlimit="10" x1="159.108" y1="118.631" x2="71.108" y2="118.631"/>
</g>
</svg>
