<?xml version="1.0" encoding="utf-8"?>
<!-- Generator: Adobe Illustrator 15.1.0, SVG Export Plug-In . SVG Version: 6.00 Build 0)  -->
<!DOCTYPE svg PUBLIC "-//W3C//DTD SVG 1.1//EN" "http://www.w3.org/Graphics/SVG/1.1/DTD/svg11.dtd">
<svg version="1.1" xmlns="http://www.w3.org/2000/svg" xmlns:xlink="http://www.w3.org/1999/xlink" x="0px" y="0px" width="231px"
	 height="229px" viewBox="0 0 231 229" enable-background="new 0 0 231 229" xml:space="preserve">
<g id="Layer_3">
</g>
<g id="Layer_4">
	<g>
		<path fill="none" stroke="#FFFFFF" stroke-width="3.5159" stroke-miterlimit="10" d="M109.097,65.508
			c0,0,16.761,2.906,22.716,4.123c5.953,1.213,4.967,2.524,5.182,7.461c0.075,1.73-0.7,8.022-1.245,11.779
			c-1.012,6.967-0.904,7.654-2.034,9.912"/>
		<path fill="none" stroke="#FFFFFF" stroke-width="3.5159" stroke-miterlimit="10" d="M109.097,86.991l2.669-6.746
			c0,0,7.408,2.341,11.481,0.944c-1.557,4.764-2.255,9.926-0.298,12.581c-3.775,0.56-6.004,1.481-6.004,1.481"/>
		<path fill="none" stroke="#FFFFFF" stroke-width="3.5159" stroke-miterlimit="10" d="M116.519,58.821
			c4.448-3.617,7.629-8.655,7.629-8.655s5.791-0.764,11.429-0.92c5.637-0.155,14.266-4.786,14.266-4.786s14.71,4.96,24.382,4.894
			c5.198,5.204,10.643,6.877,13.985,7.926c5.778,1.814,11.457-4.856,11.457-4.856s-13.002-9.467-22.478-16.504
			c-5.991-4.446-19.004-6.874-28.815-8.035c0,0,0,0-6.198-0.984c-7.369-1.17-19.387,5.706-27.983,10.578
			c-5.996,3.401-13.461,11.446-22.05,15.888c-7.217,3.73-11.626,11.45-13.508,15.469c-3.622,7.723-15.45,28.358-19.902,30.259
			c-4.45,1.9-27.636,3.8-27.636,3.8l6.371,45.561c0,0,48.465-17.633,58.355-18.566c9.892-0.932,19.725-6.201,27.424-11.514
			c5.236-3.613,14.611-3.377,24.503-2.707c9.89,0.67,22.693,4.168,22.693,4.168s2.924-5.037,0.993-9.784s-6.235-7.366-13.538-9.012
			c-5.646-1.271-15.676-1.701-24.184-2.257c-6.448-0.422-12.021-0.916-14.153-1.904c-0.81-0.374-1.696-0.936-2.616-1.627
			c-2.758-2.075-5.801-5.328-7.849-8.261c-1.446-2.071-2.394-3.983-2.394-5.21c0-3.543,1.148-15.454,1.148-15.454
			S112.066,62.284,116.519,58.821"/>
	</g>
	<polygon fill="none" stroke="#FFFFFF" stroke-width="3.5159" stroke-miterlimit="10" points="149.962,68.942 149.962,60.753 
		166.61,60.988 166.61,69.111 173.587,69.144 173.587,60.787 190.304,60.787 190.304,68.942 193.472,68.942 193.472,97.187 
		146.794,97.187 146.794,68.942 	"/>
	<polyline fill="none" stroke="#FFFFFF" stroke-width="3.5159" stroke-miterlimit="10" points="193.472,68.942 193.472,97.187 
		146.794,97.187 146.794,68.942 149.962,68.942 149.962,60.753 166.61,60.787 166.61,69.111 173.587,69.144 173.587,60.787 
		190.304,60.787 	"/>
	<g>
		<path fill="none" d="M170.133,99.738"/>
	</g>
	<g>
		<path fill="#FFFFFF" d="M68.852,191.232c-1.245,0.643-3.855,1.285-7.149,1.285c-7.63,0-13.333-4.82-13.333-13.734
			c0-8.516,5.743-14.219,14.137-14.219c3.333,0,5.502,0.725,6.426,1.205l-0.884,2.852c-1.285-0.643-3.172-1.123-5.421-1.123
			c-6.346,0-10.563,4.055-10.563,11.164c0,6.666,3.815,10.883,10.362,10.883c2.168,0,4.337-0.441,5.743-1.123L68.852,191.232z"/>
		<path fill="#FFFFFF" d="M73.027,178.701c0-2.289-0.04-4.256-0.161-6.063h3.092l0.161,3.855h0.12
			c0.884-2.611,3.052-4.258,5.422-4.258c0.361,0,0.643,0.039,0.964,0.08v3.334c-0.361-0.08-0.723-0.08-1.205-0.08
			c-2.49,0-4.257,1.846-4.739,4.498c-0.081,0.48-0.121,1.084-0.121,1.646v10.361h-3.534V178.701z"/>
		<path fill="#FFFFFF" d="M87.726,183c0.081,4.779,3.093,6.746,6.667,6.746c2.53,0,4.097-0.441,5.382-1.004l0.643,2.531
			c-1.245,0.561-3.414,1.244-6.506,1.244c-5.984,0-9.558-3.977-9.558-9.84s3.454-10.441,9.116-10.441
			c6.386,0,8.032,5.543,8.032,9.117c0,0.723-0.04,1.244-0.12,1.646H87.726z M98.087,180.469c0.04-2.209-0.924-5.703-4.9-5.703
			c-3.614,0-5.141,3.254-5.421,5.703H98.087z"/>
		<path fill="#FFFFFF" d="M119.532,187.418c0,1.686,0.081,3.332,0.281,4.658h-3.173l-0.281-2.451h-0.12
			c-1.084,1.527-3.173,2.893-5.944,2.893c-3.936,0-5.944-2.771-5.944-5.582c0-4.699,4.177-7.27,11.687-7.229v-0.402
			c0-1.566-0.441-4.498-4.417-4.459c-1.847,0-3.735,0.523-5.101,1.447l-0.803-2.369c1.606-1.006,3.976-1.688,6.426-1.688
			c5.943,0,7.39,4.057,7.39,7.912V187.418z M116.119,182.156c-3.856-0.08-8.233,0.602-8.233,4.377c0,2.33,1.526,3.373,3.293,3.373
			c2.57,0,4.217-1.605,4.779-3.252c0.12-0.402,0.161-0.803,0.161-1.125V182.156z"/>
		<path fill="#FFFFFF" d="M129.332,167.979v4.66h5.06v2.689h-5.06v10.482c0,2.41,0.682,3.775,2.65,3.775
			c0.963,0,1.525-0.08,2.048-0.24l0.161,2.689c-0.684,0.242-1.768,0.482-3.133,0.482c-1.646,0-2.973-0.563-3.815-1.486
			c-0.964-1.084-1.366-2.811-1.366-5.1v-10.604h-3.012v-2.689h3.012v-3.615L129.332,167.979z"/>
		<path fill="#FFFFFF" d="M140.094,183c0.08,4.779,3.093,6.746,6.667,6.746c2.53,0,4.097-0.441,5.382-1.004l0.643,2.531
			c-1.245,0.561-3.414,1.244-6.506,1.244c-5.984,0-9.559-3.977-9.559-9.84s3.453-10.441,9.116-10.441
			c6.386,0,8.032,5.543,8.032,9.117c0,0.723-0.04,1.244-0.12,1.646H140.094z M150.455,180.469c0.041-2.209-0.924-5.703-4.899-5.703
			c-3.614,0-5.141,3.254-5.421,5.703H150.455z"/>
		<path fill="#FFFFFF" d="M173.306,169.264h-0.08l-4.538,2.451l-0.684-2.691l5.703-3.053h3.012v26.105h-3.413V169.264z"/>
	</g>
</g>
</svg>
