<?xml version="1.0" encoding="utf-8"?>
<!-- Generator: Adobe Illustrator 15.1.0, SVG Export Plug-In . SVG Version: 6.00 Build 0)  -->
<!DOCTYPE svg PUBLIC "-//W3C//DTD SVG 1.1//EN" "http://www.w3.org/Graphics/SVG/1.1/DTD/svg11.dtd">
<svg version="1.1" xmlns="http://www.w3.org/2000/svg" xmlns:xlink="http://www.w3.org/1999/xlink" x="0px" y="0px" width="231px"
	 height="229px" viewBox="0 0 231 229" enable-background="new 0 0 231 229" xml:space="preserve">
<g id="compass_icon">
</g>
<g id="Layer_3">
</g>
<g id="Layer_4">
	<text transform="matrix(1 0 0 1 36.7593 209.1602)" fill="#FFFFFF" font-family="'MyriadPro-Regular'" font-size="40.16">DIY LVL 1</text>
	<g>
		<path fill="none" stroke="#FFFFFF" stroke-width="4.7" stroke-miterlimit="10" d="M108.746,62.462c0,0,16.761,2.906,22.716,4.123
			c5.953,1.214,4.967,2.525,5.182,7.461c0.075,1.73-0.7,8.023-1.245,11.779c-1.012,6.967-0.904,7.654-2.034,9.912"/>
		<path fill="none" stroke="#FFFFFF" stroke-width="4.7" stroke-miterlimit="10" d="M108.746,83.947l2.669-6.746
			c0,0,7.408,2.341,11.481,0.943c-1.557,4.764-2.255,9.926-0.298,12.582c-3.775,0.559-6.003,1.48-6.003,1.48"/>
		<path fill="none" stroke="#FFFFFF" stroke-width="4.7" stroke-miterlimit="10" d="M116.168,55.777
			c4.449-3.617,7.629-8.656,7.629-8.656s5.791-0.764,11.429-0.92c5.637-0.155,14.266-4.786,14.266-4.786s14.71,4.96,24.382,4.894
			c5.198,5.204,10.643,6.877,13.985,7.926c5.778,1.814,11.457-4.856,11.457-4.856s-13.002-9.467-22.478-16.504
			c-5.991-4.446-19.004-6.874-28.815-8.035c0,0,0,0-6.198-0.984c-7.369-1.17-19.387,5.706-27.983,10.578
			c-5.996,3.401-13.461,11.446-22.05,15.888c-7.217,3.73-11.626,11.449-13.508,15.469c-3.622,7.723-15.45,28.357-19.902,30.26
			c-4.45,1.9-27.636,3.799-27.636,3.799l6.371,45.561c0,0,48.465-17.633,58.355-18.566c9.892-0.932,19.725-6.201,27.424-11.514
			c5.236-3.613,14.611-3.377,24.503-2.707c9.89,0.67,22.693,4.168,22.693,4.168s2.924-5.037,0.993-9.783
			c-1.931-4.747-6.235-7.366-13.538-9.012c-5.646-1.271-15.676-1.701-24.184-2.258c-6.448-0.422-12.022-0.916-14.153-1.904
			c-0.809-0.373-1.695-0.936-2.615-1.627c-2.759-2.074-5.802-5.328-7.85-8.26c-1.446-2.072-2.394-3.984-2.394-5.211
			c0-3.543,1.148-15.453,1.148-15.453S111.716,59.24,116.168,55.777"/>
		<path fill="none" stroke="#FFFFFF" stroke-width="4.7" stroke-miterlimit="10" d="M168.82,116.467
			c1.833-3.059,0.052-7.758-4.038-9.664c-4.092-1.907-7.54-0.9-7.54-0.9s-4.589,3.975-0.533,8.031
			C161.531,114.877,166.878,116.135,168.82,116.467z"/>
	</g>
	<polygon fill="none" stroke="#FFFFFF" stroke-width="3.5159" stroke-miterlimit="10" points="149.611,65.898 149.611,57.708 
		166.26,57.943 166.26,66.066 173.236,66.099 173.236,57.742 189.953,57.742 189.953,65.898 193.121,65.898 193.121,94.142 
		146.443,94.142 146.443,65.898 	"/>
	<polyline fill="none" stroke="#FFFFFF" stroke-width="4.7" stroke-miterlimit="10" points="193.121,65.898 193.121,94.142 
		146.443,94.142 146.443,65.898 149.611,65.898 149.611,57.708 166.26,57.742 166.26,66.066 173.236,66.099 173.236,57.742 
		189.953,57.742 	"/>
	<g>
		<path fill="none" d="M169.782,96.693"/>
	</g>
	<path fill="none" stroke="#FFFFFF" stroke-width="3.5159" stroke-miterlimit="10" d="M197.332,51.171L197.332,51.171
		c0,0-2.925,1.079-6.61-1.922c-2.756-2.243-3.989-3.083-5.952-4.94c-1.965-1.856,0.75-4.159,0.75-4.159l0.155-0.121"/>
</g>
</svg>
