<?xml version="1.0" encoding="utf-8"?>
<!-- Generator: Adobe Illustrator 15.1.0, SVG Export Plug-In . SVG Version: 6.00 Build 0)  -->
<!DOCTYPE svg PUBLIC "-//W3C//DTD SVG 1.1//EN" "http://www.w3.org/Graphics/SVG/1.1/DTD/svg11.dtd">
<svg version="1.1" xmlns="http://www.w3.org/2000/svg" xmlns:xlink="http://www.w3.org/1999/xlink" x="0px" y="0px" width="231px"
	 height="229px" viewBox="0 0 231 229" enable-background="new 0 0 231 229" xml:space="preserve">
<g id="compass_icon">
</g>
<g id="Layer_3">
</g>
<g id="Layer_4">
	<g>
		<path fill="#FFFFFF" d="M10.543,156.07h3.534v24.137h11.566v2.932H10.543V156.07z"/>
		<path fill="#FFFFFF" d="M46.446,173.258c0,7.189-5.02,10.322-9.679,10.322c-5.221,0-9.317-3.855-9.317-10
			c0-6.467,4.297-10.281,9.639-10.281C42.671,163.299,46.446,167.355,46.446,173.258z M31.064,173.459
			c0,4.258,2.41,7.471,5.864,7.471c3.373,0,5.903-3.174,5.903-7.551c0-3.293-1.646-7.43-5.823-7.43
			C32.872,165.949,31.064,169.805,31.064,173.459z"/>
		<path fill="#FFFFFF" d="M64.558,178.48c0,1.686,0.081,3.332,0.281,4.658h-3.173l-0.281-2.451h-0.121
			c-1.084,1.527-3.173,2.893-5.944,2.893c-3.936,0-5.944-2.771-5.944-5.582c0-4.699,4.177-7.27,11.687-7.229v-0.402
			c0-1.566-0.442-4.498-4.418-4.459c-1.848,0-3.735,0.523-5.101,1.447l-0.803-2.369c1.606-1.006,3.976-1.688,6.426-1.688
			c5.944,0,7.39,4.057,7.39,7.912V178.48z M61.144,173.219c-3.855-0.08-8.233,0.602-8.233,4.377c0,2.33,1.526,3.373,3.293,3.373
			c2.57,0,4.217-1.605,4.779-3.252c0.121-0.402,0.161-0.803,0.161-1.125V173.219z"/>
		<path fill="#FFFFFF" d="M87.007,154.623v23.494c0,1.729,0.08,3.695,0.16,5.021h-3.132l-0.161-3.373h-0.121
			c-1.044,2.168-3.374,3.814-6.546,3.814c-4.699,0-8.354-3.977-8.354-9.879c-0.04-6.467,4.017-10.402,8.715-10.402
			c3.012,0,4.98,1.406,5.863,2.932h0.081v-11.607H87.007z M83.513,171.611c0-0.441-0.04-1.043-0.161-1.484
			c-0.522-2.209-2.45-4.057-5.101-4.057c-3.655,0-5.823,3.213-5.823,7.469c0,3.936,1.968,7.189,5.743,7.189
			c2.37,0,4.539-1.605,5.181-4.217c0.121-0.482,0.161-0.965,0.161-1.525V171.611z"/>
		<path fill="#FFFFFF" d="M101.544,156.471c2.128-0.361,4.659-0.602,7.43-0.602c5.02,0,8.595,1.205,10.964,3.373
			c2.45,2.209,3.855,5.342,3.855,9.719c0,4.418-1.405,8.033-3.896,10.523c-2.57,2.529-6.747,3.895-12.008,3.895
			c-2.53,0-4.578-0.121-6.345-0.32V156.471z M105.038,180.408c0.883,0.119,2.168,0.16,3.534,0.16c7.51,0,11.525-4.178,11.525-11.486
			c0.041-6.387-3.574-10.441-10.963-10.441c-1.807,0-3.173,0.16-4.096,0.361V180.408z"/>
		<path fill="#FFFFFF" d="M131.784,156.07v27.068h-3.534V156.07H131.784z"/>
		<path fill="#FFFFFF" d="M143.631,183.139v-11.486l-8.594-15.582h4.016l3.816,7.469c1.004,2.049,1.847,3.695,2.689,5.582h0.081
			c0.724-1.766,1.687-3.533,2.731-5.582l3.895-7.469h3.937l-9.036,15.541v11.527H143.631z"/>
		<path fill="#FFFFFF" d="M167.807,156.07h3.535v24.137h11.566v2.932h-15.102V156.07z"/>
		<path fill="#FFFFFF" d="M190.377,183.139l-8.876-27.068h3.815l4.217,13.332c1.125,3.656,2.129,6.949,2.892,10.121h0.08
			c0.763-3.133,1.848-6.547,3.093-10.08l4.578-13.373h3.734l-9.678,27.068H190.377z"/>
		<path fill="#FFFFFF" d="M206.801,156.07h3.535v24.137h11.566v2.932h-15.102V156.07z"/>
		<path fill="#FFFFFF" d="M60.923,192.471c1.526-0.361,3.976-0.602,6.386-0.602c3.494,0,5.743,0.602,7.39,1.967
			c1.406,1.045,2.289,2.652,2.289,4.779c0,2.65-1.767,4.941-4.579,5.945v0.119c2.57,0.604,5.583,2.732,5.583,6.748
			c0,2.328-0.923,4.137-2.329,5.422c-1.848,1.727-4.9,2.529-9.317,2.529c-2.41,0-4.257-0.16-5.422-0.32V192.471z M64.417,203.557
			h3.172c3.655,0,5.824-1.969,5.824-4.58c0-3.131-2.37-4.416-5.904-4.416c-1.606,0-2.53,0.119-3.092,0.24V203.557z M64.417,216.488
			c0.723,0.119,1.687,0.16,2.932,0.16c3.615,0,6.948-1.326,6.948-5.262c0-3.654-3.173-5.221-6.988-5.221h-2.892V216.488z"/>
		<path fill="#FFFFFF" d="M98.834,213.797c0,2.049,0.04,3.814,0.16,5.342h-3.132l-0.201-3.174h-0.081
			c-0.883,1.566-2.972,3.615-6.426,3.615c-3.052,0-6.707-1.727-6.707-8.514v-11.365h3.534v10.723c0,3.693,1.165,6.225,4.337,6.225
			c2.37,0,4.017-1.646,4.659-3.254c0.201-0.48,0.321-1.123,0.321-1.807v-11.887h3.534V213.797z"/>
		<path fill="#FFFFFF" d="M108.633,194.238c0,1.205-0.843,2.168-2.249,2.168c-1.285,0-2.128-0.963-2.128-2.168
			s0.883-2.209,2.208-2.209C107.749,192.029,108.633,192.994,108.633,194.238z M104.697,219.139v-19.438h3.534v19.438H104.697z"/>
		<path fill="#FFFFFF" d="M114.094,190.623h3.534v28.516h-3.534V190.623z"/>
		<path fill="#FFFFFF" d="M140.318,190.623v23.494c0,1.729,0.08,3.695,0.16,5.021h-3.132l-0.161-3.373h-0.12
			c-1.044,2.168-3.374,3.814-6.546,3.814c-4.699,0-8.354-3.977-8.354-9.879c-0.041-6.467,4.016-10.402,8.715-10.402
			c3.012,0,4.98,1.406,5.863,2.932h0.08v-11.607H140.318z M136.824,207.611c0-0.441-0.039-1.043-0.16-1.484
			c-0.521-2.209-2.449-4.057-5.101-4.057c-3.655,0-5.823,3.213-5.823,7.469c0,3.936,1.968,7.189,5.742,7.189
			c2.37,0,4.539-1.605,5.182-4.217c0.121-0.482,0.16-0.965,0.16-1.525V207.611z"/>
		<path fill="#FFFFFF" d="M153.61,219.139v-2.17l2.771-2.689c6.668-6.346,9.72-9.719,9.72-13.656c0-2.65-1.245-5.1-5.141-5.1
			c-2.37,0-4.337,1.205-5.542,2.209l-1.125-2.49c1.768-1.486,4.378-2.65,7.35-2.65c5.623,0,7.992,3.855,7.992,7.59
			c0,4.82-3.494,8.715-8.996,14.018l-2.049,1.928v0.08h11.688v2.932H153.61z"/>
	</g>
	<g>
		<path fill="none" stroke="#FFFFFF" stroke-width="6" stroke-miterlimit="10" d="M105.616,49.342c0,0,16.761,2.906,22.716,4.123
			c5.953,1.213,4.967,2.524,5.182,7.461c0.074,1.73-0.701,8.022-1.246,11.779c-1.012,6.967-0.904,7.654-2.033,9.912"/>
		<path fill="none" stroke="#FFFFFF" stroke-width="6" stroke-miterlimit="10" d="M105.616,70.825l2.669-6.746
			c0,0,7.408,2.341,11.481,0.944c-1.557,4.764-2.254,9.926-0.297,12.581c-3.776,0.56-6.004,1.481-6.004,1.481"/>
		<path fill="none" stroke="#FFFFFF" stroke-width="6" stroke-miterlimit="10" d="M113.038,42.655
			c4.449-3.617,7.628-8.655,7.628-8.655s5.791-0.764,11.43-0.92c5.637-0.155,14.266-4.786,14.266-4.786s14.709,4.96,24.381,4.894
			c5.199,5.204,10.643,6.877,13.986,7.926c5.777,1.814,11.457-4.856,11.457-4.856s-13.002-9.467-22.479-16.504
			c-5.99-4.446-19.004-6.874-28.814-8.035c0,0,0,0-6.199-0.984c-7.369-1.17-19.387,5.706-27.983,10.578
			c-5.996,3.401-13.46,11.446-22.049,15.888c-7.217,3.73-11.626,11.45-13.508,15.469c-3.622,7.723-15.45,28.358-19.902,30.259
			c-4.45,1.9-27.636,3.8-27.636,3.8l6.371,45.56c0,0,48.465-17.631,58.355-18.564c9.892-0.932,19.725-6.201,27.424-11.514
			c5.236-3.614,14.611-3.377,24.504-2.707c9.889,0.67,22.693,4.168,22.693,4.168s2.924-5.037,0.992-9.784
			c-1.93-4.747-6.234-7.366-13.537-9.012c-5.646-1.271-15.676-1.701-24.184-2.257c-6.449-0.422-12.021-0.916-14.154-1.904
			c-0.809-0.374-1.696-0.936-2.616-1.627c-2.758-2.075-5.801-5.328-7.849-8.261c-1.446-2.071-2.394-3.983-2.394-5.21
			c0-3.543,1.148-15.454,1.148-15.454S108.585,46.118,113.038,42.655"/>
	</g>
	<g>
		<path fill="none" d="M166.652,83.572"/>
	</g>
	<polygon fill="none" stroke="#FFFFFF" stroke-width="2.3927" stroke-miterlimit="10" points="158.248,52.694 158.248,44.141 
		175.639,44.176 175.639,52.659 182.924,52.694 182.924,44.141 200.383,43.966 200.383,52.694 203.691,52.694 203.691,82.193 
		154.939,82.193 154.939,52.694 	"/>
</g>
</svg>
