<?xml version="1.0" encoding="utf-8"?>
<!-- Generator: Adobe Illustrator 15.1.0, SVG Export Plug-In . SVG Version: 6.00 Build 0)  -->
<!DOCTYPE svg PUBLIC "-//W3C//DTD SVG 1.1//EN" "http://www.w3.org/Graphics/SVG/1.1/DTD/svg11.dtd">
<svg version="1.1" xmlns="http://www.w3.org/2000/svg" xmlns:xlink="http://www.w3.org/1999/xlink" x="0px" y="0px" width="231px"
	 height="229px" viewBox="0 0 231 229" enable-background="new 0 0 231 229" xml:space="preserve">
<g id="Layer_2">
</g>
<g id="Layer_5">
	<g>
		<path fill="#FFFFFF" d="M70.55,192.854c-0.201-3.775-0.442-8.354-0.442-11.688h-0.08c-0.964,3.133-2.048,6.547-3.414,10.281
			l-4.779,13.133h-2.651l-4.417-12.893c-1.285-3.855-2.33-7.309-3.092-10.521h-0.081c-0.081,3.373-0.281,7.871-0.522,11.969
			l-0.723,11.605h-3.333l1.888-27.068h4.458l4.619,13.092c1.125,3.334,2.008,6.307,2.731,9.117h0.08
			c0.723-2.73,1.687-5.703,2.892-9.117l4.819-13.092h4.458l1.687,27.068h-3.454L70.55,192.854z"/>
		<path fill="#FFFFFF" d="M82.115,195.664c0.08,4.779,3.092,6.748,6.667,6.748c2.53,0,4.096-0.443,5.381-1.004l0.643,2.529
			c-1.245,0.563-3.414,1.244-6.506,1.244c-5.984,0-9.559-3.975-9.559-9.838c0-5.865,3.454-10.443,9.117-10.443
			c6.386,0,8.032,5.543,8.032,9.117c0,0.723-0.04,1.244-0.121,1.646H82.115z M92.477,193.135c0.04-2.209-0.924-5.703-4.899-5.703
			c-3.615,0-5.141,3.252-5.422,5.703H92.477z"/>
		<path fill="#FFFFFF" d="M117.014,176.227v23.494c0,1.727,0.08,3.695,0.161,5.02h-3.133l-0.161-3.373h-0.121
			c-1.044,2.168-3.374,3.814-6.546,3.814c-4.699,0-8.354-3.975-8.354-9.879c-0.041-6.467,4.016-10.402,8.715-10.402
			c3.012,0,4.98,1.406,5.863,2.932h0.081v-11.605H117.014z M113.52,193.215c0-0.441-0.041-1.045-0.161-1.486
			c-0.522-2.209-2.45-4.057-5.101-4.057c-3.655,0-5.823,3.213-5.823,7.471c0,3.936,1.968,7.188,5.743,7.188
			c2.369,0,4.538-1.605,5.181-4.217c0.12-0.48,0.161-0.963,0.161-1.525V193.215z"/>
		<path fill="#FFFFFF" d="M126.854,179.84c0,1.205-0.844,2.17-2.25,2.17c-1.285,0-2.128-0.965-2.128-2.17
			c0-1.203,0.884-2.207,2.208-2.207C125.969,177.633,126.854,178.596,126.854,179.84z M122.917,204.74v-19.438h3.534v19.438H122.917
			z"/>
		<path fill="#FFFFFF" d="M148.579,199.398c0,2.049,0.04,3.816,0.161,5.342h-3.133l-0.201-3.172h-0.08
			c-0.883,1.566-2.972,3.613-6.426,3.613c-3.053,0-6.707-1.727-6.707-8.514v-11.365h3.534v10.723c0,3.695,1.165,6.225,4.338,6.225
			c2.369,0,4.016-1.646,4.658-3.252c0.201-0.482,0.321-1.125,0.321-1.809v-11.887h3.534V199.398z"/>
		<path fill="#FFFFFF" d="M154.441,190.564c0-2.049-0.08-3.656-0.16-5.262h3.093l0.16,3.172h0.12
			c1.085-1.846,2.893-3.574,6.146-3.574c2.61,0,4.618,1.607,5.462,3.896h0.08c0.603-1.125,1.406-1.928,2.209-2.531
			c1.164-0.883,2.41-1.365,4.257-1.365c2.61,0,6.426,1.688,6.426,8.434v11.406h-3.454v-10.963c0-3.775-1.405-5.984-4.217-5.984
			c-2.048,0-3.574,1.486-4.217,3.172c-0.16,0.523-0.281,1.125-0.281,1.768v12.008h-3.453v-11.646c0-3.092-1.366-5.301-4.057-5.301
			c-2.169,0-3.815,1.768-4.378,3.533c-0.2,0.482-0.28,1.125-0.28,1.729v11.686h-3.455V190.564z"/>
	</g>
	<polygon fill="none" stroke="#FFFFFF" stroke-width="5.3216" stroke-miterlimit="10" points="38.056,98.659 38.056,86.264 
		63.255,86.217 63.255,98.93 73.815,98.964 73.815,86.315 99.117,86.315 99.117,98.659 103.912,98.659 103.912,141.409 
		33.261,141.409 33.261,98.659 	"/>
	<polygon fill="none" stroke="#FFFFFF" stroke-width="5.3216" stroke-miterlimit="10" points="130.74,98.659 130.74,86.264 
		155.939,86.217 155.939,98.93 166.499,98.964 166.499,86.315 191.801,86.315 191.801,98.659 196.596,98.659 196.596,141.409 
		125.945,141.409 125.945,98.659 	"/>
</g>
</svg>
