<?xml version="1.0" encoding="utf-8"?>
<!-- Generator: Adobe Illustrator 15.1.0, SVG Export Plug-In . SVG Version: 6.00 Build 0)  -->
<!DOCTYPE svg PUBLIC "-//W3C//DTD SVG 1.1//EN" "http://www.w3.org/Graphics/SVG/1.1/DTD/svg11.dtd">
<svg version="1.1" xmlns="http://www.w3.org/2000/svg" xmlns:xlink="http://www.w3.org/1999/xlink" x="0px" y="0px" width="231px"
	 height="229px" viewBox="0 0 231 229" enable-background="new 0 0 231 229" xml:space="preserve">
<g id="Layer_3">
</g>
<g id="Layer_4">
	<g>
		<path fill="none" stroke="#FFFFFF" stroke-width="3.5159" stroke-miterlimit="10" d="M109.097,65.508
			c0,0,16.761,2.906,22.716,4.123c5.953,1.213,4.967,2.524,5.182,7.461c0.075,1.73-0.7,8.022-1.245,11.779
			c-1.012,6.967-0.904,7.654-2.034,9.912"/>
		<path fill="none" stroke="#FFFFFF" stroke-width="3.5159" stroke-miterlimit="10" d="M109.097,86.991l2.669-6.746
			c0,0,7.408,2.341,11.481,0.944c-1.557,4.764-2.255,9.926-0.298,12.581c-3.775,0.56-6.004,1.481-6.004,1.481"/>
		<path fill="none" stroke="#FFFFFF" stroke-width="3.5159" stroke-miterlimit="10" d="M116.519,58.821
			c4.448-3.617,7.629-8.655,7.629-8.655s5.791-0.764,11.429-0.92c5.637-0.155,14.266-4.786,14.266-4.786s14.71,4.96,24.382,4.894
			c5.198,5.204,10.643,6.877,13.985,7.926c5.778,1.814,11.457-4.856,11.457-4.856s-13.002-9.467-22.478-16.504
			c-5.991-4.446-19.004-6.874-28.815-8.035c0,0,0,0-6.198-0.984c-7.369-1.17-19.387,5.706-27.983,10.578
			c-5.996,3.401-13.461,11.446-22.05,15.888c-7.217,3.73-11.626,11.45-13.508,15.469c-3.622,7.723-15.45,28.358-19.902,30.259
			c-4.45,1.9-27.636,3.8-27.636,3.8l6.371,45.561c0,0,48.465-17.633,58.355-18.566c9.892-0.932,19.725-6.201,27.424-11.514
			c5.236-3.613,14.611-3.377,24.503-2.707c9.89,0.67,22.693,4.168,22.693,4.168s2.924-5.037,0.993-9.784s-6.235-7.366-13.538-9.012
			c-5.646-1.271-15.676-1.701-24.184-2.257c-6.448-0.422-12.021-0.916-14.153-1.904c-0.81-0.374-1.696-0.936-2.616-1.627
			c-2.758-2.075-5.801-5.328-7.849-8.261c-1.446-2.071-2.394-3.983-2.394-5.21c0-3.543,1.148-15.454,1.148-15.454
			S112.066,62.284,116.519,58.821"/>
	</g>
	<polygon fill="none" stroke="#FFFFFF" stroke-width="3.5159" stroke-miterlimit="10" points="149.962,68.942 149.962,60.753 
		166.61,60.988 166.61,69.111 173.587,69.144 173.587,60.787 190.304,60.787 190.304,68.942 193.472,68.942 193.472,97.187 
		146.794,97.187 146.794,68.942 	"/>
	<polyline fill="none" stroke="#FFFFFF" stroke-width="3.5159" stroke-miterlimit="10" points="193.472,68.942 193.472,97.187 
		146.794,97.187 146.794,68.942 149.962,68.942 149.962,60.753 166.61,60.787 166.61,69.111 173.587,69.144 173.587,60.787 
		190.304,60.787 	"/>
	<g>
		<path fill="none" d="M170.133,99.738"/>
	</g>
	<g>
		<path fill="#FFFFFF" d="M75.838,165.408c2.128-0.361,4.659-0.602,7.43-0.602c5.02,0,8.595,1.205,10.964,3.373
			c2.45,2.209,3.855,5.342,3.855,9.719c0,4.418-1.406,8.033-3.896,10.523c-2.57,2.529-6.747,3.895-12.008,3.895
			c-2.53,0-4.578-0.121-6.345-0.32V165.408z M79.333,189.346c0.883,0.119,2.168,0.16,3.534,0.16c7.51,0,11.526-4.178,11.526-11.486
			c0.041-6.387-3.574-10.441-10.964-10.441c-1.807,0-3.173,0.16-4.096,0.361V189.346z"/>
		<path fill="#FFFFFF" d="M107.484,192.076V180.59l-8.595-15.582h4.016l3.815,7.469c1.004,2.049,1.847,3.695,2.691,5.582h0.08
			c0.723-1.766,1.687-3.533,2.731-5.582l3.896-7.469h3.936l-9.036,15.541v11.527H107.484z"/>
		<path fill="#FFFFFF" d="M126.399,165.008v27.068h-3.534v-27.068H126.399z"/>
		<path fill="#FFFFFF" d="M140.615,188.061c1.004,0.602,3.293,1.605,5.783,1.605c4.498,0,5.943-2.852,5.903-5.061
			c-0.04-3.654-3.333-5.221-6.747-5.221h-1.968v-2.65h1.968c2.57,0,5.823-1.326,5.823-4.418c0-2.088-1.325-3.936-4.578-3.936
			c-2.089,0-4.097,0.924-5.221,1.727l-0.964-2.57c1.405-1.004,4.057-2.008,6.867-2.008c5.141,0,7.471,3.053,7.471,6.225
			c0,2.73-1.647,5.02-4.82,6.186v0.08c3.213,0.602,5.783,3.012,5.824,6.666c0,4.178-3.294,7.832-9.519,7.832
			c-2.932,0-5.502-0.924-6.787-1.768L140.615,188.061z"/>
	</g>
</g>
</svg>
