<?xml version="1.0" encoding="utf-8"?>
<!-- Generator: Adobe Illustrator 15.1.0, SVG Export Plug-In . SVG Version: 6.00 Build 0)  -->
<!DOCTYPE svg PUBLIC "-//W3C//DTD SVG 1.1//EN" "http://www.w3.org/Graphics/SVG/1.1/DTD/svg11.dtd">
<svg version="1.1" xmlns="http://www.w3.org/2000/svg" xmlns:xlink="http://www.w3.org/1999/xlink" x="0px" y="0px" width="231px"
	 height="229px" viewBox="0 0 231 229" enable-background="new 0 0 231 229" xml:space="preserve">
<g id="Layer_2">
</g>
<g id="Layer_5">
	<g>
		<path fill="#FFFFFF" d="M80.931,177.672v11.326h13.092v-11.326h3.534v27.068h-3.534v-12.691H80.931v12.691h-3.534v-27.068H80.931z
			"/>
		<path fill="#FFFFFF" d="M117.154,200.082c0,1.688,0.081,3.334,0.281,4.658h-3.172l-0.281-2.449h-0.121
			c-1.084,1.525-3.173,2.891-5.944,2.891c-3.936,0-5.944-2.77-5.944-5.582c0-4.699,4.177-7.27,11.687-7.229v-0.402
			c0-1.566-0.442-4.498-4.418-4.457c-1.848,0-3.735,0.521-5.101,1.445l-0.803-2.369c1.606-1.004,3.976-1.688,6.426-1.688
			c5.944,0,7.389,4.057,7.389,7.912V200.082z M113.741,194.82c-3.855-0.08-8.233,0.604-8.233,4.379c0,2.328,1.526,3.373,3.293,3.373
			c2.57,0,4.217-1.607,4.779-3.254c0.121-0.4,0.161-0.803,0.161-1.123V194.82z"/>
		<path fill="#FFFFFF" d="M122.857,191.367c0-2.289-0.041-4.258-0.161-6.064h3.093l0.16,3.855h0.121
			c0.883-2.611,3.052-4.258,5.422-4.258c0.361,0,0.643,0.041,0.963,0.08v3.334c-0.361-0.08-0.723-0.08-1.204-0.08
			c-2.49,0-4.257,1.848-4.739,4.498c-0.08,0.482-0.121,1.084-0.121,1.646v10.361h-3.533V191.367z"/>
		<path fill="#FFFFFF" d="M152.335,176.227v23.494c0,1.727,0.08,3.695,0.16,5.02h-3.132l-0.161-3.373h-0.12
			c-1.045,2.168-3.374,3.814-6.547,3.814c-4.699,0-8.354-3.975-8.354-9.879c-0.04-6.467,4.017-10.402,8.715-10.402
			c3.013,0,4.98,1.406,5.863,2.932h0.081v-11.605H152.335z M148.841,193.215c0-0.441-0.04-1.045-0.161-1.486
			c-0.521-2.209-2.449-4.057-5.1-4.057c-3.655,0-5.824,3.213-5.824,7.471c0,3.936,1.969,7.188,5.743,7.188
			c2.37,0,4.538-1.605,5.181-4.217c0.121-0.48,0.161-0.963,0.161-1.525V193.215z"/>
	</g>
	<polygon fill="none" stroke="#FFFFFF" stroke-width="5.3216" stroke-miterlimit="10" points="38.056,118.659 38.056,106.264 
		63.255,106.217 63.255,118.93 73.815,118.964 73.815,106.315 99.117,106.315 99.117,118.659 103.912,118.659 103.912,161.409 
		33.261,161.409 33.261,118.659 	"/>
	<polygon fill="none" stroke="#FFFFFF" stroke-width="5.3216" stroke-miterlimit="10" points="130.74,118.659 130.74,106.264 
		155.939,106.217 155.939,118.93 166.499,118.964 166.499,106.315 191.801,106.315 191.801,118.659 196.596,118.659 
		196.596,161.409 125.945,161.409 125.945,118.659 	"/>
	<polygon fill="none" stroke="#FFFFFF" stroke-width="5.3216" stroke-miterlimit="10" points="84.62,40.609 84.62,28.214 
		109.819,28.167 109.819,40.879 120.379,40.914 120.379,28.265 145.681,28.265 145.681,40.609 150.476,40.609 150.476,83.359 
		79.825,83.359 79.825,40.609 	"/>
</g>
</svg>
