<?xml version="1.0" encoding="utf-8"?>
<!-- Generator: Adobe Illustrator 15.1.0, SVG Export Plug-In . SVG Version: 6.00 Build 0)  -->
<!DOCTYPE svg PUBLIC "-//W3C//DTD SVG 1.1//EN" "http://www.w3.org/Graphics/SVG/1.1/DTD/svg11.dtd">
<svg version="1.1" xmlns="http://www.w3.org/2000/svg" xmlns:xlink="http://www.w3.org/1999/xlink" x="0px" y="0px" width="231px"
	 height="229px" viewBox="0 0 231 229" enable-background="new 0 0 231 229" xml:space="preserve">
<g id="Layer_4" display="none">
	<g display="inline">
		<path fill="#FFFFFF" d="M34.793,162.858c1.004,0.602,3.293,1.605,5.783,1.605c4.498,0,5.943-2.851,5.903-5.06
			c-0.04-3.655-3.333-5.222-6.747-5.222h-1.968v-2.65h1.968c2.57,0,5.823-1.325,5.823-4.418c0-2.088-1.325-3.936-4.578-3.936
			c-2.088,0-4.097,0.924-5.221,1.728l-0.964-2.57c1.405-1.005,4.056-2.009,6.867-2.009c5.141,0,7.47,3.053,7.47,6.226
			c0,2.73-1.647,5.02-4.819,6.185v0.08c3.213,0.603,5.783,3.013,5.823,6.667c0,4.177-3.293,7.831-9.518,7.831
			c-2.932,0-5.502-0.924-6.787-1.767L34.793,162.858z"/>
		<path fill="#FFFFFF" d="M63.867,162.617c1.566,1.004,3.815,1.767,6.225,1.767c3.574,0,5.663-1.888,5.663-4.618
			c0-2.49-1.446-3.976-5.101-5.342c-4.417-1.606-7.148-3.936-7.148-7.711c0-4.217,3.494-7.35,8.755-7.35
			c2.731,0,4.779,0.643,5.944,1.325l-0.964,2.852c-0.844-0.521-2.651-1.285-5.101-1.285c-3.695,0-5.101,2.209-5.101,4.057
			c0,2.53,1.646,3.775,5.382,5.221c4.578,1.768,6.867,3.977,6.867,7.952c0,4.177-3.052,7.831-9.438,7.831
			c-2.611,0-5.462-0.803-6.908-1.767L63.867,162.617z"/>
		<path fill="#FFFFFF" d="M83.987,138.359h3.534v12.169h0.081c0.562-1.004,1.446-1.928,2.53-2.53
			c1.044-0.603,2.29-0.964,3.615-0.964c2.61,0,6.787,1.606,6.787,8.273v11.566H97v-11.165c0-3.132-1.165-5.743-4.498-5.743
			c-2.289,0-4.056,1.606-4.739,3.494c-0.201,0.522-0.241,1.045-0.241,1.688v11.727h-3.534V138.359z"/>
		<path fill="#FFFFFF" d="M119.931,162.216c0,1.687,0.081,3.333,0.281,4.658h-3.173l-0.281-2.45h-0.12
			c-1.084,1.526-3.173,2.892-5.944,2.892c-3.936,0-5.944-2.771-5.944-5.582c0-4.699,4.177-7.27,11.687-7.229v-0.402
			c0-1.566-0.441-4.498-4.417-4.458c-1.847,0-3.735,0.522-5.101,1.446l-0.803-2.369c1.606-1.005,3.976-1.688,6.426-1.688
			c5.943,0,7.39,4.057,7.39,7.912V162.216z M116.518,156.954c-3.856-0.08-8.233,0.603-8.233,4.378c0,2.329,1.526,3.373,3.293,3.373
			c2.57,0,4.217-1.606,4.779-3.253c0.12-0.401,0.161-0.803,0.161-1.124V156.954z"/>
		<path fill="#FFFFFF" d="M142.38,138.359v23.494c0,1.728,0.081,3.695,0.161,5.021h-3.133l-0.16-3.373h-0.121
			c-1.044,2.168-3.373,3.814-6.546,3.814c-4.699,0-8.354-3.976-8.354-9.879c-0.04-6.467,4.016-10.402,8.715-10.402
			c3.012,0,4.979,1.406,5.863,2.932h0.081v-11.606H142.38z M138.887,155.348c0-0.441-0.041-1.044-0.161-1.485
			c-0.522-2.209-2.45-4.057-5.101-4.057c-3.654,0-5.823,3.213-5.823,7.47c0,3.936,1.968,7.188,5.743,7.188
			c2.369,0,4.538-1.605,5.181-4.217c0.12-0.481,0.161-0.964,0.161-1.525V155.348z"/>
		<path fill="#FFFFFF" d="M165.873,156.994c0,7.189-5.02,10.321-9.679,10.321c-5.221,0-9.317-3.855-9.317-10
			c0-6.466,4.297-10.281,9.639-10.281C162.098,147.034,165.873,151.091,165.873,156.994z M150.492,157.195
			c0,4.257,2.409,7.47,5.863,7.47c3.373,0,5.903-3.173,5.903-7.55c0-3.294-1.646-7.431-5.823-7.431
			C152.299,149.685,150.492,153.54,150.492,157.195z"/>
		<path fill="#FFFFFF" d="M171.455,147.437l2.611,9.879c0.521,2.169,1.044,4.177,1.405,6.186h0.12
			c0.442-1.969,1.085-4.057,1.728-6.146l3.173-9.919h2.972l3.012,9.719c0.724,2.329,1.285,4.377,1.728,6.346h0.12
			c0.321-1.969,0.843-4.017,1.485-6.306l2.771-9.759h3.494l-6.266,19.438h-3.213l-2.971-9.277c-0.684-2.169-1.246-4.097-1.728-6.386
			h-0.08c-0.482,2.329-1.085,4.338-1.768,6.426l-3.132,9.237h-3.213l-5.864-19.438H171.455z"/>
		<path fill="#FFFFFF" d="M27.465,201.669c-1.566,0.603-4.699,1.486-8.354,1.486c-4.096,0-7.47-1.044-10.12-3.574
			c-2.33-2.249-3.775-5.863-3.775-10.081c0-8.072,5.583-13.976,14.659-13.976c3.133,0,5.623,0.683,6.788,1.245l-0.884,2.852
			c-1.446-0.683-3.253-1.165-5.984-1.165c-6.586,0-10.884,4.097-10.884,10.884c0,6.867,4.096,10.924,10.442,10.924
			c2.289,0,3.855-0.321,4.659-0.723v-8.073h-5.462v-2.811h8.916V201.669z"/>
		<path fill="#FFFFFF" d="M46.621,198.216c0,1.687,0.081,3.333,0.281,4.658h-3.173l-0.281-2.45h-0.121
			c-1.084,1.526-3.173,2.892-5.944,2.892c-3.936,0-5.944-2.771-5.944-5.582c0-4.699,4.177-7.27,11.687-7.229v-0.402
			c0-1.566-0.442-4.498-4.418-4.458c-1.848,0-3.735,0.522-5.101,1.446l-0.803-2.369c1.606-1.005,3.976-1.688,6.426-1.688
			c5.944,0,7.39,4.057,7.39,7.912V198.216z M43.207,192.954c-3.855-0.08-8.233,0.603-8.233,4.378c0,2.329,1.526,3.373,3.293,3.373
			c2.57,0,4.217-1.606,4.779-3.253c0.121-0.401,0.161-0.803,0.161-1.124V192.954z"/>
		<path fill="#FFFFFF" d="M52.323,189.781c0-2.489-0.08-4.498-0.161-6.345h3.133l0.201,3.333h0.081
			c1.405-2.37,3.735-3.735,6.907-3.735c4.739,0,8.273,3.977,8.273,9.84c0,6.988-4.297,10.441-8.875,10.441
			c-2.57,0-4.819-1.124-5.984-3.052h-0.081v10.563h-3.494V189.781z M55.817,194.962c0,0.522,0.04,1.004,0.161,1.446
			c0.643,2.45,2.771,4.137,5.301,4.137c3.735,0,5.904-3.053,5.904-7.511c0-3.855-2.048-7.188-5.783-7.188
			c-2.41,0-4.699,1.687-5.342,4.337c-0.12,0.442-0.241,0.965-0.241,1.406V194.962z"/>
		<path fill="#FFFFFF" d="M83.807,202.874v-27.068h3.855l8.635,13.694c1.968,3.173,3.574,6.024,4.819,8.796l0.121-0.04
			c-0.321-3.615-0.402-6.908-0.402-11.125v-11.325h3.293v27.068h-3.534L92,189.139c-1.888-3.012-3.695-6.104-5.02-9.036l-0.121,0.04
			c0.201,3.414,0.241,6.667,0.241,11.165v11.566H83.807z"/>
		<path fill="#FFFFFF" d="M127.703,192.994c0,7.189-5.021,10.321-9.68,10.321c-5.221,0-9.317-3.855-9.317-10
			c0-6.466,4.297-10.281,9.639-10.281C123.928,183.034,127.703,187.091,127.703,192.994z M112.321,193.195
			c0,4.257,2.41,7.47,5.864,7.47c3.373,0,5.903-3.173,5.903-7.55c0-3.294-1.646-7.431-5.823-7.431
			C114.128,185.685,112.321,189.54,112.321,193.195z"/>
		<path fill="#FFFFFF" d="M144.287,175.806v11.325h13.093v-11.325h3.534v27.068h-3.534v-12.691h-13.093v12.691h-3.533v-27.068
			H144.287z"/>
		<path fill="#FFFFFF" d="M171.194,177.974c0,1.205-0.844,2.169-2.249,2.169c-1.285,0-2.129-0.964-2.129-2.169
			c0-1.204,0.884-2.208,2.209-2.208C170.311,175.766,171.194,176.729,171.194,177.974z M167.258,202.874v-19.438h3.535v19.438
			H167.258z"/>
		<path fill="#FFFFFF" d="M176.655,188.697c0-2.048-0.04-3.655-0.161-5.261h3.133l0.201,3.213h0.08
			c0.964-1.808,3.213-3.615,6.426-3.615c2.691,0,6.867,1.606,6.867,8.273v11.566h-3.533v-11.205c0-3.133-1.165-5.743-4.498-5.743
			c-2.289,0-4.097,1.646-4.739,3.614c-0.161,0.442-0.241,1.045-0.241,1.647v11.687h-3.534V188.697z"/>
		<path fill="#FFFFFF" d="M203.041,178.777v4.659h5.06v2.69h-5.06v10.481c0,2.41,0.682,3.775,2.65,3.775
			c0.964,0,1.525-0.08,2.048-0.24l0.161,2.69c-0.684,0.241-1.768,0.481-3.133,0.481c-1.646,0-2.973-0.562-3.815-1.485
			c-0.964-1.085-1.366-2.812-1.366-5.101v-10.603h-3.012v-2.69h3.012v-3.615L203.041,178.777z"/>
		<path fill="#FFFFFF" d="M211.595,199.3c1.084,0.643,2.932,1.365,4.698,1.365c2.53,0,3.735-1.245,3.735-2.892
			c0-1.687-1.004-2.57-3.574-3.534c-3.534-1.285-5.181-3.173-5.181-5.502c0-3.133,2.57-5.703,6.707-5.703
			c1.968,0,3.694,0.522,4.738,1.205l-0.843,2.57c-0.764-0.482-2.169-1.165-3.977-1.165c-2.088,0-3.213,1.205-3.213,2.651
			c0,1.606,1.125,2.329,3.655,3.333c3.333,1.245,5.1,2.932,5.1,5.823c0,3.454-2.69,5.863-7.229,5.863
			c-2.129,0-4.097-0.562-5.462-1.365L211.595,199.3z"/>
	</g>
	<polygon display="inline" opacity="0.5" fill="#FFFFFF" points="48.088,118.271 55.666,108.424 55.666,88.313 48.088,95.942 	"/>
	<polygon display="inline" fill="#FFFFFF" points="47.995,94.753 55.572,87.123 55.572,66.06 47.995,72.424 	"/>
	<polygon display="inline" opacity="0.5" fill="#FFFFFF" points="180.455,118.271 172.877,108.424 172.877,88.313 180.455,95.942 	
		"/>
	<polygon display="inline" fill="#FFFFFF" points="180.548,94.752 172.971,87.123 172.971,66.06 180.548,72.424 	"/>
	
		<line display="inline" fill="none" stroke="#FFFFFF" stroke-width="0.5" stroke-miterlimit="10" x1="63.408" y1="100.242" x2="166.003" y2="100.242"/>
	
		<line display="inline" fill="none" stroke="#FFFFFF" stroke-width="0.5" stroke-miterlimit="10" x1="61.158" y1="103.283" x2="168.13" y2="103.283"/>
	
		<line display="inline" fill="none" stroke="#FFFFFF" stroke-width="0.75" stroke-miterlimit="10" x1="59.189" y1="106.095" x2="170.149" y2="106.095"/>
	
		<line display="inline" fill="none" stroke="#FFFFFF" stroke-width="0.75" stroke-miterlimit="10" x1="56.502" y1="109.486" x2="172.253" y2="109.486"/>
	<line display="inline" fill="none" stroke="#FFFFFF" stroke-miterlimit="10" x1="53.908" y1="113.32" x2="174.878" y2="113.32"/>
	<line display="inline" fill="none" stroke="#FFFFFF" stroke-miterlimit="10" x1="50.814" y1="117.461" x2="177.878" y2="117.461"/>
	
		<line display="inline" fill="none" stroke="#FFFFFF" stroke-width="1.5" stroke-miterlimit="10" x1="47.218" y1="121.893" x2="181.556" y2="121.893"/>
	
		<line display="inline" fill="none" stroke="#FFFFFF" stroke-width="1.5" stroke-miterlimit="10" x1="43.47" y1="127.117" x2="185.325" y2="127.117"/>
	
		<line display="inline" fill="none" stroke="#FFFFFF" stroke-width="0.25" stroke-miterlimit="10" x1="65.4" y1="97.541" x2="164.128" y2="97.541"/>
	
		<line display="inline" fill="none" stroke="#FFFFFF" stroke-width="1.5" stroke-linejoin="round" stroke-miterlimit="10" x1="38.588" y1="132.633" x2="189.411" y2="132.633"/>
	
		<line display="inline" fill="none" stroke="#FFFFFF" stroke-width="0.25" stroke-linejoin="round" stroke-miterlimit="10" x1="162.226" y1="94.757" x2="67.402" y2="94.757"/>
	<g display="inline">
		<polygon fill="#FFFFFF" points="187.952,133.27 162.226,94.88 162.226,94.625 189.411,131.887 		"/>
	</g>
	<g display="inline">
		<polygon fill="#FFFFFF" points="39.993,133.363 67.448,94.833 67.402,94.614 38.588,131.926 		"/>
	</g>
	<g display="inline">
		<polygon fill="#FFFFFF" points="53.958,131.916 52.458,131.916 76.497,94.833 76.774,94.833 		"/>
	</g>
	<g display="inline">
		<polygon fill="#FFFFFF" points="69.416,131.895 67.916,131.895 86.222,94.75 86.5,94.75 		"/>
	</g>
	<g display="inline">
		<polygon fill="#FFFFFF" points="84.749,131.957 83.249,131.957 95.208,94.757 95.485,94.757 		"/>
	</g>
	<g display="inline">
		<polygon fill="#FFFFFF" points="99.952,132.604 98.452,132.604 104.989,94.757 105.266,94.757 		"/>
	</g>
	<g display="inline">
		<polygon fill="#FFFFFF" points="115.587,132.242 114.088,132.242 114.681,94.757 114.958,94.757 		"/>
	</g>
	<g display="inline">
		<polygon fill="#FFFFFF" points="175.396,132.072 176.896,132.072 152.745,94.818 152.468,94.818 		"/>
	</g>
	<g display="inline">
		<polygon fill="#FFFFFF" points="160.177,132.135 161.677,132.135 142.937,94.729 142.659,94.729 		"/>
	</g>
	<g display="inline">
		<polygon fill="#FFFFFF" points="129.253,132.166 130.753,132.166 124.292,94.729 124.015,94.729 		"/>
	</g>
	<g display="inline">
		<polygon fill="#FFFFFF" points="144.614,132.135 146.114,132.135 133.937,94.708 133.659,94.708 		"/>
	</g>
	<polygon display="inline" fill="#FFFFFF" points="127.667,117.166 101.833,117.666 102.667,109.333 126.667,109.667 	"/>
	<rect x="105.369" y="74.557" display="inline" opacity="0.5" fill="#FFFFFF" width="19.334" height="19.333"/>
	<rect x="105.369" y="54.724" display="inline" fill="#FFFFFF" width="19.334" height="19.333"/>
</g>
<g id="Layer_2">
</g>
<g id="Layer_5">
	<g>
		<path fill="#FFFFFF" d="M58.302,192.049H47.82v9.76h11.727v2.932H44.286v-27.068h14.659v2.932H47.82v8.555h10.482V192.049z"/>
		<path fill="#FFFFFF" d="M65.61,185.303l2.771,4.176c0.763,1.086,1.365,2.049,2.008,3.133h0.081
			c0.643-1.123,1.285-2.127,1.968-3.172l2.691-4.137h3.855l-6.626,9.398l6.787,10.039h-3.976l-2.892-4.377
			c-0.763-1.125-1.406-2.209-2.088-3.373h-0.08c-0.643,1.164-1.285,2.209-2.048,3.373l-2.812,4.377h-3.896l6.908-9.92l-6.586-9.518
			H65.61z"/>
		<path fill="#FFFFFF" d="M87.336,180.645v4.658h5.06v2.691h-5.06v10.48c0,2.41,0.683,3.775,2.65,3.775
			c0.964,0,1.526-0.08,2.048-0.24l0.161,2.691c-0.683,0.24-1.767,0.48-3.133,0.48c-1.646,0-2.972-0.561-3.815-1.484
			c-0.964-1.086-1.366-2.813-1.366-5.102v-10.602H80.87v-2.691h3.012v-3.615L87.336,180.645z"/>
		<path fill="#FFFFFF" d="M96.372,191.367c0-2.289-0.04-4.258-0.161-6.064h3.093l0.16,3.855h0.121
			c0.884-2.611,3.052-4.258,5.422-4.258c0.361,0,0.643,0.041,0.964,0.08v3.334c-0.361-0.08-0.723-0.08-1.205-0.08
			c-2.49,0-4.257,1.848-4.739,4.498c-0.08,0.482-0.121,1.084-0.121,1.646v10.361h-3.534V191.367z"/>
		<path fill="#FFFFFF" d="M111.07,195.664c0.08,4.779,3.092,6.748,6.666,6.748c2.531,0,4.097-0.443,5.382-1.004l0.643,2.529
			c-1.245,0.563-3.413,1.244-6.506,1.244c-5.984,0-9.559-3.975-9.559-9.838c0-5.865,3.454-10.443,9.116-10.443
			c6.387,0,8.033,5.543,8.033,9.117c0,0.723-0.041,1.244-0.121,1.646H111.07z M121.432,193.135c0.04-2.209-0.924-5.703-4.899-5.703
			c-3.615,0-5.141,3.252-5.422,5.703H121.432z"/>
		<path fill="#FFFFFF" d="M129.223,190.564c0-2.049-0.08-3.656-0.161-5.262h3.093l0.16,3.172h0.121
			c1.084-1.846,2.891-3.574,6.145-3.574c2.61,0,4.618,1.607,5.462,3.896h0.08c0.603-1.125,1.405-1.928,2.209-2.531
			c1.165-0.883,2.409-1.365,4.257-1.365c2.61,0,6.426,1.688,6.426,8.434v11.406h-3.453v-10.963c0-3.775-1.406-5.984-4.218-5.984
			c-2.048,0-3.574,1.486-4.217,3.172c-0.161,0.523-0.281,1.125-0.281,1.768v12.008h-3.454v-11.646c0-3.092-1.365-5.301-4.056-5.301
			c-2.169,0-3.815,1.768-4.378,3.533c-0.201,0.482-0.281,1.125-0.281,1.729v11.686h-3.453V190.564z"/>
		<path fill="#FFFFFF" d="M164.684,195.664c0.08,4.779,3.092,6.748,6.666,6.748c2.531,0,4.097-0.443,5.382-1.004l0.643,2.529
			c-1.245,0.563-3.413,1.244-6.506,1.244c-5.983,0-9.559-3.975-9.559-9.838c0-5.865,3.454-10.443,9.116-10.443
			c6.387,0,8.033,5.543,8.033,9.117c0,0.723-0.041,1.244-0.121,1.646H164.684z M175.045,193.135c0.04-2.209-0.924-5.703-4.899-5.703
			c-3.614,0-5.141,3.252-5.422,5.703H175.045z"/>
	</g>
	<polygon fill="none" stroke="#FFFFFF" stroke-width="5.3216" stroke-miterlimit="10" points="38.056,118.659 38.056,106.264 
		63.255,106.217 63.255,118.93 73.815,118.964 73.815,106.315 99.117,106.315 99.117,118.659 103.912,118.659 103.912,161.409 
		33.261,161.409 33.261,118.659 	"/>
	<polygon fill="none" stroke="#FFFFFF" stroke-width="5.3216" stroke-miterlimit="10" points="130.74,118.659 130.74,106.264 
		155.939,106.217 155.939,118.93 166.499,118.964 166.499,106.315 191.801,106.315 191.801,118.659 196.596,118.659 
		196.596,161.409 125.945,161.409 125.945,118.659 	"/>
	<polygon fill="none" stroke="#FFFFFF" stroke-width="5.3216" stroke-miterlimit="10" points="38.056,40.659 38.056,28.264 
		63.255,28.217 63.255,40.93 73.815,40.964 73.815,28.315 99.117,28.315 99.117,40.659 103.912,40.659 103.912,83.409 
		33.261,83.409 33.261,40.659 	"/>
	<polygon fill="none" stroke="#FFFFFF" stroke-width="5.3216" stroke-miterlimit="10" points="130.74,40.659 130.74,28.264 
		155.939,28.217 155.939,40.93 166.499,40.964 166.499,28.315 191.801,28.315 191.801,40.659 196.596,40.659 196.596,83.409 
		125.945,83.409 125.945,40.659 	"/>
</g>
</svg>
