<?xml version="1.0" encoding="utf-8"?>
<!-- Generator: Adobe Illustrator 15.1.0, SVG Export Plug-In . SVG Version: 6.00 Build 0)  -->
<!DOCTYPE svg PUBLIC "-//W3C//DTD SVG 1.1//EN" "http://www.w3.org/Graphics/SVG/1.1/DTD/svg11.dtd" [
	<!ENTITY ns_extend "http://ns.adobe.com/Extensibility/1.0/">
	<!ENTITY ns_ai "http://ns.adobe.com/AdobeIllustrator/10.0/">
	<!ENTITY ns_graphs "http://ns.adobe.com/Graphs/1.0/">
	<!ENTITY ns_vars "http://ns.adobe.com/Variables/1.0/">
	<!ENTITY ns_imrep "http://ns.adobe.com/ImageReplacement/1.0/">
	<!ENTITY ns_sfw "http://ns.adobe.com/SaveForWeb/1.0/">
	<!ENTITY ns_custom "http://ns.adobe.com/GenericCustomNamespace/1.0/">
	<!ENTITY ns_adobe_xpath "http://ns.adobe.com/XPath/1.0/">
]>
<svg version="1.1" xmlns:x="&ns_extend;" xmlns:i="&ns_ai;" xmlns:graph="&ns_graphs;"
	 xmlns="http://www.w3.org/2000/svg" xmlns:xlink="http://www.w3.org/1999/xlink" x="0px" y="0px" width="231px" height="229px"
	 viewBox="0 0 231 229" enable-background="new 0 0 231 229" xml:space="preserve">
<metadata>
	<sfw  xmlns="&ns_sfw;">
		<slices></slices>
		<sliceSourceBounds  x="-8076" y="-8306" width="16383" height="16383" bottomLeftOrigin="true"></sliceSourceBounds>
	</sfw>
</metadata>
<g id="Alignment">
</g>
<g id="graphic_layer">
	<g>
		<path fill="#FFFFFF" d="M29.417,81.17h7.528v51.41H61.58v6.244H29.417V81.17z"/>
		<path fill="#FFFFFF" d="M77.487,138.824L58.583,81.17h8.126l8.982,28.399c2.395,7.784,4.534,14.799,6.159,21.557h0.171
			c1.625-6.673,3.935-13.943,6.586-21.471l9.752-28.485h7.955l-20.615,57.654H77.487z"/>
		<path fill="#FFFFFF" d="M112.469,81.17h7.528v51.41h24.635v6.244h-32.163V81.17z"/>
		<path fill="#FFFFFF" d="M201.595,89.553h-21.214l-2.139,14.285c1.283-0.171,2.48-0.256,4.533-0.256
			c4.363,0,8.555,0.855,11.977,2.994c4.362,2.396,7.955,7.271,7.955,14.2c0,10.863-8.64,18.99-20.701,18.99
			c-6.073,0-11.12-1.711-13.857-3.422l1.882-5.731c2.31,1.368,6.843,3.079,11.976,3.079c7.015,0,13.174-4.619,13.088-12.061
			c0-7.186-4.876-12.232-15.91-12.232c-3.251,0-5.731,0.256-7.785,0.513l3.593-26.689h26.604V89.553z"/>
	</g>
</g>
</svg>
