<?xml version="1.0" encoding="utf-8"?>
<!-- Generator: Adobe Illustrator 15.1.0, SVG Export Plug-In . SVG Version: 6.00 Build 0)  -->
<!DOCTYPE svg PUBLIC "-//W3C//DTD SVG 1.1//EN" "http://www.w3.org/Graphics/SVG/1.1/DTD/svg11.dtd" [
	<!ENTITY ns_extend "http://ns.adobe.com/Extensibility/1.0/">
	<!ENTITY ns_ai "http://ns.adobe.com/AdobeIllustrator/10.0/">
	<!ENTITY ns_graphs "http://ns.adobe.com/Graphs/1.0/">
	<!ENTITY ns_vars "http://ns.adobe.com/Variables/1.0/">
	<!ENTITY ns_imrep "http://ns.adobe.com/ImageReplacement/1.0/">
	<!ENTITY ns_sfw "http://ns.adobe.com/SaveForWeb/1.0/">
	<!ENTITY ns_custom "http://ns.adobe.com/GenericCustomNamespace/1.0/">
	<!ENTITY ns_adobe_xpath "http://ns.adobe.com/XPath/1.0/">
]>
<svg version="1.1" xmlns:x="&ns_extend;" xmlns:i="&ns_ai;" xmlns:graph="&ns_graphs;"
	 xmlns="http://www.w3.org/2000/svg" xmlns:xlink="http://www.w3.org/1999/xlink" x="0px" y="0px" width="231px" height="229px"
	 viewBox="0 0 231 229" enable-background="new 0 0 231 229" xml:space="preserve">
<metadata>
	<sfw  xmlns="&ns_sfw;">
		<slices></slices>
		<sliceSourceBounds  x="-8076" y="-8306" width="16383" height="16383" bottomLeftOrigin="true"></sliceSourceBounds>
	</sfw>
</metadata>
<g id="Alignment">
</g>
<g id="graphic_layer">
	<g>
		<path fill="#FFFFFF" d="M29.417,81.17h7.528v51.41H61.58v6.244H29.417V81.17z"/>
		<path fill="#FFFFFF" d="M77.487,138.824L58.583,81.17h8.126l8.982,28.399c2.395,7.784,4.534,14.799,6.159,21.557h0.171
			c1.625-6.673,3.935-13.943,6.586-21.471l9.752-28.485h7.955l-20.615,57.654H77.487z"/>
		<path fill="#FFFFFF" d="M112.469,81.17h7.528v51.41h24.635v6.244h-32.163V81.17z"/>
		<path fill="#FFFFFF" d="M200.141,88.526c-1.54-0.085-3.507,0.085-5.646,0.428c-11.891,1.882-18.049,10.436-19.332,19.674h0.171
			c2.651-3.593,7.356-6.501,13.516-6.501c9.837,0,16.766,7.185,16.766,17.963c0,10.265-6.929,19.675-18.563,19.675
			c-11.805,0-19.589-9.239-19.589-23.695c0-10.949,3.85-19.589,9.409-25.063c4.62-4.534,10.778-7.356,17.793-8.212
			c2.224-0.342,4.105-0.428,5.475-0.428V88.526z M198.002,120.604c0-7.956-4.533-12.746-11.462-12.746
			c-4.534,0-8.812,2.737-10.864,6.843c-0.428,0.856-0.77,1.882-0.77,3.25c0.085,9.153,4.362,15.996,12.317,15.996
			C193.64,133.948,198.002,128.56,198.002,120.604z"/>
	</g>
</g>
</svg>
