<?xml version="1.0" encoding="utf-8"?>
<!-- Generator: Adobe Illustrator 15.1.0, SVG Export Plug-In . SVG Version: 6.00 Build 0)  -->
<!DOCTYPE svg PUBLIC "-//W3C//DTD SVG 1.1//EN" "http://www.w3.org/Graphics/SVG/1.1/DTD/svg11.dtd" [
	<!ENTITY ns_extend "http://ns.adobe.com/Extensibility/1.0/">
	<!ENTITY ns_ai "http://ns.adobe.com/AdobeIllustrator/10.0/">
	<!ENTITY ns_graphs "http://ns.adobe.com/Graphs/1.0/">
	<!ENTITY ns_vars "http://ns.adobe.com/Variables/1.0/">
	<!ENTITY ns_imrep "http://ns.adobe.com/ImageReplacement/1.0/">
	<!ENTITY ns_sfw "http://ns.adobe.com/SaveForWeb/1.0/">
	<!ENTITY ns_custom "http://ns.adobe.com/GenericCustomNamespace/1.0/">
	<!ENTITY ns_adobe_xpath "http://ns.adobe.com/XPath/1.0/">
]>
<svg version="1.1" xmlns:x="&ns_extend;" xmlns:i="&ns_ai;" xmlns:graph="&ns_graphs;"
	 xmlns="http://www.w3.org/2000/svg" xmlns:xlink="http://www.w3.org/1999/xlink" x="0px" y="0px" width="231px" height="229px"
	 viewBox="0 0 231 229" enable-background="new 0 0 231 229" xml:space="preserve">
<metadata>
	<sfw  xmlns="&ns_sfw;">
		<slices></slices>
		<sliceSourceBounds  x="-8076" y="-8306" width="16383" height="16383" bottomLeftOrigin="true"></sliceSourceBounds>
	</sfw>
</metadata>
<g id="Alignment">
</g>
<g id="graphic_layer">
	<g>
		<path fill="#FFFFFF" d="M29.417,81.17h7.528v51.41H61.58v6.244H29.417V81.17z"/>
		<path fill="#FFFFFF" d="M77.487,138.824L58.583,81.17h8.126l8.982,28.399c2.395,7.784,4.534,14.799,6.159,21.557h0.171
			c1.625-6.673,3.935-13.943,6.586-21.471l9.752-28.485h7.955l-20.615,57.654H77.487z"/>
		<path fill="#FFFFFF" d="M112.469,81.17h7.528v51.41h24.635v6.244h-32.163V81.17z"/>
		<path fill="#FFFFFF" d="M178.67,109.569c-6.244-2.908-8.896-7.699-8.896-12.489c0-8.811,7.442-14.798,17.279-14.798
			c10.778,0,16.253,6.672,16.253,13.687c0,4.705-2.396,9.837-9.238,13.002v0.256c6.929,2.737,11.206,7.699,11.206,14.371
			c0,9.752-8.298,16.168-18.905,16.168c-11.633,0-18.647-6.844-18.647-14.97c0-7.015,4.191-12.062,11.035-14.97L178.67,109.569z
			 M197.66,124.368c0-6.673-4.705-10.009-12.232-12.147c-6.501,1.882-10.009,6.245-10.009,11.548
			c-0.256,5.56,4.021,10.521,11.121,10.521C193.297,134.291,197.66,130.099,197.66,124.368z M176.959,96.567
			c-0.086,5.561,4.191,8.554,10.607,10.265c4.79-1.625,8.469-5.047,8.469-10.094c0-4.448-2.652-9.067-9.41-9.067
			C180.381,87.671,176.959,91.777,176.959,96.567z"/>
	</g>
</g>
</svg>
