<?xml version="1.0" encoding="utf-8"?>
<!-- Generator: Adobe Illustrator 15.1.0, SVG Export Plug-In . SVG Version: 6.00 Build 0)  -->
<!DOCTYPE svg PUBLIC "-//W3C//DTD SVG 1.1//EN" "http://www.w3.org/Graphics/SVG/1.1/DTD/svg11.dtd" [
	<!ENTITY ns_extend "http://ns.adobe.com/Extensibility/1.0/">
	<!ENTITY ns_ai "http://ns.adobe.com/AdobeIllustrator/10.0/">
	<!ENTITY ns_graphs "http://ns.adobe.com/Graphs/1.0/">
	<!ENTITY ns_vars "http://ns.adobe.com/Variables/1.0/">
	<!ENTITY ns_imrep "http://ns.adobe.com/ImageReplacement/1.0/">
	<!ENTITY ns_sfw "http://ns.adobe.com/SaveForWeb/1.0/">
	<!ENTITY ns_custom "http://ns.adobe.com/GenericCustomNamespace/1.0/">
	<!ENTITY ns_adobe_xpath "http://ns.adobe.com/XPath/1.0/">
]>
<svg version="1.1" xmlns:x="&ns_extend;" xmlns:i="&ns_ai;" xmlns:graph="&ns_graphs;"
	 xmlns="http://www.w3.org/2000/svg" xmlns:xlink="http://www.w3.org/1999/xlink" x="0px" y="0px" width="231px" height="229px"
	 viewBox="0 0 231 229" enable-background="new 0 0 231 229" xml:space="preserve">
<metadata>
	<sfw  xmlns="&ns_sfw;">
		<slices></slices>
		<sliceSourceBounds  x="-8076" y="-8306" width="16383" height="16383" bottomLeftOrigin="true"></sliceSourceBounds>
	</sfw>
</metadata>
<g id="Alignment">
</g>
<g id="graphic_layer">
	<g>
		<path fill="#FFFFFF" d="M29.417,81.17h7.528v51.41H61.58v6.244H29.417V81.17z"/>
		<path fill="#FFFFFF" d="M77.487,138.824L58.583,81.17h8.126l8.982,28.399c2.395,7.784,4.534,14.799,6.159,21.557h0.171
			c1.625-6.673,3.935-13.943,6.586-21.471l9.752-28.485h7.955l-20.615,57.654H77.487z"/>
		<path fill="#FFFFFF" d="M112.469,81.17h7.528v51.41h24.635v6.244h-32.163V81.17z"/>
		<path fill="#FFFFFF" d="M172.768,133.521c1.625,0.171,3.507,0,6.073-0.257c4.362-0.599,8.469-2.31,11.634-5.389
			c3.678-3.336,6.33-8.212,7.356-14.713h-0.257c-3.079,3.764-7.527,5.902-13.173,5.902c-9.923,0-16.339-7.528-16.339-17.023
			c0-10.521,7.613-19.76,18.99-19.76s18.392,9.153,18.392,23.524c0,12.146-4.106,20.7-9.581,26.004
			c-4.276,4.191-10.179,6.758-16.167,7.442c-2.737,0.428-5.133,0.514-6.929,0.428V133.521z M175.505,101.614
			c0,6.929,4.191,11.805,10.692,11.805c5.047,0,8.982-2.48,10.949-5.816c0.428-0.77,0.685-1.54,0.685-2.823
			c0-9.495-3.507-16.766-11.463-16.766C180.038,88.013,175.505,93.659,175.505,101.614z"/>
	</g>
</g>
</svg>
