<?xml version="1.0" encoding="utf-8"?>
<!-- Generator: Adobe Illustrator 15.1.0, SVG Export Plug-In . SVG Version: 6.00 Build 0)  -->
<!DOCTYPE svg PUBLIC "-//W3C//DTD SVG 1.1//EN" "http://www.w3.org/Graphics/SVG/1.1/DTD/svg11.dtd" [
	<!ENTITY ns_extend "http://ns.adobe.com/Extensibility/1.0/">
	<!ENTITY ns_ai "http://ns.adobe.com/AdobeIllustrator/10.0/">
	<!ENTITY ns_graphs "http://ns.adobe.com/Graphs/1.0/">
	<!ENTITY ns_vars "http://ns.adobe.com/Variables/1.0/">
	<!ENTITY ns_imrep "http://ns.adobe.com/ImageReplacement/1.0/">
	<!ENTITY ns_sfw "http://ns.adobe.com/SaveForWeb/1.0/">
	<!ENTITY ns_custom "http://ns.adobe.com/GenericCustomNamespace/1.0/">
	<!ENTITY ns_adobe_xpath "http://ns.adobe.com/XPath/1.0/">
]>
<svg version="1.1" xmlns:x="&ns_extend;" xmlns:i="&ns_ai;" xmlns:graph="&ns_graphs;"
	 xmlns="http://www.w3.org/2000/svg" xmlns:xlink="http://www.w3.org/1999/xlink" x="0px" y="0px" width="231px" height="229px"
	 viewBox="0 0 231 229" enable-background="new 0 0 231 229" xml:space="preserve">
<metadata>
	<sfw  xmlns="&ns_sfw;">
		<slices></slices>
		<sliceSourceBounds  x="-8076" y="-8306" width="16383" height="16383" bottomLeftOrigin="true"></sliceSourceBounds>
	</sfw>
</metadata>
<g id="Alignment">
</g>
<g id="graphic_layer">
	<g>
		<path fill="#FFFFFF" d="M60.091,69.848h7.528v51.411h24.636v6.244H60.091V69.848z"/>
		<path fill="#FFFFFF" d="M108.161,127.503L89.257,69.848h8.126l8.982,28.399c2.395,7.784,4.534,14.799,6.159,21.557h0.171
			c1.625-6.673,3.935-13.944,6.586-21.472l9.752-28.485h7.955l-20.615,57.655H108.161z"/>
		<path fill="#FFFFFF" d="M143.143,69.848h7.528v51.411h24.636v6.244h-32.164V69.848z"/>
	</g>
	
		<line fill="none" stroke="#FFFFFF" stroke-width="6" stroke-linecap="square" stroke-linejoin="round" x1="56.676" y1="160.716" x2="174.324" y2="160.716"/>
	
		<line fill="none" stroke="#FFFFFF" stroke-width="6" stroke-linecap="square" stroke-linejoin="round" x1="56.676" y1="149.012" x2="174.324" y2="149.012"/>
	
		<line fill="none" stroke="#FFFFFF" stroke-width="6" stroke-linecap="square" stroke-linejoin="round" x1="56.676" y1="172.421" x2="174.324" y2="172.421"/>
</g>
</svg>
