<?xml version="1.0" encoding="utf-8"?>
<!-- Generator: Adobe Illustrator 15.1.0, SVG Export Plug-In . SVG Version: 6.00 Build 0)  -->
<!DOCTYPE svg PUBLIC "-//W3C//DTD SVG 1.1//EN" "http://www.w3.org/Graphics/SVG/1.1/DTD/svg11.dtd">
<svg version="1.1" xmlns="http://www.w3.org/2000/svg" xmlns:xlink="http://www.w3.org/1999/xlink" x="0px" y="0px" width="231px"
	 height="229px" viewBox="0 0 231 229" enable-background="new 0 0 231 229" xml:space="preserve">
<g id="compass_icon">
</g>
<g id="Layer_3">
</g>
<g id="Layer_4">
	<polygon fill="none" stroke="#FFFFFF" stroke-width="3.6143" stroke-miterlimit="10" points="164.969,74.471 164.969,66.053 
		182.084,66.294 182.084,74.645 189.256,74.678 189.256,66.088 206.441,66.088 206.441,74.471 209.697,74.471 209.697,103.506 
		161.713,103.506 161.713,74.471 	"/>
	<polygon fill="none" stroke="#FFFFFF" stroke-width="3.6143" stroke-miterlimit="10" points="165.178,134.298 165.178,125.88 
		182.293,126.121 182.293,134.471 189.465,134.505 189.465,125.913 206.65,125.913 206.65,134.298 209.906,134.298 209.906,163.333 
		161.922,163.333 161.922,134.298 	"/>
	<polygon fill="none" stroke="#FFFFFF" stroke-width="6.5973" stroke-miterlimit="10" points="24.458,90.987 24.458,75.62 
		55.627,75.609 55.698,91.452 68.79,91.365 68.79,75.684 100.158,75.684 100.158,90.987 106.101,90.987 106.101,143.985 
		18.513,143.985 18.513,90.987 	"/>
	<g>
		<g>
			<polyline fill="none" stroke="#FFFFFF" stroke-width="3.6143" stroke-miterlimit="10" points="144.759,91.437 106.271,115.371 
				144.676,138.607 			"/>
			<g>
				<polygon fill="#FFFFFF" points="137.788,85.221 155.798,84.63 147.305,100.523 				"/>
			</g>
			<g>
				<polygon fill="#FFFFFF" points="137.781,144.908 155.797,145.278 147.11,129.49 				"/>
			</g>
		</g>
	</g>
	<g>
		<path fill="#FFFFFF" d="M66.354,214.951c1.566,1.004,3.815,1.767,6.225,1.767c3.574,0,5.663-1.888,5.663-4.618
			c0-2.49-1.446-3.976-5.1-5.342c-4.418-1.606-7.149-3.936-7.149-7.711c0-4.217,3.494-7.35,8.755-7.35
			c2.73,0,4.779,0.643,5.943,1.325l-0.964,2.852c-0.843-0.521-2.65-1.285-5.1-1.285c-3.695,0-5.101,2.209-5.101,4.057
			c0,2.53,1.646,3.775,5.381,5.221c4.579,1.768,6.868,3.977,6.868,7.952c0,4.177-3.052,7.831-9.438,7.831
			c-2.61,0-5.462-0.803-6.907-1.767L66.354,214.951z"/>
		<path fill="#FFFFFF" d="M86.475,190.693h3.534v12.169h0.081c0.562-1.004,1.446-1.928,2.53-2.53
			c1.044-0.603,2.289-0.964,3.614-0.964c2.61,0,6.787,1.606,6.787,8.273v11.566h-3.534v-11.165c0-3.132-1.165-5.743-4.498-5.743
			c-2.289,0-4.056,1.606-4.739,3.494c-0.201,0.522-0.241,1.045-0.241,1.688v11.727h-3.534V190.693z"/>
		<path fill="#FFFFFF" d="M122.418,214.55c0,1.687,0.08,3.333,0.281,4.658h-3.173l-0.28-2.45h-0.121
			c-1.084,1.526-3.173,2.892-5.944,2.892c-3.936,0-5.944-2.771-5.944-5.582c0-4.699,4.177-7.27,11.687-7.229v-0.402
			c0-1.566-0.441-4.498-4.417-4.458c-1.848,0-3.735,0.522-5.101,1.446l-0.803-2.369c1.606-1.005,3.976-1.688,6.426-1.688
			c5.944,0,7.39,4.057,7.39,7.912V214.55z M119.004,209.288c-3.855-0.08-8.232,0.603-8.232,4.378c0,2.329,1.526,3.373,3.293,3.373
			c2.57,0,4.217-1.606,4.779-3.253c0.121-0.401,0.16-0.803,0.16-1.124V209.288z"/>
		<path fill="#FFFFFF" d="M128.119,205.834c0-2.289-0.039-4.257-0.16-6.063h3.092l0.162,3.855h0.119
			c0.885-2.611,3.053-4.258,5.422-4.258c0.361,0,0.643,0.04,0.965,0.08v3.334c-0.361-0.08-0.723-0.08-1.205-0.08
			c-2.49,0-4.258,1.847-4.739,4.498c-0.081,0.481-0.12,1.084-0.12,1.646v10.361h-3.535V205.834z"/>
		<path fill="#FFFFFF" d="M142.818,210.132c0.08,4.779,3.093,6.747,6.667,6.747c2.53,0,4.097-0.442,5.382-1.004l0.643,2.53
			c-1.245,0.562-3.414,1.244-6.506,1.244c-5.984,0-9.559-3.976-9.559-9.839c0-5.864,3.453-10.442,9.116-10.442
			c6.386,0,8.032,5.543,8.032,9.117c0,0.723-0.04,1.244-0.121,1.646H142.818z M153.18,207.602c0.041-2.209-0.924-5.703-4.898-5.703
			c-3.615,0-5.141,3.253-5.422,5.703H153.18z"/>
	</g>
</g>
</svg>
