<?xml version="1.0" encoding="utf-8"?>
<!-- Generator: Adobe Illustrator 15.1.0, SVG Export Plug-In . SVG Version: 6.00 Build 0)  -->
<!DOCTYPE svg PUBLIC "-//W3C//DTD SVG 1.1//EN" "http://www.w3.org/Graphics/SVG/1.1/DTD/svg11.dtd" [
	<!ENTITY ns_extend "http://ns.adobe.com/Extensibility/1.0/">
	<!ENTITY ns_ai "http://ns.adobe.com/AdobeIllustrator/10.0/">
	<!ENTITY ns_graphs "http://ns.adobe.com/Graphs/1.0/">
	<!ENTITY ns_vars "http://ns.adobe.com/Variables/1.0/">
	<!ENTITY ns_imrep "http://ns.adobe.com/ImageReplacement/1.0/">
	<!ENTITY ns_sfw "http://ns.adobe.com/SaveForWeb/1.0/">
	<!ENTITY ns_custom "http://ns.adobe.com/GenericCustomNamespace/1.0/">
	<!ENTITY ns_adobe_xpath "http://ns.adobe.com/XPath/1.0/">
]>
<svg version="1.1" xmlns:x="&ns_extend;" xmlns:i="&ns_ai;" xmlns:graph="&ns_graphs;"
	 xmlns="http://www.w3.org/2000/svg" xmlns:xlink="http://www.w3.org/1999/xlink" x="0px" y="0px" width="231px" height="229px"
	 viewBox="0 0 231 229" enable-background="new 0 0 231 229" xml:space="preserve">
<metadata>
	<sfw  xmlns="&ns_sfw;">
		<slices></slices>
		<sliceSourceBounds  x="-8076" y="-8306" width="16383" height="16383" bottomLeftOrigin="true"></sliceSourceBounds>
	</sfw>
</metadata>
<g id="compass_icon">
</g>
<g id="Layer_3">
</g>
<g id="Layer_5">
	<g>
		<path fill="#FFFFFF" d="M82.113,192.366v11.325h13.092v-11.325h3.534v27.068h-3.534v-12.691H82.113v12.691h-3.534v-27.068H82.113z
			"/>
		<path fill="#FFFFFF" d="M106.65,210.358c0.08,4.779,3.092,6.747,6.667,6.747c2.53,0,4.096-0.442,5.381-1.004l0.643,2.53
			c-1.245,0.562-3.414,1.244-6.506,1.244c-5.984,0-9.559-3.976-9.559-9.839c0-5.864,3.454-10.442,9.117-10.442
			c6.386,0,8.033,5.543,8.033,9.117c0,0.723-0.041,1.244-0.121,1.646H106.65z M117.012,207.828c0.04-2.209-0.924-5.703-4.899-5.703
			c-3.615,0-5.141,3.253-5.422,5.703H117.012z"/>
		<path fill="#FFFFFF" d="M124.802,190.92h3.534v28.515h-3.534V190.92z"/>
		<path fill="#FFFFFF" d="M134.279,206.342c0-2.489-0.08-4.498-0.16-6.345h3.133l0.2,3.333h0.08c1.405-2.37,3.735-3.735,6.908-3.735
			c4.739,0,8.272,3.977,8.272,9.84c0,6.988-4.297,10.441-8.875,10.441c-2.57,0-4.819-1.124-5.984-3.052h-0.08v10.563h-3.494V206.342
			z M137.773,211.522c0,0.522,0.04,1.004,0.16,1.446c0.643,2.45,2.771,4.137,5.302,4.137c3.735,0,5.903-3.053,5.903-7.511
			c0-3.855-2.048-7.188-5.783-7.188c-2.409,0-4.698,1.687-5.341,4.337c-0.12,0.442-0.241,0.965-0.241,1.406V211.522z"/>
	</g>
	<g>
		<path fill="#FFFFFF" d="M103.313,112.596l-0.341-4.432c-1.023-9.034,2.045-19.262,10.568-29.489
			c7.671-9.034,11.932-15.682,11.932-23.353c0-8.693-5.454-14.488-16.193-14.659c-6.136,0-12.955,2.046-17.216,5.284l-4.091-10.739
			c5.795-4.091,15.341-6.818,24.375-6.818c19.603,0,28.466,12.102,28.466,25.057c0,11.591-6.477,19.943-14.659,29.66
			c-7.5,8.864-10.227,16.534-9.716,25.228l0.341,4.261H103.313z M99.734,136.631c0-6.307,4.262-10.738,10.057-10.738
			c6.136,0,10.057,4.432,10.057,10.738c0,5.965-3.92,10.568-10.227,10.568C103.825,147.199,99.734,142.596,99.734,136.631z"/>
	</g>
</g>
</svg>
