<?xml version="1.0" encoding="utf-8"?>
<!-- Generator: Adobe Illustrator 15.1.0, SVG Export Plug-In . SVG Version: 6.00 Build 0)  -->
<!DOCTYPE svg PUBLIC "-//W3C//DTD SVG 1.1//EN" "http://www.w3.org/Graphics/SVG/1.1/DTD/svg11.dtd">
<svg version="1.1" xmlns="http://www.w3.org/2000/svg" xmlns:xlink="http://www.w3.org/1999/xlink" x="0px" y="0px" width="231px"
	 height="229px" viewBox="0 0 231 229" enable-background="new 0 0 231 229" xml:space="preserve">
<g id="compass_icon">
</g>
<g id="Layer_3">
</g>
<g id="Layer_5">
	<path fill="#F5EB1B" d="M115.466,67.96c9.689,0,18.98,3.849,25.832,10.701l25.833-25.832
		c-13.703-13.704-32.287-21.402-51.665-21.402V67.96z"/>
	<path fill="#00CC33" d="M152.001,104.493c0-9.687-3.85-18.98-10.702-25.833l25.834-25.832
		c13.703,13.702,21.401,32.286,21.401,51.665H152.001z"/>
	
		<path fill="#00FFFF" stroke="#FFFFFF" stroke-width="0.3074" stroke-linecap="square" stroke-linejoin="round" stroke-miterlimit="10" d="
		M141.299,130.204c6.853-6.85,10.702-16.142,10.702-25.834h36.533c0,19.381-7.698,37.965-21.401,51.67L141.299,130.204z"/>
	<path fill="#0066CC" d="M115.467,140.905c9.689,0,18.981-3.85,25.833-10.701l25.834,25.836c-13.705,13.701-32.289,21.4-51.667,21.4
		V140.905z"/>
	<path d="M89.633,130.204c6.852,6.852,16.144,10.701,25.833,10.701v36.535c-19.379,0-37.963-7.699-51.665-21.4L89.633,130.204z"/>
	<path fill="#FFFFFF" d="M78.934,104.37c0,9.692,3.849,18.984,10.699,25.834L63.802,156.04C50.098,142.335,42.4,123.751,42.4,104.37
		H78.934z"/>
	<path fill="#FF0099" stroke="#FFFFFF" stroke-width="0.3074" stroke-linejoin="round" stroke-miterlimit="10" d="M89.633,78.661
		c-6.851,6.852-10.699,16.146-10.699,25.833H42.4c0-19.378,7.697-37.963,21.401-51.665L89.633,78.661z"/>
	<path fill="#ED3625" d="M115.466,67.96c-9.689,0-18.981,3.849-25.834,10.701L63.8,52.829
		c13.701-13.704,32.286-21.402,51.666-21.402V67.96z"/>
	<g>
		<path fill="none" stroke="#FFFFFF" stroke-width="2.8644" stroke-linecap="round" stroke-linejoin="round" d="M167.133,156.157
			c13.703-13.703,21.4-32.285,21.4-51.668"/>
		<path fill="none" stroke="#FFFFFF" stroke-width="2.8644" stroke-linecap="round" stroke-linejoin="round" d="M115.467,177.56
			c19.378,0,37.962-7.701,51.666-21.402"/>
		<path fill="none" stroke="#FFFFFF" stroke-width="2.8644" stroke-linecap="round" stroke-linejoin="round" d="M63.801,156.157
			c13.702,13.701,32.286,21.402,51.666,21.402"/>
		<path fill="none" stroke="#FFFFFF" stroke-width="2.8644" stroke-linecap="round" stroke-linejoin="round" d="M42.399,104.489
			c0,19.383,7.698,37.965,21.401,51.668"/>
		<path fill="none" stroke="#FFFFFF" stroke-width="2.8644" stroke-linecap="round" stroke-linejoin="round" d="M63.801,52.827
			c-13.704,13.701-21.401,32.286-21.401,51.663"/>
		<path fill="none" stroke="#FFFFFF" stroke-width="2.8644" stroke-linecap="round" stroke-linejoin="round" d="M115.467,31.425
			c-19.38,0-37.964,7.698-51.666,21.402"/>
		<path fill="none" stroke="#FFFFFF" stroke-width="2.8644" stroke-linecap="round" stroke-linejoin="round" d="M167.133,52.827
			c-13.704-13.704-32.288-21.402-51.666-21.402"/>
		<path fill="none" stroke="#FFFFFF" stroke-width="2.8644" stroke-linecap="round" stroke-linejoin="round" d="M188.533,104.489
			c0-19.377-7.697-37.961-21.4-51.663"/>
		<path fill="none" stroke="#FFFFFF" stroke-width="2.8644" stroke-linecap="round" stroke-linejoin="round" d="M141.299,130.325
			c6.853-6.85,10.7-16.145,10.7-25.836"/>
		<path fill="none" stroke="#FFFFFF" stroke-width="2.8644" stroke-linecap="round" stroke-linejoin="round" d="M115.467,141.024
			c9.688,0,18.98-3.848,25.832-10.699"/>
		<path fill="none" stroke="#FFFFFF" stroke-width="2.8644" stroke-linecap="round" stroke-linejoin="round" d="M89.633,130.325
			c6.852,6.852,16.144,10.699,25.833,10.699"/>
		<path fill="none" stroke="#FFFFFF" stroke-width="2.8644" stroke-linecap="round" stroke-linejoin="round" d="M78.934,104.489
			c0,9.691,3.849,18.986,10.7,25.836"/>
		<path fill="none" stroke="#FFFFFF" stroke-width="2.8644" stroke-linecap="round" stroke-linejoin="round" d="M89.633,78.659
			c-6.851,6.852-10.7,16.145-10.7,25.831"/>
		<path fill="none" stroke="#FFFFFF" stroke-width="2.8644" stroke-linecap="round" stroke-linejoin="round" d="M115.467,67.958
			c-9.689,0-18.982,3.85-25.833,10.701"/>
		<path fill="none" stroke="#FFFFFF" stroke-width="2.8644" stroke-linecap="round" stroke-linejoin="round" d="M141.299,78.659
			c-6.852-6.852-16.144-10.701-25.832-10.701"/>
		<path fill="none" stroke="#FFFFFF" stroke-width="2.8644" stroke-linecap="round" stroke-linejoin="round" d="M151.999,104.489
			c0-9.686-3.848-18.979-10.7-25.831"/>
		
			<line fill="none" stroke="#FFFFFF" stroke-width="2.8644" stroke-linecap="round" stroke-linejoin="round" x1="115.467" y1="67.958" x2="115.467" y2="31.425"/>
		
			<line fill="none" stroke="#FFFFFF" stroke-width="2.8644" stroke-linecap="round" stroke-linejoin="round" x1="89.633" y1="78.659" x2="63.801" y2="52.827"/>
		
			<line fill="none" stroke="#FFFFFF" stroke-width="2.8644" stroke-linecap="round" stroke-linejoin="round" x1="78.934" y1="104.489" x2="42.399" y2="104.489"/>
		
			<line fill="none" stroke="#FFFFFF" stroke-width="2.8644" stroke-linecap="round" stroke-linejoin="round" x1="89.633" y1="130.325" x2="63.801" y2="156.157"/>
		
			<line fill="none" stroke="#FFFFFF" stroke-width="2.8644" stroke-linecap="round" stroke-linejoin="round" x1="115.467" y1="141.024" x2="115.467" y2="177.56"/>
		
			<line fill="none" stroke="#FFFFFF" stroke-width="2.8644" stroke-linecap="round" stroke-linejoin="round" x1="141.299" y1="130.325" x2="167.133" y2="156.157"/>
		
			<line fill="none" stroke="#FFFFFF" stroke-width="2.8644" stroke-linecap="round" stroke-linejoin="round" x1="151.999" y1="104.489" x2="188.533" y2="104.489"/>
		
			<line fill="none" stroke="#FFFFFF" stroke-width="2.8644" stroke-linecap="round" stroke-linejoin="round" x1="141.299" y1="78.659" x2="167.133" y2="52.827"/>
	</g>
	<g>
		<path fill="#FFFFFF" d="M67.345,212.076c1.566,1.004,3.815,1.766,6.225,1.766c3.574,0,5.663-1.887,5.663-4.617
			c0-2.49-1.446-3.977-5.101-5.342c-4.417-1.607-7.148-3.936-7.148-7.711c0-4.217,3.494-7.35,8.755-7.35
			c2.731,0,4.779,0.643,5.944,1.324l-0.964,2.852c-0.844-0.521-2.651-1.285-5.101-1.285c-3.695,0-5.101,2.209-5.101,4.057
			c0,2.531,1.646,3.775,5.382,5.221c4.578,1.768,6.867,3.977,6.867,7.953c0,4.176-3.052,7.83-9.438,7.83
			c-2.611,0-5.462-0.803-6.908-1.766L67.345,212.076z"/>
		<path fill="#FFFFFF" d="M91.401,191.432c0,1.205-0.843,2.17-2.249,2.17c-1.285,0-2.128-0.965-2.128-2.17
			c0-1.203,0.883-2.207,2.208-2.207C90.518,189.225,91.401,190.188,91.401,191.432z M87.465,216.332v-19.438H91v19.438H87.465z"/>
		<path fill="#FFFFFF" d="M96.862,202.156c0-2.049-0.04-3.656-0.161-5.262h3.133l0.201,3.213h0.081
			c0.964-1.807,3.213-3.615,6.426-3.615c2.69,0,6.867,1.607,6.867,8.273v11.566h-3.534v-11.205c0-3.133-1.165-5.742-4.498-5.742
			c-2.289,0-4.096,1.646-4.739,3.613c-0.161,0.443-0.241,1.045-0.241,1.648v11.686h-3.534V202.156z"/>
		<path fill="#FFFFFF" d="M135.777,213.48c0,4.498-0.924,7.189-2.771,8.916c-1.928,1.727-4.658,2.33-7.107,2.33
			c-2.33,0-4.9-0.563-6.467-1.607l0.885-2.73c1.285,0.844,3.293,1.566,5.702,1.566c3.614,0,6.265-1.887,6.265-6.828V213h-0.08
			c-1.044,1.807-3.172,3.252-6.185,3.252c-4.819,0-8.272-4.096-8.272-9.479c0-6.586,4.297-10.281,8.795-10.281
			c3.373,0,5.18,1.729,6.064,3.334h0.08l0.12-2.932h3.133c-0.12,1.365-0.161,2.973-0.161,5.301V213.48z M132.244,204.564
			c0-0.602-0.041-1.123-0.201-1.566c-0.643-2.088-2.33-3.773-4.939-3.773c-3.374,0-5.783,2.852-5.783,7.35
			c0,3.814,1.967,6.986,5.742,6.986c2.209,0,4.178-1.365,4.9-3.613c0.2-0.604,0.281-1.285,0.281-1.889V204.564z"/>
		<path fill="#FFFFFF" d="M141.6,187.818h3.535v28.514H141.6V187.818z"/>
		<path fill="#FFFFFF" d="M153.045,207.256c0.08,4.779,3.093,6.748,6.667,6.748c2.53,0,4.097-0.443,5.382-1.004l0.643,2.529
			c-1.245,0.563-3.414,1.244-6.506,1.244c-5.984,0-9.559-3.975-9.559-9.838c0-5.865,3.453-10.443,9.116-10.443
			c6.386,0,8.032,5.543,8.032,9.117c0,0.723-0.04,1.244-0.121,1.646H153.045z M163.406,204.727c0.041-2.209-0.924-5.703-4.898-5.703
			c-3.615,0-5.141,3.252-5.422,5.703H163.406z"/>
	</g>
</g>
</svg>
