<?xml version="1.0" encoding="utf-8"?>
<!-- Generator: Adobe Illustrator 15.1.0, SVG Export Plug-In . SVG Version: 6.00 Build 0)  -->
<!DOCTYPE svg PUBLIC "-//W3C//DTD SVG 1.1//EN" "http://www.w3.org/Graphics/SVG/1.1/DTD/svg11.dtd">
<svg version="1.1" xmlns="http://www.w3.org/2000/svg" xmlns:xlink="http://www.w3.org/1999/xlink" x="0px" y="0px" width="231px"
	 height="229px" viewBox="0 0 231 229" enable-background="new 0 0 231 229" xml:space="preserve">
<g id="compass_icon">
</g>
<g id="Layer_3">
</g>
<g id="Layer_4">
	<path fill="#ED3625" d="M96.614,88.901c-5.777-5.776-11.554-11.553-17.331-17.329c9.193-9.192,21.66-14.356,34.659-14.356
		c0,8.169,0,16.337,0,24.507C107.441,81.723,101.207,84.305,96.614,88.901z"/>
	<path fill="#FF0099" stroke="#FFFFFF" stroke-width="0.6553" stroke-linejoin="round" stroke-miterlimit="10" d="M89.436,106.229
		c-8.169,0-16.339,0-24.506,0c0-12.999,5.164-25.465,14.354-34.657c5.776,5.775,11.554,11.552,17.331,17.329
		C92.017,93.496,89.436,99.731,89.436,106.229z"/>
	<path fill="#FFFFFF" d="M89.436,106.229c-8.169,0-16.339,0-24.506,0c0,13,5.164,25.466,14.354,34.658
		c5.776-5.777,11.554-11.553,17.331-17.328C92.017,118.962,89.436,112.729,89.436,106.229z"/>
	<path d="M79.283,140.887c5.776-5.777,11.554-11.553,17.331-17.328c4.593,4.594,10.827,7.178,17.328,7.178c0,8.17,0,16.338,0,24.506
		C100.943,155.242,88.476,150.078,79.283,140.887z"/>
	<path fill="#0066CC" d="M113.942,130.736c6.498,0,12.732-2.584,17.328-7.178c5.779,5.775,11.555,11.551,17.328,17.328
		c-9.189,9.191-21.658,14.355-34.656,14.355C113.942,147.074,113.942,138.906,113.942,130.736z"/>
	
		<path fill="#00FFFF" stroke="#FFFFFF" stroke-width="0.6553" stroke-linecap="square" stroke-linejoin="round" stroke-miterlimit="10" d="
		M131.27,123.559c4.596-4.597,7.18-10.829,7.18-17.33c8.166,0,16.336,0,24.504,0c0,13-5.164,25.466-14.355,34.658
		C142.824,135.109,137.049,129.334,131.27,123.559z"/>
	<path fill="#00CC33" d="M148.598,71.572c-5.773,5.775-11.549,11.552-17.328,17.329c4.596,4.595,7.18,10.83,7.18,17.328
		c8.166,0,16.336,0,24.504,0C162.953,93.23,157.789,80.764,148.598,71.572z"/>
	<path fill="#F5EB1B" d="M113.942,81.723c0-8.169,0-16.338,0-24.507c12.998,0,25.466,5.164,34.656,14.356
		c-5.773,5.775-11.549,11.552-17.328,17.329C126.674,84.305,120.439,81.723,113.942,81.723z"/>
	<path fill="#FF0099" stroke="#FFFFFF" stroke-width="0.6553" stroke-linejoin="round" stroke-miterlimit="10" d="M79.283,71.572
		c-5.776-5.777-11.551-11.553-17.329-17.329c-13.787,13.788-21.532,32.488-21.532,51.985c8.169,0,16.338,0,24.507,0
		C64.929,93.23,70.093,80.764,79.283,71.572z"/>
	<path fill="#FFFFFF" d="M61.954,158.215c-13.787-13.789-21.532-32.488-21.532-51.986c8.169,0,16.338,0,24.507,0
		c0,13,5.164,25.466,14.354,34.658C73.507,146.662,67.732,152.439,61.954,158.215z"/>
	<path d="M113.942,154.586c0,8.17,0,16.34,0,24.506c-19.5,0-38.199-7.742-51.988-21.531c5.778-5.777,11.553-11.553,17.329-17.328
		C88.476,149.424,100.943,154.586,113.942,154.586z"/>
	<path fill="#0066CC" d="M113.942,155.242c0,8.168,0,16.338,0,24.506c19.5,0,38.199-7.744,51.986-21.533
		c-5.777-5.775-11.553-11.553-17.33-17.328C139.408,150.078,126.939,155.242,113.942,155.242z"/>
	
		<path fill="#00FFFF" stroke="#FFFFFF" stroke-width="0.6553" stroke-linecap="square" stroke-linejoin="round" stroke-miterlimit="10" d="
		M148.598,140.887c9.191-9.191,14.355-21.658,14.355-34.658c8.17,0,16.34,0,24.508,0c0,19.498-7.748,38.197-21.533,51.986
		C160.15,152.439,154.375,146.662,148.598,140.887z"/>
	<path fill="#00CC33" d="M187.461,106.229c-8.168,0-16.338,0-24.508,0c0-12.999-5.164-25.465-14.355-34.657
		c5.777-5.777,11.553-11.553,17.33-17.329C179.713,68.031,187.461,86.731,187.461,106.229z"/>
	<path fill="#F5EB1B" d="M113.942,57.216c0-8.169,0-16.338,0-24.507c19.5,0,38.199,7.746,51.986,21.534
		c-5.777,5.775-11.553,11.552-17.33,17.329C139.408,62.38,126.939,57.216,113.942,57.216z"/>
	<path fill="#ED3625" d="M113.942,32.709c0,8.169,0,16.338,0,24.507c-12.999,0-25.466,5.164-34.659,14.356
		c-5.776-5.777-11.551-11.553-17.329-17.329C75.743,40.456,94.441,32.709,113.942,32.709z"/>
	<g>
		<path fill="none" stroke="#FFFFFF" stroke-width="2.6214" stroke-linecap="round" stroke-linejoin="round" d="M96.613,88.902
			c-5.776-5.777-11.554-11.554-17.331-17.329c9.193-9.192,21.66-14.356,34.659-14.356c0,8.169,0,16.337,0,24.506
			C107.44,81.724,101.207,84.305,96.613,88.902z"/>
		<path fill="none" stroke="#FFFFFF" stroke-width="2.6214" stroke-linecap="round" stroke-linejoin="round" d="M89.435,106.23
			c-8.169,0-16.338,0-24.506,0c0-12.999,5.163-25.465,14.354-34.657c5.777,5.775,11.554,11.552,17.331,17.329
			C92.016,93.498,89.435,99.731,89.435,106.23z"/>
		<path fill="none" stroke="#FFFFFF" stroke-width="2.6214" stroke-linecap="round" stroke-linejoin="round" d="M89.435,106.23
			c-8.169,0-16.338,0-24.506,0c0,13,5.163,25.465,14.354,34.659c5.777-5.777,11.554-11.553,17.331-17.329
			C92.016,118.963,89.435,112.731,89.435,106.23z"/>
		<path fill="none" stroke="#FFFFFF" stroke-width="2.6214" stroke-linecap="round" stroke-linejoin="round" d="M79.282,140.889
			c5.777-5.777,11.554-11.553,17.331-17.329c4.594,4.595,10.827,7.177,17.329,7.177c0,8.17,0,16.34,0,24.508
			C100.942,155.244,88.476,150.08,79.282,140.889z"/>
		<path fill="none" stroke="#FFFFFF" stroke-width="2.6214" stroke-linecap="round" stroke-linejoin="round" d="M113.941,130.736
			c6.498,0,12.73-2.582,17.328-7.177c5.777,5.776,11.553,11.552,17.326,17.329c-9.188,9.191-21.656,14.355-34.654,14.355
			C113.941,147.076,113.941,138.906,113.941,130.736z"/>
		<path fill="none" stroke="#FFFFFF" stroke-width="2.6214" stroke-linecap="round" stroke-linejoin="round" d="M131.27,123.56
			c4.596-4.597,7.18-10.829,7.18-17.33c8.166,0,16.336,0,24.504,0c0,13-5.164,25.465-14.357,34.659
			C142.822,135.111,137.047,129.336,131.27,123.56z"/>
		<path fill="none" stroke="#FFFFFF" stroke-width="2.6214" stroke-linecap="round" stroke-linejoin="round" d="M148.596,71.573
			c-5.773,5.775-11.549,11.552-17.326,17.329c4.596,4.595,7.18,10.829,7.18,17.328c8.166,0,16.336,0,24.504,0
			C162.953,93.231,157.789,80.765,148.596,71.573z"/>
		<path fill="none" stroke="#FFFFFF" stroke-width="2.6214" stroke-linecap="round" stroke-linejoin="round" d="M113.941,81.724
			c0-8.169,0-16.337,0-24.506c12.998,0,25.467,5.164,34.654,14.356c-5.773,5.775-11.549,11.552-17.326,17.329
			C126.672,84.305,120.439,81.724,113.941,81.724z"/>
		<path fill="none" stroke="#FFFFFF" stroke-width="2.6214" stroke-linecap="round" stroke-linejoin="round" d="M79.282,71.573
			c-5.775-5.777-11.55-11.553-17.329-17.329C48.167,68.032,40.421,86.732,40.421,106.23c8.168,0,16.338,0,24.507,0
			C64.929,93.231,70.092,80.765,79.282,71.573z"/>
		<path fill="none" stroke="#FFFFFF" stroke-width="2.6214" stroke-linecap="round" stroke-linejoin="round" d="M61.954,158.217
			c-13.787-13.789-21.532-32.488-21.532-51.987c8.168,0,16.338,0,24.507,0c0,13,5.163,25.465,14.354,34.659
			C73.507,146.664,67.732,152.439,61.954,158.217z"/>
		<path fill="none" stroke="#FFFFFF" stroke-width="2.6214" stroke-linecap="round" stroke-linejoin="round" d="M113.941,155.244
			c0,8.168,0,16.338,0,24.506c-19.501,0-38.2-7.744-51.988-21.533c5.778-5.777,11.553-11.553,17.329-17.328
			C88.476,150.08,100.942,155.244,113.941,155.244z"/>
		<path fill="none" stroke="#FFFFFF" stroke-width="2.6214" stroke-linecap="round" stroke-linejoin="round" d="M113.941,155.244
			c0,8.168,0,16.338,0,24.506c19.498,0,38.199-7.744,51.986-21.533c-5.777-5.777-11.553-11.553-17.332-17.328
			C139.408,150.08,126.939,155.244,113.941,155.244z"/>
		<path fill="none" stroke="#FFFFFF" stroke-width="2.6214" stroke-linecap="round" stroke-linejoin="round" d="M148.596,140.889
			c9.193-9.193,14.357-21.659,14.357-34.659c8.17,0,16.338,0,24.508,0c0,19.499-7.748,38.198-21.533,51.987
			C160.15,152.439,154.375,146.664,148.596,140.889z"/>
		<path fill="none" stroke="#FFFFFF" stroke-width="2.6214" stroke-miterlimit="10" d="M187.461,106.23c-8.17,0-16.338,0-24.508,0
			c0-12.999-5.164-25.465-14.357-34.657c5.779-5.777,11.555-11.553,17.332-17.329C179.713,68.032,187.461,86.732,187.461,106.23z"/>
		<path fill="none" stroke="#FFFFFF" stroke-width="2.6214" stroke-linecap="round" stroke-linejoin="round" d="M113.941,57.217
			c0-8.169,0-16.338,0-24.507c19.498,0,38.199,7.746,51.986,21.534c-5.777,5.775-11.553,11.552-17.332,17.329
			C139.408,62.381,126.939,57.217,113.941,57.217z"/>
		<path fill="none" stroke="#FFFFFF" stroke-width="2.6214" stroke-linecap="round" stroke-linejoin="round" d="M113.941,32.71
			c0,8.169,0,16.338,0,24.507c-13,0-25.466,5.164-34.659,14.356c-5.775-5.777-11.55-11.553-17.329-17.329
			C75.742,40.457,94.44,32.71,113.941,32.71z"/>
	</g>
	<g>
	</g>
	<g>
		<path fill="#FFFFFF" d="M78.703,213.742c1.566,1.004,3.815,1.766,6.225,1.766c3.574,0,5.663-1.887,5.663-4.617
			c0-2.49-1.446-3.977-5.1-5.342c-4.418-1.607-7.149-3.936-7.149-7.711c0-4.217,3.494-7.35,8.755-7.35
			c2.73,0,4.779,0.643,5.943,1.324l-0.964,2.852c-0.843-0.521-2.65-1.285-5.1-1.285c-3.695,0-5.101,2.209-5.101,4.057
			c0,2.531,1.646,3.775,5.381,5.221c4.579,1.768,6.868,3.977,6.868,7.953c0,4.176-3.052,7.83-9.438,7.83
			c-2.61,0-5.462-0.803-6.907-1.766L78.703,213.742z"/>
		<path fill="#FFFFFF" d="M98.823,204.906c0-2.49-0.08-4.498-0.161-6.346h3.133l0.201,3.334h0.081
			c1.405-2.371,3.735-3.736,6.907-3.736c4.739,0,8.273,3.977,8.273,9.84c0,6.988-4.297,10.441-8.875,10.441
			c-2.57,0-4.819-1.123-5.984-3.051h-0.081v10.563h-3.494V204.906z M102.317,210.086c0,0.523,0.04,1.004,0.161,1.447
			c0.643,2.449,2.771,4.137,5.301,4.137c3.735,0,5.904-3.053,5.904-7.512c0-3.855-2.048-7.188-5.783-7.188
			c-2.41,0-4.699,1.686-5.342,4.336c-0.12,0.443-0.241,0.965-0.241,1.406V210.086z"/>
		<path fill="#FFFFFF" d="M121.673,189.484h3.534v28.514h-3.534V189.484z"/>
		<path fill="#FFFFFF" d="M135.086,193.098c0,1.205-0.843,2.17-2.248,2.17c-1.285,0-2.129-0.965-2.129-2.17
			c0-1.203,0.883-2.207,2.209-2.207C134.203,190.891,135.086,191.854,135.086,193.098z M131.15,217.998v-19.438h3.534v19.438H131.15
			z"/>
		<path fill="#FFFFFF" d="M144.805,193.902v4.658h5.061v2.691h-5.061v10.48c0,2.41,0.684,3.775,2.65,3.775
			c0.965,0,1.527-0.08,2.049-0.24l0.16,2.691c-0.682,0.24-1.767,0.48-3.132,0.48c-1.647,0-2.972-0.561-3.815-1.484
			c-0.964-1.086-1.365-2.813-1.365-5.102v-10.602h-3.013v-2.691h3.013v-3.615L144.805,193.902z"/>
	</g>
</g>
</svg>
