<?xml version="1.0" encoding="utf-8"?>
<!-- Generator: Adobe Illustrator 15.1.0, SVG Export Plug-In . SVG Version: 6.00 Build 0)  -->
<!DOCTYPE svg PUBLIC "-//W3C//DTD SVG 1.1//EN" "http://www.w3.org/Graphics/SVG/1.1/DTD/svg11.dtd" [
	<!ENTITY ns_extend "http://ns.adobe.com/Extensibility/1.0/">
	<!ENTITY ns_ai "http://ns.adobe.com/AdobeIllustrator/10.0/">
	<!ENTITY ns_graphs "http://ns.adobe.com/Graphs/1.0/">
	<!ENTITY ns_vars "http://ns.adobe.com/Variables/1.0/">
	<!ENTITY ns_imrep "http://ns.adobe.com/ImageReplacement/1.0/">
	<!ENTITY ns_sfw "http://ns.adobe.com/SaveForWeb/1.0/">
	<!ENTITY ns_custom "http://ns.adobe.com/GenericCustomNamespace/1.0/">
	<!ENTITY ns_adobe_xpath "http://ns.adobe.com/XPath/1.0/">
]>
<svg version="1.1" xmlns:x="&ns_extend;" xmlns:i="&ns_ai;" xmlns:graph="&ns_graphs;"
	 xmlns="http://www.w3.org/2000/svg" xmlns:xlink="http://www.w3.org/1999/xlink" x="0px" y="0px" width="231px" height="229px"
	 viewBox="0 0 231 229" enable-background="new 0 0 231 229" xml:space="preserve">
<metadata>
	<sfw  xmlns="&ns_sfw;">
		<slices></slices>
		<sliceSourceBounds  height="16383" width="16383" y="-8306" x="-8076" bottomLeftOrigin="true"></sliceSourceBounds>
	</sfw>
</metadata>
<g id="compass_icon">
</g>
<g id="Layer_3">
</g>
<g id="Layer_5">
	<path fill="#ED3625" d="M88.559,88.372c-8.815-8.814-17.63-17.629-26.445-26.443c14.028-14.026,33.051-21.906,52.887-21.906
		c0,12.465,0,24.93,0,37.396C105.081,77.418,95.568,81.358,88.559,88.372z"/>
	<path fill="#FF0099" stroke="#FFFFFF" stroke-linejoin="round" stroke-miterlimit="10" d="M77.605,114.813
		c-12.466,0-24.932,0-37.395,0c0-19.835,7.879-38.857,21.903-52.884c8.815,8.813,17.63,17.628,26.445,26.443
		C81.544,95.383,77.605,104.897,77.605,114.813z"/>
	<path fill="#FFFFFF" d="M77.605,114.813c-12.466,0-24.932,0-37.395,0c0,19.836,7.879,38.859,21.903,52.887
		c8.815-8.816,17.63-17.629,26.445-26.443C81.544,134.242,77.605,124.732,77.605,114.813z"/>
	<path d="M62.114,167.699c8.815-8.816,17.63-17.629,26.445-26.443c7.009,7.012,16.521,10.953,26.442,10.953
		c0,12.467,0,24.932,0,37.395C95.165,189.604,76.142,181.725,62.114,167.699z"/>
	<path fill="#0066CC" d="M115.001,152.209c9.915,0,19.428-3.941,26.441-10.953c8.817,8.814,17.63,17.627,26.44,26.443
		c-14.021,14.025-33.047,21.904-52.882,21.904C115.001,177.141,115.001,164.676,115.001,152.209z"/>
	<path fill="#00FFFF" stroke="#FFFFFF" stroke-linecap="square" stroke-linejoin="round" stroke-miterlimit="10" d="
		M141.442,141.256c7.013-7.014,10.956-16.523,10.956-26.443c12.46,0,24.927,0,37.391,0c0,19.836-7.879,38.859-21.906,52.887
		C159.072,158.883,150.26,150.07,141.442,141.256z"/>
	<path fill="#00CC33" d="M167.883,61.929c-8.811,8.813-17.623,17.628-26.44,26.443c7.013,7.012,10.956,16.525,10.956,26.441
		c12.46,0,24.927,0,37.391,0C189.789,94.977,181.91,75.956,167.883,61.929z"/>
	<path fill="#F5EB1B" d="M115.001,77.418c0-12.466,0-24.931,0-37.396c19.835,0,38.861,7.88,52.882,21.906
		c-8.811,8.813-17.623,17.628-26.44,26.443C134.429,81.358,124.916,77.418,115.001,77.418z"/>
	<path fill="#FF0099" stroke="#FFFFFF" stroke-linejoin="round" stroke-miterlimit="10" d="M62.114,61.929
		C53.3,53.114,44.488,44.3,35.671,35.486C14.633,56.526,2.814,85.061,2.814,114.813c12.465,0,24.931,0,37.397,0
		C40.211,94.977,48.09,75.956,62.114,61.929z"/>
	<path fill="#FFFFFF" d="M35.671,194.141C14.633,173.1,2.814,144.566,2.814,114.813c12.465,0,24.931,0,37.397,0
		c0,19.836,7.879,38.859,21.903,52.887C53.3,176.512,44.488,185.326,35.671,194.141z"/>
	<path d="M115.001,188.604c0,12.465,0,24.932,0,37.395c-29.757,0-58.29-11.816-79.33-32.857
		c8.817-8.814,17.629-17.629,26.443-26.441C76.142,180.725,95.165,188.604,115.001,188.604z"/>
	<path fill="#0066CC" d="M115.001,189.604c0,12.465,0,24.932,0,37.395c29.754,0,58.289-11.816,79.328-32.857
		c-8.816-8.814-17.629-17.629-26.446-26.441C153.862,181.725,134.836,189.604,115.001,189.604z"/>
	<path fill="#00FFFF" stroke="#FFFFFF" stroke-linecap="square" stroke-linejoin="round" stroke-miterlimit="10" d="
		M167.883,167.699c14.027-14.027,21.906-33.051,21.906-52.887c12.467,0,24.933,0,37.397,0c0,29.754-11.822,58.287-32.857,79.328
		C185.513,185.326,176.7,176.512,167.883,167.699z"/>
	<path fill="#00CC33" d="M227.187,114.813c-12.465,0-24.931,0-37.397,0c0-19.835-7.879-38.857-21.906-52.884
		c8.817-8.814,17.63-17.629,26.446-26.442C215.364,56.526,227.187,85.061,227.187,114.813z"/>
	<path fill="#F5EB1B" d="M115.001,40.022c0-12.465,0-24.93,0-37.396c29.754,0,58.289,11.82,79.328,32.859
		c-8.816,8.813-17.629,17.628-26.446,26.442C153.862,47.903,134.836,40.022,115.001,40.022z"/>
	<path fill="#ED3625" d="M115.001,2.627c0,12.465,0,24.931,0,37.396c-19.836,0-38.859,7.88-52.887,21.906
		C53.3,53.114,44.488,44.3,35.671,35.486C56.711,14.447,85.244,2.627,115.001,2.627z"/>
	<g>
		<path fill="none" stroke="#FFFFFF" stroke-width="4" stroke-linecap="round" stroke-linejoin="round" d="M88.558,88.374
			c-8.814-8.815-17.63-17.63-26.445-26.443C76.141,47.904,95.164,40.024,115,40.024c0,12.465,0,24.93,0,37.396
			C105.079,77.419,95.567,81.359,88.558,88.374z"/>
		<path fill="none" stroke="#FFFFFF" stroke-width="4" stroke-linecap="round" stroke-linejoin="round" d="M77.604,114.814
			c-12.466,0-24.932,0-37.395,0c0-19.835,7.879-38.858,21.902-52.884c8.815,8.813,17.631,17.628,26.445,26.443
			C81.544,95.385,77.604,104.898,77.604,114.814z"/>
		<path fill="none" stroke="#FFFFFF" stroke-width="4" stroke-linecap="round" stroke-linejoin="round" d="M77.604,114.814
			c-12.466,0-24.932,0-37.395,0c0,19.836,7.879,38.859,21.902,52.887c8.815-8.816,17.631-17.629,26.445-26.443
			C81.544,134.244,77.604,124.734,77.604,114.814z"/>
		<path fill="none" stroke="#FFFFFF" stroke-width="4" stroke-linecap="round" stroke-linejoin="round" d="M62.112,167.701
			c8.815-8.816,17.631-17.629,26.445-26.443c7.01,7.012,16.521,10.953,26.442,10.953c0,12.467,0,24.932,0,37.395
			C95.164,189.605,76.141,181.727,62.112,167.701z"/>
		<path fill="none" stroke="#FFFFFF" stroke-width="4" stroke-linecap="round" stroke-linejoin="round" d="M115,152.211
			c9.915,0,19.428-3.941,26.441-10.953c8.817,8.814,17.63,17.627,26.44,26.443c-14.021,14.025-33.047,21.904-52.882,21.904
			C115,177.143,115,164.678,115,152.211z"/>
		<path fill="none" stroke="#FFFFFF" stroke-width="4" stroke-linecap="round" stroke-linejoin="round" d="M141.441,141.258
			c7.013-7.014,10.956-16.523,10.956-26.443c12.46,0,24.927,0,37.391,0c0,19.836-7.879,38.859-21.906,52.887
			C159.071,158.885,150.259,150.072,141.441,141.258z"/>
		<path fill="none" stroke="#FFFFFF" stroke-width="4" stroke-linecap="round" stroke-linejoin="round" d="M167.882,61.93
			c-8.811,8.813-17.623,17.628-26.44,26.443c7.013,7.012,10.956,16.524,10.956,26.441c12.46,0,24.927,0,37.391,0
			C189.788,94.979,181.909,75.957,167.882,61.93z"/>
		<path fill="none" stroke="#FFFFFF" stroke-width="4" stroke-linecap="round" stroke-linejoin="round" d="M115,77.419
			c0-12.465,0-24.93,0-37.396c19.835,0,38.861,7.88,52.882,21.906c-8.811,8.813-17.623,17.628-26.44,26.443
			C134.428,81.359,124.915,77.419,115,77.419z"/>
		<path fill="none" stroke="#FFFFFF" stroke-width="4" stroke-linecap="round" stroke-linejoin="round" d="M62.112,61.93
			C53.3,53.116,44.487,44.301,35.67,35.488C14.632,56.527,2.813,85.062,2.813,114.814c12.465,0,24.931,0,37.396,0
			C40.21,94.979,48.089,75.957,62.112,61.93z"/>
		<path fill="none" stroke="#FFFFFF" stroke-width="4" stroke-linecap="round" stroke-linejoin="round" d="M35.67,194.143
			c-21.038-21.041-32.856-49.574-32.856-79.328c12.465,0,24.931,0,37.396,0c0,19.836,7.879,38.859,21.902,52.887
			C53.3,176.514,44.487,185.328,35.67,194.143z"/>
		<path fill="none" stroke="#FFFFFF" stroke-width="4" stroke-linecap="round" stroke-linejoin="round" d="M115,189.605
			c0,12.465,0,24.932,0,37.395c-29.757,0-58.29-11.816-79.33-32.857c8.817-8.814,17.63-17.629,26.442-26.441
			C76.141,181.727,95.164,189.605,115,189.605z"/>
		<path fill="none" stroke="#FFFFFF" stroke-width="4" stroke-linecap="round" stroke-linejoin="round" d="M115,189.605
			c0,12.465,0,24.932,0,37.395c29.754,0,58.289-11.816,79.328-32.857c-8.816-8.814-17.629-17.629-26.446-26.441
			C153.861,181.727,134.835,189.605,115,189.605z"/>
		<path fill="none" stroke="#FFFFFF" stroke-width="4" stroke-linecap="round" stroke-linejoin="round" d="M167.882,167.701
			c14.027-14.027,21.906-33.051,21.906-52.887c12.467,0,24.933,0,37.397,0c0,29.754-11.822,58.287-32.857,79.328
			C185.512,185.328,176.699,176.514,167.882,167.701z"/>
		<path fill="none" stroke="#FFFFFF" stroke-width="4" stroke-miterlimit="10" d="M227.186,114.814c-12.465,0-24.931,0-37.397,0
			c0-19.835-7.879-38.858-21.906-52.884c8.817-8.814,17.63-17.629,26.446-26.442C215.363,56.527,227.186,85.062,227.186,114.814z"/>
		<path fill="none" stroke="#FFFFFF" stroke-width="4" stroke-linecap="round" stroke-linejoin="round" d="M115,40.024
			c0-12.465,0-24.93,0-37.396c29.754,0,58.289,11.82,79.328,32.859c-8.816,8.813-17.629,17.628-26.446,26.442
			C153.861,47.904,134.835,40.024,115,40.024z"/>
		<path fill="none" stroke="#FFFFFF" stroke-width="4" stroke-linecap="round" stroke-linejoin="round" d="M115,2.628
			c0,12.465,0,24.931,0,37.396c-19.836,0-38.859,7.88-52.888,21.906C53.3,53.116,44.487,44.301,35.67,35.488
			C56.71,14.448,85.243,2.628,115,2.628z"/>
	</g>
</g>
</svg>
