<?xml version="1.0" encoding="utf-8"?>
<!-- Generator: Adobe Illustrator 15.1.0, SVG Export Plug-In . SVG Version: 6.00 Build 0)  -->
<!DOCTYPE svg PUBLIC "-//W3C//DTD SVG 1.1//EN" "http://www.w3.org/Graphics/SVG/1.1/DTD/svg11.dtd">
<svg version="1.1" xmlns="http://www.w3.org/2000/svg" xmlns:xlink="http://www.w3.org/1999/xlink" x="0px" y="0px" width="231px"
	 height="229px" viewBox="0 0 231 229" enable-background="new 0 0 231 229" xml:space="preserve">
<g id="Layer_2">
</g>
<g id="Layer_5">
	<g>
		<path fill="#FFFFFF" d="M37.926,169.365h-0.08l-4.539,2.449l-0.683-2.691l5.703-3.051h3.012v26.104h-3.414V169.365z"/>
		<path fill="#FFFFFF" d="M60.173,187.92c1.566,1.004,3.815,1.766,6.225,1.766c3.574,0,5.663-1.887,5.663-4.617
			c0-2.49-1.446-3.977-5.101-5.342c-4.417-1.607-7.148-3.936-7.148-7.711c0-4.217,3.494-7.35,8.755-7.35
			c2.731,0,4.779,0.643,5.944,1.324l-0.964,2.852c-0.844-0.521-2.651-1.285-5.101-1.285c-3.695,0-5.101,2.209-5.101,4.057
			c0,2.531,1.646,3.775,5.382,5.221c4.578,1.768,6.867,3.977,6.867,7.953c0,4.176-3.052,7.83-9.438,7.83
			c-2.611,0-5.462-0.803-6.908-1.766L60.173,187.92z"/>
		<path fill="#FFFFFF" d="M80.293,163.662h3.534v12.168h0.081c0.562-1.004,1.446-1.928,2.53-2.529
			c1.044-0.604,2.29-0.965,3.615-0.965c2.61,0,6.787,1.607,6.787,8.273v11.566h-3.534v-11.164c0-3.133-1.165-5.744-4.498-5.744
			c-2.289,0-4.056,1.607-4.739,3.494c-0.201,0.523-0.241,1.045-0.241,1.688v11.727h-3.534V163.662z"/>
		<path fill="#FFFFFF" d="M116.236,187.518c0,1.688,0.08,3.334,0.281,4.658h-3.173l-0.281-2.449h-0.12
			c-1.084,1.525-3.173,2.891-5.944,2.891c-3.936,0-5.944-2.77-5.944-5.582c0-4.699,4.177-7.27,11.687-7.229v-0.402
			c0-1.566-0.441-4.498-4.417-4.457c-1.847,0-3.735,0.521-5.101,1.445l-0.803-2.369c1.606-1.004,3.976-1.688,6.426-1.688
			c5.944,0,7.39,4.057,7.39,7.912V187.518z M112.823,182.256c-3.855-0.08-8.233,0.604-8.233,4.379c0,2.328,1.526,3.373,3.293,3.373
			c2.57,0,4.217-1.607,4.779-3.254c0.121-0.4,0.161-0.803,0.161-1.123V182.256z"/>
		<path fill="#FFFFFF" d="M138.686,163.662v23.494c0,1.727,0.08,3.695,0.161,5.02h-3.133l-0.161-3.373h-0.12
			c-1.044,2.168-3.374,3.814-6.546,3.814c-4.699,0-8.354-3.975-8.354-9.879c-0.041-6.467,4.016-10.402,8.715-10.402
			c3.012,0,4.98,1.406,5.863,2.932h0.08v-11.605H138.686z M135.191,180.65c0-0.441-0.04-1.045-0.16-1.486
			c-0.522-2.209-2.45-4.057-5.101-4.057c-3.655,0-5.823,3.213-5.823,7.471c0,3.936,1.968,7.188,5.743,7.188
			c2.369,0,4.538-1.605,5.181-4.217c0.12-0.48,0.16-0.963,0.16-1.525V180.65z"/>
		<path fill="#FFFFFF" d="M162.18,182.297c0,7.189-5.021,10.32-9.68,10.32c-5.221,0-9.317-3.855-9.317-10
			c0-6.465,4.298-10.281,9.639-10.281C158.404,172.336,162.18,176.393,162.18,182.297z M146.797,182.498
			c0,4.256,2.41,7.469,5.864,7.469c3.373,0,5.903-3.172,5.903-7.549c0-3.295-1.646-7.432-5.823-7.432
			C148.604,174.986,146.797,178.842,146.797,182.498z"/>
		<path fill="#FFFFFF" d="M167.762,172.738l2.609,9.879c0.522,2.17,1.045,4.178,1.406,6.186h0.121
			c0.441-1.969,1.084-4.057,1.727-6.145l3.172-9.92h2.973l3.012,9.719c0.723,2.33,1.285,4.377,1.727,6.346h0.121
			c0.321-1.969,0.844-4.016,1.486-6.305l2.771-9.76h3.494l-6.265,19.438h-3.213l-2.973-9.277c-0.683-2.168-1.244-4.096-1.727-6.385
			h-0.08c-0.482,2.328-1.084,4.338-1.768,6.426l-3.133,9.236h-3.213l-5.863-19.438H167.762z"/>
	</g>
	<rect x="105.37" y="74.224" fill="#FFFFFF" width="19.334" height="19.333"/>
	<rect x="105.37" y="53.89" fill="#FFFFFF" width="19.334" height="19.333"/>
	
		<line fill="none" stroke="#FFFFFF" stroke-width="0.5" stroke-miterlimit="10" x1="63.514" y1="100.075" x2="166.108" y2="100.075"/>
	
		<line fill="none" stroke="#FFFFFF" stroke-width="0.5" stroke-miterlimit="10" x1="61.264" y1="103.116" x2="168.235" y2="103.116"/>
	
		<line fill="none" stroke="#FFFFFF" stroke-width="0.75" stroke-miterlimit="10" x1="59.295" y1="105.929" x2="170.255" y2="105.929"/>
	
		<line fill="none" stroke="#FFFFFF" stroke-width="0.75" stroke-miterlimit="10" x1="56.607" y1="109.319" x2="172.358" y2="109.319"/>
	<line fill="none" stroke="#FFFFFF" stroke-miterlimit="10" x1="54.013" y1="113.152" x2="174.983" y2="113.152"/>
	<line fill="none" stroke="#FFFFFF" stroke-miterlimit="10" x1="50.919" y1="117.293" x2="177.983" y2="117.293"/>
	
		<line fill="none" stroke="#FFFFFF" stroke-width="1.5" stroke-miterlimit="10" x1="47.323" y1="121.725" x2="181.661" y2="121.725"/>
	
		<line fill="none" stroke="#FFFFFF" stroke-width="1.5" stroke-miterlimit="10" x1="43.576" y1="126.949" x2="185.431" y2="126.949"/>
	
		<line fill="none" stroke="#FFFFFF" stroke-width="0.25" stroke-miterlimit="10" x1="65.506" y1="97.374" x2="164.233" y2="97.374"/>
	
		<line fill="none" stroke="#FFFFFF" stroke-width="1.5" stroke-linejoin="round" stroke-miterlimit="10" x1="38.694" y1="132.467" x2="189.517" y2="132.467"/>
	
		<line fill="none" stroke="#FFFFFF" stroke-width="0.25" stroke-linejoin="round" stroke-miterlimit="10" x1="162.331" y1="94.591" x2="67.508" y2="94.591"/>
	<g>
		<polygon fill="#FFFFFF" points="188.058,133.104 162.331,94.714 162.331,94.459 189.517,131.721 		"/>
	</g>
	<g>
		<polygon fill="#FFFFFF" points="40.099,133.197 67.498,94.703 67.508,94.447 38.694,131.76 		"/>
	</g>
	<g>
		<polygon fill="#FFFFFF" points="54.063,131.75 52.563,131.75 76.603,94.667 76.88,94.667 		"/>
	</g>
	<g>
		<polygon fill="#FFFFFF" points="69.521,131.729 68.021,131.729 86.271,94.729 86.548,94.729 		"/>
	</g>
	<g>
		<polygon fill="#FFFFFF" points="84.854,131.791 83.354,131.791 95.313,94.591 95.59,94.591 		"/>
	</g>
	<g>
		<polygon fill="#FFFFFF" points="100.057,132.438 98.557,132.438 105.094,94.591 105.372,94.591 		"/>
	</g>
	<g>
		<polygon fill="#FFFFFF" points="115.691,132.076 114.193,132.076 114.785,94.591 115.063,94.591 		"/>
	</g>
	<g>
		<polygon fill="#FFFFFF" points="175.501,131.906 177.001,131.906 152.851,94.652 152.573,94.652 		"/>
	</g>
	<g>
		<polygon fill="#FFFFFF" points="160.282,131.969 161.782,131.969 143.042,94.563 142.765,94.563 		"/>
	</g>
	<g>
		<polygon fill="#FFFFFF" points="129.358,132 130.858,132 124.396,94.521 124.118,94.521 		"/>
	</g>
	<g>
		<polygon fill="#FFFFFF" points="144.72,131.969 146.22,131.969 134.083,94.542 133.806,94.542 		"/>
	</g>
</g>
</svg>
