<?xml version="1.0" encoding="utf-8"?>
<!-- Generator: Adobe Illustrator 15.1.0, SVG Export Plug-In . SVG Version: 6.00 Build 0)  -->
<!DOCTYPE svg PUBLIC "-//W3C//DTD SVG 1.1//EN" "http://www.w3.org/Graphics/SVG/1.1/DTD/svg11.dtd">
<svg version="1.1" xmlns="http://www.w3.org/2000/svg" xmlns:xlink="http://www.w3.org/1999/xlink" x="0px" y="0px" width="231px"
	 height="229px" viewBox="0 0 231 229" enable-background="new 0 0 231 229" xml:space="preserve">
<g id="Layer_2">
</g>
<g id="Layer_4">
	<g>
		<path fill="#FFFFFF" d="M31.919,169.858c1.004,0.603,3.293,1.606,5.783,1.606c4.498,0,5.943-2.852,5.903-5.061
			c-0.04-3.654-3.333-5.221-6.747-5.221h-1.968v-2.65h1.968c2.57,0,5.823-1.326,5.823-4.418c0-2.088-1.325-3.936-4.578-3.936
			c-2.088,0-4.097,0.924-5.221,1.727l-0.964-2.57c1.405-1.004,4.056-2.008,6.867-2.008c5.141,0,7.47,3.053,7.47,6.225
			c0,2.73-1.647,5.021-4.819,6.186v0.08c3.213,0.602,5.783,3.012,5.823,6.666c0,4.178-3.293,7.832-9.518,7.832
			c-2.932,0-5.502-0.924-6.787-1.768L31.919,169.858z"/>
		<path fill="#FFFFFF" d="M60.994,169.617c1.566,1.004,3.815,1.768,6.225,1.768c3.574,0,5.663-1.888,5.663-4.619
			c0-2.49-1.446-3.976-5.101-5.342c-4.417-1.605-7.148-3.936-7.148-7.711c0-4.217,3.494-7.349,8.755-7.349
			c2.731,0,4.779,0.643,5.944,1.325l-0.964,2.852c-0.844-0.521-2.651-1.285-5.101-1.285c-3.695,0-5.101,2.209-5.101,4.057
			c0,2.529,1.646,3.775,5.382,5.221c4.578,1.768,6.867,3.976,6.867,7.951c0,4.178-3.052,7.832-9.438,7.832
			c-2.611,0-5.462-0.803-6.908-1.768L60.994,169.617z"/>
		<path fill="#FFFFFF" d="M81.114,145.359h3.534v12.17h0.081c0.562-1.004,1.446-1.928,2.53-2.531
			c1.044-0.602,2.29-0.963,3.615-0.963c2.61,0,6.787,1.605,6.787,8.273v11.566h-3.534v-11.166c0-3.132-1.165-5.742-4.498-5.742
			c-2.289,0-4.056,1.606-4.739,3.494c-0.201,0.521-0.241,1.044-0.241,1.687v11.728h-3.534V145.359z"/>
		<path fill="#FFFFFF" d="M117.057,169.216c0,1.687,0.081,3.333,0.281,4.659h-3.172l-0.281-2.451h-0.12
			c-1.084,1.527-3.173,2.893-5.944,2.893c-3.936,0-5.944-2.771-5.944-5.582c0-4.699,4.177-7.27,11.687-7.229v-0.401
			c0-1.566-0.441-4.498-4.417-4.458c-1.847,0-3.735,0.522-5.101,1.446l-0.803-2.37c1.606-1.004,3.976-1.687,6.426-1.687
			c5.944,0,7.389,4.057,7.389,7.912V169.216z M113.644,163.955c-3.855-0.08-8.233,0.602-8.233,4.377c0,2.33,1.526,3.373,3.293,3.373
			c2.57,0,4.217-1.605,4.779-3.252c0.121-0.402,0.161-0.804,0.161-1.125V163.955z"/>
		<path fill="#FFFFFF" d="M139.506,145.359v23.495c0,1.728,0.081,3.694,0.162,5.021h-3.133l-0.161-3.374h-0.12
			c-1.045,2.169-3.374,3.815-6.547,3.815c-4.699,0-8.354-3.977-8.354-9.88c-0.04-6.466,4.016-10.401,8.715-10.401
			c3.012,0,4.98,1.405,5.863,2.932h0.081v-11.607H139.506z M136.013,162.348c0-0.441-0.04-1.043-0.161-1.485
			c-0.521-2.209-2.449-4.056-5.1-4.056c-3.655,0-5.824,3.213-5.824,7.469c0,3.937,1.969,7.189,5.744,7.189
			c2.369,0,4.537-1.606,5.18-4.217c0.121-0.482,0.161-0.964,0.161-1.526V162.348z"/>
		<path fill="#FFFFFF" d="M163,163.994c0,7.189-5.02,10.322-9.68,10.322c-5.221,0-9.316-3.855-9.316-10
			c0-6.467,4.297-10.281,9.639-10.281C159.225,154.035,163,158.092,163,163.994z M147.618,164.195c0,4.258,2.409,7.471,5.864,7.471
			c3.373,0,5.902-3.174,5.902-7.551c0-3.293-1.646-7.43-5.822-7.43C149.426,156.686,147.618,160.541,147.618,164.195z"/>
		<path fill="#FFFFFF" d="M168.582,154.437l2.61,9.88c0.522,2.168,1.044,4.176,1.405,6.185h0.121
			c0.441-1.968,1.084-4.056,1.727-6.145l3.173-9.92h2.972l3.012,9.72c0.724,2.328,1.285,4.377,1.728,6.345h0.12
			c0.322-1.968,0.844-4.017,1.486-6.306l2.771-9.759h3.494l-6.266,19.438h-3.213l-2.972-9.277c-0.683-2.169-1.245-4.097-1.728-6.387
			h-0.08c-0.482,2.33-1.084,4.338-1.768,6.426l-3.132,9.238h-3.213l-5.864-19.438H168.582z"/>
		<path fill="#FFFFFF" d="M84.991,209.031c-1.245,0.643-3.855,1.285-7.149,1.285c-7.63,0-13.333-4.82-13.333-13.734
			c0-8.516,5.743-14.219,14.137-14.219c3.333,0,5.502,0.725,6.426,1.205l-0.884,2.852c-1.285-0.643-3.172-1.123-5.421-1.123
			c-6.346,0-10.563,4.055-10.563,11.164c0,6.666,3.815,10.883,10.362,10.883c2.168,0,4.337-0.441,5.743-1.123L84.991,209.031z"/>
		<path fill="#FFFFFF" d="M106.436,199.994c0,7.189-5.021,10.322-9.679,10.322c-5.221,0-9.317-3.855-9.317-10
			c0-6.467,4.297-10.281,9.639-10.281C102.661,190.035,106.436,194.092,106.436,199.994z M91.054,200.195
			c0,4.258,2.41,7.471,5.863,7.471c3.374,0,5.904-3.174,5.904-7.551c0-3.293-1.646-7.43-5.823-7.43
			C92.861,192.686,91.054,196.541,91.054,200.195z"/>
		<path fill="#FFFFFF" d="M110.893,181.359h3.534v28.516h-3.534V181.359z"/>
		<path fill="#FFFFFF" d="M137.961,199.994c0,7.189-5.02,10.322-9.68,10.322c-5.221,0-9.316-3.855-9.316-10
			c0-6.467,4.297-10.281,9.639-10.281C134.186,190.035,137.961,194.092,137.961,199.994z M122.579,200.195
			c0,4.258,2.409,7.471,5.864,7.471c3.373,0,5.902-3.174,5.902-7.551c0-3.293-1.646-7.43-5.822-7.43
			C124.387,192.686,122.579,196.541,122.579,200.195z"/>
		<path fill="#FFFFFF" d="M142.418,196.5c0-2.289-0.04-4.256-0.16-6.063h3.092l0.16,3.855h0.121
			c0.884-2.611,3.053-4.258,5.422-4.258c0.361,0,0.643,0.039,0.964,0.08v3.334c-0.361-0.08-0.724-0.08-1.204-0.08
			c-2.49,0-4.258,1.846-4.74,4.498c-0.08,0.48-0.12,1.084-0.12,1.646v10.361h-3.534V196.5z"/>
		<path fill="#FFFFFF" d="M155.068,206.301c1.084,0.643,2.932,1.365,4.699,1.365c2.529,0,3.734-1.246,3.734-2.893
			c0-1.686-1.004-2.57-3.574-3.533c-3.533-1.285-5.181-3.174-5.181-5.502c0-3.133,2.57-5.703,6.707-5.703
			c1.968,0,3.694,0.521,4.739,1.205l-0.844,2.57c-0.764-0.482-2.168-1.166-3.977-1.166c-2.088,0-3.213,1.205-3.213,2.652
			c0,1.605,1.125,2.328,3.655,3.332c3.333,1.246,5.101,2.932,5.101,5.824c0,3.453-2.691,5.863-7.229,5.863
			c-2.129,0-4.098-0.563-5.463-1.365L155.068,206.301z"/>
	</g>
	<polygon fill="#FF00FF" points="48.129,118.402 55.707,108.554 55.707,88.443 48.129,96.072 	"/>
	<polygon fill="#FFFF00" points="48.036,94.882 55.613,87.253 55.613,66.189 48.036,72.554 	"/>
	<polygon fill="#FF00FF" points="180.496,118.402 172.918,108.554 172.918,88.443 180.496,96.072 	"/>
	<polygon fill="#FFFF00" points="180.589,94.882 173.012,87.253 173.012,66.189 180.589,72.554 	"/>
	
		<line fill="none" stroke="#FFFFFF" stroke-width="0.5" stroke-miterlimit="10" x1="63.367" y1="100.909" x2="165.961" y2="100.909"/>
	<line fill="none" stroke="#FFFFFF" stroke-width="0.5" stroke-miterlimit="10" x1="61.117" y1="103.95" x2="168.088" y2="103.95"/>
	
		<line fill="none" stroke="#FFFFFF" stroke-width="0.75" stroke-miterlimit="10" x1="59.148" y1="106.762" x2="170.107" y2="106.762"/>
	
		<line fill="none" stroke="#FFFFFF" stroke-width="0.75" stroke-miterlimit="10" x1="56.461" y1="110.153" x2="172.211" y2="110.153"/>
	<line fill="none" stroke="#FFFFFF" stroke-miterlimit="10" x1="53.866" y1="113.986" x2="174.836" y2="113.986"/>
	<line fill="none" stroke="#FFFFFF" stroke-miterlimit="10" x1="50.772" y1="118.127" x2="177.836" y2="118.127"/>
	
		<line fill="none" stroke="#FFFFFF" stroke-width="1.5" stroke-miterlimit="10" x1="47.176" y1="122.559" x2="181.514" y2="122.559"/>
	
		<line fill="none" stroke="#FFFFFF" stroke-width="1.5" stroke-miterlimit="10" x1="43.429" y1="127.783" x2="185.283" y2="127.783"/>
	
		<line fill="none" stroke="#FFFFFF" stroke-width="0.25" stroke-miterlimit="10" x1="65.359" y1="98.208" x2="164.086" y2="98.208"/>
	
		<line fill="none" stroke="#FFFFFF" stroke-width="1.5" stroke-linejoin="round" stroke-miterlimit="10" x1="38.547" y1="133.301" x2="189.369" y2="133.301"/>
	
		<line fill="none" stroke="#FFFFFF" stroke-width="0.25" stroke-linejoin="round" stroke-miterlimit="10" x1="162.184" y1="95.424" x2="67.361" y2="95.424"/>
	<g>
		<polygon fill="#FFFFFF" points="187.91,133.938 162.184,95.547 162.184,95.292 189.369,132.555 		"/>
	</g>
	<g>
		<polygon fill="#FFFFFF" points="39.952,134.031 67.406,95.5 67.361,95.281 38.547,132.594 		"/>
	</g>
	<g>
		<polygon fill="#FFFFFF" points="53.916,132.584 52.416,132.584 76.455,95.5 76.732,95.5 		"/>
	</g>
	<g>
		<polygon fill="#FFFFFF" points="69.375,132.563 67.875,132.563 86.181,95.417 86.458,95.417 		"/>
	</g>
	<g>
		<polygon fill="#FFFFFF" points="84.707,132.625 83.207,132.625 95.166,95.424 95.443,95.424 		"/>
	</g>
	<g>
		<polygon fill="#FFFFFF" points="99.91,133.271 98.41,133.271 104.947,95.424 105.225,95.424 		"/>
	</g>
	<g>
		<polygon fill="#FFFFFF" points="115.545,132.91 114.046,132.91 114.639,95.424 114.916,95.424 		"/>
	</g>
	<g>
		<polygon fill="#FFFFFF" points="175.354,132.74 176.854,132.74 152.703,95.485 152.426,95.485 		"/>
	</g>
	<g>
		<polygon fill="#FFFFFF" points="160.135,132.803 161.635,132.803 142.895,95.396 142.617,95.396 		"/>
	</g>
	<g>
		<polygon fill="#FFFFFF" points="129.211,132.834 130.711,132.834 124.25,95.396 123.973,95.396 		"/>
	</g>
	<g>
		<polygon fill="#FFFFFF" points="144.572,132.803 146.072,132.803 133.896,95.375 133.618,95.375 		"/>
	</g>
	<polygon fill="#FFFFFF" points="127.625,117.834 101.791,118.333 102.625,110 126.625,110.333 	"/>
	<rect x="105.495" y="74.974" fill="#FF00FF" width="19.334" height="19.333"/>
	<rect x="105.37" y="54.64" fill="#FFFF00" width="19.334" height="19.333"/>
</g>
</svg>
