<?xml version="1.0" encoding="utf-8"?>
<!-- Generator: Adobe Illustrator 15.1.0, SVG Export Plug-In . SVG Version: 6.00 Build 0)  -->
<!DOCTYPE svg PUBLIC "-//W3C//DTD SVG 1.1//EN" "http://www.w3.org/Graphics/SVG/1.1/DTD/svg11.dtd">
<svg version="1.1" xmlns="http://www.w3.org/2000/svg" xmlns:xlink="http://www.w3.org/1999/xlink" x="0px" y="0px" width="231px"
	 height="229px" viewBox="0 0 231 229" enable-background="new 0 0 231 229" xml:space="preserve">
<g id="Layer_2">
</g>
<g id="Layer_5_copy">
	<g>
		<path fill="#FFFFFF" d="M35.135,169.924c1.004,0.602,3.293,1.605,5.783,1.605c4.498,0,5.943-2.85,5.903-5.059
			c-0.04-3.656-3.333-5.223-6.747-5.223h-1.968v-2.65h1.968c2.57,0,5.823-1.324,5.823-4.418c0-2.088-1.325-3.936-4.578-3.936
			c-2.088,0-4.097,0.924-5.221,1.729l-0.964-2.57c1.405-1.006,4.056-2.01,6.867-2.01c5.141,0,7.47,3.053,7.47,6.227
			c0,2.73-1.647,5.02-4.819,6.184v0.08c3.213,0.604,5.783,3.014,5.823,6.668c0,4.176-3.293,7.83-9.518,7.83
			c-2.932,0-5.502-0.924-6.787-1.766L35.135,169.924z"/>
		<path fill="#FFFFFF" d="M64.209,169.684c1.566,1.004,3.815,1.766,6.225,1.766c3.574,0,5.663-1.887,5.663-4.617
			c0-2.49-1.446-3.977-5.101-5.342c-4.417-1.607-7.148-3.936-7.148-7.711c0-4.217,3.494-7.35,8.755-7.35
			c2.731,0,4.779,0.643,5.944,1.324l-0.964,2.852c-0.844-0.521-2.651-1.285-5.101-1.285c-3.695,0-5.101,2.209-5.101,4.057
			c0,2.531,1.646,3.775,5.382,5.221c4.578,1.768,6.867,3.977,6.867,7.953c0,4.176-3.052,7.83-9.438,7.83
			c-2.611,0-5.462-0.803-6.908-1.766L64.209,169.684z"/>
		<path fill="#FFFFFF" d="M84.329,145.426h3.534v12.168h0.081c0.562-1.004,1.446-1.928,2.53-2.529
			c1.044-0.604,2.29-0.965,3.615-0.965c2.61,0,6.787,1.607,6.787,8.273v11.566h-3.534v-11.164c0-3.133-1.165-5.744-4.498-5.744
			c-2.289,0-4.056,1.607-4.739,3.494c-0.201,0.523-0.241,1.045-0.241,1.688v11.727h-3.534V145.426z"/>
		<path fill="#FFFFFF" d="M120.272,169.281c0,1.688,0.081,3.334,0.281,4.658h-3.173l-0.281-2.449h-0.12
			c-1.084,1.525-3.173,2.891-5.944,2.891c-3.936,0-5.944-2.77-5.944-5.582c0-4.699,4.177-7.27,11.687-7.229v-0.402
			c0-1.566-0.441-4.498-4.417-4.457c-1.847,0-3.735,0.521-5.101,1.445l-0.803-2.369c1.606-1.004,3.976-1.688,6.426-1.688
			c5.943,0,7.39,4.057,7.39,7.912V169.281z M116.859,164.02c-3.856-0.08-8.233,0.604-8.233,4.379c0,2.328,1.526,3.373,3.293,3.373
			c2.57,0,4.217-1.607,4.779-3.254c0.12-0.4,0.161-0.803,0.161-1.123V164.02z"/>
		<path fill="#FFFFFF" d="M142.722,145.426v23.494c0,1.727,0.081,3.695,0.161,5.02h-3.133l-0.16-3.373h-0.121
			c-1.044,2.168-3.373,3.814-6.546,3.814c-4.699,0-8.354-3.975-8.354-9.879c-0.04-6.467,4.016-10.402,8.715-10.402
			c3.012,0,4.979,1.406,5.863,2.932h0.081v-11.605H142.722z M139.229,162.414c0-0.441-0.041-1.045-0.161-1.486
			c-0.522-2.209-2.45-4.057-5.101-4.057c-3.654,0-5.823,3.213-5.823,7.471c0,3.936,1.968,7.188,5.743,7.188
			c2.369,0,4.538-1.605,5.181-4.217c0.12-0.48,0.161-0.963,0.161-1.525V162.414z"/>
		<path fill="#FFFFFF" d="M166.215,164.061c0,7.189-5.02,10.32-9.679,10.32c-5.221,0-9.317-3.855-9.317-10
			c0-6.465,4.297-10.281,9.639-10.281C162.439,154.1,166.215,158.156,166.215,164.061z M150.834,164.262
			c0,4.256,2.409,7.469,5.863,7.469c3.373,0,5.903-3.172,5.903-7.549c0-3.295-1.646-7.432-5.823-7.432
			C152.641,156.75,150.834,160.605,150.834,164.262z"/>
		<path fill="#FFFFFF" d="M171.797,154.502l2.611,9.879c0.521,2.17,1.044,4.178,1.405,6.186h0.12
			c0.442-1.969,1.085-4.057,1.728-6.145l3.173-9.92h2.972l3.012,9.719c0.724,2.33,1.285,4.377,1.728,6.346h0.12
			c0.321-1.969,0.843-4.016,1.485-6.305l2.771-9.76h3.494l-6.266,19.438h-3.213l-2.971-9.277c-0.684-2.168-1.246-4.096-1.728-6.385
			h-0.08c-0.482,2.328-1.085,4.338-1.768,6.426l-3.132,9.236h-3.213l-5.864-19.438H171.797z"/>
		<path fill="#FFFFFF" d="M108.467,208.734c-1.566,0.604-4.699,1.486-8.354,1.486c-4.097,0-7.47-1.043-10.121-3.574
			c-2.329-2.248-3.775-5.863-3.775-10.08c0-8.072,5.583-13.977,14.659-13.977c3.133,0,5.623,0.684,6.787,1.246l-0.883,2.852
			c-1.446-0.684-3.253-1.166-5.984-1.166c-6.586,0-10.884,4.098-10.884,10.885c0,6.867,4.097,10.924,10.442,10.924
			c2.289,0,3.855-0.322,4.659-0.723v-8.074h-5.462v-2.811h8.916V208.734z"/>
		<path fill="#FFFFFF" d="M127.622,205.281c0,1.688,0.081,3.334,0.281,4.658h-3.173l-0.281-2.449h-0.12
			c-1.085,1.525-3.173,2.891-5.944,2.891c-3.936,0-5.943-2.77-5.943-5.582c0-4.699,4.177-7.27,11.687-7.229v-0.402
			c0-1.566-0.441-4.498-4.417-4.457c-1.848,0-3.735,0.521-5.101,1.445l-0.803-2.369c1.606-1.004,3.977-1.688,6.426-1.688
			c5.943,0,7.39,4.057,7.39,7.912V205.281z M124.209,200.02c-3.855-0.08-8.233,0.604-8.233,4.379c0,2.328,1.526,3.373,3.293,3.373
			c2.57,0,4.217-1.607,4.779-3.254c0.12-0.4,0.161-0.803,0.161-1.123V200.02z"/>
		<path fill="#FFFFFF" d="M133.324,196.848c0-2.49-0.08-4.498-0.16-6.346h3.133l0.2,3.334h0.08c1.405-2.371,3.735-3.736,6.908-3.736
			c4.739,0,8.272,3.977,8.272,9.84c0,6.988-4.297,10.441-8.875,10.441c-2.57,0-4.819-1.123-5.984-3.051h-0.08v10.563h-3.494V196.848
			z M136.818,202.027c0,0.523,0.04,1.004,0.16,1.447c0.643,2.449,2.771,4.137,5.302,4.137c3.735,0,5.903-3.053,5.903-7.512
			c0-3.855-2.048-7.188-5.783-7.188c-2.409,0-4.698,1.686-5.341,4.336c-0.12,0.443-0.241,0.965-0.241,1.406V202.027z"/>
	</g>
	<polygon opacity="0.5" fill="#FFFFFF" points="48.171,117.575 55.749,107.728 55.749,87.617 48.171,95.246 	"/>
	<polygon fill="#FFFFFF" points="48.078,94.056 55.655,86.426 55.655,65.363 48.078,71.727 	"/>
	<polygon opacity="0.5" fill="#FFFFFF" points="180.538,117.575 172.96,107.728 172.96,87.617 180.538,95.245 	"/>
	<polygon fill="#FFFFFF" points="180.631,94.056 173.054,86.426 173.054,65.363 180.631,71.727 	"/>
	
		<line fill="none" stroke="#FFFFFF" stroke-width="0.5" stroke-miterlimit="10" x1="63.575" y1="100.242" x2="166.169" y2="100.242"/>
	
		<line fill="none" stroke="#FFFFFF" stroke-width="0.5" stroke-miterlimit="10" x1="61.325" y1="103.283" x2="168.296" y2="103.283"/>
	
		<line fill="none" stroke="#FFFFFF" stroke-width="0.75" stroke-miterlimit="10" x1="59.356" y1="106.096" x2="170.315" y2="106.096"/>
	
		<line fill="none" stroke="#FFFFFF" stroke-width="0.75" stroke-miterlimit="10" x1="56.669" y1="109.486" x2="172.419" y2="109.486"/>
	<line fill="none" stroke="#FFFFFF" stroke-miterlimit="10" x1="54.075" y1="113.32" x2="175.044" y2="113.32"/>
	<line fill="none" stroke="#FFFFFF" stroke-miterlimit="10" x1="50.981" y1="117.461" x2="178.044" y2="117.461"/>
	
		<line fill="none" stroke="#FFFFFF" stroke-width="1.5" stroke-miterlimit="10" x1="47.385" y1="121.893" x2="181.722" y2="121.893"/>
	
		<line fill="none" stroke="#FFFFFF" stroke-width="1.5" stroke-miterlimit="10" x1="43.637" y1="127.117" x2="185.491" y2="127.117"/>
	
		<line fill="none" stroke="#FFFFFF" stroke-width="0.25" stroke-miterlimit="10" x1="65.567" y1="97.541" x2="164.294" y2="97.541"/>
	
		<line fill="none" stroke="#FFFFFF" stroke-width="1.5" stroke-linejoin="round" stroke-miterlimit="10" x1="38.755" y1="132.635" x2="189.577" y2="132.635"/>
	
		<line fill="none" stroke="#FFFFFF" stroke-width="0.25" stroke-linejoin="round" stroke-miterlimit="10" x1="162.392" y1="94.758" x2="67.569" y2="94.758"/>
	<g>
		<polygon fill="#FFFFFF" points="188.118,133.271 162.392,94.881 162.392,94.626 189.577,131.889 		"/>
	</g>
	<g>
		<polygon fill="#FFFFFF" points="40.16,133.365 67.615,94.833 67.569,94.615 38.755,131.928 		"/>
	</g>
	<g>
		<polygon fill="#FFFFFF" points="54.125,131.918 52.625,131.918 76.664,94.834 76.941,94.834 		"/>
	</g>
	<g>
		<polygon fill="#FFFFFF" points="69.583,131.896 68.083,131.896 86.389,94.75 86.667,94.75 		"/>
	</g>
	<g>
		<polygon fill="#FFFFFF" points="84.916,131.959 83.416,131.959 95.375,94.758 95.652,94.758 		"/>
	</g>
	<g>
		<polygon fill="#FFFFFF" points="100.118,132.605 98.619,132.605 105.155,94.758 105.433,94.758 		"/>
	</g>
	<g>
		<polygon fill="#FFFFFF" points="115.753,132.244 114.255,132.244 114.847,94.758 115.124,94.758 		"/>
	</g>
	<g>
		<polygon fill="#FFFFFF" points="175.562,132.074 177.062,132.074 152.911,94.819 152.634,94.819 		"/>
	</g>
	<g>
		<polygon fill="#FFFFFF" points="160.343,132.137 161.843,132.137 143.103,94.73 142.825,94.73 		"/>
	</g>
	<g>
		<polygon fill="#FFFFFF" points="129.419,132.168 130.919,132.168 124.458,94.729 124.181,94.729 		"/>
	</g>
	<g>
		<polygon fill="#FFFFFF" points="144.78,132.137 146.28,132.137 134.104,94.708 133.827,94.708 		"/>
	</g>
	<polygon fill="#FFFFFF" points="127.833,117.167 101.999,117.666 102.833,109.333 126.833,109.667 	"/>
	<rect x="105.344" y="74.432" opacity="0.5" fill="#FFFFFF" width="19.335" height="19.333"/>
	<rect x="105.344" y="54.099" fill="#FFFFFF" width="19.335" height="19.333"/>
</g>
</svg>
