<?xml version="1.0" encoding="utf-8"?>
<!-- Generator: Adobe Illustrator 15.1.0, SVG Export Plug-In . SVG Version: 6.00 Build 0)  -->
<!DOCTYPE svg PUBLIC "-//W3C//DTD SVG 1.1//EN" "http://www.w3.org/Graphics/SVG/1.1/DTD/svg11.dtd" [
	<!ENTITY ns_extend "http://ns.adobe.com/Extensibility/1.0/">
	<!ENTITY ns_ai "http://ns.adobe.com/AdobeIllustrator/10.0/">
	<!ENTITY ns_graphs "http://ns.adobe.com/Graphs/1.0/">
	<!ENTITY ns_vars "http://ns.adobe.com/Variables/1.0/">
	<!ENTITY ns_imrep "http://ns.adobe.com/ImageReplacement/1.0/">
	<!ENTITY ns_sfw "http://ns.adobe.com/SaveForWeb/1.0/">
	<!ENTITY ns_custom "http://ns.adobe.com/GenericCustomNamespace/1.0/">
	<!ENTITY ns_adobe_xpath "http://ns.adobe.com/XPath/1.0/">
]>
<svg version="1.1" xmlns:x="&ns_extend;" xmlns:i="&ns_ai;" xmlns:graph="&ns_graphs;"
	 xmlns="http://www.w3.org/2000/svg" xmlns:xlink="http://www.w3.org/1999/xlink" x="0px" y="0px" width="231px" height="229px"
	 viewBox="0 0 231 229" enable-background="new 0 0 231 229" xml:space="preserve">
<metadata>
	<sfw  xmlns="&ns_sfw;">
		<slices></slices>
		<sliceSourceBounds  height="16383" width="16383" y="-8306" x="-8076" bottomLeftOrigin="true"></sliceSourceBounds>
	</sfw>
</metadata>
<g id="compass_icon">
</g>
<g id="Layer_3">
</g>
<g id="Layer_4">
	<path fill="none" stroke="#FFFFFF" stroke-width="5.713" stroke-linecap="round" stroke-linejoin="round" d="M115.28,42.036
		c-34.313,0-62.128,27.816-62.128,62.129c0,34.312,27.815,62.129,62.128,62.129s62.13-27.817,62.13-62.129
		C177.41,69.853,149.593,42.036,115.28,42.036z M56.008,110.73V97.6l6.564,6.565L56.008,110.73z M121.702,44.607l-6.563,6.564
		l-6.564-6.564H121.702z M108.859,163.722l6.564-6.563l6.563,6.563H108.859z M167.989,104.451l6.564-6.566v13.13L167.989,104.451z"
		/>
	<path fill="#FFFFFF" d="M123.127,111.773l27.128-41.34l-42.407,25.43l-0.027-0.03l-0.051,0.078l-0.076,0.045l0.026,0.028
		l-27.128,41.342l42.409-25.43l0.026,0.03l0.05-0.076l0.076-0.046L123.127,111.773z M115.609,108.982
		c-2.782,0-5.037-2.255-5.037-5.037c0-2.783,2.255-5.037,5.037-5.037c2.781,0,5.036,2.254,5.036,5.037
		C120.646,106.727,118.391,108.982,115.609,108.982z"/>
	<g>
		<path fill="#FFFFFF" d="M56.263,218.656c-1.245,0.643-3.855,1.285-7.148,1.285c-7.631,0-13.333-4.82-13.333-13.734
			c0-8.516,5.743-14.219,14.137-14.219c3.333,0,5.502,0.725,6.426,1.205l-0.883,2.852c-1.285-0.643-3.173-1.123-5.422-1.123
			c-6.346,0-10.563,4.055-10.563,11.164c0,6.666,3.815,10.883,10.361,10.883c2.169,0,4.338-0.441,5.743-1.123L56.263,218.656z"/>
		<path fill="#FFFFFF" d="M77.708,209.619c0,7.189-5.02,10.322-9.679,10.322c-5.221,0-9.317-3.855-9.317-10
			c0-6.467,4.297-10.281,9.639-10.281C73.933,199.66,77.708,203.717,77.708,209.619z M62.327,209.82c0,4.258,2.41,7.471,5.864,7.471
			c3.373,0,5.903-3.174,5.903-7.551c0-3.293-1.646-7.43-5.823-7.43C64.134,202.311,62.327,206.166,62.327,209.82z"/>
		<path fill="#FFFFFF" d="M82.165,205.322c0-2.047-0.08-3.654-0.161-5.26h3.092l0.161,3.172h0.12
			c1.084-1.848,2.892-3.574,6.145-3.574c2.611,0,4.619,1.605,5.462,3.895h0.081c0.603-1.123,1.406-1.928,2.209-2.529
			c1.165-0.883,2.41-1.365,4.257-1.365c2.611,0,6.426,1.688,6.426,8.434V219.5h-3.454v-10.965c0-3.775-1.406-5.984-4.217-5.984
			c-2.048,0-3.575,1.486-4.217,3.174c-0.161,0.521-0.281,1.125-0.281,1.768V219.5h-3.454v-11.646c0-3.094-1.365-5.303-4.056-5.303
			c-2.169,0-3.815,1.768-4.377,3.535c-0.201,0.482-0.281,1.125-0.281,1.727V219.5h-3.454V205.322z"/>
		<path fill="#FFFFFF" d="M115.659,206.406c0-2.488-0.08-4.498-0.161-6.344h3.133l0.201,3.332h0.08
			c1.405-2.369,3.734-3.734,6.907-3.734c4.739,0,8.273,3.977,8.273,9.84c0,6.988-4.298,10.441-8.876,10.441
			c-2.57,0-4.818-1.125-5.983-3.053h-0.081v10.563h-3.494V206.406z M119.152,211.588c0,0.521,0.041,1.004,0.161,1.445
			c0.643,2.451,2.771,4.137,5.302,4.137c3.734,0,5.903-3.053,5.903-7.51c0-3.855-2.048-7.189-5.783-7.189
			c-2.409,0-4.699,1.688-5.342,4.338c-0.12,0.441-0.241,0.965-0.241,1.406V211.588z"/>
		<path fill="#FFFFFF" d="M152.164,214.842c0,1.686,0.08,3.332,0.281,4.658h-3.173l-0.281-2.451h-0.12
			c-1.084,1.527-3.173,2.893-5.943,2.893c-3.937,0-5.944-2.771-5.944-5.582c0-4.699,4.177-7.27,11.687-7.229v-0.402
			c0-1.566-0.441-4.498-4.418-4.459c-1.847,0-3.734,0.523-5.1,1.447l-0.804-2.369c1.606-1.006,3.976-1.688,6.426-1.688
			c5.944,0,7.39,4.057,7.39,7.912V214.842z M148.75,209.58c-3.855-0.08-8.232,0.602-8.232,4.377c0,2.33,1.525,3.373,3.293,3.373
			c2.57,0,4.217-1.605,4.779-3.252c0.121-0.402,0.16-0.803,0.16-1.125V209.58z"/>
		<path fill="#FFFFFF" d="M157.385,215.926c1.084,0.643,2.932,1.365,4.698,1.365c2.53,0,3.735-1.246,3.735-2.893
			c0-1.686-1.004-2.57-3.574-3.533c-3.534-1.285-5.182-3.174-5.182-5.502c0-3.133,2.57-5.703,6.707-5.703
			c1.969,0,3.695,0.521,4.739,1.205l-0.843,2.57c-0.764-0.482-2.169-1.166-3.977-1.166c-2.088,0-3.213,1.205-3.213,2.652
			c0,1.605,1.125,2.328,3.654,3.332c3.334,1.246,5.102,2.932,5.102,5.824c0,3.453-2.691,5.863-7.229,5.863
			c-2.128,0-4.097-0.563-5.462-1.365L157.385,215.926z"/>
		<path fill="#FFFFFF" d="M173.287,215.926c1.084,0.643,2.932,1.365,4.699,1.365c2.529,0,3.734-1.246,3.734-2.893
			c0-1.686-1.004-2.57-3.574-3.533c-3.534-1.285-5.181-3.174-5.181-5.502c0-3.133,2.57-5.703,6.707-5.703
			c1.968,0,3.694,0.521,4.739,1.205l-0.844,2.57c-0.763-0.482-2.168-1.166-3.976-1.166c-2.089,0-3.213,1.205-3.213,2.652
			c0,1.605,1.124,2.328,3.654,3.332c3.333,1.246,5.101,2.932,5.101,5.824c0,3.453-2.691,5.863-7.229,5.863
			c-2.129,0-4.097-0.563-5.463-1.365L173.287,215.926z"/>
	</g>
</g>
</svg>
