<?xml version="1.0" encoding="utf-8"?>
<!-- Generator: Adobe Illustrator 15.1.0, SVG Export Plug-In . SVG Version: 6.00 Build 0)  -->
<!DOCTYPE svg PUBLIC "-//W3C//DTD SVG 1.1//EN" "http://www.w3.org/Graphics/SVG/1.1/DTD/svg11.dtd" [
	<!ENTITY ns_extend "http://ns.adobe.com/Extensibility/1.0/">
	<!ENTITY ns_ai "http://ns.adobe.com/AdobeIllustrator/10.0/">
	<!ENTITY ns_graphs "http://ns.adobe.com/Graphs/1.0/">
	<!ENTITY ns_vars "http://ns.adobe.com/Variables/1.0/">
	<!ENTITY ns_imrep "http://ns.adobe.com/ImageReplacement/1.0/">
	<!ENTITY ns_sfw "http://ns.adobe.com/SaveForWeb/1.0/">
	<!ENTITY ns_custom "http://ns.adobe.com/GenericCustomNamespace/1.0/">
	<!ENTITY ns_adobe_xpath "http://ns.adobe.com/XPath/1.0/">
]>
<svg version="1.1" xmlns:x="&ns_extend;" xmlns:i="&ns_ai;" xmlns:graph="&ns_graphs;"
	 xmlns="http://www.w3.org/2000/svg" xmlns:xlink="http://www.w3.org/1999/xlink" x="0px" y="0px" width="231px" height="229px"
	 viewBox="0 0 231 229" enable-background="new 0 0 231 229" xml:space="preserve">
<metadata>
	<sfw  xmlns="&ns_sfw;">
		<slices></slices>
		<sliceSourceBounds  height="16383" width="16383" y="-8306" x="-8076" bottomLeftOrigin="true"></sliceSourceBounds>
	</sfw>
</metadata>
<g id="compass_icon">
</g>
<g id="Layer_3">
</g>
<g id="Layer_5">
	<path fill="none" stroke="#FFFFFF" stroke-width="5.713" stroke-linecap="round" stroke-linejoin="round" d="M115.793,42.036
		c-34.313,0-62.128,27.816-62.128,62.129c0,34.312,27.815,62.129,62.128,62.129s62.13-27.817,62.13-62.129
		C177.923,69.853,150.105,42.036,115.793,42.036z M56.521,110.73V97.6l6.564,6.565L56.521,110.73z M122.215,44.607l-6.563,6.564
		l-6.564-6.564H122.215z M109.372,163.722l6.564-6.563l6.563,6.563H109.372z M168.502,104.451l6.564-6.566v13.13L168.502,104.451z"
		/>
	<path fill="#FFFFFF" d="M123.64,111.773l27.128-41.34l-42.407,25.43l-0.027-0.03l-0.051,0.078l-0.076,0.045l0.026,0.028
		l-27.128,41.342l42.409-25.43l0.026,0.03l0.05-0.076l0.076-0.046L123.64,111.773z M116.122,108.982
		c-2.782,0-5.037-2.255-5.037-5.037c0-2.783,2.255-5.037,5.037-5.037c2.781,0,5.036,2.254,5.036,5.037
		C121.158,106.727,118.903,108.982,116.122,108.982z"/>
	<g>
		<path fill="#FFFFFF" d="M116.513,205.684c0,9.277-5.663,14.258-12.57,14.258c-7.189,0-12.169-5.582-12.169-13.775
			c0-8.594,5.301-14.217,12.53-14.217C111.733,191.949,116.513,197.611,116.513,205.684z M95.468,206.086
			c0,5.822,3.132,11.004,8.675,11.004s8.675-5.1,8.675-11.244c0-5.422-2.811-11.045-8.635-11.045
			C98.36,194.801,95.468,200.182,95.468,206.086z"/>
		<path fill="#FFFFFF" d="M120.93,205.322c0-2.047-0.041-3.654-0.161-5.26h3.133l0.2,3.213h0.081
			c0.964-1.809,3.213-3.615,6.426-3.615c2.69,0,6.867,1.605,6.867,8.273V219.5h-3.534v-11.205c0-3.133-1.164-5.744-4.498-5.744
			c-2.289,0-4.096,1.646-4.738,3.615c-0.161,0.441-0.242,1.045-0.242,1.646V219.5h-3.533V205.322z"/>
	</g>
	<path opacity="0.6" fill="none" stroke="#FFFFFF" stroke-width="5.713" stroke-linecap="round" stroke-linejoin="round" d="
		M115.239,42.036c-34.313,0-62.128,27.816-62.128,62.129c0,34.312,27.815,62.129,62.128,62.129s62.13-27.817,62.13-62.129
		C177.369,69.853,149.552,42.036,115.239,42.036z M55.967,110.73V97.6l6.564,6.565L55.967,110.73z M121.661,44.607l-6.563,6.564
		l-6.564-6.564H121.661z M108.818,163.722l6.564-6.563l6.563,6.563H108.818z M167.948,104.451l6.564-6.566v13.13L167.948,104.451z"
		/>
	<path opacity="0.6" fill="#FFFFFF" d="M123.086,111.773l27.128-41.34l-42.407,25.43l-0.027-0.03l-0.051,0.078l-0.076,0.045
		l0.026,0.028l-27.128,41.342l42.409-25.43l0.026,0.03l0.05-0.076l0.076-0.046L123.086,111.773z M115.568,108.982
		c-2.782,0-5.037-2.255-5.037-5.037c0-2.783,2.255-5.037,5.037-5.037c2.781,0,5.036,2.254,5.036,5.037
		C120.604,106.727,118.35,108.982,115.568,108.982z"/>
	<g>
		<path fill="#FFFFFF" d="M116.076,205.684c0,9.277-5.663,14.258-12.571,14.258c-7.189,0-12.169-5.582-12.169-13.775
			c0-8.594,5.301-14.217,12.53-14.217C111.296,191.949,116.076,197.611,116.076,205.684z M95.031,206.086
			c0,5.822,3.133,11.004,8.675,11.004s8.675-5.1,8.675-11.244c0-5.422-2.812-11.045-8.635-11.045S95.031,200.182,95.031,206.086z"/>
		<path fill="#FFFFFF" d="M133.183,219.5v-16.748h-8.192V219.5h-3.494v-16.748h-2.691v-2.689h2.691v-0.604
			c0-2.73,0.643-5.061,2.168-6.627c1.125-1.123,2.731-1.807,4.9-1.807c1.124,0,2.168,0.361,2.771,0.684l-0.724,2.65
			c-0.522-0.281-1.285-0.523-2.089-0.523c-2.771,0-3.533,2.371-3.533,5.422v0.805h8.192v-0.924c0-2.732,0.603-5.223,2.249-6.787
			c1.325-1.285,3.093-1.809,4.699-1.809c1.285,0,2.369,0.281,3.012,0.563l-0.441,2.73c-0.563-0.24-1.245-0.441-2.289-0.441
			c-2.973,0-3.735,2.611-3.735,5.623v1.045h4.659v2.689h-4.659V219.5H133.183z"/>
	</g>
</g>
</svg>
