<?xml version="1.0" encoding="utf-8"?>
<!-- Generator: Adobe Illustrator 15.1.0, SVG Export Plug-In . SVG Version: 6.00 Build 0)  -->
<!DOCTYPE svg PUBLIC "-//W3C//DTD SVG 1.1//EN" "http://www.w3.org/Graphics/SVG/1.1/DTD/svg11.dtd" [
	<!ENTITY ns_extend "http://ns.adobe.com/Extensibility/1.0/">
	<!ENTITY ns_ai "http://ns.adobe.com/AdobeIllustrator/10.0/">
	<!ENTITY ns_graphs "http://ns.adobe.com/Graphs/1.0/">
	<!ENTITY ns_vars "http://ns.adobe.com/Variables/1.0/">
	<!ENTITY ns_imrep "http://ns.adobe.com/ImageReplacement/1.0/">
	<!ENTITY ns_sfw "http://ns.adobe.com/SaveForWeb/1.0/">
	<!ENTITY ns_custom "http://ns.adobe.com/GenericCustomNamespace/1.0/">
	<!ENTITY ns_adobe_xpath "http://ns.adobe.com/XPath/1.0/">
]>
<svg version="1.1" xmlns:x="&ns_extend;" xmlns:i="&ns_ai;" xmlns:graph="&ns_graphs;"
	 xmlns="http://www.w3.org/2000/svg" xmlns:xlink="http://www.w3.org/1999/xlink" x="0px" y="0px" width="231px" height="229px"
	 viewBox="0 0 231 229" enable-background="new 0 0 231 229" xml:space="preserve">
<metadata>
	<sfw  xmlns="&ns_sfw;">
		<slices></slices>
		<sliceSourceBounds  height="16383" width="16383" y="-8306" x="-8076" bottomLeftOrigin="true"></sliceSourceBounds>
	</sfw>
</metadata>
<g id="compass_icon">
</g>
<g id="Layer_3">
</g>
<g id="Layer_4">
	
		<rect x="84.771" y="60.089" fill="none" stroke="#FFFFFF" stroke-width="6" stroke-miterlimit="10" width="61.459" height="51.088"/>
	<g>
		<path fill="none" d="M144.934,60.069"/>
	</g>
	<g>
		<path fill="#FFFFFF" d="M47.963,207.611c-0.201-3.775-0.442-8.354-0.442-11.686h-0.08c-0.964,3.131-2.048,6.545-3.414,10.281
			l-4.779,13.133h-2.651l-4.417-12.893c-1.285-3.855-2.33-7.309-3.093-10.521h-0.08c-0.08,3.373-0.281,7.871-0.522,11.967
			L27.762,219.5h-3.333l1.887-27.068h4.458l4.619,13.092c1.125,3.334,2.008,6.305,2.731,9.117h0.08
			c0.723-2.732,1.687-5.703,2.892-9.117l4.819-13.092h4.458L52.06,219.5h-3.454L47.963,207.611z"/>
		<path fill="#FFFFFF" d="M61.737,194.6c0,1.205-0.844,2.168-2.249,2.168c-1.285,0-2.129-0.963-2.129-2.168s0.884-2.209,2.209-2.209
			C60.853,192.391,61.737,193.355,61.737,194.6z M57.801,219.5v-19.438h3.534V219.5H57.801z"/>
		<path fill="#FFFFFF" d="M67.198,205.322c0-2.047-0.04-3.654-0.161-5.26h3.133l0.201,3.213h0.081
			c0.964-1.809,3.213-3.615,6.426-3.615c2.69,0,6.867,1.605,6.867,8.273V219.5H80.21v-11.205c0-3.133-1.165-5.744-4.498-5.744
			c-2.289,0-4.096,1.646-4.739,3.615c-0.161,0.441-0.241,1.045-0.241,1.646V219.5h-3.534V205.322z"/>
		<path fill="#FFFFFF" d="M93.423,194.6c0,1.205-0.843,2.168-2.249,2.168c-1.285,0-2.128-0.963-2.128-2.168s0.883-2.209,2.208-2.209
			C92.539,192.391,93.423,193.355,93.423,194.6z M89.487,219.5v-19.438h3.534V219.5H89.487z"/>
		<path fill="#FFFFFF" d="M98.884,205.322c0-2.047-0.08-3.654-0.161-5.26h3.093l0.16,3.172h0.121
			c1.084-1.848,2.892-3.574,6.145-3.574c2.61,0,4.618,1.605,5.462,3.895h0.08c0.603-1.123,1.406-1.928,2.209-2.529
			c1.165-0.883,2.41-1.365,4.257-1.365c2.609,0,6.426,1.688,6.426,8.434V219.5h-3.454v-10.965c0-3.775-1.405-5.984-4.218-5.984
			c-2.047,0-3.574,1.486-4.216,3.174c-0.161,0.521-0.281,1.125-0.281,1.768V219.5h-3.454v-11.646c0-3.094-1.366-5.303-4.056-5.303
			c-2.169,0-3.815,1.768-4.378,3.535c-0.201,0.482-0.281,1.125-0.281,1.727V219.5h-3.454V205.322z"/>
		<path fill="#FFFFFF" d="M132.377,205.322c0-2.047-0.08-3.654-0.16-5.26h3.092l0.16,3.172h0.121
			c1.084-1.848,2.892-3.574,6.145-3.574c2.611,0,4.619,1.605,5.463,3.895h0.08c0.602-1.123,1.405-1.928,2.209-2.529
			c1.164-0.883,2.409-1.365,4.256-1.365c2.611,0,6.426,1.688,6.426,8.434V219.5h-3.453v-10.965c0-3.775-1.406-5.984-4.217-5.984
			c-2.049,0-3.574,1.486-4.217,3.174c-0.161,0.521-0.281,1.125-0.281,1.768V219.5h-3.454v-11.646c0-3.094-1.366-5.303-4.056-5.303
			c-2.17,0-3.816,1.768-4.379,3.535c-0.2,0.482-0.28,1.125-0.28,1.727V219.5h-3.454V205.322z"/>
		<path fill="#FFFFFF" d="M169.807,194.6c0,1.205-0.844,2.168-2.249,2.168c-1.285,0-2.128-0.963-2.128-2.168
			s0.883-2.209,2.208-2.209C168.923,192.391,169.807,193.355,169.807,194.6z M165.871,219.5v-19.438h3.533V219.5H165.871z"/>
		<path fill="#FFFFFF" d="M173.059,217.451l8.756-11.445c0.883-1.084,1.686-2.008,2.57-3.053v-0.08h-10.523v-2.811h14.779v2.207
			l-8.674,11.287c-0.844,1.084-1.607,2.088-2.49,3.051v0.08h11.326v2.813h-15.744V217.451z"/>
		<path fill="#FFFFFF" d="M194.143,210.424c0.081,4.779,3.094,6.746,6.668,6.746c2.529,0,4.096-0.441,5.381-1.004l0.643,2.531
			c-1.244,0.561-3.414,1.244-6.506,1.244c-5.984,0-9.559-3.977-9.559-9.84s3.454-10.441,9.117-10.441
			c6.385,0,8.031,5.543,8.031,9.117c0,0.723-0.039,1.244-0.119,1.646H194.143z M204.505,207.893c0.04-2.209-0.924-5.703-4.899-5.703
			c-3.615,0-5.141,3.254-5.422,5.703H204.505z"/>
	</g>
	<g>
		<g>
			
				<line fill="none" stroke="#FFFFFF" stroke-width="5.3544" stroke-linejoin="round" x1="126.646" y1="76.644" x2="146.158" y2="60.069"/>
			<g>
				<polygon fill="#FFFFFF" points="133.589,81.196 117.833,84.073 123.219,68.989 				"/>
			</g>
		</g>
	</g>
	<g>
		<g>
			
				<line fill="none" stroke="#FFFFFF" stroke-width="5.3544" stroke-linejoin="round" x1="104.282" y1="94.602" x2="84.771" y2="111.178"/>
			<g>
				<polygon fill="#FFFFFF" points="97.34,90.051 113.096,87.173 107.71,102.258 				"/>
			</g>
		</g>
	</g>
</g>
</svg>
