<?xml version="1.0" encoding="utf-8"?>
<!-- Generator: Adobe Illustrator 15.1.0, SVG Export Plug-In . SVG Version: 6.00 Build 0)  -->
<!DOCTYPE svg PUBLIC "-//W3C//DTD SVG 1.1//EN" "http://www.w3.org/Graphics/SVG/1.1/DTD/svg11.dtd" [
	<!ENTITY ns_extend "http://ns.adobe.com/Extensibility/1.0/">
	<!ENTITY ns_ai "http://ns.adobe.com/AdobeIllustrator/10.0/">
	<!ENTITY ns_graphs "http://ns.adobe.com/Graphs/1.0/">
	<!ENTITY ns_vars "http://ns.adobe.com/Variables/1.0/">
	<!ENTITY ns_imrep "http://ns.adobe.com/ImageReplacement/1.0/">
	<!ENTITY ns_sfw "http://ns.adobe.com/SaveForWeb/1.0/">
	<!ENTITY ns_custom "http://ns.adobe.com/GenericCustomNamespace/1.0/">
	<!ENTITY ns_adobe_xpath "http://ns.adobe.com/XPath/1.0/">
]>
<svg version="1.1" xmlns:x="&ns_extend;" xmlns:i="&ns_ai;" xmlns:graph="&ns_graphs;"
	 xmlns="http://www.w3.org/2000/svg" xmlns:xlink="http://www.w3.org/1999/xlink" x="0px" y="0px" width="231px" height="229px"
	 viewBox="0 0 231 229" enable-background="new 0 0 231 229" xml:space="preserve">
<metadata>
	<sfw  xmlns="&ns_sfw;">
		<slices></slices>
		<sliceSourceBounds  height="16383" width="16383" y="-8306" x="-8076" bottomLeftOrigin="true"></sliceSourceBounds>
	</sfw>
</metadata>
<g id="compass_icon">
</g>
<g id="Layer_3">
</g>
<g id="Layer_5">
	
		<rect x="84.832" y="59.412" fill="none" stroke="#FFFFFF" stroke-width="6" stroke-miterlimit="10" width="61.459" height="51.088"/>
	<g>
		<path fill="none" d="M144.996,59.391"/>
	</g>
	<g>
		<path fill="#FFFFFF" d="M61.759,179.561c1.566,1.004,3.815,1.768,6.225,1.768c3.574,0,5.663-1.889,5.663-4.619
			c0-2.49-1.446-3.975-5.101-5.342c-4.417-1.605-7.148-3.936-7.148-7.711c0-4.217,3.494-7.35,8.755-7.35
			c2.731,0,4.779,0.643,5.944,1.326l-0.964,2.852c-0.844-0.521-2.651-1.285-5.101-1.285c-3.695,0-5.101,2.209-5.101,4.057
			c0,2.529,1.646,3.775,5.382,5.221c4.578,1.768,6.867,3.977,6.867,7.951c0,4.178-3.052,7.832-9.438,7.832
			c-2.611,0-5.462-0.803-6.908-1.768L61.759,179.561z"/>
		<path fill="#FFFFFF" d="M95.976,183.135c-0.924,0.441-2.972,1.125-5.583,1.125c-5.864,0-9.679-3.977-9.679-9.92
			c0-5.984,4.097-10.361,10.442-10.361c2.088,0,3.936,0.521,4.899,1.045l-0.803,2.689c-0.843-0.441-2.168-0.924-4.096-0.924
			c-4.458,0-6.868,3.334-6.868,7.35c0,4.498,2.892,7.27,6.747,7.27c2.008,0,3.333-0.482,4.337-0.924L95.976,183.135z"/>
		<path fill="#FFFFFF" d="M100.111,170.443c0-2.289-0.04-4.256-0.161-6.063h3.092l0.161,3.855h0.12
			c0.884-2.611,3.052-4.258,5.422-4.258c0.361,0,0.643,0.039,0.964,0.08v3.334c-0.361-0.08-0.723-0.08-1.205-0.08
			c-2.49,0-4.257,1.846-4.739,4.498c-0.081,0.48-0.121,1.084-0.121,1.646v10.361h-3.534V170.443z"/>
		<path fill="#FFFFFF" d="M114.81,174.742c0.081,4.779,3.093,6.746,6.667,6.746c2.53,0,4.097-0.441,5.382-1.004l0.643,2.531
			c-1.245,0.561-3.414,1.244-6.507,1.244c-5.983,0-9.558-3.977-9.558-9.84s3.454-10.441,9.116-10.441
			c6.386,0,8.032,5.543,8.032,9.117c0,0.723-0.04,1.244-0.12,1.646H114.81z M125.172,172.211c0.039-2.209-0.924-5.703-4.9-5.703
			c-3.614,0-5.141,3.254-5.421,5.703H125.172z"/>
		<path fill="#FFFFFF" d="M134.93,174.742c0.08,4.779,3.093,6.746,6.667,6.746c2.53,0,4.097-0.441,5.382-1.004l0.643,2.531
			c-1.245,0.561-3.414,1.244-6.506,1.244c-5.984,0-9.559-3.977-9.559-9.84s3.453-10.441,9.116-10.441
			c6.386,0,8.032,5.543,8.032,9.117c0,0.723-0.04,1.244-0.12,1.646H134.93z M145.291,172.211c0.041-2.209-0.924-5.703-4.899-5.703
			c-3.614,0-5.141,3.254-5.421,5.703H145.291z"/>
		<path fill="#FFFFFF" d="M153.082,169.641c0-2.047-0.041-3.654-0.161-5.26h3.133l0.2,3.213h0.081
			c0.964-1.809,3.213-3.615,6.426-3.615c2.69,0,6.867,1.605,6.867,8.273v11.566h-3.534v-11.205c0-3.133-1.164-5.744-4.498-5.744
			c-2.289,0-4.096,1.646-4.738,3.615c-0.161,0.441-0.242,1.045-0.242,1.646v11.688h-3.533V169.641z"/>
		<path fill="#FFFFFF" d="M85.292,215.561c1.566,1.004,3.815,1.768,6.225,1.768c3.574,0,5.663-1.889,5.663-4.619
			c0-2.49-1.446-3.975-5.101-5.342c-4.417-1.605-7.148-3.936-7.148-7.711c0-4.217,3.494-7.35,8.755-7.35
			c2.731,0,4.779,0.643,5.944,1.326l-0.964,2.852c-0.844-0.521-2.651-1.285-5.101-1.285c-3.695,0-5.101,2.209-5.101,4.057
			c0,2.529,1.646,3.775,5.382,5.221c4.578,1.768,6.867,3.977,6.867,7.951c0,4.178-3.052,7.832-9.438,7.832
			c-2.611,0-5.462-0.803-6.908-1.768L85.292,215.561z"/>
		<path fill="#FFFFFF" d="M109.348,194.918c0,1.205-0.843,2.168-2.249,2.168c-1.285,0-2.128-0.963-2.128-2.168
			s0.883-2.209,2.208-2.209C108.464,192.709,109.348,193.674,109.348,194.918z M105.412,219.818v-19.438h3.534v19.438H105.412z"/>
		<path fill="#FFFFFF" d="M112.601,217.77l8.755-11.445c0.884-1.084,1.687-2.008,2.57-3.053v-0.08h-10.522v-2.811h14.779v2.207
			l-8.675,11.287c-0.844,1.084-1.606,2.088-2.49,3.051v0.08h11.326v2.813h-15.743V217.77z"/>
		<path fill="#FFFFFF" d="M133.685,210.742c0.081,4.779,3.093,6.746,6.667,6.746c2.53,0,4.097-0.441,5.382-1.004l0.643,2.531
			c-1.245,0.561-3.414,1.244-6.507,1.244c-5.983,0-9.558-3.977-9.558-9.84s3.454-10.441,9.116-10.441
			c6.386,0,8.032,5.543,8.032,9.117c0,0.723-0.04,1.244-0.12,1.646H133.685z M144.047,208.211c0.039-2.209-0.924-5.703-4.9-5.703
			c-3.614,0-5.141,3.254-5.422,5.703H144.047z"/>
	</g>
	<g>
		<path fill="none" d="M43.581,144.295"/>
	</g>
	
		<rect x="43.581" y="24.627" fill="none" stroke="#FFFFFF" stroke-width="6.9602" stroke-miterlimit="10" width="143.962" height="119.667"/>
</g>
</svg>
