<?xml version="1.0" encoding="utf-8"?>
<!-- Generator: Adobe Illustrator 15.1.0, SVG Export Plug-In . SVG Version: 6.00 Build 0)  -->
<!DOCTYPE svg PUBLIC "-//W3C//DTD SVG 1.1//EN" "http://www.w3.org/Graphics/SVG/1.1/DTD/svg11.dtd" [
	<!ENTITY ns_extend "http://ns.adobe.com/Extensibility/1.0/">
	<!ENTITY ns_ai "http://ns.adobe.com/AdobeIllustrator/10.0/">
	<!ENTITY ns_graphs "http://ns.adobe.com/Graphs/1.0/">
	<!ENTITY ns_vars "http://ns.adobe.com/Variables/1.0/">
	<!ENTITY ns_imrep "http://ns.adobe.com/ImageReplacement/1.0/">
	<!ENTITY ns_sfw "http://ns.adobe.com/SaveForWeb/1.0/">
	<!ENTITY ns_custom "http://ns.adobe.com/GenericCustomNamespace/1.0/">
	<!ENTITY ns_adobe_xpath "http://ns.adobe.com/XPath/1.0/">
]>
<svg version="1.1" xmlns:x="&ns_extend;" xmlns:i="&ns_ai;" xmlns:graph="&ns_graphs;"
	 xmlns="http://www.w3.org/2000/svg" xmlns:xlink="http://www.w3.org/1999/xlink" x="0px" y="0px" width="231px" height="229px"
	 viewBox="0 0 231 229" enable-background="new 0 0 231 229" xml:space="preserve">
<metadata>
	<sfw  xmlns="&ns_sfw;">
		<slices></slices>
		<sliceSourceBounds  x="-8076" y="-8306" width="16383" height="16383" bottomLeftOrigin="true"></sliceSourceBounds>
	</sfw>
</metadata>
<g id="compass_icon">
</g>
<g id="Layer_3">
</g>
<g id="Layer_4">
	<circle fill="#FFFFFF" stroke="#FFFFFF" stroke-width="4.5264" stroke-miterlimit="10" cx="114.728" cy="124.957" r="5.566"/>
	<circle fill="none" stroke="#FFFFFF" stroke-width="4.5264" stroke-miterlimit="10" cx="114.858" cy="124.744" r="15.295"/>
	<polygon fill="none" stroke="#FFFFFF" stroke-width="4.5264" stroke-miterlimit="10" points="61.558,87.339 61.558,65.699 
		105.553,65.789 105.553,87.251 123.985,87.339 123.985,65.699 168.159,65.255 168.159,87.339 176.53,87.339 176.53,161.975 
		53.186,161.975 53.186,87.339 	"/>
	<path fill="none" stroke="#FFFFFF" stroke-width="4.5264" stroke-linecap="round" stroke-miterlimit="10" d="M159.192,124.744
		c0,0-19.848,16.893-44.334,16.893c-24.485,0-44.334-16.893-44.334-16.893s19.85-16.892,44.334-16.892
		C139.345,107.852,159.192,124.744,159.192,124.744z"/>
	<g>
		<path fill="#FFFFFF" d="M24.914,192.104v11.326h13.092v-11.326h3.534v27.068h-3.534V206.48H24.914v12.691H21.38v-27.068H24.914z"
			/>
		<path fill="#FFFFFF" d="M51.821,194.271c0,1.205-0.843,2.17-2.249,2.17c-1.285,0-2.128-0.965-2.128-2.17
			c0-1.203,0.883-2.207,2.208-2.207C50.937,192.064,51.821,193.027,51.821,194.271z M47.885,219.172v-19.438h3.534v19.438H47.885z"
			/>
		<path fill="#FFFFFF" d="M74.029,190.658v23.494c0,1.727,0.08,3.695,0.16,5.02h-3.132l-0.161-3.373h-0.121
			c-1.044,2.168-3.374,3.814-6.546,3.814c-4.699,0-8.354-3.975-8.354-9.879c-0.04-6.467,4.017-10.402,8.715-10.402
			c3.012,0,4.98,1.406,5.863,2.932h0.081v-11.605H74.029z M70.535,207.646c0-0.441-0.04-1.045-0.161-1.486
			c-0.522-2.209-2.45-4.057-5.101-4.057c-3.655,0-5.823,3.213-5.823,7.471c0,3.936,1.968,7.188,5.743,7.188
			c2.37,0,4.539-1.605,5.181-4.217c0.121-0.48,0.161-0.963,0.161-1.525V207.646z"/>
		<path fill="#FFFFFF" d="M81.899,210.096c0.081,4.779,3.093,6.748,6.667,6.748c2.53,0,4.097-0.443,5.382-1.004l0.643,2.529
			c-1.245,0.563-3.414,1.244-6.506,1.244c-5.984,0-9.558-3.975-9.558-9.838c0-5.865,3.454-10.443,9.116-10.443
			c6.386,0,8.032,5.543,8.032,9.117c0,0.723-0.04,1.244-0.12,1.646H81.899z M92.261,207.566c0.04-2.209-0.924-5.703-4.9-5.703
			c-3.614,0-5.141,3.252-5.421,5.703H92.261z"/>
		<path fill="#FFFFFF" d="M108.686,192.506c1.526-0.361,3.976-0.604,6.386-0.604c3.494,0,5.743,0.604,7.389,1.969
			c1.406,1.043,2.289,2.65,2.289,4.779c0,2.65-1.767,4.939-4.578,5.943v0.121c2.57,0.602,5.582,2.73,5.582,6.746
			c0,2.33-0.923,4.137-2.328,5.422c-1.848,1.727-4.9,2.531-9.318,2.531c-2.41,0-4.257-0.162-5.422-0.322V192.506z M112.18,203.59
			h3.172c3.655,0,5.823-1.969,5.823-4.578c0-3.133-2.369-4.418-5.903-4.418c-1.606,0-2.53,0.121-3.092,0.24V203.59z M112.18,216.521
			c0.723,0.121,1.687,0.16,2.932,0.16c3.615,0,6.948-1.324,6.948-5.26c0-3.656-3.173-5.221-6.988-5.221h-2.892V216.521z"/>
		<path fill="#FFFFFF" d="M130.332,190.658h3.533v28.514h-3.533V190.658z"/>
		<path fill="#FFFFFF" d="M157.4,209.293c0,7.189-5.021,10.32-9.68,10.32c-5.221,0-9.317-3.855-9.317-10
			c0-6.465,4.298-10.281,9.639-10.281C153.625,199.332,157.4,203.389,157.4,209.293z M142.018,209.494
			c0,4.256,2.41,7.469,5.864,7.469c3.373,0,5.903-3.172,5.903-7.549c0-3.295-1.646-7.432-5.823-7.432
			C143.825,201.982,142.018,205.838,142.018,209.494z"/>
		<path fill="#FFFFFF" d="M175.713,218.49c-0.924,0.441-2.973,1.123-5.582,1.123c-5.864,0-9.68-3.975-9.68-9.92
			c0-5.982,4.097-10.361,10.442-10.361c2.088,0,3.936,0.523,4.899,1.045l-0.803,2.691c-0.844-0.443-2.169-0.924-4.097-0.924
			c-4.458,0-6.868,3.332-6.868,7.35c0,4.498,2.893,7.268,6.748,7.268c2.008,0,3.333-0.48,4.337-0.922L175.713,218.49z"/>
		<path fill="#FFFFFF" d="M183.342,208.65h0.081c0.481-0.684,1.124-1.527,1.687-2.209l5.743-6.707h4.217l-7.47,7.992l8.555,11.445
			h-4.338l-6.667-9.316l-1.808,2.008v7.309h-3.494v-28.514h3.494V208.65z"/>
		<path fill="#FFFFFF" d="M198.201,215.598c1.084,0.643,2.932,1.365,4.699,1.365c2.53,0,3.734-1.244,3.734-2.891
			c0-1.688-1.004-2.57-3.574-3.535c-3.534-1.285-5.181-3.172-5.181-5.502c0-3.133,2.57-5.703,6.707-5.703
			c1.968,0,3.695,0.523,4.739,1.205l-0.844,2.57c-0.763-0.482-2.169-1.164-3.976-1.164c-2.089,0-3.213,1.205-3.213,2.65
			c0,1.607,1.124,2.33,3.654,3.334c3.334,1.244,5.101,2.932,5.101,5.822c0,3.455-2.69,5.863-7.229,5.863
			c-2.129,0-4.097-0.561-5.463-1.365L198.201,215.598z"/>
	</g>
</g>
</svg>
