<?xml version="1.0" encoding="utf-8"?>
<!-- Generator: Adobe Illustrator 15.1.0, SVG Export Plug-In . SVG Version: 6.00 Build 0)  -->
<!DOCTYPE svg PUBLIC "-//W3C//DTD SVG 1.1//EN" "http://www.w3.org/Graphics/SVG/1.1/DTD/svg11.dtd" [
	<!ENTITY ns_extend "http://ns.adobe.com/Extensibility/1.0/">
	<!ENTITY ns_ai "http://ns.adobe.com/AdobeIllustrator/10.0/">
	<!ENTITY ns_graphs "http://ns.adobe.com/Graphs/1.0/">
	<!ENTITY ns_vars "http://ns.adobe.com/Variables/1.0/">
	<!ENTITY ns_imrep "http://ns.adobe.com/ImageReplacement/1.0/">
	<!ENTITY ns_sfw "http://ns.adobe.com/SaveForWeb/1.0/">
	<!ENTITY ns_custom "http://ns.adobe.com/GenericCustomNamespace/1.0/">
	<!ENTITY ns_adobe_xpath "http://ns.adobe.com/XPath/1.0/">
]>
<svg version="1.1" xmlns:x="&ns_extend;" xmlns:i="&ns_ai;" xmlns:graph="&ns_graphs;"
	 xmlns="http://www.w3.org/2000/svg" xmlns:xlink="http://www.w3.org/1999/xlink" x="0px" y="0px" width="231px" height="229px"
	 viewBox="0 0 231 229" enable-background="new 0 0 231 229" xml:space="preserve">
<metadata>
	<sfw  xmlns="&ns_sfw;">
		<slices></slices>
		<sliceSourceBounds  x="-8076" y="-8306" width="16383" height="16383" bottomLeftOrigin="true"></sliceSourceBounds>
	</sfw>
</metadata>
<g id="compass_icon">
</g>
<g id="Layer_3">
</g>
<g id="Layer_4">
	
		<rect x="73.476" y="82.593" fill="none" stroke="#FFFFFF" stroke-width="7.0612" stroke-miterlimit="10" width="83.636" height="63.317"/>
	<g>
		<path fill="#FFFFFF" d="M83.135,192.432h3.534v24.137h11.566v2.932H83.135V192.432z"/>
		<path fill="#FFFFFF" d="M119.039,209.621c0,7.189-5.021,10.32-9.68,10.32c-5.221,0-9.317-3.855-9.317-10
			c0-6.465,4.297-10.281,9.639-10.281C115.263,199.66,119.039,203.717,119.039,209.621z M103.657,209.822
			c0,4.256,2.41,7.469,5.864,7.469c3.373,0,5.903-3.172,5.903-7.549c0-3.295-1.646-7.432-5.823-7.432
			C105.464,202.311,103.657,206.166,103.657,209.822z"/>
		<path fill="#FFFFFF" d="M124.621,200.063l2.609,9.879c0.522,2.17,1.045,4.178,1.406,6.186h0.121
			c0.441-1.969,1.084-4.057,1.727-6.145l3.172-9.92h2.973l3.012,9.719c0.723,2.33,1.285,4.377,1.727,6.346h0.121
			c0.321-1.969,0.844-4.016,1.486-6.305l2.771-9.76h3.494l-6.265,19.438h-3.213l-2.973-9.277c-0.683-2.168-1.244-4.096-1.727-6.385
			h-0.08c-0.482,2.328-1.084,4.338-1.768,6.426l-3.133,9.236h-3.213l-5.863-19.438H124.621z"/>
	</g>
</g>
</svg>
