<?xml version="1.0" encoding="utf-8"?>
<!-- Generator: Adobe Illustrator 15.1.0, SVG Export Plug-In . SVG Version: 6.00 Build 0)  -->
<!DOCTYPE svg PUBLIC "-//W3C//DTD SVG 1.1//EN" "http://www.w3.org/Graphics/SVG/1.1/DTD/svg11.dtd" [
	<!ENTITY ns_extend "http://ns.adobe.com/Extensibility/1.0/">
	<!ENTITY ns_ai "http://ns.adobe.com/AdobeIllustrator/10.0/">
	<!ENTITY ns_graphs "http://ns.adobe.com/Graphs/1.0/">
	<!ENTITY ns_vars "http://ns.adobe.com/Variables/1.0/">
	<!ENTITY ns_imrep "http://ns.adobe.com/ImageReplacement/1.0/">
	<!ENTITY ns_sfw "http://ns.adobe.com/SaveForWeb/1.0/">
	<!ENTITY ns_custom "http://ns.adobe.com/GenericCustomNamespace/1.0/">
	<!ENTITY ns_adobe_xpath "http://ns.adobe.com/XPath/1.0/">
]>
<svg version="1.1" xmlns:x="&ns_extend;" xmlns:i="&ns_ai;" xmlns:graph="&ns_graphs;"
	 xmlns="http://www.w3.org/2000/svg" xmlns:xlink="http://www.w3.org/1999/xlink" x="0px" y="0px" width="231px" height="229px"
	 viewBox="0 0 231 229" enable-background="new 0 0 231 229" xml:space="preserve">
<metadata>
	<sfw  xmlns="&ns_sfw;">
		<slices></slices>
		<sliceSourceBounds  x="-8076" y="-8306" width="16383" height="16383" bottomLeftOrigin="true"></sliceSourceBounds>
	</sfw>
</metadata>
<g id="compass_icon">
</g>
<g id="Layer_3">
</g>
<g id="Layer_5">
	
		<rect x="42.815" y="59.634" fill="none" stroke="#FFFFFF" stroke-width="6.198" stroke-miterlimit="10" width="143.58" height="108.699"/>
	
		<rect x="43.423" y="81.875" fill="none" stroke="#FFFFFF" stroke-width="6.198" stroke-miterlimit="10" width="113.577" height="85.985"/>
	
		<rect x="42.882" y="112.283" fill="none" stroke="#FFFFFF" stroke-width="6.198" stroke-miterlimit="10" width="73.412" height="55.577"/>
	<g>
		<path fill="#FFFFFF" d="M28.709,192.959c1.767-0.32,4.337-0.563,6.707-0.563c3.735,0,6.185,0.723,7.831,2.209
			c1.326,1.205,2.129,3.053,2.129,5.182c0,3.533-2.249,5.902-5.061,6.867v0.121c2.048,0.723,3.293,2.65,3.936,5.461
			c0.883,3.775,1.526,6.387,2.088,7.43h-3.615c-0.442-0.803-1.044-3.092-1.767-6.465c-0.803-3.736-2.289-5.141-5.462-5.262h-3.293
			v11.727h-3.494V192.959z M32.203,205.289h3.574c3.735,0,6.104-2.049,6.104-5.141c0-3.494-2.53-5.02-6.225-5.02
			c-1.687,0-2.851,0.119-3.454,0.279V205.289z"/>
		<path fill="#FFFFFF" d="M52.323,210.59c0.08,4.779,3.092,6.748,6.667,6.748c2.53,0,4.096-0.443,5.381-1.004l0.643,2.529
			c-1.245,0.563-3.414,1.244-6.506,1.244c-5.984,0-9.559-3.975-9.559-9.838c0-5.865,3.454-10.443,9.117-10.443
			c6.386,0,8.032,5.543,8.032,9.117c0,0.723-0.04,1.244-0.121,1.646H52.323z M62.685,208.061c0.04-2.209-0.924-5.703-4.899-5.703
			c-3.615,0-5.141,3.252-5.422,5.703H62.685z"/>
		<path fill="#FFFFFF" d="M69.993,216.092c1.084,0.643,2.932,1.365,4.699,1.365c2.53,0,3.735-1.244,3.735-2.891
			c0-1.688-1.004-2.57-3.574-3.535c-3.534-1.285-5.181-3.172-5.181-5.502c0-3.133,2.57-5.703,6.707-5.703
			c1.968,0,3.695,0.523,4.739,1.205l-0.843,2.57c-0.763-0.482-2.168-1.164-3.976-1.164c-2.088,0-3.213,1.205-3.213,2.65
			c0,1.607,1.125,2.33,3.655,3.334c3.333,1.244,5.101,2.932,5.101,5.822c0,3.455-2.691,5.863-7.229,5.863
			c-2.128,0-4.097-0.561-5.462-1.365L69.993,216.092z"/>
		<path fill="#FFFFFF" d="M103.969,209.787c0,7.189-5.021,10.32-9.679,10.32c-5.221,0-9.317-3.855-9.317-10
			c0-6.465,4.297-10.281,9.639-10.281C100.193,199.826,103.969,203.883,103.969,209.787z M88.587,209.988
			c0,4.256,2.41,7.469,5.863,7.469c3.374,0,5.904-3.172,5.904-7.549c0-3.295-1.646-7.432-5.823-7.432
			C90.394,202.477,88.587,206.332,88.587,209.988z"/>
		<path fill="#FFFFFF" d="M108.425,191.152h3.534v28.514h-3.534V191.152z"/>
		<path fill="#FFFFFF" d="M134.168,214.324c0,2.049,0.041,3.816,0.161,5.342h-3.133l-0.2-3.172h-0.081
			c-0.884,1.566-2.972,3.613-6.426,3.613c-3.052,0-6.707-1.727-6.707-8.514v-11.365h3.534v10.723c0,3.695,1.165,6.225,4.338,6.225
			c2.369,0,4.016-1.646,4.658-3.252c0.201-0.482,0.321-1.125,0.321-1.809v-11.887h3.534V214.324z"/>
		<path fill="#FFFFFF" d="M144.288,195.57v4.658h5.06v2.691h-5.06v10.48c0,2.41,0.683,3.775,2.65,3.775
			c0.964,0,1.526-0.08,2.048-0.24l0.161,2.691c-0.683,0.24-1.767,0.48-3.133,0.48c-1.646,0-2.972-0.561-3.815-1.484
			c-0.963-1.086-1.365-2.813-1.365-5.102V202.92h-3.012v-2.691h3.012v-3.615L144.288,195.57z"/>
		<path fill="#FFFFFF" d="M157.26,194.766c0,1.205-0.844,2.17-2.25,2.17c-1.285,0-2.128-0.965-2.128-2.17
			c0-1.203,0.884-2.207,2.208-2.207C156.375,192.559,157.26,193.521,157.26,194.766z M153.323,219.666v-19.438h3.534v19.438H153.323
			z"/>
		<path fill="#FFFFFF" d="M180.312,209.787c0,7.189-5.021,10.32-9.679,10.32c-5.221,0-9.317-3.855-9.317-10
			c0-6.465,4.297-10.281,9.639-10.281C176.536,199.826,180.312,203.883,180.312,209.787z M164.93,209.988
			c0,4.256,2.41,7.469,5.863,7.469c3.374,0,5.904-3.172,5.904-7.549c0-3.295-1.646-7.432-5.824-7.432
			C166.736,202.477,164.93,206.332,164.93,209.988z"/>
		<path fill="#FFFFFF" d="M184.768,205.49c0-2.049-0.039-3.656-0.16-5.262h3.133l0.201,3.213h0.08
			c0.964-1.807,3.213-3.615,6.426-3.615c2.69,0,6.867,1.607,6.867,8.273v11.566h-3.534v-11.205c0-3.133-1.165-5.742-4.498-5.742
			c-2.289,0-4.097,1.646-4.739,3.613c-0.16,0.443-0.24,1.045-0.24,1.648v11.686h-3.535V205.49z"/>
	</g>
	<g>
	</g>
</g>
</svg>
