<?xml version="1.0" encoding="utf-8"?>
<!-- Generator: Adobe Illustrator 15.1.0, SVG Export Plug-In . SVG Version: 6.00 Build 0)  -->
<!DOCTYPE svg PUBLIC "-//W3C//DTD SVG 1.1//EN" "http://www.w3.org/Graphics/SVG/1.1/DTD/svg11.dtd" [
	<!ENTITY ns_extend "http://ns.adobe.com/Extensibility/1.0/">
	<!ENTITY ns_ai "http://ns.adobe.com/AdobeIllustrator/10.0/">
	<!ENTITY ns_graphs "http://ns.adobe.com/Graphs/1.0/">
	<!ENTITY ns_vars "http://ns.adobe.com/Variables/1.0/">
	<!ENTITY ns_imrep "http://ns.adobe.com/ImageReplacement/1.0/">
	<!ENTITY ns_sfw "http://ns.adobe.com/SaveForWeb/1.0/">
	<!ENTITY ns_custom "http://ns.adobe.com/GenericCustomNamespace/1.0/">
	<!ENTITY ns_adobe_xpath "http://ns.adobe.com/XPath/1.0/">
]>
<svg version="1.1" xmlns:x="&ns_extend;" xmlns:i="&ns_ai;" xmlns:graph="&ns_graphs;"
	 xmlns="http://www.w3.org/2000/svg" xmlns:xlink="http://www.w3.org/1999/xlink" x="0px" y="0px" width="231px" height="229px"
	 viewBox="0 0 231 229" enable-background="new 0 0 231 229" xml:space="preserve">
<metadata>
	<sfw  xmlns="&ns_sfw;">
		<slices></slices>
		<sliceSourceBounds  x="-8076" y="-8306" width="16383" height="16383" bottomLeftOrigin="true"></sliceSourceBounds>
	</sfw>
</metadata>
<g id="compass_icon">
</g>
<g id="Layer_3">
</g>
<g id="Layer_5">
	
		<rect x="50.184" y="65.025" fill="none" stroke="#FFFFFF" stroke-width="7.0612" stroke-miterlimit="10" width="129.394" height="97.959"/>
	<g>
		<path fill="#FFFFFF" d="M71.041,207.611c-0.201-3.775-0.442-8.354-0.442-11.687h-0.08c-0.964,3.132-2.048,6.546-3.414,10.281
			l-4.779,13.133h-2.651l-4.417-12.893c-1.285-3.855-2.33-7.309-3.092-10.521h-0.081c-0.081,3.373-0.281,7.871-0.522,11.968
			l-0.723,11.606h-3.333l1.888-27.068h4.458l4.619,13.092c1.125,3.334,2.008,6.306,2.731,9.117h0.08
			c0.723-2.731,1.687-5.703,2.892-9.117l4.819-13.092h4.458l1.687,27.068h-3.454L71.041,207.611z"/>
		<path fill="#FFFFFF" d="M82.605,210.423c0.08,4.779,3.092,6.747,6.667,6.747c2.53,0,4.096-0.442,5.381-1.004l0.643,2.53
			c-1.245,0.562-3.414,1.244-6.506,1.244c-5.984,0-9.559-3.976-9.559-9.839c0-5.864,3.454-10.442,9.117-10.442
			c6.386,0,8.032,5.543,8.032,9.117c0,0.723-0.04,1.244-0.121,1.646H82.605z M92.967,207.893c0.04-2.209-0.924-5.703-4.899-5.703
			c-3.615,0-5.141,3.253-5.422,5.703H92.967z"/>
		<path fill="#FFFFFF" d="M117.504,190.984v23.494c0,1.728,0.08,3.695,0.161,5.021h-3.133l-0.161-3.373h-0.121
			c-1.044,2.168-3.374,3.814-6.546,3.814c-4.699,0-8.354-3.976-8.354-9.879c-0.041-6.467,4.016-10.402,8.715-10.402
			c3.012,0,4.98,1.406,5.863,2.932h0.081v-11.606H117.504z M114.01,207.973c0-0.441-0.041-1.044-0.161-1.485
			c-0.522-2.209-2.45-4.057-5.101-4.057c-3.655,0-5.823,3.213-5.823,7.47c0,3.936,1.968,7.188,5.743,7.188
			c2.369,0,4.538-1.605,5.181-4.217c0.12-0.481,0.161-0.964,0.161-1.525V207.973z"/>
		<path fill="#FFFFFF" d="M127.344,194.599c0,1.205-0.844,2.169-2.25,2.169c-1.285,0-2.128-0.964-2.128-2.169
			c0-1.204,0.884-2.208,2.208-2.208C126.459,192.391,127.344,193.354,127.344,194.599z M123.407,219.499v-19.438h3.534v19.438
			H123.407z"/>
		<path fill="#FFFFFF" d="M149.069,214.157c0,2.049,0.04,3.815,0.161,5.342h-3.133l-0.201-3.173h-0.08
			c-0.883,1.566-2.972,3.614-6.426,3.614c-3.053,0-6.707-1.727-6.707-8.514v-11.365h3.534v10.723c0,3.694,1.165,6.225,4.338,6.225
			c2.369,0,4.016-1.646,4.658-3.253c0.201-0.481,0.321-1.124,0.321-1.808v-11.887h3.534V214.157z"/>
		<path fill="#FFFFFF" d="M154.932,205.322c0-2.048-0.08-3.655-0.16-5.261h3.093l0.16,3.172h0.12
			c1.085-1.847,2.893-3.574,6.146-3.574c2.61,0,4.618,1.606,5.462,3.896h0.08c0.603-1.124,1.406-1.928,2.209-2.53
			c1.164-0.883,2.41-1.365,4.257-1.365c2.61,0,6.426,1.688,6.426,8.434v11.406h-3.454v-10.964c0-3.775-1.405-5.984-4.217-5.984
			c-2.048,0-3.574,1.486-4.217,3.173c-0.16,0.522-0.281,1.125-0.281,1.768v12.008h-3.453v-11.646c0-3.093-1.366-5.302-4.057-5.302
			c-2.169,0-3.815,1.768-4.378,3.534c-0.2,0.482-0.28,1.125-0.28,1.728v11.687h-3.455V205.322z"/>
	</g>
</g>
</svg>
