<?xml version="1.0" encoding="utf-8"?>
<!-- Generator: Adobe Illustrator 15.1.0, SVG Export Plug-In . SVG Version: 6.00 Build 0)  -->
<!DOCTYPE svg PUBLIC "-//W3C//DTD SVG 1.1//EN" "http://www.w3.org/Graphics/SVG/1.1/DTD/svg11.dtd" [
	<!ENTITY ns_extend "http://ns.adobe.com/Extensibility/1.0/">
	<!ENTITY ns_ai "http://ns.adobe.com/AdobeIllustrator/10.0/">
	<!ENTITY ns_graphs "http://ns.adobe.com/Graphs/1.0/">
	<!ENTITY ns_vars "http://ns.adobe.com/Variables/1.0/">
	<!ENTITY ns_imrep "http://ns.adobe.com/ImageReplacement/1.0/">
	<!ENTITY ns_sfw "http://ns.adobe.com/SaveForWeb/1.0/">
	<!ENTITY ns_custom "http://ns.adobe.com/GenericCustomNamespace/1.0/">
	<!ENTITY ns_adobe_xpath "http://ns.adobe.com/XPath/1.0/">
]>
<svg version="1.1" xmlns:x="&ns_extend;" xmlns:i="&ns_ai;" xmlns:graph="&ns_graphs;"
	 xmlns="http://www.w3.org/2000/svg" xmlns:xlink="http://www.w3.org/1999/xlink" x="0px" y="0px" width="231px" height="229px"
	 viewBox="0 0 231 229" enable-background="new 0 0 231 229" xml:space="preserve">
<metadata>
	<sfw  xmlns="&ns_sfw;">
		<slices></slices>
		<sliceSourceBounds  x="-8076" y="-8306" width="16383" height="16383" bottomLeftOrigin="true"></sliceSourceBounds>
	</sfw>
</metadata>
<g id="compass_icon">
</g>
<g id="Layer_3">
</g>
<g id="Layer_5">
	<path fill="none" stroke="#FFFFFF" stroke-width="3.5963" stroke-miterlimit="10" d="M130.178,141.436
		c-1.047,4.84,2.025,9.612,6.866,10.659c4.837,1.047,9.607-2.028,10.653-6.866c1.046-4.839-2.027-9.609-6.865-10.656
		C135.995,133.526,131.224,136.601,130.178,141.436z"/>
	<path fill="none" stroke="#FFFFFF" stroke-width="3.5963" stroke-miterlimit="10" d="M150.351,123.729
		c-2.097-1.219-4.247-2.056-6.617-2.568c-0.241,1.121-0.485,2.244-0.729,3.365c-2.01-0.432-3.965-0.544-6.008-0.336
		c-0.117-1.144-0.232-2.284-0.35-3.426c-2.411,0.244-4.643,0.834-6.861,1.813c0.463,1.05,0.927,2.099,1.39,3.149
		c-1.881,0.828-3.529,1.891-5.062,3.261c-0.765-0.856-1.528-1.713-2.295-2.568c-1.81,1.616-3.267,3.406-4.484,5.5
		c0.991,0.577,1.982,1.154,2.975,1.733c-1.035,1.776-1.743,3.602-2.179,5.611c-1.122-0.244-2.243-0.486-3.366-0.728
		c-0.51,2.367-0.642,4.674-0.396,7.086c1.143-0.119,2.285-0.232,3.427-0.349c0.207,2.045,0.707,3.94,1.536,5.821
		c-1.05,0.461-2.102,0.926-3.15,1.389c0.979,2.218,2.229,4.159,3.844,5.966c0.856-0.767,1.712-1.53,2.566-2.294
		c1.371,1.532,2.891,2.771,4.666,3.805c-0.578,0.992-1.156,1.982-1.732,2.977c2.094,1.219,4.247,2.055,6.616,2.566
		c0.243-1.121,0.486-2.242,0.727-3.364c2.011,0.434,3.966,0.544,6.01,0.336c0.117,1.141,0.233,2.283,0.35,3.426
		c2.411-0.245,4.645-0.834,6.862-1.812c-0.463-1.051-0.928-2.102-1.39-3.152c1.882-0.829,3.528-1.89,5.062-3.26
		c0.765,0.856,1.53,1.712,2.294,2.567c1.807-1.615,3.267-3.404,4.486-5.498c-0.992-0.577-1.982-1.155-2.974-1.732
		c1.031-1.778,1.739-3.605,2.175-5.613c1.122,0.242,2.245,0.483,3.367,0.729c0.513-2.369,0.642-4.674,0.396-7.088
		c-1.144,0.117-2.285,0.232-3.426,0.349c-0.206-2.046-0.707-3.939-1.538-5.821c1.051-0.461,2.102-0.927,3.151-1.389
		c-0.977-2.219-2.228-4.159-3.843-5.968c-0.855,0.766-1.711,1.531-2.568,2.297c-1.371-1.534-2.886-2.771-4.664-3.805
		C149.195,125.713,149.773,124.722,150.351,123.729z"/>
	<path fill="none" stroke="#FFFFFF" stroke-width="3.5963" stroke-miterlimit="10" d="M97.881,90.865
		c-2.77-1.613-5.619-2.718-8.752-3.397c-0.321,1.484-0.643,2.968-0.964,4.453c-2.657-0.575-5.245-0.721-7.95-0.445
		c-0.153-1.511-0.307-3.021-0.459-4.532c-3.19,0.324-6.145,1.104-9.077,2.396c0.612,1.39,1.224,2.779,1.836,4.168
		c-2.488,1.097-4.667,2.501-6.694,4.314c-1.011-1.133-2.023-2.265-3.036-3.398c-2.389,2.138-4.321,4.505-5.934,7.276
		c1.311,0.763,2.625,1.527,3.936,2.292c-1.368,2.349-2.305,4.766-2.881,7.424c-1.483-0.321-2.967-0.643-4.451-0.964
		c-0.677,3.134-0.849,6.183-0.526,9.372c1.51-0.152,3.022-0.306,4.533-0.46c0.274,2.706,0.936,5.213,2.032,7.702
		c-1.39,0.612-2.779,1.225-4.167,1.837c1.292,2.934,2.946,5.502,5.084,7.893c1.131-1.013,2.264-2.024,3.396-3.037
		c1.812,2.027,3.82,3.666,6.17,5.034c-0.764,1.313-1.529,2.626-2.292,3.938c2.77,1.613,5.618,2.717,8.752,3.395
		c0.32-1.483,0.643-2.967,0.962-4.451c2.659,0.573,5.245,0.72,7.951,0.445c0.154,1.512,0.307,3.02,0.46,4.532
		c3.189-0.324,6.143-1.105,9.078-2.398c-0.614-1.389-1.226-2.778-1.838-4.167c2.488-1.096,4.667-2.5,6.694-4.313
		c1.013,1.131,2.024,2.265,3.036,3.395c2.392-2.136,4.32-4.501,5.935-7.273c-1.312-0.763-2.624-1.527-3.936-2.291
		c1.368-2.351,2.305-4.766,2.881-7.424c1.483,0.319,2.966,0.642,4.452,0.963c0.678-3.134,0.847-6.185,0.523-9.373
		c-1.509,0.153-3.019,0.306-4.53,0.459c-0.274-2.704-0.936-5.211-2.032-7.699c1.388-0.613,2.778-1.225,4.167-1.838
		c-1.293-2.933-2.947-5.501-5.084-7.892c-1.134,1.013-2.264,2.024-3.397,3.036c-1.813-2.027-3.821-3.665-6.17-5.034
		C96.353,93.488,97.117,92.177,97.881,90.865z"/>
	<circle fill="none" stroke="#FFFFFF" stroke-width="3.5963" stroke-miterlimit="10" cx="82.784" cy="116.795" r="11.856"/>
	<path fill="none" stroke="#FFFFFF" stroke-width="3.5963" stroke-miterlimit="10" d="M161.964,57.022
		c-2.771-1.614-5.619-2.72-8.752-3.397c-0.32,1.485-0.643,2.968-0.962,4.452c-2.66-0.574-5.247-0.72-7.953-0.446
		c-0.153-1.51-0.305-3.021-0.458-4.531c-3.189,0.324-6.144,1.104-9.077,2.397c0.61,1.39,1.225,2.778,1.837,4.167
		c-2.488,1.098-4.667,2.501-6.694,4.314c-1.011-1.133-2.024-2.265-3.035-3.397c-2.391,2.138-4.322,4.505-5.934,7.274
		c1.311,0.764,2.625,1.528,3.936,2.292c-1.369,2.351-2.307,4.767-2.882,7.425c-1.482-0.321-2.967-0.643-4.451-0.964
		c-0.676,3.134-0.849,6.185-0.524,9.374c1.509-0.153,3.021-0.307,4.53-0.459c0.274,2.705,0.938,5.211,2.031,7.7
		c-1.388,0.611-2.778,1.225-4.167,1.837c1.295,2.935,2.949,5.503,5.086,7.893c1.132-1.013,2.265-2.025,3.395-3.036
		c1.813,2.028,3.822,3.664,6.172,5.033c-0.765,1.313-1.528,2.624-2.293,3.937c2.771,1.613,5.62,2.719,8.754,3.396
		c0.32-1.485,0.642-2.968,0.962-4.452c2.659,0.576,5.246,0.721,7.952,0.446c0.153,1.51,0.306,3.023,0.459,4.531
		c3.19-0.322,6.143-1.103,9.078-2.396c-0.614-1.39-1.227-2.779-1.837-4.169c2.486-1.096,4.665-2.499,6.693-4.312
		c1.012,1.132,2.024,2.266,3.034,3.396c2.391-2.136,4.321-4.505,5.937-7.275c-1.313-0.764-2.627-1.527-3.938-2.292
		c1.368-2.349,2.306-4.766,2.882-7.424c1.484,0.321,2.966,0.643,4.451,0.964c0.68-3.135,0.849-6.184,0.524-9.375
		c-1.51,0.153-3.021,0.307-4.531,0.46c-0.274-2.706-0.936-5.21-2.032-7.699c1.391-0.613,2.777-1.226,4.169-1.837
		c-1.295-2.934-2.947-5.502-5.086-7.893c-1.133,1.012-2.264,2.024-3.396,3.037c-1.813-2.028-3.822-3.666-6.172-5.035
		C160.436,59.645,161.2,58.333,161.964,57.022z"/>
	<circle fill="none" stroke="#FFFFFF" stroke-width="3.5963" stroke-miterlimit="10" cx="146.868" cy="82.954" r="11.855"/>
	<g>
		<path fill="#FFFFFF" d="M49.078,214.743c1.566,1.004,3.815,1.767,6.225,1.767c3.574,0,5.663-1.888,5.663-4.618
			c0-2.49-1.446-3.977-5.101-5.342c-4.417-1.606-7.148-3.936-7.148-7.711c0-4.217,3.494-7.35,8.755-7.35
			c2.731,0,4.779,0.643,5.944,1.326l-0.964,2.851c-0.844-0.521-2.651-1.285-5.101-1.285c-3.695,0-5.101,2.209-5.101,4.057
			c0,2.53,1.646,3.775,5.382,5.221c4.578,1.768,6.867,3.977,6.867,7.952c0,4.177-3.052,7.831-9.438,7.831
			c-2.611,0-5.462-0.803-6.908-1.767L49.078,214.743z"/>
		<path fill="#FFFFFF" d="M71.407,209.924c0.08,4.779,3.092,6.747,6.667,6.747c2.53,0,4.096-0.442,5.381-1.004l0.643,2.529
			c-1.245,0.563-3.414,1.245-6.506,1.245c-5.984,0-9.559-3.976-9.559-9.839s3.454-10.442,9.117-10.442
			c6.386,0,8.032,5.542,8.032,9.117c0,0.723-0.04,1.245-0.121,1.646H71.407z M81.768,207.394c0.04-2.209-0.924-5.703-4.899-5.703
			c-3.615,0-5.141,3.253-5.422,5.703H81.768z"/>
		<path fill="#FFFFFF" d="M93.815,194.903v4.658h5.06v2.691h-5.06v10.482c0,2.409,0.683,3.774,2.65,3.774
			c0.964,0,1.526-0.08,2.048-0.241l0.161,2.691c-0.683,0.241-1.767,0.481-3.132,0.481c-1.647,0-2.972-0.562-3.815-1.485
			c-0.964-1.085-1.366-2.812-1.366-5.101v-10.603h-3.012v-2.691h3.012v-3.614L93.815,194.903z"/>
		<path fill="#FFFFFF" d="M107.108,194.903v4.658h5.06v2.691h-5.06v10.482c0,2.409,0.683,3.774,2.65,3.774
			c0.964,0,1.526-0.08,2.048-0.241l0.161,2.691c-0.683,0.241-1.767,0.481-3.132,0.481c-1.647,0-2.972-0.562-3.815-1.485
			c-0.964-1.085-1.366-2.812-1.366-5.101v-10.603h-3.012v-2.691h3.012v-3.614L107.108,194.903z"/>
		<path fill="#FFFFFF" d="M120.08,194.101c0,1.204-0.844,2.168-2.25,2.168c-1.285,0-2.128-0.964-2.128-2.168
			c0-1.205,0.884-2.209,2.208-2.209C119.195,191.892,120.08,192.855,120.08,194.101z M116.144,219v-19.438h3.534V219H116.144z"/>
		<path fill="#FFFFFF" d="M125.541,204.823c0-2.049-0.04-3.654-0.16-5.262h3.133l0.2,3.213h0.081
			c0.963-1.807,3.213-3.614,6.426-3.614c2.689,0,6.867,1.606,6.867,8.273V219h-3.535v-11.205c0-3.133-1.164-5.743-4.498-5.743
			c-2.289,0-4.096,1.646-4.738,3.615c-0.16,0.441-0.241,1.044-0.241,1.646V219h-3.534V204.823z"/>
		<path fill="#FFFFFF" d="M164.456,216.148c0,4.498-0.924,7.188-2.771,8.916c-1.928,1.727-4.66,2.329-7.109,2.329
			c-2.329,0-4.899-0.563-6.466-1.606l0.884-2.73c1.285,0.843,3.293,1.565,5.703,1.565c3.613,0,6.265-1.887,6.265-6.827v-2.128
			h-0.081c-1.043,1.807-3.172,3.253-6.184,3.253c-4.82,0-8.273-4.097-8.273-9.479c0-6.586,4.297-10.281,8.795-10.281
			c3.373,0,5.182,1.728,6.064,3.334h0.08l0.121-2.933h3.133c-0.121,1.366-0.161,2.973-0.161,5.302V216.148z M160.922,207.232
			c0-0.603-0.041-1.124-0.201-1.565c-0.643-2.089-2.329-3.775-4.939-3.775c-3.373,0-5.783,2.852-5.783,7.35
			c0,3.814,1.968,6.987,5.742,6.987c2.209,0,4.178-1.365,4.9-3.614c0.201-0.603,0.281-1.285,0.281-1.888V207.232z"/>
		<path fill="#FFFFFF" d="M169.797,215.426c1.084,0.643,2.932,1.365,4.699,1.365c2.529,0,3.734-1.245,3.734-2.892
			c0-1.687-1.004-2.57-3.574-3.534c-3.535-1.285-5.182-3.173-5.182-5.502c0-3.133,2.57-5.703,6.707-5.703
			c1.969,0,3.695,0.522,4.74,1.205l-0.844,2.57c-0.764-0.481-2.17-1.165-3.977-1.165c-2.088,0-3.213,1.205-3.213,2.651
			c0,1.606,1.125,2.329,3.654,3.333c3.334,1.245,5.102,2.932,5.102,5.823c0,3.454-2.691,5.863-7.229,5.863
			c-2.129,0-4.098-0.562-5.463-1.365L169.797,215.426z"/>
	</g>
</g>
</svg>
