<?xml version="1.0" encoding="utf-8"?>
<!-- Generator: Adobe Illustrator 15.1.0, SVG Export Plug-In . SVG Version: 6.00 Build 0)  -->
<!DOCTYPE svg PUBLIC "-//W3C//DTD SVG 1.1//EN" "http://www.w3.org/Graphics/SVG/1.1/DTD/svg11.dtd" [
	<!ENTITY ns_extend "http://ns.adobe.com/Extensibility/1.0/">
	<!ENTITY ns_ai "http://ns.adobe.com/AdobeIllustrator/10.0/">
	<!ENTITY ns_graphs "http://ns.adobe.com/Graphs/1.0/">
	<!ENTITY ns_vars "http://ns.adobe.com/Variables/1.0/">
	<!ENTITY ns_imrep "http://ns.adobe.com/ImageReplacement/1.0/">
	<!ENTITY ns_sfw "http://ns.adobe.com/SaveForWeb/1.0/">
	<!ENTITY ns_custom "http://ns.adobe.com/GenericCustomNamespace/1.0/">
	<!ENTITY ns_adobe_xpath "http://ns.adobe.com/XPath/1.0/">
]>
<svg version="1.1" xmlns:x="&ns_extend;" xmlns:i="&ns_ai;" xmlns:graph="&ns_graphs;"
	 xmlns="http://www.w3.org/2000/svg" xmlns:xlink="http://www.w3.org/1999/xlink" x="0px" y="0px" width="231px" height="229px"
	 viewBox="0 0 231 229" enable-background="new 0 0 231 229" xml:space="preserve">
<metadata>
	<sfw  xmlns="&ns_sfw;">
		<slices></slices>
		<sliceSourceBounds  x="-8076" y="-8306" width="16383" height="16383" bottomLeftOrigin="true"></sliceSourceBounds>
	</sfw>
</metadata>
<g id="compass_icon">
</g>
<g id="Layer_3">
</g>
<g id="Layer_4">
	<polygon fill="none" stroke="#FFFFFF" stroke-width="6" stroke-miterlimit="10" points="62.123,64.359 62.123,42.911 
		105.729,42.999 105.729,64.272 124,64.359 124,42.911 167.782,42.471 167.782,64.359 176.078,64.359 176.078,138.333 
		53.826,138.333 53.826,64.359 	"/>
	<polygon fill="none" stroke="#FFFFFF" stroke-width="6" stroke-miterlimit="10" points="58.201,99.334 58.201,88.025 81.19,88.07 
		81.19,99.288 90.824,99.334 90.824,88.025 113.907,87.792 113.907,99.334 118.282,99.334 118.282,138.334 53.826,138.334 
		53.826,99.334 	"/>
	<g>
		<path fill="#FFFFFF" d="M74.271,214.743c1.566,1.004,3.815,1.767,6.225,1.767c3.574,0,5.663-1.888,5.663-4.618
			c0-2.49-1.446-3.976-5.1-5.342c-4.418-1.606-7.149-3.936-7.149-7.711c0-4.217,3.494-7.35,8.755-7.35
			c2.73,0,4.779,0.643,5.943,1.325l-0.964,2.852c-0.843-0.521-2.65-1.285-5.1-1.285c-3.695,0-5.101,2.209-5.101,4.057
			c0,2.53,1.646,3.775,5.381,5.221c4.579,1.768,6.868,3.977,6.868,7.952c0,4.177-3.052,7.831-9.438,7.831
			c-2.61,0-5.462-0.803-6.907-1.767L74.271,214.743z"/>
		<path fill="#FFFFFF" d="M108.487,218.317c-0.923,0.441-2.972,1.124-5.582,1.124c-5.864,0-9.679-3.976-9.679-9.92
			c0-5.983,4.096-10.361,10.441-10.361c2.089,0,3.936,0.522,4.9,1.045l-0.803,2.69c-0.843-0.442-2.169-0.924-4.097-0.924
			c-4.458,0-6.867,3.333-6.867,7.35c0,4.498,2.892,7.269,6.747,7.269c2.008,0,3.333-0.481,4.337-0.923L108.487,218.317z"/>
		<path fill="#FFFFFF" d="M126.278,214.342c0,1.687,0.081,3.333,0.281,4.658h-3.173l-0.281-2.45h-0.12
			c-1.085,1.526-3.173,2.892-5.944,2.892c-3.936,0-5.943-2.771-5.943-5.582c0-4.699,4.177-7.27,11.687-7.229v-0.402
			c0-1.566-0.441-4.498-4.417-4.458c-1.848,0-3.735,0.522-5.101,1.446l-0.803-2.369c1.606-1.005,3.977-1.688,6.426-1.688
			c5.943,0,7.39,4.057,7.39,7.912V214.342z M122.865,209.08c-3.855-0.08-8.233,0.603-8.233,4.378c0,2.329,1.526,3.373,3.293,3.373
			c2.57,0,4.217-1.606,4.779-3.253c0.12-0.401,0.161-0.803,0.161-1.124V209.08z"/>
		<path fill="#FFFFFF" d="M131.98,190.485h3.534V219h-3.534V190.485z"/>
		<path fill="#FFFFFF" d="M143.426,209.924c0.08,4.779,3.092,6.747,6.666,6.747c2.531,0,4.097-0.442,5.382-1.004l0.643,2.53
			c-1.245,0.562-3.413,1.244-6.506,1.244c-5.983,0-9.559-3.976-9.559-9.839c0-5.864,3.454-10.442,9.116-10.442
			c6.387,0,8.033,5.543,8.033,9.117c0,0.723-0.041,1.244-0.121,1.646H143.426z M153.787,207.394c0.04-2.209-0.924-5.703-4.899-5.703
			c-3.614,0-5.141,3.253-5.422,5.703H153.787z"/>
	</g>
</g>
</svg>
