<?xml version="1.0" encoding="utf-8"?>
<!-- Generator: Adobe Illustrator 15.1.0, SVG Export Plug-In . SVG Version: 6.00 Build 0)  -->
<!DOCTYPE svg PUBLIC "-//W3C//DTD SVG 1.1//EN" "http://www.w3.org/Graphics/SVG/1.1/DTD/svg11.dtd" [
	<!ENTITY ns_extend "http://ns.adobe.com/Extensibility/1.0/">
	<!ENTITY ns_ai "http://ns.adobe.com/AdobeIllustrator/10.0/">
	<!ENTITY ns_graphs "http://ns.adobe.com/Graphs/1.0/">
	<!ENTITY ns_vars "http://ns.adobe.com/Variables/1.0/">
	<!ENTITY ns_imrep "http://ns.adobe.com/ImageReplacement/1.0/">
	<!ENTITY ns_sfw "http://ns.adobe.com/SaveForWeb/1.0/">
	<!ENTITY ns_custom "http://ns.adobe.com/GenericCustomNamespace/1.0/">
	<!ENTITY ns_adobe_xpath "http://ns.adobe.com/XPath/1.0/">
]>
<svg version="1.1" xmlns:x="&ns_extend;" xmlns:i="&ns_ai;" xmlns:graph="&ns_graphs;"
	 xmlns="http://www.w3.org/2000/svg" xmlns:xlink="http://www.w3.org/1999/xlink" x="0px" y="0px" width="231px" height="229px"
	 viewBox="0 0 231 229" enable-background="new 0 0 231 229" xml:space="preserve">
<metadata>
	<sfw  xmlns="&ns_sfw;">
		<slices></slices>
		<sliceSourceBounds  height="16383" width="16383" y="-8306" x="-8076" bottomLeftOrigin="true"></sliceSourceBounds>
	</sfw>
</metadata>
<g id="compass_icon">
</g>
<g id="Layer_3">
</g>
<g id="Layer_4">
	
		<rect x="67.922" y="42.828" fill="none" stroke="#FFFFFF" stroke-width="5.2012" stroke-linecap="round" stroke-linejoin="round" width="95.156" height="96.672"/>
	<g>
		<path fill="#FFFFFF" d="M79.695,157.19c1.526-0.361,3.976-0.603,6.386-0.603c3.494,0,5.743,0.603,7.39,1.968
			c1.405,1.045,2.289,2.65,2.289,4.779c0,2.65-1.767,4.939-4.578,5.944v0.12c2.57,0.603,5.582,2.73,5.582,6.747
			c0,2.329-0.924,4.137-2.329,5.422c-1.848,1.727-4.9,2.53-9.317,2.53c-2.41,0-4.257-0.161-5.422-0.321V157.19z M83.189,168.274
			h3.173c3.654,0,5.823-1.968,5.823-4.578c0-3.133-2.37-4.418-5.904-4.418c-1.606,0-2.53,0.121-3.092,0.241V168.274z
			 M83.189,181.207c0.723,0.12,1.687,0.16,2.932,0.16c3.614,0,6.948-1.325,6.948-5.261c0-3.654-3.172-5.221-6.988-5.221h-2.892
			V181.207z"/>
		<path fill="#FFFFFF" d="M114.996,179.198c0,1.688,0.081,3.334,0.281,4.659h-3.173l-0.281-2.45h-0.12
			c-1.084,1.526-3.173,2.892-5.944,2.892c-3.936,0-5.944-2.771-5.944-5.582c0-4.699,4.177-7.27,11.687-7.229v-0.401
			c0-1.566-0.441-4.498-4.417-4.458c-1.847,0-3.735,0.522-5.101,1.446l-0.803-2.37c1.606-1.004,3.976-1.687,6.426-1.687
			c5.944,0,7.39,4.057,7.39,7.912V179.198z M111.583,173.938c-3.855-0.08-8.233,0.603-8.233,4.378c0,2.329,1.526,3.373,3.293,3.373
			c2.57,0,4.217-1.606,4.779-3.253c0.121-0.401,0.161-0.803,0.161-1.124V173.938z"/>
		<path fill="#FFFFFF" d="M120.216,180.283c1.085,0.643,2.932,1.365,4.699,1.365c2.53,0,3.735-1.245,3.735-2.892
			c0-1.687-1.005-2.57-3.575-3.534c-3.534-1.285-5.181-3.173-5.181-5.502c0-3.133,2.57-5.703,6.707-5.703
			c1.968,0,3.695,0.522,4.739,1.205l-0.844,2.57c-0.763-0.481-2.169-1.165-3.976-1.165c-2.089,0-3.213,1.205-3.213,2.651
			c0,1.606,1.124,2.329,3.654,3.333c3.334,1.245,5.101,2.932,5.101,5.823c0,3.454-2.69,5.863-7.229,5.863
			c-2.128,0-4.096-0.562-5.461-1.365L120.216,180.283z"/>
		<path fill="#FFFFFF" d="M138.569,174.781c0.08,4.779,3.093,6.747,6.667,6.747c2.529,0,4.096-0.442,5.381-1.004l0.643,2.529
			c-1.244,0.563-3.414,1.245-6.506,1.245c-5.984,0-9.559-3.976-9.559-9.839s3.454-10.442,9.117-10.442
			c6.385,0,8.031,5.542,8.031,9.117c0,0.723-0.039,1.245-0.12,1.646H138.569z M148.931,172.251c0.04-2.209-0.924-5.703-4.899-5.703
			c-3.615,0-5.141,3.253-5.422,5.703H148.931z"/>
		<path fill="#FFFFFF" d="M42.347,193.15c1.767-0.321,4.337-0.563,6.707-0.563c3.735,0,6.185,0.723,7.832,2.209
			c1.325,1.205,2.128,3.052,2.128,5.181c0,3.534-2.249,5.904-5.061,6.867v0.121c2.048,0.723,3.293,2.65,3.936,5.462
			c0.883,3.775,1.526,6.386,2.088,7.43h-3.615c-0.441-0.804-1.044-3.093-1.767-6.466c-0.803-3.735-2.289-5.141-5.462-5.262h-3.293
			v11.728h-3.494V193.15z M45.841,205.479h3.574c3.735,0,6.104-2.048,6.104-5.141c0-3.494-2.53-5.02-6.225-5.02
			c-1.687,0-2.852,0.12-3.454,0.281V205.479z"/>
		<path fill="#FFFFFF" d="M81.584,209.978c0,7.189-5.021,10.321-9.679,10.321c-5.221,0-9.317-3.855-9.317-10
			c0-6.466,4.297-10.281,9.639-10.281C77.809,200.018,81.584,204.074,81.584,209.978z M66.202,210.179c0,4.257,2.41,7.47,5.863,7.47
			c3.374,0,5.904-3.173,5.904-7.55c0-3.294-1.646-7.43-5.823-7.43C68.009,202.669,66.202,206.524,66.202,210.179z"/>
		<path fill="#FFFFFF" d="M90.298,195.761v4.658h5.06v2.691h-5.06v10.482c0,2.409,0.683,3.774,2.65,3.774
			c0.964,0,1.526-0.08,2.048-0.241l0.161,2.691c-0.683,0.241-1.767,0.481-3.133,0.481c-1.646,0-2.972-0.562-3.815-1.485
			c-0.964-1.085-1.366-2.812-1.366-5.101V203.11h-3.012v-2.691h3.012v-3.614L90.298,195.761z"/>
		<path fill="#FFFFFF" d="M112.988,215.198c0,1.688,0.081,3.334,0.281,4.659h-3.173l-0.281-2.45h-0.12
			c-1.084,1.526-3.173,2.892-5.944,2.892c-3.936,0-5.944-2.771-5.944-5.582c0-4.699,4.177-7.27,11.687-7.229v-0.401
			c0-1.566-0.441-4.498-4.417-4.458c-1.847,0-3.735,0.522-5.101,1.446l-0.803-2.37c1.606-1.004,3.976-1.687,6.426-1.687
			c5.944,0,7.39,4.057,7.39,7.912V215.198z M109.575,209.938c-3.855-0.08-8.233,0.603-8.233,4.378c0,2.329,1.526,3.373,3.293,3.373
			c2.57,0,4.217-1.606,4.779-3.253c0.121-0.401,0.161-0.803,0.161-1.124V209.938z"/>
		<path fill="#FFFFFF" d="M122.787,195.761v4.658h5.061v2.691h-5.061v10.482c0,2.409,0.683,3.774,2.65,3.774
			c0.964,0,1.526-0.08,2.049-0.241l0.16,2.691c-0.683,0.241-1.768,0.481-3.133,0.481c-1.646,0-2.972-0.562-3.814-1.485
			c-0.965-1.085-1.366-2.812-1.366-5.101V203.11h-3.012v-2.691h3.012v-3.614L122.787,195.761z"/>
		<path fill="#FFFFFF" d="M135.758,194.958c0,1.204-0.843,2.168-2.248,2.168c-1.285,0-2.129-0.964-2.129-2.168
			c0-1.205,0.883-2.209,2.209-2.209C134.875,192.749,135.758,193.713,135.758,194.958z M131.822,219.857v-19.438h3.534v19.438
			H131.822z"/>
		<path fill="#FFFFFF" d="M158.811,209.978c0,7.189-5.021,10.321-9.679,10.321c-5.222,0-9.317-3.855-9.317-10
			c0-6.466,4.297-10.281,9.639-10.281C155.035,200.018,158.811,204.074,158.811,209.978z M143.429,210.179
			c0,4.257,2.409,7.47,5.863,7.47c3.374,0,5.903-3.173,5.903-7.55c0-3.294-1.646-7.43-5.822-7.43
			C145.236,202.669,143.429,206.524,143.429,210.179z"/>
		<path fill="#FFFFFF" d="M163.268,205.681c0-2.049-0.041-3.654-0.161-5.262h3.133l0.2,3.213h0.081
			c0.964-1.807,3.213-3.614,6.426-3.614c2.69,0,6.867,1.606,6.867,8.273v11.566h-3.534v-11.205c0-3.133-1.164-5.743-4.498-5.743
			c-2.289,0-4.096,1.646-4.738,3.615c-0.161,0.441-0.242,1.044-0.242,1.646v11.687h-3.533V205.681z"/>
	</g>
	<path fill="none" stroke="#FFFFFF" stroke-width="4.492" stroke-miterlimit="10" d="M99.516,89.056v-9.987
		c0-8.869,7.19-16.059,16.06-16.059s16.06,7.19,16.06,16.059v9.987"/>
	<g>
		<path fill="#FFFFFF" d="M130.848,86.361h-30.545c-2.978,0-5.391,2.414-5.391,5.391v22.684c0,2.977,2.413,5.391,5.391,5.391h30.545
			c2.978,0,5.391-2.414,5.391-5.391V91.751C136.238,88.774,133.825,86.361,130.848,86.361z M118.383,104.076v7.889h-5.615v-7.889
			c-1.482-0.934-2.471-2.582-2.471-4.463c0-2.915,2.363-5.278,5.278-5.278s5.278,2.363,5.278,5.278
			C120.854,101.494,119.865,103.143,118.383,104.076z"/>
	</g>
	<g>
	</g>
</g>
</svg>
