<?xml version="1.0" encoding="utf-8"?>
<!-- Generator: Adobe Illustrator 15.1.0, SVG Export Plug-In . SVG Version: 6.00 Build 0)  -->
<!DOCTYPE svg PUBLIC "-//W3C//DTD SVG 1.1//EN" "http://www.w3.org/Graphics/SVG/1.1/DTD/svg11.dtd" [
	<!ENTITY ns_extend "http://ns.adobe.com/Extensibility/1.0/">
	<!ENTITY ns_ai "http://ns.adobe.com/AdobeIllustrator/10.0/">
	<!ENTITY ns_graphs "http://ns.adobe.com/Graphs/1.0/">
	<!ENTITY ns_vars "http://ns.adobe.com/Variables/1.0/">
	<!ENTITY ns_imrep "http://ns.adobe.com/ImageReplacement/1.0/">
	<!ENTITY ns_sfw "http://ns.adobe.com/SaveForWeb/1.0/">
	<!ENTITY ns_custom "http://ns.adobe.com/GenericCustomNamespace/1.0/">
	<!ENTITY ns_adobe_xpath "http://ns.adobe.com/XPath/1.0/">
]>
<svg version="1.1" xmlns:x="&ns_extend;" xmlns:i="&ns_ai;" xmlns:graph="&ns_graphs;"
	 xmlns="http://www.w3.org/2000/svg" xmlns:xlink="http://www.w3.org/1999/xlink" x="0px" y="0px" width="231px" height="229px"
	 viewBox="0 0 231 229" enable-background="new 0 0 231 229" xml:space="preserve">
<metadata>
	<sfw  xmlns="&ns_sfw;">
		<slices></slices>
		<sliceSourceBounds  height="16383" width="16383" y="-8306" x="-8076" bottomLeftOrigin="true"></sliceSourceBounds>
	</sfw>
</metadata>
<g id="compass_icon">
</g>
<g id="Layer_3">
</g>
<g id="Layer_4">
	<g>
		<g>
			<path fill="none" stroke="#FFFFFF" stroke-width="8.6916" stroke-linejoin="round" d="M27.758,114.492
				c0,40.102,26.779,73.943,63.43,84.625"/>
			<g>
				<polygon fill="#FFFFFF" points="83.467,214.742 115.911,202.533 89.115,180.537 				"/>
			</g>
		</g>
	</g>
	<g>
		<g>
			<path fill="none" stroke="#FFFFFF" stroke-width="8.6916" stroke-linejoin="round" d="M203.858,114.396
				c0-40.099-26.779-73.944-63.431-84.626"/>
			<g>
				<polygon fill="#FFFFFF" points="148.15,14.146 115.705,26.354 142.5,48.35 				"/>
			</g>
		</g>
	</g>
	
		<rect x="68.011" y="66.415" fill="none" stroke="#FFFFFF" stroke-width="5.2012" stroke-linecap="round" stroke-linejoin="round" width="95.157" height="96.671"/>
	
		<rect x="68.011" y="66.415" transform="matrix(0.7071 0.7071 -0.7071 0.7071 114.9974 -48.1244)" fill="none" stroke="#FFFFFF" stroke-width="5.2012" stroke-linecap="round" stroke-linejoin="round" width="95.158" height="96.671"/>
	<path fill="none" stroke="#FFFFFF" stroke-width="4.492" stroke-miterlimit="10" d="M100.531,112.643v-9.987
		c0-8.869,7.189-16.059,16.059-16.059s16.06,7.19,16.06,16.059v9.987"/>
	<g>
		<path fill="#FFFFFF" d="M131.862,109.948h-30.546c-2.977,0-5.391,2.414-5.391,5.39v22.684c0,2.977,2.414,5.391,5.391,5.391h30.546
			c2.978,0,5.391-2.414,5.391-5.391v-22.684C137.253,112.362,134.84,109.948,131.862,109.948z M119.397,127.662v7.889h-5.615v-7.889
			c-1.483-0.934-2.471-2.582-2.471-4.463c0-2.916,2.363-5.279,5.278-5.279s5.278,2.363,5.278,5.279
			C121.868,125.08,120.88,126.729,119.397,127.662z"/>
	</g>
</g>
</svg>
