<?xml version="1.0" encoding="utf-8"?>
<!-- Generator: Adobe Illustrator 15.1.0, SVG Export Plug-In . SVG Version: 6.00 Build 0)  -->
<!DOCTYPE svg PUBLIC "-//W3C//DTD SVG 1.1//EN" "http://www.w3.org/Graphics/SVG/1.1/DTD/svg11.dtd" [
	<!ENTITY ns_extend "http://ns.adobe.com/Extensibility/1.0/">
	<!ENTITY ns_ai "http://ns.adobe.com/AdobeIllustrator/10.0/">
	<!ENTITY ns_graphs "http://ns.adobe.com/Graphs/1.0/">
	<!ENTITY ns_vars "http://ns.adobe.com/Variables/1.0/">
	<!ENTITY ns_imrep "http://ns.adobe.com/ImageReplacement/1.0/">
	<!ENTITY ns_sfw "http://ns.adobe.com/SaveForWeb/1.0/">
	<!ENTITY ns_custom "http://ns.adobe.com/GenericCustomNamespace/1.0/">
	<!ENTITY ns_adobe_xpath "http://ns.adobe.com/XPath/1.0/">
]>
<svg version="1.1" xmlns:x="&ns_extend;" xmlns:i="&ns_ai;" xmlns:graph="&ns_graphs;"
	 xmlns="http://www.w3.org/2000/svg" xmlns:xlink="http://www.w3.org/1999/xlink" x="0px" y="0px" width="231px" height="229px"
	 viewBox="0 0 231 229" enable-background="new 0 0 231 229" xml:space="preserve">
<metadata>
	<sfw  xmlns="&ns_sfw;">
		<slices></slices>
		<sliceSourceBounds  height="16383" width="16383" y="-8306" x="-8076" bottomLeftOrigin="true"></sliceSourceBounds>
	</sfw>
</metadata>
<g id="compass_icon">
</g>
<g id="Layer_3">
</g>
<g id="Layer_5">
	<polygon fill="#FFFFFF" points="153.163,49.31 116.622,77.992 116.622,77.992 77.078,77.992 77.078,144.544 116.622,144.544 
		116.622,144.544 153.163,173.227 	"/>
	<g>
		<path fill="#FFFFFF" d="M116.131,205.686c0,9.277-5.663,14.256-12.57,14.256c-7.189,0-12.169-5.582-12.169-13.775
			c0-8.594,5.301-14.217,12.53-14.217C111.352,191.949,116.131,197.613,116.131,205.686z M95.086,206.086
			c0,5.824,3.132,11.004,8.675,11.004s8.675-5.1,8.675-11.244c0-5.422-2.811-11.045-8.635-11.045
			C97.978,194.801,95.086,200.184,95.086,206.086z"/>
		<path fill="#FFFFFF" d="M120.547,205.324c0-2.049-0.039-3.656-0.16-5.262h3.133l0.201,3.213h0.08
			c0.964-1.807,3.213-3.615,6.426-3.615c2.69,0,6.867,1.607,6.867,8.273V219.5h-3.534v-11.205c0-3.133-1.165-5.742-4.498-5.742
			c-2.289,0-4.097,1.646-4.739,3.613c-0.16,0.443-0.24,1.045-0.24,1.648V219.5h-3.535V205.324z"/>
	</g>
</g>
</svg>
