<?xml version="1.0" encoding="utf-8"?>
<!-- Generator: Adobe Illustrator 15.1.0, SVG Export Plug-In . SVG Version: 6.00 Build 0)  -->
<!DOCTYPE svg PUBLIC "-//W3C//DTD SVG 1.1//EN" "http://www.w3.org/Graphics/SVG/1.1/DTD/svg11.dtd" [
	<!ENTITY ns_extend "http://ns.adobe.com/Extensibility/1.0/">
	<!ENTITY ns_ai "http://ns.adobe.com/AdobeIllustrator/10.0/">
	<!ENTITY ns_graphs "http://ns.adobe.com/Graphs/1.0/">
	<!ENTITY ns_vars "http://ns.adobe.com/Variables/1.0/">
	<!ENTITY ns_imrep "http://ns.adobe.com/ImageReplacement/1.0/">
	<!ENTITY ns_sfw "http://ns.adobe.com/SaveForWeb/1.0/">
	<!ENTITY ns_custom "http://ns.adobe.com/GenericCustomNamespace/1.0/">
	<!ENTITY ns_adobe_xpath "http://ns.adobe.com/XPath/1.0/">
]>
<svg version="1.1" xmlns:x="&ns_extend;" xmlns:i="&ns_ai;" xmlns:graph="&ns_graphs;"
	 xmlns="http://www.w3.org/2000/svg" xmlns:xlink="http://www.w3.org/1999/xlink" x="0px" y="0px" width="231px" height="229px"
	 viewBox="0 0 231 229" enable-background="new 0 0 231 229" xml:space="preserve">
<metadata>
	<sfw  xmlns="&ns_sfw;">
		<slices></slices>
		<sliceSourceBounds  height="16383" width="16383" y="-8306" x="-8076" bottomLeftOrigin="true"></sliceSourceBounds>
	</sfw>
</metadata>
<g id="compass_icon">
</g>
<g id="Layer_3">
</g>
<g id="Layer_4">
	<polygon fill="#FFFFFF" points="153.543,49.31 117.002,77.992 117.002,77.992 77.458,77.992 77.458,144.544 117.002,144.544 
		117.002,144.544 153.543,173.227 	"/>
	<g>
		<path fill="#FFFFFF" d="M62.338,215.244c1.566,1.004,3.815,1.766,6.225,1.766c3.574,0,5.663-1.887,5.663-4.617
			c0-2.49-1.446-3.977-5.101-5.342c-4.417-1.607-7.148-3.936-7.148-7.711c0-4.217,3.494-7.35,8.755-7.35
			c2.731,0,4.779,0.643,5.944,1.324l-0.964,2.852c-0.844-0.521-2.651-1.285-5.101-1.285c-3.695,0-5.101,2.209-5.101,4.057
			c0,2.531,1.646,3.775,5.382,5.221c4.578,1.768,6.867,3.977,6.867,7.953c0,4.176-3.052,7.83-9.438,7.83
			c-2.611,0-5.462-0.803-6.908-1.766L62.338,215.244z"/>
		<path fill="#FFFFFF" d="M100.29,209.621c0,7.189-5.02,10.32-9.679,10.32c-5.221,0-9.317-3.855-9.317-10
			c0-6.465,4.297-10.281,9.639-10.281C96.515,199.66,100.29,203.717,100.29,209.621z M84.908,209.822
			c0,4.256,2.41,7.469,5.864,7.469c3.373,0,5.903-3.172,5.903-7.549c0-3.295-1.646-7.432-5.823-7.432
			C86.715,202.311,84.908,206.166,84.908,209.822z"/>
		<path fill="#FFFFFF" d="M121.012,214.158c0,2.049,0.041,3.816,0.162,5.342h-3.133l-0.201-3.172h-0.08
			c-0.884,1.566-2.972,3.613-6.426,3.613c-3.052,0-6.707-1.727-6.707-8.514v-11.365h3.534v10.723c0,3.695,1.165,6.225,4.338,6.225
			c2.369,0,4.015-1.646,4.658-3.252c0.201-0.482,0.322-1.125,0.322-1.809v-11.887h3.533V214.158z"/>
		<path fill="#FFFFFF" d="M126.875,205.324c0-2.049-0.04-3.656-0.16-5.262h3.133l0.2,3.213h0.081
			c0.963-1.807,3.213-3.615,6.426-3.615c2.689,0,6.867,1.607,6.867,8.273V219.5h-3.535v-11.205c0-3.133-1.164-5.742-4.498-5.742
			c-2.289,0-4.096,1.646-4.738,3.613c-0.16,0.443-0.241,1.045-0.241,1.648V219.5h-3.534V205.324z"/>
		<path fill="#FFFFFF" d="M165.91,190.986v23.494c0,1.727,0.08,3.695,0.16,5.02h-3.132l-0.161-3.373h-0.12
			c-1.044,2.168-3.374,3.814-6.546,3.814c-4.699,0-8.354-3.975-8.354-9.879c-0.041-6.467,4.016-10.402,8.715-10.402
			c3.012,0,4.98,1.406,5.863,2.932h0.08v-11.605H165.91z M162.416,207.975c0-0.441-0.039-1.045-0.16-1.486
			c-0.521-2.209-2.449-4.057-5.101-4.057c-3.655,0-5.823,3.213-5.823,7.471c0,3.936,1.968,7.188,5.742,7.188
			c2.37,0,4.539-1.605,5.182-4.217c0.121-0.48,0.16-0.963,0.16-1.525V207.975z"/>
	</g>
</g>
</svg>
