<?xml version="1.0" encoding="utf-8"?>
<!-- Generator: Adobe Illustrator 15.1.0, SVG Export Plug-In . SVG Version: 6.00 Build 0)  -->
<!DOCTYPE svg PUBLIC "-//W3C//DTD SVG 1.1//EN" "http://www.w3.org/Graphics/SVG/1.1/DTD/svg11.dtd">
<svg version="1.1" xmlns="http://www.w3.org/2000/svg" xmlns:xlink="http://www.w3.org/1999/xlink" x="0px" y="0px" width="231px"
	 height="229px" viewBox="0 0 231 229" enable-background="new 0 0 231 229" xml:space="preserve">
<g id="Layer_3">
</g>
<g id="Layer_4">
	<g>
	</g>
	<g>
	</g>
	<g>
		<path fill="#FFFFFF" d="M56.348,109.604c2.849,1.71,9.344,4.559,16.409,4.559c12.762,0,16.865-8.091,16.75-14.358
			c-0.113-10.369-9.458-14.813-19.144-14.813H64.78V77.47h5.584c7.293,0,16.523-3.76,16.523-12.534
			c0-5.926-3.761-11.167-12.991-11.167c-5.925,0-11.623,2.621-14.813,4.9l-2.735-7.293c3.988-2.849,11.509-5.698,19.486-5.698
			c14.586,0,21.195,8.661,21.195,17.663c0,7.749-4.672,14.244-13.675,17.549v0.228c9.116,1.71,16.409,8.547,16.523,18.917
			c0,11.851-9.344,22.221-27.007,22.221c-8.318,0-15.611-2.621-19.258-5.015L56.348,109.604z"/>
		<path fill="#FFFFFF" d="M115.943,45.335c6.04-1.025,13.219-1.709,21.081-1.709c14.244,0,24.387,3.419,31.109,9.572
			c6.951,6.268,10.939,15.156,10.939,27.576c0,12.535-3.988,22.791-11.053,29.855c-7.293,7.18-19.145,11.054-34.072,11.054
			c-7.178,0-12.99-0.342-18.004-0.911V45.335z M125.857,113.251c2.506,0.342,6.152,0.456,10.027,0.456
			c21.309,0,32.705-11.852,32.705-32.591c0.113-18.118-10.143-29.627-31.109-29.627c-5.129,0-9.002,0.456-11.623,1.026V113.251z"/>
		<path fill="#FFFFFF" d="M79.636,166.253c1.687-0.281,3.896-0.522,6.706-0.522c3.454,0,5.984,0.804,7.591,2.249
			c1.445,1.285,2.369,3.253,2.369,5.663c0,2.449-0.723,4.377-2.088,5.783c-1.888,1.968-4.859,2.972-8.273,2.972
			c-1.044,0-2.008-0.04-2.812-0.241V193h-3.493V166.253z M83.129,179.305c0.764,0.201,1.728,0.281,2.892,0.281
			c4.217,0,6.787-2.088,6.787-5.743c0-3.614-2.57-5.341-6.385-5.341c-1.526,0-2.691,0.12-3.294,0.281V179.305z"/>
		<path fill="#FFFFFF" d="M100.238,179.626c0-2.289-0.04-4.257-0.16-6.063h3.092l0.161,3.855h0.12
			c0.884-2.611,3.053-4.258,5.422-4.258c0.361,0,0.643,0.04,0.964,0.08v3.334c-0.361-0.08-0.723-0.08-1.205-0.08
			c-2.489,0-4.257,1.847-4.739,4.498c-0.08,0.481-0.12,1.084-0.12,1.646V193h-3.534V179.626z"/>
		<path fill="#FFFFFF" d="M117.467,168.1c0,1.205-0.844,2.169-2.25,2.169c-1.285,0-2.128-0.964-2.128-2.169
			c0-1.204,0.883-2.208,2.209-2.208C116.584,165.892,117.467,166.855,117.467,168.1z M113.531,193v-19.438h3.534V193H113.531z"/>
		<path fill="#FFFFFF" d="M122.928,178.823c0-2.048-0.039-3.655-0.16-5.261h3.133l0.201,3.213h0.08
			c0.963-1.808,3.213-3.615,6.426-3.615c2.691,0,6.867,1.606,6.867,8.273V193h-3.533v-11.205c0-3.133-1.166-5.743-4.498-5.743
			c-2.289,0-4.098,1.646-4.74,3.614c-0.16,0.442-0.24,1.045-0.24,1.647V193h-3.535V178.823z"/>
		<path fill="#FFFFFF" d="M149.313,168.903v4.659h5.061v2.69h-5.061v10.481c0,2.41,0.684,3.775,2.652,3.775
			c0.963,0,1.525-0.08,2.047-0.24l0.162,2.69c-0.684,0.241-1.768,0.481-3.133,0.481c-1.646,0-2.973-0.562-3.816-1.485
			c-0.963-1.085-1.365-2.812-1.365-5.101v-10.603h-3.012v-2.69h3.012v-3.615L149.313,168.903z"/>
	</g>
</g>
</svg>
