<?xml version="1.0" encoding="utf-8"?>
<!-- Generator: Adobe Illustrator 15.1.0, SVG Export Plug-In . SVG Version: 6.00 Build 0)  -->
<!DOCTYPE svg PUBLIC "-//W3C//DTD SVG 1.1//EN" "http://www.w3.org/Graphics/SVG/1.1/DTD/svg11.dtd">
<svg version="1.1" xmlns="http://www.w3.org/2000/svg" xmlns:xlink="http://www.w3.org/1999/xlink" x="0px" y="0px" width="231px"
	 height="229px" viewBox="0 0 231 229" enable-background="new 0 0 231 229" xml:space="preserve">
<g id="Layer_3">
</g>
<g id="Layer_4">
	<g>
	</g>
	<g>
	</g>
	<g>
		<path fill="#FFFFFF" d="M11.731,108.921c4.444,2.849,10.826,5.014,17.663,5.014c10.142,0,16.067-5.355,16.067-13.104
			c0-7.064-4.102-11.281-14.472-15.155c-12.535-4.559-20.284-11.167-20.284-21.879c0-11.965,9.914-20.854,24.842-20.854
			c7.749,0,13.56,1.823,16.865,3.761l-2.735,8.09c-2.393-1.481-7.521-3.646-14.472-3.646c-10.484,0-14.472,6.268-14.472,11.509
			c0,7.179,4.672,10.712,15.27,14.813c12.991,5.015,19.486,11.281,19.486,22.563c0,11.851-8.66,22.221-26.779,22.221
			c-7.407,0-15.498-2.279-19.6-5.015L11.731,108.921z"/>
		<path fill="#FFFFFF" d="M107.906,107.781c0,4.786,0.229,9.458,0.798,13.219h-9.002l-0.798-6.951h-0.342
			c-3.076,4.33-9.002,8.205-16.865,8.205c-11.167,0-16.865-7.863-16.865-15.84c0-13.332,11.851-20.625,33.161-20.512v-1.14
			c0-4.443-1.254-12.763-12.535-12.648c-5.242,0-10.598,1.481-14.472,4.103l-2.279-6.724c4.558-2.849,11.281-4.786,18.232-4.786
			c16.865,0,20.967,11.509,20.967,22.449V107.781z M98.22,92.854c-10.939-0.228-23.36,1.709-23.36,12.421
			c0,6.609,4.33,9.572,9.344,9.572c7.293,0,11.966-4.559,13.561-9.23c0.342-1.14,0.456-2.279,0.456-3.19V92.854z"/>
		<path fill="#FFFFFF" d="M127.051,65.847l10.826,30.882c1.822,5.127,3.305,9.686,4.443,14.244h0.342
			c1.254-4.559,2.85-9.117,4.672-14.244l10.713-30.882h10.482L146.879,121h-9.572L116.34,65.847H127.051z"/>
		<path fill="#FFFFFF" d="M182.432,95.247c0.227,13.56,8.773,19.144,18.916,19.144c7.178,0,11.623-1.253,15.27-2.849l1.822,7.179
			c-3.531,1.596-9.686,3.533-18.459,3.533c-16.98,0-27.121-11.281-27.121-27.919c0-16.637,9.799-29.627,25.867-29.627
			c18.119,0,22.791,15.725,22.791,25.867c0,2.052-0.115,3.533-0.342,4.673H182.432z M211.83,88.067
			c0.115-6.267-2.621-16.181-13.902-16.181c-10.254,0-14.586,9.229-15.383,16.181H211.83z"/>
		<path fill="#FFFFFF" d="M84.069,188.743c1.566,1.004,3.815,1.767,6.226,1.767c3.574,0,5.662-1.888,5.662-4.618
			c0-2.49-1.445-3.976-5.101-5.342c-4.417-1.606-7.148-3.936-7.148-7.711c0-4.217,3.494-7.35,8.755-7.35
			c2.731,0,4.779,0.643,5.944,1.325l-0.964,2.852c-0.844-0.521-2.65-1.285-5.101-1.285c-3.695,0-5.101,2.209-5.101,4.057
			c0,2.53,1.646,3.775,5.382,5.221c4.578,1.768,6.867,3.977,6.867,7.952c0,4.177-3.052,7.831-9.438,7.831
			c-2.61,0-5.462-0.803-6.908-1.767L84.069,188.743z"/>
		<path fill="#FFFFFF" d="M109.451,168.903h-8.233v-2.972h20.041v2.972h-8.274V193h-3.533V168.903z"/>
		<path fill="#FFFFFF" d="M124.229,165.932h3.533v24.137h11.566V193h-15.1V165.932z"/>
		<path fill="#FFFFFF" d="M142.26,190.912c0-1.446,1.004-2.53,2.41-2.53c1.404,0,2.369,1.044,2.369,2.53
			c0,1.445-0.965,2.529-2.449,2.529C143.225,193.441,142.26,192.357,142.26,190.912z"/>
	</g>
</g>
</svg>
