<?xml version="1.0" encoding="utf-8"?>
<!-- Generator: Adobe Illustrator 15.1.0, SVG Export Plug-In . SVG Version: 6.00 Build 0)  -->
<!DOCTYPE svg PUBLIC "-//W3C//DTD SVG 1.1//EN" "http://www.w3.org/Graphics/SVG/1.1/DTD/svg11.dtd">
<svg version="1.1" id="Layer_2" xmlns="http://www.w3.org/2000/svg" xmlns:xlink="http://www.w3.org/1999/xlink" x="0px" y="0px"
	 width="231px" height="229px" viewBox="0 0 231 229" enable-background="new 0 0 231 229" xml:space="preserve">
<g>
	<path fill="#FFFFFF" d="M39.758,176.365h3.534v24.137h11.566v2.932H39.758V176.365z"/>
	<path fill="#FFFFFF" d="M62.328,203.434l-8.875-27.068h3.815l4.217,13.332c1.125,3.655,2.128,6.949,2.892,10.121h0.08
		c0.763-3.133,1.848-6.546,3.092-10.08l4.579-13.373h3.735l-9.679,27.068H62.328z"/>
	<path fill="#FFFFFF" d="M78.753,176.365h3.534v24.137h11.566v2.932H78.753V176.365z"/>
	<path fill="#FFFFFF" d="M125.137,202.59c-1.244,0.643-3.855,1.285-7.148,1.285c-7.63,0-13.333-4.819-13.333-13.735
		c0-8.515,5.743-14.217,14.136-14.217c3.334,0,5.502,0.723,6.426,1.204l-0.883,2.852c-1.285-0.643-3.173-1.124-5.422-1.124
		c-6.346,0-10.563,4.056-10.563,11.165c0,6.666,3.815,10.883,10.361,10.883c2.169,0,4.338-0.441,5.743-1.124L125.137,202.59z"/>
	<path fill="#FFFFFF" d="M146.582,193.553c0,7.189-5.02,10.322-9.678,10.322c-5.222,0-9.318-3.855-9.318-10
		c0-6.467,4.297-10.281,9.639-10.281C142.807,183.594,146.582,187.65,146.582,193.553z M131.201,193.754
		c0,4.258,2.409,7.471,5.863,7.471c3.373,0,5.903-3.174,5.903-7.551c0-3.293-1.646-7.43-5.823-7.43
		C133.008,186.244,131.201,190.1,131.201,193.754z"/>
	<path fill="#FFFFFF" d="M167.787,174.918v23.495c0,1.728,0.08,3.694,0.16,5.021h-3.133l-0.16-3.374h-0.121
		c-1.043,2.169-3.373,3.815-6.545,3.815c-4.699,0-8.354-3.977-8.354-9.88c-0.041-6.466,4.016-10.401,8.715-10.401
		c3.012,0,4.979,1.405,5.863,2.932h0.08v-11.607H167.787z M164.293,191.906c0-0.441-0.041-1.043-0.16-1.485
		c-0.523-2.209-2.451-4.056-5.102-4.056c-3.654,0-5.822,3.213-5.822,7.469c0,3.937,1.967,7.189,5.742,7.189
		c2.369,0,4.539-1.606,5.182-4.217c0.119-0.482,0.16-0.964,0.16-1.526V191.906z"/>
	<path fill="#FFFFFF" d="M175.658,194.357c0.08,4.778,3.092,6.746,6.666,6.746c2.53,0,4.096-0.441,5.381-1.004l0.643,2.531
		c-1.244,0.561-3.413,1.244-6.506,1.244c-5.983,0-9.559-3.977-9.559-9.84s3.455-10.441,9.117-10.441
		c6.386,0,8.032,5.542,8.032,9.116c0,0.724-0.04,1.245-0.12,1.647H175.658z M186.02,191.826c0.039-2.209-0.924-5.703-4.9-5.703
		c-3.614,0-5.141,3.254-5.422,5.703H186.02z"/>
</g>
<path fill="none" stroke="#FFFFFF" stroke-width="2.4369" stroke-miterlimit="10" d="M117.908,124.093"/>
<polygon fill="none" stroke="#FFFFFF" stroke-width="5.3216" stroke-miterlimit="10" points="82.574,92.678 82.574,80.282 
	107.773,80.236 107.773,92.948 118.334,92.982 118.334,80.333 143.635,80.333 143.635,92.678 148.43,92.678 148.43,135.428 
	77.779,135.428 77.779,92.678 "/>
<line fill="none" stroke="#FFFFFF" stroke-width="1.7285" stroke-miterlimit="10" x1="84.667" y1="127.085" x2="141.334" y2="127.085"/>
<line fill="none" stroke="#FFFFFF" stroke-width="1.7285" stroke-miterlimit="10" x1="84.667" y1="121.952" x2="141.334" y2="121.952"/>
<line fill="none" stroke="#FFFFFF" stroke-width="1.7285" stroke-miterlimit="10" x1="84.667" y1="116.821" x2="141.334" y2="116.821"/>
<line fill="none" stroke="#FFFFFF" stroke-width="1.7285" stroke-miterlimit="10" x1="84.667" y1="111.688" x2="141.334" y2="111.688"/>
<line fill="none" stroke="#FFFFFF" stroke-width="1.7285" stroke-miterlimit="10" x1="84.667" y1="106.558" x2="141.334" y2="106.558"/>
<line fill="none" stroke="#FFFFFF" stroke-width="1.7285" stroke-miterlimit="10" x1="84.667" y1="101.558" x2="141.334" y2="101.558"/>
</svg>
