<?xml version="1.0" encoding="utf-8"?>
<!-- Generator: Adobe Illustrator 15.1.0, SVG Export Plug-In . SVG Version: 6.00 Build 0)  -->
<!DOCTYPE svg PUBLIC "-//W3C//DTD SVG 1.1//EN" "http://www.w3.org/Graphics/SVG/1.1/DTD/svg11.dtd">
<svg version="1.1" xmlns="http://www.w3.org/2000/svg" xmlns:xlink="http://www.w3.org/1999/xlink" x="0px" y="0px" width="231px"
	 height="229px" viewBox="0 0 231 229" enable-background="new 0 0 231 229" xml:space="preserve">
<g id="Layer_3">
</g>
<g id="Layer_4">
	<g>
		<path fill="#FFFFFF" d="M111.493,121.162l-0.125-1.623c-0.375-3.31,0.749-7.056,3.871-10.802c2.81-3.309,4.37-5.745,4.37-8.554
			c0-3.185-1.998-5.307-5.931-5.37c-2.248,0-4.745,0.749-6.306,1.936l-1.499-3.934c2.123-1.499,5.619-2.498,8.929-2.498
			c7.18,0,10.426,4.433,10.426,9.178c0,4.246-2.371,7.306-5.369,10.865c-2.747,3.247-3.746,6.057-3.559,9.241l0.125,1.561H111.493z
			 M110.182,129.966c0-2.31,1.561-3.934,3.684-3.934c2.248,0,3.683,1.624,3.683,3.934c0,2.186-1.436,3.872-3.746,3.872
			C111.68,133.838,110.182,132.151,110.182,129.966z"/>
	</g>
	<g>
	</g>
</g>
</svg>
