<?xml version="1.0" encoding="utf-8"?>
<!-- Generator: Adobe Illustrator 15.1.0, SVG Export Plug-In . SVG Version: 6.00 Build 0)  -->
<!DOCTYPE svg PUBLIC "-//W3C//DTD SVG 1.1//EN" "http://www.w3.org/Graphics/SVG/1.1/DTD/svg11.dtd">
<svg version="1.1" xmlns="http://www.w3.org/2000/svg" xmlns:xlink="http://www.w3.org/1999/xlink" x="0px" y="0px" width="231px"
	 height="229px" viewBox="0 0 231 229" enable-background="new 0 0 231 229" xml:space="preserve">
<g id="Layer_3">
</g>
<g id="Layer_4">
	<g>
		<path fill="#FFFFFF" d="M20.457,133.15l1.624-12.238h-5.183v-3.684h5.745l1.186-9.054h-5.432v-3.684h5.932l1.623-11.926h3.684
			l-1.624,11.926h6.556l1.561-11.926h3.684l-1.561,11.926h5.12v3.684H37.69l-1.124,9.054h5.37v3.684h-5.932l-1.624,12.238h-3.746
			l1.624-12.238h-6.494l-1.561,12.238H20.457z M32.82,117.229l1.187-9.054h-6.494l-1.186,9.054H32.82z"/>
		<path fill="#FFFFFF" d="M79.462,99.933v14.673h14.111v3.747H79.462v14.798h-3.996v-14.798H61.354v-3.747h14.111V99.933H79.462z"/>
		<path fill="#FFFFFF" d="M118.111,121.162l-0.125-1.623c-0.375-3.31,0.749-7.056,3.871-10.802c2.811-3.309,4.371-5.745,4.371-8.554
			c0-3.185-1.998-5.307-5.932-5.37c-2.248,0-4.746,0.749-6.307,1.936l-1.499-3.934c2.123-1.499,5.62-2.498,8.928-2.498
			c7.182,0,10.428,4.433,10.428,9.178c0,4.246-2.373,7.306-5.369,10.865c-2.748,3.247-3.746,6.057-3.561,9.241l0.125,1.561H118.111z
			 M116.8,129.966c0-2.31,1.562-3.934,3.685-3.934c2.248,0,3.684,1.624,3.684,3.934c0,2.186-1.436,3.872-3.746,3.872
			C118.299,133.838,116.8,132.151,116.8,129.966z"/>
		<path fill="#FFFFFF" d="M150.393,112.108v-3.746h32.217v3.746H150.393z M150.393,124.347V120.6h32.217v3.747H150.393z"/>
		<path fill="#FFFFFF" d="M204.213,133.15l1.625-12.238h-5.184v-3.684h5.744l1.188-9.054h-5.434v-3.684h5.932l1.625-11.926h3.684
			l-1.623,11.926h6.555l1.561-11.926h3.686l-1.563,11.926h5.121v3.684h-5.682l-1.125,9.054h5.371v3.684h-5.932l-1.625,12.238h-3.746
			l1.623-12.238h-6.492l-1.563,12.238H204.213z M216.576,117.229l1.188-9.054h-6.494l-1.188,9.054H216.576z"/>
	</g>
</g>
</svg>
