<?xml version="1.0" encoding="utf-8"?>
<!-- Generator: Adobe Illustrator 15.1.0, SVG Export Plug-In . SVG Version: 6.00 Build 0)  -->
<!DOCTYPE svg PUBLIC "-//W3C//DTD SVG 1.1//EN" "http://www.w3.org/Graphics/SVG/1.1/DTD/svg11.dtd">
<svg version="1.1" xmlns="http://www.w3.org/2000/svg" xmlns:xlink="http://www.w3.org/1999/xlink" x="0px" y="0px" width="231px"
	 height="229px" viewBox="0 0 231 229" enable-background="new 0 0 231 229" xml:space="preserve">
<g id="Layer_3">
</g>
<g id="Layer_4">
	<g>
		<path fill="#FFFFFF" d="M29.479,133.15l1.624-12.238H25.92v-3.684h5.745l1.186-9.054h-5.432v-3.684h5.932l1.623-11.926h3.684
			l-1.624,11.926h6.556l1.561-11.926h3.684l-1.561,11.926h5.12v3.684h-5.682l-1.124,9.054h5.37v3.684h-5.932l-1.624,12.238h-3.746
			l1.624-12.238h-6.494l-1.561,12.238H29.479z M41.842,117.229l1.187-9.054h-6.494l-1.186,9.054H41.842z"/>
		<path fill="#FFFFFF" d="M85.175,114.294v3.996H69.752v-3.996H85.175z"/>
		<path fill="#FFFFFF" d="M109.088,121.162l-0.125-1.623c-0.375-3.31,0.749-7.056,3.871-10.802c2.81-3.309,4.371-5.745,4.371-8.554
			c0-3.185-1.998-5.307-5.932-5.37c-2.248,0-4.746,0.749-6.306,1.936l-1.499-3.934c2.123-1.499,5.619-2.498,8.929-2.498
			c7.181,0,10.427,4.433,10.427,9.178c0,4.246-2.372,7.306-5.369,10.865c-2.748,3.247-3.747,6.057-3.559,9.241l0.125,1.561H109.088z
			 M107.777,129.966c0-2.31,1.561-3.934,3.684-3.934c2.248,0,3.684,1.624,3.684,3.934c0,2.186-1.436,3.872-3.746,3.872
			C109.275,133.838,107.777,132.151,107.777,129.966z"/>
		<path fill="#FFFFFF" d="M141.369,112.108v-3.746h32.217v3.746H141.369z M141.369,124.347V120.6h32.217v3.747H141.369z"/>
		<path fill="#FFFFFF" d="M195.191,133.15l1.623-12.238h-5.182v-3.684h5.744l1.186-9.054h-5.432v-3.684h5.932l1.623-11.926h3.684
			l-1.623,11.926h6.557l1.561-11.926h3.684l-1.561,11.926h5.119v3.684h-5.682l-1.123,9.054h5.369v3.684h-5.932l-1.623,12.238h-3.746
			l1.623-12.238h-6.494l-1.561,12.238H195.191z M207.555,117.229l1.186-9.054h-6.494l-1.186,9.054H207.555z"/>
	</g>
</g>
</svg>
