<?xml version="1.0" encoding="utf-8"?>
<!-- Generator: Adobe Illustrator 15.1.0, SVG Export Plug-In . SVG Version: 6.00 Build 0)  -->
<!DOCTYPE svg PUBLIC "-//W3C//DTD SVG 1.1//EN" "http://www.w3.org/Graphics/SVG/1.1/DTD/svg11.dtd" [
	<!ENTITY ns_extend "http://ns.adobe.com/Extensibility/1.0/">
	<!ENTITY ns_ai "http://ns.adobe.com/AdobeIllustrator/10.0/">
	<!ENTITY ns_graphs "http://ns.adobe.com/Graphs/1.0/">
	<!ENTITY ns_vars "http://ns.adobe.com/Variables/1.0/">
	<!ENTITY ns_imrep "http://ns.adobe.com/ImageReplacement/1.0/">
	<!ENTITY ns_sfw "http://ns.adobe.com/SaveForWeb/1.0/">
	<!ENTITY ns_custom "http://ns.adobe.com/GenericCustomNamespace/1.0/">
	<!ENTITY ns_adobe_xpath "http://ns.adobe.com/XPath/1.0/">
]>
<svg version="1.1" xmlns:x="&ns_extend;" xmlns:i="&ns_ai;" xmlns:graph="&ns_graphs;"
	 xmlns="http://www.w3.org/2000/svg" xmlns:xlink="http://www.w3.org/1999/xlink" x="0px" y="0px" width="231px" height="229px"
	 viewBox="0 0 231 229" enable-background="new 0 0 231 229" xml:space="preserve">
<metadata>
	<sfw  xmlns="&ns_sfw;">
		<slices></slices>
		<sliceSourceBounds  x="-8076" y="-8306" width="16383" height="16383" bottomLeftOrigin="true"></sliceSourceBounds>
	</sfw>
</metadata>
<g id="compass_icon">
</g>
<g id="Layer_3">
	<path fill="none" stroke="#FFFFFF" stroke-width="1.4704" stroke-miterlimit="10" d="M36.202-4.717"/>
	<path fill="none" stroke="#FFFFFF" stroke-width="2.2056" stroke-miterlimit="10" d="M105.186-4.717"/>
	<g>
		<path fill="#FFFFFF" d="M74.912,182.811v-27.068h3.855l8.635,13.695c1.968,3.172,3.574,6.023,4.819,8.795l0.12-0.039
			c-0.321-3.615-0.401-6.908-0.401-11.125v-11.326h3.293v27.068h-3.534l-8.594-13.734c-1.888-3.012-3.695-6.105-5.02-9.037
			l-0.121,0.041c0.201,3.414,0.241,6.666,0.241,11.164v11.566H74.912z"/>
		<path fill="#FFFFFF" d="M103.184,173.734c0.08,4.779,3.092,6.748,6.667,6.748c2.53,0,4.096-0.443,5.381-1.004l0.643,2.529
			c-1.245,0.563-3.414,1.244-6.506,1.244c-5.984,0-9.559-3.975-9.559-9.838s3.454-10.443,9.117-10.443
			c6.386,0,8.032,5.543,8.032,9.117c0,0.723-0.04,1.246-0.121,1.646H103.184z M113.545,171.205c0.04-2.209-0.924-5.703-4.899-5.703
			c-3.615,0-5.141,3.252-5.422,5.703H113.545z"/>
		<path fill="#FFFFFF" d="M122.741,163.373l2.61,9.879c0.521,2.17,1.045,4.178,1.406,6.186h0.12
			c0.442-1.969,1.085-4.057,1.728-6.145l3.172-9.92h2.973l3.012,9.719c0.723,2.33,1.285,4.377,1.727,6.346h0.121
			c0.32-1.969,0.843-4.016,1.485-6.305l2.771-9.76h3.494l-6.265,19.438h-3.213l-2.972-9.277c-0.684-2.168-1.245-4.096-1.727-6.385
			h-0.08c-0.482,2.33-1.085,4.338-1.768,6.426l-3.133,9.236h-3.213l-5.863-19.438H122.741z"/>
		<path fill="#FFFFFF" d="M52,208.297l-2.811,8.514h-3.615l9.237-27.068h4.177l9.237,27.068H64.49l-2.892-8.514H52z M60.916,205.566
			l-2.691-7.791c-0.603-1.768-1.004-3.375-1.406-4.941h-0.08c-0.402,1.566-0.803,3.254-1.366,4.9l-2.65,7.832H60.916z"/>
		<path fill="#FFFFFF" d="M85.454,216.129c-0.924,0.441-2.972,1.123-5.583,1.123c-5.864,0-9.679-3.975-9.679-9.918
			c0-5.984,4.097-10.363,10.442-10.363c2.088,0,3.936,0.523,4.899,1.045l-0.803,2.691c-0.843-0.441-2.168-0.924-4.096-0.924
			c-4.458,0-6.868,3.332-6.868,7.35c0,4.498,2.892,7.27,6.747,7.27c2.008,0,3.333-0.482,4.337-0.924L85.454,216.129z"/>
		<path fill="#FFFFFF" d="M103.205,216.129c-0.924,0.441-2.972,1.123-5.583,1.123c-5.864,0-9.679-3.975-9.679-9.918
			c0-5.984,4.097-10.363,10.442-10.363c2.088,0,3.936,0.523,4.899,1.045l-0.803,2.691c-0.843-0.441-2.168-0.924-4.096-0.924
			c-4.458,0-6.868,3.332-6.868,7.35c0,4.498,2.892,7.27,6.747,7.27c2.008,0,3.333-0.482,4.337-0.924L103.205,216.129z"/>
		<path fill="#FFFFFF" d="M124.689,206.932c0,7.189-5.02,10.32-9.678,10.32c-5.221,0-9.317-3.855-9.317-10
			c0-6.465,4.297-10.281,9.639-10.281C120.914,196.971,124.689,201.027,124.689,206.932z M109.308,207.133
			c0,4.256,2.41,7.469,5.863,7.469c3.374,0,5.904-3.172,5.904-7.549c0-3.295-1.646-7.43-5.823-7.43
			C111.115,199.623,109.308,203.479,109.308,207.133z"/>
		<path fill="#FFFFFF" d="M145.412,211.469c0,2.049,0.041,3.816,0.16,5.342h-3.132l-0.2-3.172h-0.081
			c-0.884,1.566-2.972,3.613-6.426,3.613c-3.052,0-6.706-1.727-6.706-8.514v-11.365h3.533v10.723c0,3.695,1.165,6.225,4.338,6.225
			c2.369,0,4.016-1.646,4.658-3.252c0.201-0.482,0.322-1.125,0.322-1.807v-11.889h3.533V211.469z"/>
		<path fill="#FFFFFF" d="M151.275,202.635c0-2.049-0.041-3.654-0.161-5.262h3.133l0.2,3.213h0.08
			c0.965-1.807,3.213-3.615,6.426-3.615c2.691,0,6.868,1.607,6.868,8.273v11.566h-3.534v-11.205c0-3.133-1.164-5.742-4.498-5.742
			c-2.289,0-4.096,1.646-4.738,3.615c-0.161,0.441-0.242,1.043-0.242,1.646v11.686h-3.533V202.635z"/>
		<path fill="#FFFFFF" d="M177.66,192.715v4.658h5.061v2.691h-5.061v10.482c0,2.408,0.683,3.773,2.65,3.773
			c0.964,0,1.526-0.08,2.049-0.24l0.16,2.691c-0.683,0.24-1.768,0.48-3.133,0.48c-1.646,0-2.972-0.561-3.814-1.484
			c-0.965-1.086-1.366-2.813-1.366-5.102v-10.602h-3.013v-2.691h3.013v-3.615L177.66,192.715z"/>
	</g>
	<circle fill="#FFFFFF" cx="114.167" cy="61.627" r="22.75"/>
	<path fill="#FFFFFF" d="M148.545,115.311c0-18.987-15.393-34.377-34.378-34.377c-18.986,0-34.378,15.391-34.378,34.377
		C79.789,134.297,148.545,134.297,148.545,115.311z"/>
</g>
</svg>
