<?xml version="1.0" encoding="utf-8"?>
<!-- Generator: Adobe Illustrator 15.1.0, SVG Export Plug-In . SVG Version: 6.00 Build 0)  -->
<!DOCTYPE svg PUBLIC "-//W3C//DTD SVG 1.1//EN" "http://www.w3.org/Graphics/SVG/1.1/DTD/svg11.dtd">
<svg version="1.1" xmlns="http://www.w3.org/2000/svg" xmlns:xlink="http://www.w3.org/1999/xlink" x="0px" y="0px" width="231px"
	 height="229px" viewBox="0 0 231 229" enable-background="new 0 0 231 229" xml:space="preserve">
<g id="compass_icon">
</g>
<g id="Layer_3">
</g>
<g id="Layer_5">
	
		<polygon fill="none" stroke="#FFFFFF" stroke-width="7.6941" stroke-linecap="round" stroke-linejoin="round" stroke-miterlimit="10" points="
		186.316,165.333 43.783,165.333 43.783,66.005 43.783,64.668 186.316,64.668 	"/>
	
		<polyline fill="none" stroke="#FFFFFF" stroke-width="7.6941" stroke-linecap="round" stroke-linejoin="round" stroke-miterlimit="10" points="
		45.278,65.522 115.05,115.001 186.316,64.668 	"/>
	<g>
		<path fill="#FFFFFF" d="M87.2,204.705H76.718v9.76h11.727v2.932H73.184v-27.068h14.659v2.932H76.718v8.555H87.2V204.705z"/>
		<path fill="#FFFFFF" d="M92.862,203.221c0-2.049-0.08-3.656-0.161-5.262h3.093l0.16,3.172h0.121
			c1.084-1.846,2.892-3.574,6.145-3.574c2.61,0,4.618,1.607,5.462,3.896h0.08c0.603-1.125,1.406-1.928,2.209-2.531
			c1.165-0.883,2.41-1.365,4.257-1.365c2.61,0,6.426,1.688,6.426,8.434v11.406h-3.454v-10.963c0-3.775-1.405-5.984-4.217-5.984
			c-2.048,0-3.574,1.486-4.217,3.172c-0.161,0.523-0.281,1.125-0.281,1.768v12.008h-3.454V205.75c0-3.092-1.366-5.301-4.056-5.301
			c-2.169,0-3.815,1.768-4.378,3.533c-0.201,0.482-0.281,1.125-0.281,1.729v11.686h-3.454V203.221z"/>
		<path fill="#FFFFFF" d="M140.01,212.738c0,1.688,0.08,3.334,0.281,4.658h-3.173l-0.281-2.449h-0.12
			c-1.084,1.525-3.173,2.891-5.943,2.891c-3.937,0-5.944-2.77-5.944-5.582c0-4.699,4.177-7.27,11.687-7.229v-0.402
			c0-1.566-0.441-4.498-4.418-4.457c-1.847,0-3.734,0.521-5.1,1.445l-0.804-2.369c1.606-1.004,3.976-1.688,6.426-1.688
			c5.944,0,7.39,4.057,7.39,7.912V212.738z M136.596,207.477c-3.855-0.08-8.232,0.604-8.232,4.379c0,2.328,1.525,3.373,3.293,3.373
			c2.57,0,4.217-1.607,4.779-3.254c0.121-0.4,0.16-0.803,0.16-1.123V207.477z"/>
		<path fill="#FFFFFF" d="M149.648,192.496c0,1.205-0.844,2.17-2.25,2.17c-1.285,0-2.128-0.965-2.128-2.17
			c0-1.203,0.884-2.207,2.208-2.207C148.764,190.289,149.648,191.252,149.648,192.496z M145.712,217.396v-19.438h3.534v19.438
			H145.712z"/>
		<path fill="#FFFFFF" d="M155.109,188.883h3.534v28.514h-3.534V188.883z"/>
	</g>
</g>
</svg>
