<?xml version="1.0" encoding="utf-8"?>
<!-- Generator: Adobe Illustrator 15.1.0, SVG Export Plug-In . SVG Version: 6.00 Build 0)  -->
<!DOCTYPE svg PUBLIC "-//W3C//DTD SVG 1.1//EN" "http://www.w3.org/Graphics/SVG/1.1/DTD/svg11.dtd" [
	<!ENTITY ns_extend "http://ns.adobe.com/Extensibility/1.0/">
	<!ENTITY ns_ai "http://ns.adobe.com/AdobeIllustrator/10.0/">
	<!ENTITY ns_graphs "http://ns.adobe.com/Graphs/1.0/">
	<!ENTITY ns_vars "http://ns.adobe.com/Variables/1.0/">
	<!ENTITY ns_imrep "http://ns.adobe.com/ImageReplacement/1.0/">
	<!ENTITY ns_sfw "http://ns.adobe.com/SaveForWeb/1.0/">
	<!ENTITY ns_custom "http://ns.adobe.com/GenericCustomNamespace/1.0/">
	<!ENTITY ns_adobe_xpath "http://ns.adobe.com/XPath/1.0/">
]>
<svg version="1.1" xmlns:x="&ns_extend;" xmlns:i="&ns_ai;" xmlns:graph="&ns_graphs;"
	 xmlns="http://www.w3.org/2000/svg" xmlns:xlink="http://www.w3.org/1999/xlink" x="0px" y="0px" width="231px" height="229px"
	 viewBox="0 0 231 229" enable-background="new 0 0 231 229" xml:space="preserve">
<metadata>
	<sfw  xmlns="&ns_sfw;">
		<slices></slices>
		<sliceSourceBounds  x="-8076" y="-8306" width="16383" height="16383" bottomLeftOrigin="true"></sliceSourceBounds>
	</sfw>
</metadata>
<g id="compass_icon">
</g>
<g id="Layer_3">
	<path fill="none" stroke="#FFFFFF" stroke-width="1.4704" stroke-miterlimit="10" d="M36.399,18.896"/>
	<g>
		<path fill="#FFFFFF" d="M60.029,192.502c1.566,1.004,3.815,1.767,6.225,1.767c3.574,0,5.663-1.888,5.663-4.618
			c0-2.49-1.446-3.977-5.101-5.342c-4.417-1.606-7.148-3.936-7.148-7.711c0-4.217,3.494-7.35,8.755-7.35
			c2.731,0,4.779,0.643,5.944,1.326l-0.964,2.851c-0.844-0.521-2.651-1.285-5.101-1.285c-3.695,0-5.101,2.209-5.101,4.057
			c0,2.53,1.646,3.775,5.382,5.221c4.578,1.768,6.867,3.977,6.867,7.952c0,4.177-3.052,7.831-9.438,7.831
			c-2.611,0-5.462-0.803-6.908-1.767L60.029,192.502z"/>
		<path fill="#FFFFFF" d="M84.085,171.859c0,1.204-0.843,2.168-2.249,2.168c-1.285,0-2.128-0.964-2.128-2.168
			c0-1.205,0.883-2.209,2.208-2.209C83.201,169.65,84.085,170.614,84.085,171.859z M80.149,196.759V177.32h3.534v19.438H80.149z"/>
		<path fill="#FFFFFF" d="M106.173,193.907c0,4.498-0.924,7.188-2.771,8.916c-1.928,1.727-4.659,2.329-7.109,2.329
			c-2.329,0-4.899-0.563-6.466-1.606l0.883-2.73c1.285,0.843,3.293,1.565,5.703,1.565c3.614,0,6.265-1.887,6.265-6.827v-2.128
			h-0.081c-1.044,1.807-3.172,3.253-6.185,3.253c-4.819,0-8.273-4.097-8.273-9.479c0-6.586,4.297-10.281,8.795-10.281
			c3.374,0,5.181,1.728,6.064,3.334h0.081l0.12-2.933h3.133c-0.121,1.366-0.161,2.973-0.161,5.302V193.907z M102.639,184.991
			c0-0.603-0.041-1.124-0.201-1.565c-0.643-2.089-2.33-3.775-4.94-3.775c-3.374,0-5.783,2.852-5.783,7.35
			c0,3.814,1.968,6.987,5.743,6.987c2.209,0,4.177-1.365,4.9-3.614c0.201-0.603,0.281-1.285,0.281-1.888V184.991z"/>
		<path fill="#FFFFFF" d="M111.754,182.582c0-2.049-0.04-3.654-0.161-5.262h3.133l0.201,3.213h0.08
			c0.964-1.807,3.213-3.614,6.426-3.614c2.69,0,6.867,1.606,6.867,8.273v11.566h-3.534v-11.205c0-3.133-1.165-5.743-4.498-5.743
			c-2.289,0-4.097,1.646-4.739,3.615c-0.161,0.441-0.241,1.044-0.241,1.646v11.687h-3.534V182.582z"/>
		<path fill="#FFFFFF" d="M146.492,171.859c0,1.204-0.844,2.168-2.249,2.168c-1.285,0-2.128-0.964-2.128-2.168
			c0-1.205,0.883-2.209,2.208-2.209C145.608,169.65,146.492,170.614,146.492,171.859z M142.557,196.759V177.32h3.533v19.438H142.557
			z"/>
		<path fill="#FFFFFF" d="M151.953,182.582c0-2.049-0.04-3.654-0.16-5.262h3.133l0.2,3.213h0.081
			c0.963-1.807,3.213-3.614,6.426-3.614c2.689,0,6.867,1.606,6.867,8.273v11.566h-3.535v-11.205c0-3.133-1.164-5.743-4.498-5.743
			c-2.289,0-4.096,1.646-4.738,3.615c-0.16,0.441-0.241,1.044-0.241,1.646v11.687h-3.534V182.582z"/>
	</g>
	<path fill="none" stroke="#FFFFFF" stroke-width="4.9197" stroke-miterlimit="10" d="M129.901,17.413"/>
	<path fill="none" stroke="#FFFFFF" stroke-width="3.726" stroke-miterlimit="10" d="M77.286,157.077
		c-11.301,0-20.494-9.193-20.494-20.493V37.072c0-11.3,9.193-20.493,20.494-20.493h73.722c11.3,0,20.493,9.193,20.493,20.493v99.512
		c0,11.3-9.193,20.493-20.493,20.493H77.286z"/>
	<path fill="none" stroke="#FFFFFF" stroke-width="2.7169" stroke-miterlimit="10" d="M162.187,131.218
		c0,5.835-5.006,10.566-11.179,10.566H77.286c-6.174,0-11.179-4.731-11.179-10.566V37.159c0-5.835,5.004-10.566,11.179-10.566
		h73.722c6.173,0,11.179,4.731,11.179,10.566V131.218z"/>
	<circle fill="none" stroke="#FFFFFF" stroke-width="1.863" stroke-miterlimit="10" cx="114.981" cy="148.933" r="2.795"/>
	<path fill="none" stroke="#FFFFFF" stroke-width="2.2056" stroke-miterlimit="10" d="M92.69,160.252"/>
	<path fill="#FFFFFF" d="M123.897,81.614c7.801-3.606,13.217-11.496,13.217-20.655c0-12.564-10.186-22.75-22.75-22.75
		s-22.75,10.186-22.75,22.75c0,9.159,5.415,17.049,13.216,20.655c-14.347,4.134-24.845,17.351-24.845,33.028
		c0,18.986,68.756,18.986,68.756,0C148.741,98.965,138.244,85.749,123.897,81.614z"/>
</g>
</svg>
