<?xml version="1.0" encoding="utf-8"?>
<!-- Generator: Adobe Illustrator 15.1.0, SVG Export Plug-In . SVG Version: 6.00 Build 0)  -->
<!DOCTYPE svg PUBLIC "-//W3C//DTD SVG 1.1//EN" "http://www.w3.org/Graphics/SVG/1.1/DTD/svg11.dtd">
<svg version="1.1" xmlns="http://www.w3.org/2000/svg" xmlns:xlink="http://www.w3.org/1999/xlink" x="0px" y="0px" width="231px"
	 height="229px" viewBox="0 0 231 229" enable-background="new 0 0 231 229" xml:space="preserve">
<g id="compass_icon">
</g>
<g id="Layer_3">
</g>
<g id="Layer_4_copy">
	<path fill="#F5EB1B" d="M115.397,58.546c8.014,0,15.7,3.184,21.366,8.851l21.369-21.367
		c-11.335-11.334-26.708-17.702-42.735-17.702V58.546z"/>
	<path fill="#0AA54B" d="M145.616,88.764c0-8.012-3.184-15.699-8.852-21.367l21.368-21.367
		c11.335,11.333,17.702,26.706,17.702,42.734H145.616z"/>
	<path fill="#14AAE2" d="M136.765,110.032c5.668-5.665,8.852-13.353,8.852-21.369h30.219c0,16.03-6.367,31.402-17.702,42.739
		L136.765,110.032z"/>
	<path fill="#3D57A6" d="M115.397,118.883c8.016,0,15.701-3.183,21.367-8.851l21.368,21.37
		c-11.335,11.332-26.706,17.701-42.735,17.701V118.883z"/>
	<path d="M94.028,110.032c5.668,5.668,13.354,8.851,21.369,8.851v30.221c-16.029,0-31.402-6.369-42.734-17.701L94.028,110.032z"/>
	<path fill="#FFFFFF" d="M85.179,88.663c0,8.017,3.184,15.704,8.85,21.369l-21.365,21.37C61.327,120.065,54.96,104.693,54.96,88.663
		H85.179z"/>
	<path fill="#8461A8" d="M94.028,67.397c-5.666,5.668-8.85,13.355-8.85,21.367H54.96c0-16.028,6.367-31.401,17.703-42.734
		L94.028,67.397z"/>
	<path fill="#ED3625" d="M115.397,58.546c-8.016,0-15.701,3.184-21.369,8.851L72.661,46.03
		c11.334-11.334,26.706-17.702,42.736-17.702V58.546z"/>
	<g>
		<path fill="none" stroke="#FFFFFF" stroke-width="2.3693" stroke-linecap="round" stroke-linejoin="round" d="M158.133,131.501
			c11.335-11.335,17.702-26.709,17.702-42.739"/>
		<path fill="none" stroke="#FFFFFF" stroke-width="2.3693" stroke-linecap="round" stroke-linejoin="round" d="M115.397,149.202
			c16.029,0,31.4-6.369,42.735-17.701"/>
		<path fill="none" stroke="#FFFFFF" stroke-width="2.3693" stroke-linecap="round" stroke-linejoin="round" d="M72.661,131.501
			c11.334,11.332,26.706,17.701,42.736,17.701"/>
		<path fill="none" stroke="#FFFFFF" stroke-width="2.3693" stroke-linecap="round" stroke-linejoin="round" d="M54.96,88.762
			c0,16.03,6.367,31.404,17.701,42.739"/>
		<path fill="none" stroke="#FFFFFF" stroke-width="2.3693" stroke-linecap="round" stroke-linejoin="round" d="M72.661,46.028
			C61.327,57.361,54.96,72.733,54.96,88.762"/>
		<path fill="none" stroke="#FFFFFF" stroke-width="2.3693" stroke-linecap="round" stroke-linejoin="round" d="M115.397,28.326
			c-16.03,0-31.402,6.367-42.736,17.703"/>
		<path fill="none" stroke="#FFFFFF" stroke-width="2.3693" stroke-linecap="round" stroke-linejoin="round" d="M158.133,46.028
			c-11.335-11.335-26.706-17.703-42.735-17.703"/>
		<path fill="none" stroke="#FFFFFF" stroke-width="2.3693" stroke-linecap="round" stroke-linejoin="round" d="M175.835,88.762
			c0-16.028-6.367-31.401-17.702-42.733"/>
		<path fill="none" stroke="#FFFFFF" stroke-width="2.3693" stroke-linecap="round" stroke-linejoin="round" d="M136.765,110.131
			c5.668-5.665,8.851-13.354,8.851-21.369"/>
		<path fill="none" stroke="#FFFFFF" stroke-width="2.3693" stroke-linecap="round" stroke-linejoin="round" d="M115.397,118.981
			c8.014,0,15.7-3.183,21.367-8.851"/>
		<path fill="none" stroke="#FFFFFF" stroke-width="2.3693" stroke-linecap="round" stroke-linejoin="round" d="M94.028,110.131
			c5.668,5.668,13.354,8.851,21.369,8.851"/>
		<path fill="none" stroke="#FFFFFF" stroke-width="2.3693" stroke-linecap="round" stroke-linejoin="round" d="M85.179,88.762
			c0,8.016,3.184,15.704,8.85,21.369"/>
		<path fill="none" stroke="#FFFFFF" stroke-width="2.3693" stroke-linecap="round" stroke-linejoin="round" d="M94.028,67.396
			c-5.666,5.667-8.85,13.355-8.85,21.366"/>
		<path fill="none" stroke="#FFFFFF" stroke-width="2.3693" stroke-linecap="round" stroke-linejoin="round" d="M115.397,58.544
			c-8.016,0-15.701,3.184-21.369,8.852"/>
		<path fill="none" stroke="#FFFFFF" stroke-width="2.3693" stroke-linecap="round" stroke-linejoin="round" d="M136.765,67.396
			c-5.667-5.667-13.354-8.852-21.367-8.852"/>
		<path fill="none" stroke="#FFFFFF" stroke-width="2.3693" stroke-linecap="round" stroke-linejoin="round" d="M145.615,88.762
			c0-8.011-3.183-15.699-8.851-21.366"/>
		
			<line fill="none" stroke="#FFFFFF" stroke-width="2.3693" stroke-linecap="round" stroke-linejoin="round" x1="115.397" y1="58.544" x2="115.397" y2="28.326"/>
		
			<line fill="none" stroke="#FFFFFF" stroke-width="2.3693" stroke-linecap="round" stroke-linejoin="round" x1="94.028" y1="67.396" x2="72.661" y2="46.028"/>
		
			<line fill="none" stroke="#FFFFFF" stroke-width="2.3693" stroke-linecap="round" stroke-linejoin="round" x1="85.179" y1="88.762" x2="54.96" y2="88.762"/>
		
			<line fill="none" stroke="#FFFFFF" stroke-width="2.3693" stroke-linecap="round" stroke-linejoin="round" x1="94.028" y1="110.131" x2="72.661" y2="131.501"/>
		
			<line fill="none" stroke="#FFFFFF" stroke-width="2.3693" stroke-linecap="round" stroke-linejoin="round" x1="115.397" y1="118.981" x2="115.397" y2="149.202"/>
		
			<line fill="none" stroke="#FFFFFF" stroke-width="2.3693" stroke-linecap="round" stroke-linejoin="round" x1="136.765" y1="110.131" x2="158.133" y2="131.501"/>
		
			<line fill="none" stroke="#FFFFFF" stroke-width="2.3693" stroke-linecap="round" stroke-linejoin="round" x1="145.615" y1="88.762" x2="175.835" y2="88.762"/>
		
			<line fill="none" stroke="#FFFFFF" stroke-width="2.3693" stroke-linecap="round" stroke-linejoin="round" x1="136.765" y1="67.396" x2="158.133" y2="46.028"/>
	</g>
	<g>
		<path fill="#FFFFFF" d="M72.391,157.023c1.526-0.361,3.976-0.603,6.386-0.603c3.494,0,5.743,0.603,7.39,1.968
			c1.406,1.045,2.289,2.65,2.289,4.779c0,2.65-1.767,4.939-4.579,5.944v0.12c2.57,0.603,5.583,2.73,5.583,6.747
			c0,2.329-0.923,4.137-2.329,5.422c-1.848,1.727-4.9,2.53-9.317,2.53c-2.41,0-4.257-0.161-5.422-0.321V157.023z M75.885,168.107
			h3.172c3.655,0,5.824-1.968,5.824-4.578c0-3.133-2.37-4.418-5.904-4.418c-1.606,0-2.53,0.121-3.092,0.241V168.107z M75.885,181.04
			c0.723,0.12,1.687,0.16,2.932,0.16c3.615,0,6.948-1.325,6.948-5.261c0-3.654-3.173-5.221-6.988-5.221h-2.892V181.04z"/>
		<path fill="#FFFFFF" d="M94.037,155.176h3.534v28.515h-3.534V155.176z"/>
		<path fill="#FFFFFF" d="M121.105,173.811c0,7.189-5.021,10.321-9.68,10.321c-5.221,0-9.317-3.855-9.317-10
			c0-6.466,4.297-10.281,9.639-10.281C117.33,163.851,121.105,167.907,121.105,173.811z M105.723,174.012
			c0,4.257,2.41,7.47,5.864,7.47c3.373,0,5.903-3.173,5.903-7.55c0-3.294-1.646-7.43-5.823-7.43
			C107.53,166.502,105.723,170.357,105.723,174.012z"/>
		<path fill="#FFFFFF" d="M139.418,183.008c-0.924,0.441-2.973,1.124-5.582,1.124c-5.864,0-9.68-3.976-9.68-9.919
			c0-5.984,4.097-10.362,10.442-10.362c2.088,0,3.936,0.522,4.899,1.044l-0.803,2.691c-0.844-0.441-2.169-0.924-4.097-0.924
			c-4.458,0-6.868,3.333-6.868,7.35c0,4.498,2.893,7.27,6.748,7.27c2.008,0,3.333-0.482,4.337-0.924L139.418,183.008z"/>
		<path fill="#FFFFFF" d="M147.048,173.168h0.08c0.482-0.683,1.125-1.525,1.687-2.209l5.744-6.707h4.217l-7.471,7.992l8.555,11.446
			h-4.338l-6.666-9.317l-1.808,2.008v7.31h-3.494v-28.515h3.494V173.168z"/>
		<path fill="#FFFFFF" d="M36.51,218.847c-1.245,0.643-3.855,1.285-7.148,1.285c-7.631,0-13.333-4.819-13.333-13.734
			c0-8.515,5.743-14.218,14.137-14.218c3.333,0,5.502,0.724,6.426,1.205l-0.883,2.852c-1.285-0.643-3.173-1.125-5.422-1.125
			c-6.346,0-10.563,4.057-10.563,11.165c0,6.667,3.815,10.884,10.361,10.884c2.169,0,4.338-0.441,5.743-1.124L36.51,218.847z"/>
		<path fill="#FFFFFF" d="M57.956,209.811c0,7.189-5.02,10.321-9.679,10.321c-5.221,0-9.317-3.855-9.317-10
			c0-6.466,4.297-10.281,9.639-10.281C54.18,199.851,57.956,203.907,57.956,209.811z M42.574,210.012c0,4.257,2.41,7.47,5.864,7.47
			c3.373,0,5.903-3.173,5.903-7.55c0-3.294-1.646-7.43-5.823-7.43C44.381,202.502,42.574,206.357,42.574,210.012z"/>
		<path fill="#FFFFFF" d="M62.412,191.176h3.534v28.515h-3.534V191.176z"/>
		<path fill="#FFFFFF" d="M89.48,209.811c0,7.189-5.021,10.321-9.679,10.321c-5.221,0-9.317-3.855-9.317-10
			c0-6.466,4.297-10.281,9.639-10.281C85.705,199.851,89.48,203.907,89.48,209.811z M74.099,210.012c0,4.257,2.41,7.47,5.863,7.47
			c3.374,0,5.904-3.173,5.904-7.55c0-3.294-1.646-7.43-5.823-7.43C75.906,202.502,74.099,206.357,74.099,210.012z"/>
		<path fill="#FFFFFF" d="M93.938,206.316c0-2.289-0.04-4.257-0.161-6.064h3.092l0.161,3.855h0.12
			c0.884-2.61,3.052-4.257,5.422-4.257c0.361,0,0.643,0.04,0.964,0.081v3.333c-0.361-0.08-0.723-0.08-1.205-0.08
			c-2.49,0-4.257,1.847-4.739,4.498c-0.081,0.481-0.121,1.084-0.121,1.646v10.361h-3.534V206.316z"/>
		<path fill="#FFFFFF" d="M115.262,215.434c1.566,1.004,3.815,1.767,6.225,1.767c3.574,0,5.663-1.888,5.663-4.618
			c0-2.49-1.446-3.977-5.101-5.342c-4.418-1.606-7.148-3.936-7.148-7.711c0-4.217,3.494-7.35,8.755-7.35
			c2.731,0,4.779,0.643,5.944,1.326l-0.964,2.851c-0.844-0.521-2.651-1.285-5.101-1.285c-3.695,0-5.101,2.209-5.101,4.057
			c0,2.53,1.646,3.775,5.382,5.221c4.578,1.768,6.867,3.977,6.867,7.952c0,4.177-3.053,7.831-9.438,7.831
			c-2.611,0-5.462-0.803-6.908-1.767L115.262,215.434z"/>
		<path fill="#FFFFFF" d="M137.591,210.614c0.08,4.779,3.093,6.747,6.667,6.747c2.529,0,4.096-0.442,5.381-1.004l0.643,2.529
			c-1.244,0.563-3.414,1.245-6.506,1.245c-5.984,0-9.559-3.976-9.559-9.839s3.454-10.442,9.117-10.442
			c6.385,0,8.031,5.542,8.031,9.117c0,0.723-0.039,1.245-0.12,1.646H137.591z M147.952,208.084c0.04-2.209-0.924-5.703-4.899-5.703
			c-3.615,0-5.141,3.253-5.422,5.703H147.952z"/>
		<path fill="#FFFFFF" d="M155.742,191.176h3.534v28.515h-3.534V191.176z"/>
		<path fill="#FFFFFF" d="M167.188,210.614c0.08,4.779,3.093,6.747,6.667,6.747c2.53,0,4.097-0.442,5.382-1.004l0.643,2.529
			c-1.245,0.563-3.414,1.245-6.506,1.245c-5.984,0-9.559-3.976-9.559-9.839s3.453-10.442,9.116-10.442
			c6.386,0,8.032,5.542,8.032,9.117c0,0.723-0.04,1.245-0.12,1.646H167.188z M177.549,208.084c0.041-2.209-0.924-5.703-4.899-5.703
			c-3.614,0-5.141,3.253-5.421,5.703H177.549z"/>
		<path fill="#FFFFFF" d="M199.195,219.008c-0.924,0.441-2.972,1.124-5.582,1.124c-5.863,0-9.679-3.976-9.679-9.919
			c0-5.984,4.097-10.362,10.441-10.362c2.089,0,3.937,0.522,4.899,1.044l-0.803,2.691c-0.844-0.441-2.169-0.924-4.097-0.924
			c-4.458,0-6.867,3.333-6.867,7.35c0,4.498,2.892,7.27,6.747,7.27c2.008,0,3.333-0.482,4.338-0.924L199.195,219.008z"/>
		<path fill="#FFFFFF" d="M208.109,195.594v4.658h5.061v2.691h-5.061v10.482c0,2.409,0.683,3.774,2.651,3.774
			c0.964,0,1.525-0.08,2.048-0.241l0.161,2.691c-0.684,0.241-1.768,0.481-3.133,0.481c-1.646,0-2.973-0.562-3.815-1.485
			c-0.964-1.085-1.365-2.812-1.365-5.101v-10.603h-3.013v-2.691h3.013v-3.614L208.109,195.594z"/>
	</g>
	<polygon fill="none" stroke="#FFFFFF" stroke-width="2" stroke-miterlimit="10" points="96.881,79.646 96.881,72.2 112.021,72.2 
		112.021,79.616 118.362,79.616 118.362,72.2 133.563,72.2 133.563,79.646 136.441,79.646 136.441,105.328 94.001,105.328 
		94.001,79.646 	"/>
</g>
</svg>
