<?xml version="1.0" encoding="utf-8"?>
<!-- Generator: Adobe Illustrator 15.1.0, SVG Export Plug-In . SVG Version: 6.00 Build 0)  -->
<!DOCTYPE svg PUBLIC "-//W3C//DTD SVG 1.1//EN" "http://www.w3.org/Graphics/SVG/1.1/DTD/svg11.dtd" [
	<!ENTITY ns_extend "http://ns.adobe.com/Extensibility/1.0/">
	<!ENTITY ns_ai "http://ns.adobe.com/AdobeIllustrator/10.0/">
	<!ENTITY ns_graphs "http://ns.adobe.com/Graphs/1.0/">
	<!ENTITY ns_vars "http://ns.adobe.com/Variables/1.0/">
	<!ENTITY ns_imrep "http://ns.adobe.com/ImageReplacement/1.0/">
	<!ENTITY ns_sfw "http://ns.adobe.com/SaveForWeb/1.0/">
	<!ENTITY ns_custom "http://ns.adobe.com/GenericCustomNamespace/1.0/">
	<!ENTITY ns_adobe_xpath "http://ns.adobe.com/XPath/1.0/">
]>
<svg version="1.1" xmlns:x="&ns_extend;" xmlns:i="&ns_ai;" xmlns:graph="&ns_graphs;"
	 xmlns="http://www.w3.org/2000/svg" xmlns:xlink="http://www.w3.org/1999/xlink" x="0px" y="0px" width="231px" height="229px"
	 viewBox="0 0 231 229" enable-background="new 0 0 231 229" xml:space="preserve">
<metadata>
	<sfw  xmlns="&ns_sfw;">
		<slices></slices>
		<sliceSourceBounds  height="16383" width="16383" y="-8306" x="-8076" bottomLeftOrigin="true"></sliceSourceBounds>
	</sfw>
</metadata>
<g id="compass_icon">
</g>
<g id="Layer_3">
</g>
<g id="Layer_4">
	<path fill="#F5EB1B" d="M114.715,54.437c9.689,0,18.98,3.849,25.832,10.701l25.833-25.832
		c-13.703-13.704-32.287-21.402-51.665-21.402V54.437z"/>
	<path fill="#00CC33" d="M151.25,90.97c0-9.687-3.85-18.98-10.702-25.833l25.834-25.832c13.703,13.702,21.401,32.286,21.401,51.665
		H151.25z"/>
	
		<path fill="#00FFFF" stroke="#FFFFFF" stroke-width="0.3074" stroke-linecap="square" stroke-linejoin="round" stroke-miterlimit="10" d="
		M140.548,116.681c6.853-6.849,10.702-16.142,10.702-25.833h36.533c0,19.381-7.698,37.963-21.401,51.668L140.548,116.681z"/>
	<path fill="#0066CC" d="M114.716,127.381c9.689,0,18.981-3.848,25.833-10.7l25.834,25.835c-13.705,13.701-32.289,21.4-51.667,21.4
		V127.381z"/>
	<path d="M88.882,116.681c6.852,6.853,16.144,10.7,25.833,10.7v36.535c-19.379,0-37.963-7.699-51.665-21.4L88.882,116.681z"/>
	<path fill="#FFFFFF" d="M78.183,90.847c0,9.692,3.849,18.984,10.699,25.833l-25.832,25.835
		c-13.704-13.705-21.401-32.288-21.401-51.668H78.183z"/>
	<path fill="#FF0099" stroke="#FFFFFF" stroke-width="0.3074" stroke-linejoin="round" stroke-miterlimit="10" d="M88.882,65.137
		c-6.851,6.852-10.699,16.146-10.699,25.833H41.649c0-19.378,7.697-37.963,21.401-51.665L88.882,65.137z"/>
	<path fill="#ED3625" d="M114.715,54.437c-9.689,0-18.981,3.849-25.834,10.701L63.049,39.305
		c13.701-13.704,32.286-21.402,51.666-21.402V54.437z"/>
	<g>
		<path fill="none" stroke="#FFFFFF" stroke-width="2.8644" stroke-linecap="round" stroke-linejoin="round" d="M166.382,142.633
			c13.703-13.701,21.4-32.285,21.4-51.667"/>
		<path fill="none" stroke="#FFFFFF" stroke-width="2.8644" stroke-linecap="round" stroke-linejoin="round" d="M114.716,164.037
			c19.378,0,37.962-7.701,51.666-21.404"/>
		<path fill="none" stroke="#FFFFFF" stroke-width="2.8644" stroke-linecap="round" stroke-linejoin="round" d="M63.05,142.633
			c13.702,13.703,32.286,21.404,51.666,21.404"/>
		<path fill="none" stroke="#FFFFFF" stroke-width="2.8644" stroke-linecap="round" stroke-linejoin="round" d="M41.648,90.966
			c0,19.381,7.698,37.965,21.401,51.667"/>
		<path fill="none" stroke="#FFFFFF" stroke-width="2.8644" stroke-linecap="round" stroke-linejoin="round" d="M63.05,39.303
			C49.346,53.004,41.648,71.589,41.648,90.966"/>
		<path fill="none" stroke="#FFFFFF" stroke-width="2.8644" stroke-linecap="round" stroke-linejoin="round" d="M114.716,17.901
			c-19.38,0-37.964,7.698-51.666,21.402"/>
		<path fill="none" stroke="#FFFFFF" stroke-width="2.8644" stroke-linecap="round" stroke-linejoin="round" d="M166.382,39.303
			c-13.704-13.704-32.288-21.402-51.666-21.402"/>
		<path fill="none" stroke="#FFFFFF" stroke-width="2.8644" stroke-linecap="round" stroke-linejoin="round" d="M187.782,90.966
			c0-19.377-7.697-37.962-21.4-51.663"/>
		<path fill="none" stroke="#FFFFFF" stroke-width="2.8644" stroke-linecap="round" stroke-linejoin="round" d="M140.548,116.801
			c6.853-6.849,10.7-16.143,10.7-25.834"/>
		<path fill="none" stroke="#FFFFFF" stroke-width="2.8644" stroke-linecap="round" stroke-linejoin="round" d="M114.716,127.5
			c9.688,0,18.98-3.846,25.832-10.699"/>
		<path fill="none" stroke="#FFFFFF" stroke-width="2.8644" stroke-linecap="round" stroke-linejoin="round" d="M88.882,116.801
			c6.852,6.854,16.144,10.699,25.833,10.699"/>
		<path fill="none" stroke="#FFFFFF" stroke-width="2.8644" stroke-linecap="round" stroke-linejoin="round" d="M78.183,90.966
			c0,9.691,3.849,18.986,10.7,25.834"/>
		<path fill="none" stroke="#FFFFFF" stroke-width="2.8644" stroke-linecap="round" stroke-linejoin="round" d="M88.882,65.135
			c-6.851,6.852-10.7,16.145-10.7,25.831"/>
		<path fill="none" stroke="#FFFFFF" stroke-width="2.8644" stroke-linecap="round" stroke-linejoin="round" d="M114.716,54.434
			c-9.689,0-18.982,3.85-25.833,10.701"/>
		<path fill="none" stroke="#FFFFFF" stroke-width="2.8644" stroke-linecap="round" stroke-linejoin="round" d="M140.548,65.135
			c-6.852-6.852-16.144-10.701-25.832-10.701"/>
		<path fill="none" stroke="#FFFFFF" stroke-width="2.8644" stroke-linecap="round" stroke-linejoin="round" d="M151.248,90.966
			c0-9.686-3.848-18.979-10.7-25.831"/>
		
			<line fill="none" stroke="#FFFFFF" stroke-width="2.8644" stroke-linecap="round" stroke-linejoin="round" x1="114.716" y1="54.434" x2="114.716" y2="17.901"/>
		
			<line fill="none" stroke="#FFFFFF" stroke-width="2.8644" stroke-linecap="round" stroke-linejoin="round" x1="88.882" y1="65.135" x2="63.05" y2="39.303"/>
		
			<line fill="none" stroke="#FFFFFF" stroke-width="2.8644" stroke-linecap="round" stroke-linejoin="round" x1="78.183" y1="90.966" x2="41.648" y2="90.966"/>
		
			<line fill="none" stroke="#FFFFFF" stroke-width="2.8644" stroke-linecap="round" stroke-linejoin="round" x1="88.882" y1="116.801" x2="63.05" y2="142.633"/>
		
			<line fill="none" stroke="#FFFFFF" stroke-width="2.8644" stroke-linecap="round" stroke-linejoin="round" x1="114.716" y1="127.5" x2="114.716" y2="164.037"/>
		
			<line fill="none" stroke="#FFFFFF" stroke-width="2.8644" stroke-linecap="round" stroke-linejoin="round" x1="140.548" y1="116.801" x2="166.382" y2="142.633"/>
		
			<line fill="none" stroke="#FFFFFF" stroke-width="2.8644" stroke-linecap="round" stroke-linejoin="round" x1="151.248" y1="90.966" x2="187.782" y2="90.966"/>
		
			<line fill="none" stroke="#FFFFFF" stroke-width="2.8644" stroke-linecap="round" stroke-linejoin="round" x1="140.548" y1="65.135" x2="166.382" y2="39.303"/>
	</g>
	<g>
		<path fill="#FFFFFF" d="M76.594,193.475c1.526-0.361,3.976-0.602,6.386-0.602c3.494,0,5.743,0.602,7.39,1.967
			c1.406,1.045,2.289,2.652,2.289,4.779c0,2.65-1.767,4.941-4.579,5.945v0.119c2.57,0.604,5.583,2.732,5.583,6.748
			c0,2.328-0.923,4.137-2.329,5.422c-1.848,1.727-4.9,2.529-9.317,2.529c-2.41,0-4.257-0.16-5.422-0.32V193.475z M80.088,204.561
			h3.172c3.655,0,5.824-1.969,5.824-4.58c0-3.131-2.37-4.416-5.904-4.416c-1.606,0-2.53,0.119-3.092,0.24V204.561z M80.088,217.492
			c0.723,0.119,1.687,0.16,2.932,0.16c3.615,0,6.948-1.326,6.948-5.262c0-3.654-3.173-5.221-6.988-5.221h-2.892V217.492z"/>
		<path fill="#FFFFFF" d="M111.895,215.484c0,1.686,0.081,3.332,0.281,4.658h-3.173l-0.281-2.451h-0.121
			c-1.084,1.527-3.173,2.893-5.944,2.893c-3.936,0-5.944-2.771-5.944-5.582c0-4.699,4.177-7.27,11.687-7.229v-0.402
			c0-1.566-0.442-4.498-4.418-4.459c-1.848,0-3.735,0.523-5.101,1.447l-0.803-2.369c1.606-1.006,3.976-1.688,6.426-1.688
			c5.944,0,7.39,4.057,7.39,7.912V215.484z M108.481,210.223c-3.855-0.08-8.233,0.602-8.233,4.377c0,2.33,1.526,3.373,3.293,3.373
			c2.57,0,4.217-1.605,4.779-3.252c0.121-0.402,0.161-0.803,0.161-1.125V210.223z"/>
		<path fill="#FFFFFF" d="M117.114,216.568c1.085,0.643,2.933,1.365,4.698,1.365c2.531,0,3.736-1.246,3.736-2.893
			c0-1.686-1.004-2.57-3.574-3.533c-3.535-1.285-5.182-3.174-5.182-5.502c0-3.133,2.57-5.703,6.707-5.703
			c1.968,0,3.695,0.521,4.738,1.205l-0.843,2.57c-0.763-0.482-2.169-1.166-3.976-1.166c-2.088,0-3.213,1.205-3.213,2.652
			c0,1.605,1.125,2.328,3.654,3.332c3.334,1.246,5.101,2.932,5.101,5.824c0,3.453-2.69,5.863-7.229,5.863
			c-2.128,0-4.096-0.563-5.461-1.365L117.114,216.568z"/>
		<path fill="#FFFFFF" d="M137.436,195.242c0,1.205-0.844,2.168-2.249,2.168c-1.285,0-2.128-0.963-2.128-2.168
			s0.883-2.209,2.208-2.209C136.552,193.033,137.436,193.998,137.436,195.242z M133.5,220.143v-19.438h3.533v19.438H133.5z"/>
		<path fill="#FFFFFF" d="M156.752,219.459c-0.923,0.441-2.971,1.125-5.582,1.125c-5.863,0-9.678-3.977-9.678-9.92
			c0-5.984,4.096-10.361,10.441-10.361c2.088,0,3.936,0.521,4.899,1.045l-0.804,2.689c-0.843-0.441-2.168-0.924-4.096-0.924
			c-4.458,0-6.867,3.334-6.867,7.35c0,4.498,2.891,7.27,6.746,7.27c2.008,0,3.334-0.482,4.338-0.924L156.752,219.459z"/>
	</g>
</g>
</svg>
