<?xml version="1.0" encoding="utf-8"?>
<!-- Generator: Adobe Illustrator 15.1.0, SVG Export Plug-In . SVG Version: 6.00 Build 0)  -->
<!DOCTYPE svg PUBLIC "-//W3C//DTD SVG 1.1//EN" "http://www.w3.org/Graphics/SVG/1.1/DTD/svg11.dtd" [
	<!ENTITY ns_extend "http://ns.adobe.com/Extensibility/1.0/">
	<!ENTITY ns_ai "http://ns.adobe.com/AdobeIllustrator/10.0/">
	<!ENTITY ns_graphs "http://ns.adobe.com/Graphs/1.0/">
	<!ENTITY ns_vars "http://ns.adobe.com/Variables/1.0/">
	<!ENTITY ns_imrep "http://ns.adobe.com/ImageReplacement/1.0/">
	<!ENTITY ns_sfw "http://ns.adobe.com/SaveForWeb/1.0/">
	<!ENTITY ns_custom "http://ns.adobe.com/GenericCustomNamespace/1.0/">
	<!ENTITY ns_adobe_xpath "http://ns.adobe.com/XPath/1.0/">
]>
<svg version="1.1" xmlns:x="&ns_extend;" xmlns:i="&ns_ai;" xmlns:graph="&ns_graphs;"
	 xmlns="http://www.w3.org/2000/svg" xmlns:xlink="http://www.w3.org/1999/xlink" x="0px" y="0px" width="231px" height="229px"
	 viewBox="0 0 231 229" enable-background="new 0 0 231 229" xml:space="preserve">
<metadata>
	<sfw  xmlns="&ns_sfw;">
		<slices></slices>
		<sliceSourceBounds  height="16383" width="16383" y="-8306" x="-8076" bottomLeftOrigin="true"></sliceSourceBounds>
	</sfw>
</metadata>
<g id="compass_icon">
</g>
<g id="Layer_3">
</g>
<g id="Layer_5">
	<path fill="#ED3625" d="M97.673,74.701c-5.777-5.776-11.554-11.553-17.331-17.329c9.193-9.192,21.66-14.356,34.659-14.356
		c0,8.169,0,16.337,0,24.507C108.5,67.523,102.266,70.105,97.673,74.701z"/>
	<path fill="#FF0099" stroke="#FFFFFF" stroke-width="0.6553" stroke-linejoin="round" stroke-miterlimit="10" d="M90.495,92.029
		c-8.169,0-16.339,0-24.506,0c0-12.999,5.164-25.465,14.354-34.657c5.776,5.775,11.554,11.552,17.331,17.329
		C93.076,79.296,90.495,85.531,90.495,92.029z"/>
	<path fill="#FFFFFF" d="M90.495,92.029c-8.169,0-16.339,0-24.506,0c0,12.999,5.164,25.466,14.354,34.658
		c5.776-5.777,11.554-11.553,17.331-17.329C93.076,104.762,90.495,98.53,90.495,92.029z"/>
	<path d="M80.342,126.688c5.776-5.777,11.554-11.553,17.331-17.329c4.593,4.595,10.827,7.178,17.328,7.178c0,8.17,0,16.339,0,24.506
		C102.002,141.042,89.535,135.879,80.342,126.688z"/>
	<path fill="#0066CC" d="M115.001,116.536c6.498,0,12.732-2.583,17.328-7.178c5.778,5.776,11.554,11.552,17.327,17.329
		c-9.188,9.191-21.657,14.354-34.655,14.354C115.001,132.875,115.001,124.706,115.001,116.536z"/>
	
		<path fill="#00FFFF" stroke="#FFFFFF" stroke-width="0.6553" stroke-linecap="square" stroke-linejoin="round" stroke-miterlimit="10" d="
		M132.329,109.358c4.596-4.596,7.18-10.829,7.18-17.329c8.166,0,16.336,0,24.504,0c0,12.999-5.164,25.466-14.356,34.658
		C143.883,120.91,138.107,115.135,132.329,109.358z"/>
	<path fill="#00CC33" d="M149.656,57.373c-5.773,5.775-11.549,11.552-17.327,17.329c4.596,4.595,7.18,10.83,7.18,17.328
		c8.166,0,16.336,0,24.504,0C164.013,79.03,158.849,66.564,149.656,57.373z"/>
	<path fill="#F5EB1B" d="M115.001,67.523c0-8.169,0-16.338,0-24.507c12.998,0,25.467,5.164,34.655,14.356
		c-5.773,5.775-11.549,11.552-17.327,17.329C127.733,70.105,121.499,67.523,115.001,67.523z"/>
	<path fill="#FF0099" stroke="#FFFFFF" stroke-width="0.6553" stroke-linejoin="round" stroke-miterlimit="10" d="M80.342,57.373
		c-5.776-5.777-11.551-11.553-17.329-17.329C49.226,53.832,41.481,72.532,41.481,92.029c8.169,0,16.338,0,24.507,0
		C65.988,79.03,71.152,66.564,80.342,57.373z"/>
	<path fill="#FFFFFF" d="M63.013,144.016c-13.787-13.789-21.532-32.488-21.532-51.986c8.169,0,16.338,0,24.507,0
		c0,12.999,5.164,25.466,14.354,34.658C74.566,132.463,68.792,138.239,63.013,144.016z"/>
	<path d="M115.001,140.387c0,8.169,0,16.339,0,24.506c-19.5,0-38.199-7.743-51.988-21.532c5.778-5.776,11.553-11.553,17.329-17.328
		C89.535,135.224,102.002,140.387,115.001,140.387z"/>
	<path fill="#0066CC" d="M115.001,141.042c0,8.169,0,16.339,0,24.507c19.499,0,38.199-7.744,51.986-21.533
		c-5.777-5.776-11.553-11.553-17.331-17.328C140.468,135.879,127.999,141.042,115.001,141.042z"/>
	
		<path fill="#00FFFF" stroke="#FFFFFF" stroke-width="0.6553" stroke-linecap="square" stroke-linejoin="round" stroke-miterlimit="10" d="
		M149.656,126.688c9.192-9.192,14.356-21.659,14.356-34.658c8.17,0,16.339,0,24.508,0c0,19.499-7.748,38.197-21.533,51.986
		C161.21,138.239,155.435,132.463,149.656,126.688z"/>
	<path fill="#00CC33" d="M188.521,92.029c-8.169,0-16.338,0-24.508,0c0-12.999-5.164-25.465-14.356-34.657
		c5.778-5.777,11.554-11.553,17.331-17.329C180.772,53.832,188.521,72.532,188.521,92.029z"/>
	<path fill="#F5EB1B" d="M115.001,43.017c0-8.169,0-16.338,0-24.507c19.499,0,38.199,7.746,51.986,21.534
		c-5.777,5.775-11.553,11.552-17.331,17.329C140.468,48.181,127.999,43.017,115.001,43.017z"/>
	<path fill="#ED3625" d="M115.001,18.51c0,8.169,0,16.338,0,24.507c-12.999,0-25.466,5.164-34.659,14.356
		c-5.776-5.777-11.551-11.553-17.329-17.329C76.802,26.256,95.5,18.51,115.001,18.51z"/>
	<g>
		<path fill="none" stroke="#FFFFFF" stroke-width="2.6213" stroke-linecap="round" stroke-linejoin="round" d="M97.672,74.703
			c-5.776-5.777-11.554-11.554-17.331-17.329c9.193-9.192,21.66-14.356,34.659-14.356c0,8.169,0,16.337,0,24.506
			C108.499,67.524,102.266,70.105,97.672,74.703z"/>
		<path fill="none" stroke="#FFFFFF" stroke-width="2.6213" stroke-linecap="round" stroke-linejoin="round" d="M90.494,92.03
			c-8.169,0-16.338,0-24.506,0c0-12.999,5.163-25.465,14.354-34.657c5.777,5.775,11.554,11.552,17.331,17.329
			C93.075,79.298,90.494,85.532,90.494,92.03z"/>
		<path fill="none" stroke="#FFFFFF" stroke-width="2.6213" stroke-linecap="round" stroke-linejoin="round" d="M90.494,92.03
			c-8.169,0-16.338,0-24.506,0c0,13,5.163,25.466,14.354,34.659c5.777-5.778,11.554-11.553,17.331-17.33
			C93.075,104.763,90.494,98.531,90.494,92.03z"/>
		<path fill="none" stroke="#FFFFFF" stroke-width="2.6213" stroke-linecap="round" stroke-linejoin="round" d="M80.341,126.689
			c5.777-5.778,11.554-11.553,17.331-17.33c4.594,4.595,10.827,7.177,17.329,7.177c0,8.17,0,16.339,0,24.507
			C102.001,141.044,89.535,135.88,80.341,126.689z"/>
		<path fill="none" stroke="#FFFFFF" stroke-width="2.6213" stroke-linecap="round" stroke-linejoin="round" d="M115,116.537
			c6.498,0,12.731-2.583,17.329-7.177c5.777,5.777,11.553,11.551,17.326,17.33c-9.188,9.19-21.656,14.354-34.655,14.354
			C115,132.876,115,124.707,115,116.537z"/>
		<path fill="none" stroke="#FFFFFF" stroke-width="2.6213" stroke-linecap="round" stroke-linejoin="round" d="M132.329,109.36
			c4.596-4.597,7.18-10.829,7.18-17.33c8.165,0,16.335,0,24.503,0c0,13-5.163,25.466-14.356,34.659
			C143.882,120.911,138.106,115.137,132.329,109.36z"/>
		<path fill="none" stroke="#FFFFFF" stroke-width="2.6213" stroke-linecap="round" stroke-linejoin="round" d="M149.655,57.374
			c-5.773,5.775-11.549,11.552-17.326,17.329c4.596,4.595,7.18,10.829,7.18,17.328c8.165,0,16.335,0,24.503,0
			C164.012,79.031,158.849,66.565,149.655,57.374z"/>
		<path fill="none" stroke="#FFFFFF" stroke-width="2.6213" stroke-linecap="round" stroke-linejoin="round" d="M115,67.524
			c0-8.169,0-16.337,0-24.506c12.999,0,25.467,5.164,34.655,14.356c-5.773,5.775-11.549,11.552-17.326,17.329
			C127.731,70.105,121.498,67.524,115,67.524z"/>
		<path fill="none" stroke="#FFFFFF" stroke-width="2.6213" stroke-linecap="round" stroke-linejoin="round" d="M80.341,57.374
			c-5.775-5.777-11.55-11.553-17.329-17.329C49.226,53.833,41.48,72.533,41.48,92.03c8.168,0,16.338,0,24.507,0
			C65.988,79.031,71.151,66.565,80.341,57.374z"/>
		<path fill="none" stroke="#FFFFFF" stroke-width="2.6213" stroke-linecap="round" stroke-linejoin="round" d="M63.013,144.017
			C49.226,130.229,41.48,111.529,41.48,92.03c8.168,0,16.338,0,24.507,0c0,13,5.163,25.466,14.354,34.659
			C74.566,132.464,68.791,138.24,63.013,144.017z"/>
		<path fill="none" stroke="#FFFFFF" stroke-width="2.6213" stroke-linecap="round" stroke-linejoin="round" d="M115,141.044
			c0,8.168,0,16.338,0,24.506c-19.501,0-38.2-7.744-51.988-21.533c5.778-5.776,11.553-11.553,17.329-17.327
			C89.535,135.88,102.001,141.044,115,141.044z"/>
		<path fill="none" stroke="#FFFFFF" stroke-width="2.6213" stroke-linecap="round" stroke-linejoin="round" d="M115,141.044
			c0,8.168,0,16.338,0,24.506c19.499,0,38.199-7.744,51.987-21.533c-5.778-5.776-11.553-11.553-17.332-17.327
			C140.468,135.88,127.999,141.044,115,141.044z"/>
		<path fill="none" stroke="#FFFFFF" stroke-width="2.6213" stroke-linecap="round" stroke-linejoin="round" d="M149.655,126.689
			c9.193-9.193,14.356-21.66,14.356-34.659c8.17,0,16.339,0,24.508,0c0,19.499-7.747,38.198-21.532,51.986
			C161.209,138.24,155.435,132.464,149.655,126.689z"/>
		<path fill="none" stroke="#FFFFFF" stroke-width="2.6213" stroke-miterlimit="10" d="M188.52,92.03c-8.169,0-16.338,0-24.508,0
			c0-12.999-5.163-25.465-14.356-34.657c5.779-5.777,11.554-11.553,17.332-17.329C180.772,53.833,188.52,72.533,188.52,92.03z"/>
		<path fill="none" stroke="#FFFFFF" stroke-width="2.6213" stroke-linecap="round" stroke-linejoin="round" d="M115,43.018
			c0-8.169,0-16.338,0-24.507c19.499,0,38.199,7.746,51.987,21.534c-5.778,5.775-11.553,11.552-17.332,17.329
			C140.468,48.182,127.999,43.018,115,43.018z"/>
		<path fill="none" stroke="#FFFFFF" stroke-width="2.6213" stroke-linecap="round" stroke-linejoin="round" d="M115,18.511
			c0,8.169,0,16.338,0,24.507c-13,0-25.466,5.164-34.659,14.356c-5.775-5.777-11.55-11.553-17.329-17.329
			C76.801,26.257,95.5,18.511,115,18.511z"/>
	</g>
	<g>
	</g>
	<g>
		<path fill="#FFFFFF" d="M38.955,211.285l-2.811,8.514h-3.615l9.237-27.068h4.177l9.237,27.068h-3.735l-2.892-8.514H38.955z
			 M47.871,208.554l-2.691-7.791c-0.603-1.768-1.004-3.374-1.406-4.94h-0.08c-0.402,1.566-0.803,3.254-1.366,4.9l-2.65,7.831H47.871
			z"/>
		<path fill="#FFFFFF" d="M75.3,191.284v23.494c0,1.728,0.081,3.695,0.161,5.021h-3.133l-0.161-3.373h-0.121
			c-1.044,2.168-3.374,3.814-6.546,3.814c-4.699,0-8.354-3.976-8.354-9.879c-0.041-6.467,4.016-10.402,8.715-10.402
			c3.012,0,4.98,1.406,5.863,2.932h0.081v-11.606H75.3z M71.807,208.272c0-0.441-0.041-1.044-0.161-1.485
			c-0.522-2.209-2.45-4.057-5.101-4.057c-3.655,0-5.823,3.213-5.823,7.47c0,3.936,1.968,7.188,5.743,7.188
			c2.369,0,4.538-1.605,5.181-4.217c0.12-0.481,0.161-0.964,0.161-1.525V208.272z"/>
		<path fill="#FFFFFF" d="M82.569,200.361l3.815,10.883c0.643,1.808,1.165,3.414,1.566,5.021h0.121
			c0.442-1.606,1.004-3.213,1.646-5.021l3.775-10.883h3.695l-7.631,19.438h-3.374l-7.39-19.438H82.569z"/>
		<path fill="#FFFFFF" d="M114.014,215.141c0,1.687,0.081,3.333,0.281,4.658h-3.173l-0.281-2.45h-0.12
			c-1.084,1.526-3.173,2.892-5.944,2.892c-3.936,0-5.944-2.771-5.944-5.582c0-4.699,4.177-7.27,11.687-7.229v-0.402
			c0-1.566-0.441-4.498-4.417-4.458c-1.847,0-3.735,0.522-5.101,1.446l-0.803-2.369c1.606-1.005,3.976-1.688,6.426-1.688
			c5.944,0,7.39,4.057,7.39,7.912V215.141z M110.601,209.879c-3.855-0.08-8.233,0.603-8.233,4.378c0,2.329,1.526,3.373,3.293,3.373
			c2.57,0,4.217-1.606,4.779-3.253c0.121-0.401,0.161-0.803,0.161-1.124V209.879z"/>
		<path fill="#FFFFFF" d="M119.716,205.622c0-2.048-0.04-3.655-0.161-5.261h3.133l0.201,3.213h0.08
			c0.965-1.808,3.213-3.615,6.426-3.615c2.691,0,6.867,1.606,6.867,8.273v11.566h-3.533v-11.205c0-3.133-1.165-5.743-4.498-5.743
			c-2.289,0-4.097,1.646-4.739,3.614c-0.161,0.442-0.241,1.045-0.241,1.647v11.687h-3.534V205.622z"/>
		<path fill="#FFFFFF" d="M155.859,219.116c-0.923,0.441-2.971,1.124-5.582,1.124c-5.863,0-9.678-3.976-9.678-9.92
			c0-5.983,4.096-10.361,10.441-10.361c2.088,0,3.936,0.522,4.899,1.045l-0.804,2.69c-0.843-0.442-2.168-0.924-4.096-0.924
			c-4.458,0-6.867,3.333-6.867,7.35c0,4.498,2.891,7.269,6.746,7.269c2.008,0,3.334-0.481,4.338-0.923L155.859,219.116z"/>
		<path fill="#FFFFFF" d="M161.723,210.723c0.081,4.779,3.094,6.747,6.668,6.747c2.529,0,4.096-0.442,5.381-1.004l0.643,2.53
			c-1.244,0.562-3.414,1.244-6.506,1.244c-5.984,0-9.559-3.976-9.559-9.839c0-5.864,3.454-10.442,9.117-10.442
			c6.385,0,8.031,5.543,8.031,9.117c0,0.723-0.039,1.244-0.119,1.646H161.723z M172.085,208.192c0.04-2.209-0.924-5.703-4.899-5.703
			c-3.615,0-5.141,3.253-5.422,5.703H172.085z"/>
		<path fill="#FFFFFF" d="M196.623,191.284v23.494c0,1.728,0.08,3.695,0.16,5.021h-3.133l-0.16-3.373h-0.121
			c-1.044,2.168-3.373,3.814-6.547,3.814c-4.698,0-8.354-3.976-8.354-9.879c-0.039-6.467,4.018-10.402,8.716-10.402
			c3.013,0,4.979,1.406,5.863,2.932h0.081v-11.606H196.623z M193.129,208.272c0-0.441-0.041-1.044-0.161-1.485
			c-0.522-2.209-2.45-4.057-5.101-4.057c-3.654,0-5.823,3.213-5.823,7.47c0,3.936,1.968,7.188,5.743,7.188
			c2.369,0,4.538-1.605,5.181-4.217c0.12-0.481,0.161-0.964,0.161-1.525V208.272z"/>
	</g>
</g>
</svg>
