<?xml version="1.0" encoding="utf-8"?>
<!-- Generator: Adobe Illustrator 15.1.0, SVG Export Plug-In . SVG Version: 6.00 Build 0)  -->
<!DOCTYPE svg PUBLIC "-//W3C//DTD SVG 1.1//EN" "http://www.w3.org/Graphics/SVG/1.1/DTD/svg11.dtd" [
	<!ENTITY ns_extend "http://ns.adobe.com/Extensibility/1.0/">
	<!ENTITY ns_ai "http://ns.adobe.com/AdobeIllustrator/10.0/">
	<!ENTITY ns_graphs "http://ns.adobe.com/Graphs/1.0/">
	<!ENTITY ns_vars "http://ns.adobe.com/Variables/1.0/">
	<!ENTITY ns_imrep "http://ns.adobe.com/ImageReplacement/1.0/">
	<!ENTITY ns_sfw "http://ns.adobe.com/SaveForWeb/1.0/">
	<!ENTITY ns_custom "http://ns.adobe.com/GenericCustomNamespace/1.0/">
	<!ENTITY ns_adobe_xpath "http://ns.adobe.com/XPath/1.0/">
]>
<svg version="1.1" xmlns:x="&ns_extend;" xmlns:i="&ns_ai;" xmlns:graph="&ns_graphs;"
	 xmlns="http://www.w3.org/2000/svg" xmlns:xlink="http://www.w3.org/1999/xlink" x="0px" y="0px" width="231px" height="229px"
	 viewBox="0 0 231 229" enable-background="new 0 0 231 229" xml:space="preserve">
<metadata>
	<sfw  xmlns="&ns_sfw;">
		<slices></slices>
		<sliceSourceBounds  x="-8076" y="-8306" width="16383" height="16383" bottomLeftOrigin="true"></sliceSourceBounds>
	</sfw>
</metadata>
<g id="Layer_4" display="none">
	
		<circle display="inline" fill="none" stroke="#FFFFFF" stroke-width="7.3285" stroke-linecap="round" stroke-linejoin="round" cx="193.373" cy="110.179" r="17.748"/>
	
		<circle display="inline" fill="none" stroke="#FFFFFF" stroke-width="7.3285" stroke-linecap="round" stroke-linejoin="round" cx="141.407" cy="110.179" r="17.747"/>
	
		<circle display="inline" fill="none" stroke="#FFFFFF" stroke-width="7.3285" stroke-linecap="round" stroke-linejoin="round" cx="89.587" cy="110.179" r="17.75"/>
	<path display="inline" fill="none" stroke="#FFFFFF" stroke-width="7.3285" stroke-linecap="round" stroke-linejoin="round" d="
		M55.374,110.179c0,9.801-7.941,17.747-17.744,17.747c-9.803,0-17.75-7.946-17.75-17.747s7.947-17.748,17.75-17.748
		C47.433,92.431,55.374,100.378,55.374,110.179z"/>
	
		<circle display="inline" fill="none" stroke="#FFFFFF" stroke-width="7.3285" stroke-linecap="round" stroke-linejoin="round" cx="193.373" cy="58.948" r="17.748"/>
	<path display="inline" fill="none" stroke="#FFFFFF" stroke-width="7.3285" stroke-linecap="round" stroke-linejoin="round" d="
		M159.154,58.948c0,9.801-7.943,17.746-17.744,17.746c-9.802,0-17.75-7.945-17.75-17.746c0-9.803,7.948-17.749,17.75-17.749
		C151.211,41.199,159.154,49.146,159.154,58.948z"/>
	
		<circle display="inline" fill="none" stroke="#FFFFFF" stroke-width="7.3285" stroke-linecap="round" stroke-linejoin="round" cx="89.587" cy="58.948" r="17.75"/>
	<path display="inline" fill="none" stroke="#FFFFFF" stroke-width="7.3285" stroke-linecap="round" stroke-linejoin="round" d="
		M55.374,58.948c0,9.801-7.941,17.746-17.744,17.746c-9.803,0-17.75-7.945-17.75-17.746c0-9.803,7.947-17.749,17.75-17.749
		C47.433,41.199,55.374,49.146,55.374,58.948z"/>
	<g display="inline">
		<path fill="#FFFFFF" d="M80.003,193.301l-2.811,8.515h-3.615l9.237-27.068h4.177l9.237,27.068h-3.735l-2.892-8.515H80.003z
			 M88.919,190.57l-2.691-7.791c-0.603-1.768-1.004-3.374-1.406-4.939h-0.08c-0.402,1.565-0.803,3.252-1.366,4.898l-2.65,7.832
			H88.919z"/>
		<path fill="#FFFFFF" d="M99.963,188.723c0-2.49-0.08-4.498-0.161-6.346h3.133l0.201,3.334h0.08
			c1.406-2.369,3.735-3.735,6.908-3.735c4.739,0,8.272,3.976,8.272,9.84c0,6.987-4.297,10.441-8.875,10.441
			c-2.57,0-4.819-1.124-5.984-3.052h-0.08v10.563h-3.494V188.723z M103.457,193.904c0,0.521,0.04,1.004,0.161,1.445
			c0.643,2.449,2.771,4.137,5.301,4.137c3.735,0,5.904-3.053,5.904-7.51c0-3.855-2.048-7.189-5.783-7.189
			c-2.41,0-4.699,1.687-5.341,4.338c-0.121,0.441-0.241,0.963-0.241,1.405V193.904z"/>
		<path fill="#FFFFFF" d="M122.813,188.723c0-2.49-0.08-4.498-0.161-6.346h3.133l0.201,3.334h0.08
			c1.406-2.369,3.735-3.735,6.908-3.735c4.738,0,8.273,3.976,8.273,9.84c0,6.987-4.298,10.441-8.876,10.441
			c-2.57,0-4.819-1.124-5.984-3.052h-0.08v10.563h-3.494V188.723z M126.308,193.904c0,0.521,0.04,1.004,0.161,1.445
			c0.643,2.449,2.771,4.137,5.301,4.137c3.734,0,5.904-3.053,5.904-7.51c0-3.855-2.049-7.189-5.783-7.189
			c-2.41,0-4.699,1.687-5.342,4.338c-0.121,0.441-0.241,0.963-0.241,1.405V193.904z"/>
		<path fill="#FFFFFF" d="M145.182,198.241c1.085,0.643,2.933,1.365,4.699,1.365c2.53,0,3.735-1.245,3.735-2.892
			c0-1.687-1.004-2.57-3.574-3.534c-3.534-1.285-5.181-3.173-5.181-5.502c0-3.133,2.57-5.703,6.707-5.703
			c1.967,0,3.694,0.522,4.738,1.205l-0.844,2.57c-0.763-0.481-2.168-1.165-3.976-1.165c-2.088,0-3.213,1.205-3.213,2.65
			c0,1.607,1.125,2.33,3.655,3.334c3.333,1.245,5.1,2.932,5.1,5.823c0,3.454-2.69,5.863-7.229,5.863
			c-2.129,0-4.097-0.562-5.462-1.365L145.182,198.241z"/>
	</g>
</g>
<g id="compass_icon">
</g>
<g id="Layer_5" display="none">
	<polygon display="inline" fill="none" stroke="#FFFFFF" stroke-width="3.0291" stroke-miterlimit="10" points="81.816,77.656 
		81.816,70.451 96.466,70.451 96.466,77.627 102.604,77.627 102.604,70.451 117.311,70.451 117.311,77.656 120.098,77.656 
		120.098,102.508 79.029,102.508 79.029,77.656 	"/>
	
		<circle display="inline" fill="none" stroke="#FFFFFF" stroke-width="5.813" stroke-linecap="square" stroke-linejoin="round" cx="100.07" cy="86.479" r="36.816"/>
	
		<rect x="118.087" y="131.402" transform="matrix(0.7071 0.7071 -0.7071 0.7071 136.527 -63.9467)" display="inline" fill="none" stroke="#FFFFFF" stroke-width="6.7818" stroke-linecap="round" stroke-linejoin="round" width="54.739" height="2.863"/>
	<g display="inline">
		<path fill="#FFFFFF" d="M2.61,198.343c1.566,1.004,3.815,1.767,6.225,1.767c3.574,0,5.663-1.888,5.663-4.618
			c0-2.49-1.446-3.977-5.1-5.342c-4.418-1.606-7.149-3.936-7.149-7.711c0-4.217,3.494-7.35,8.755-7.35
			c2.73,0,4.779,0.643,5.943,1.326l-0.964,2.851c-0.843-0.521-2.65-1.285-5.1-1.285c-3.695,0-5.101,2.209-5.101,4.057
			c0,2.53,1.646,3.775,5.381,5.221c4.579,1.768,6.868,3.977,6.868,7.952c0,4.177-3.052,7.831-9.438,7.831
			c-2.61,0-5.462-0.803-6.907-1.767L2.61,198.343z"/>
		<path fill="#FFFFFF" d="M22.73,174.085h3.534v12.169h0.081c0.562-1.004,1.446-1.928,2.53-2.53
			c1.044-0.603,2.289-0.964,3.614-0.964c2.61,0,6.787,1.606,6.787,8.273V202.6h-3.534v-11.165c0-3.133-1.165-5.743-4.498-5.743
			c-2.289,0-4.056,1.606-4.739,3.494c-0.201,0.522-0.241,1.044-0.241,1.687V202.6H22.73V174.085z"/>
		<path fill="#FFFFFF" d="M58.674,197.94c0,1.688,0.081,3.334,0.281,4.659h-3.173l-0.281-2.45h-0.121
			c-1.084,1.526-3.173,2.892-5.944,2.892c-3.936,0-5.944-2.771-5.944-5.582c0-4.699,4.177-7.27,11.687-7.229v-0.401
			c0-1.566-0.442-4.498-4.418-4.458c-1.848,0-3.735,0.522-5.101,1.446l-0.803-2.37c1.606-1.004,3.976-1.687,6.426-1.687
			c5.944,0,7.39,4.057,7.39,7.912V197.94z M55.26,192.68c-3.855-0.08-8.233,0.603-8.233,4.378c0,2.329,1.526,3.373,3.293,3.373
			c2.57,0,4.217-1.606,4.779-3.253c0.121-0.401,0.161-0.803,0.161-1.124V192.68z"/>
		<path fill="#FFFFFF" d="M64.375,189.507c0-2.49-0.08-4.498-0.161-6.346h3.133l0.201,3.334h0.08
			c1.406-2.369,3.735-3.735,6.908-3.735c4.739,0,8.273,3.977,8.273,9.84c0,6.988-4.297,10.441-8.875,10.441
			c-2.57,0-4.819-1.124-5.984-3.052h-0.08v10.563h-3.494V189.507z M67.87,194.688c0,0.522,0.04,1.005,0.161,1.446
			c0.643,2.449,2.771,4.137,5.301,4.137c3.735,0,5.904-3.053,5.904-7.511c0-3.855-2.048-7.188-5.783-7.188
			c-2.41,0-4.699,1.687-5.341,4.338c-0.121,0.441-0.241,0.963-0.241,1.405V194.688z"/>
		<path fill="#FFFFFF" d="M89.194,193.523c0.081,4.779,3.093,6.747,6.667,6.747c2.53,0,4.097-0.442,5.382-1.004l0.643,2.529
			c-1.245,0.563-3.414,1.245-6.506,1.245c-5.984,0-9.558-3.976-9.558-9.839s3.454-10.442,9.116-10.442
			c6.386,0,8.032,5.542,8.032,9.117c0,0.723-0.04,1.245-0.12,1.646H89.194z M99.556,190.993c0.04-2.209-0.924-5.703-4.9-5.703
			c-3.614,0-5.141,3.253-5.421,5.703H99.556z"/>
		<path fill="#FFFFFF" d="M119.475,175.531v11.325h13.092v-11.325h3.535V202.6h-3.535v-12.69h-13.092v12.69h-3.535v-27.068H119.475z
			"/>
		<path fill="#FFFFFF" d="M158.309,197.258c0,2.049,0.041,3.815,0.16,5.342h-3.133l-0.199-3.173h-0.08
			c-0.885,1.566-2.973,3.614-6.426,3.614c-3.053,0-6.707-1.727-6.707-8.514v-11.366h3.533v10.724c0,3.694,1.164,6.225,4.338,6.225
			c2.369,0,4.016-1.646,4.658-3.253c0.201-0.481,0.322-1.124,0.322-1.807v-11.889h3.533V197.258z"/>
		<path fill="#FFFFFF" d="M164.172,188.423c0-2.049-0.041-3.654-0.16-5.262h3.131l0.201,3.213h0.08
			c0.965-1.807,3.213-3.614,6.426-3.614c2.691,0,6.869,1.606,6.869,8.273V202.6h-3.535v-11.205c0-3.133-1.164-5.743-4.498-5.743
			c-2.289,0-4.096,1.646-4.738,3.615c-0.162,0.441-0.242,1.044-0.242,1.646V202.6h-3.533V188.423z"/>
		<path fill="#FFFFFF" d="M190.557,178.503v4.658h5.061v2.691h-5.061v10.482c0,2.409,0.682,3.774,2.65,3.774
			c0.965,0,1.525-0.08,2.049-0.241l0.16,2.691c-0.684,0.241-1.768,0.481-3.133,0.481c-1.646,0-2.973-0.562-3.814-1.485
			c-0.965-1.085-1.365-2.812-1.365-5.101v-10.603h-3.014v-2.691h3.014v-3.614L190.557,178.503z"/>
		<path fill="#FFFFFF" d="M201.318,193.523c0.08,4.779,3.094,6.747,6.668,6.747c2.529,0,4.096-0.442,5.381-1.004l0.643,2.529
			c-1.244,0.563-3.414,1.245-6.506,1.245c-5.984,0-9.559-3.976-9.559-9.839s3.453-10.442,9.117-10.442
			c6.385,0,8.031,5.542,8.031,9.117c0,0.723-0.039,1.245-0.119,1.646H201.318z M211.68,190.993c0.041-2.209-0.922-5.703-4.898-5.703
			c-3.615,0-5.141,3.253-5.422,5.703H211.68z"/>
		<path fill="#FFFFFF" d="M219.471,189.226c0-2.289-0.039-4.257-0.16-6.064h3.092l0.162,3.855h0.119
			c0.885-2.61,3.053-4.257,5.422-4.257c0.361,0,0.643,0.04,0.965,0.081v3.333c-0.361-0.08-0.723-0.08-1.205-0.08
			c-2.49,0-4.258,1.847-4.74,4.498c-0.08,0.481-0.119,1.084-0.119,1.646V202.6h-3.535V189.226z"/>
	</g>
</g>
<g id="Layer_6">
	<polygon fill="none" stroke="#FFFFFF" stroke-width="5.4451" stroke-miterlimit="10" points="53.457,67.448 53.457,42.664 
		103.843,42.664 103.843,67.346 124.955,67.346 124.955,42.664 175.545,42.664 175.545,67.448 185.13,67.448 185.13,152.924 
		43.869,152.924 43.869,67.448 	"/>
	<path fill="none" stroke="#FFFFFF" stroke-width="5.5191" stroke-miterlimit="10" d="M53.095,109.81"/>
	<g>
	</g>
	<g>
		<path fill="#FFFFFF" stroke="#FFFFFF" stroke-width="5.4451" stroke-miterlimit="10" d="M108.784,91.454v7.677h7.383v1.96h-7.383
			v7.743h-2.091v-7.743H99.31v-1.96h7.383v-7.677H108.784z"/>
	</g>
	<g>
		<path fill="#FFFFFF" stroke="#FFFFFF" stroke-width="5.4451" stroke-miterlimit="10" d="M88.883,100.876l-11.774,6.04v-1.751
			l9.998-4.974v-0.051l-9.998-4.974v-1.75l11.774,6.014V100.876z"/>
	</g>
	<g>
		<path fill="#FFFFFF" stroke="#FFFFFF" stroke-width="5.4451" stroke-miterlimit="10" d="M54.917,99.481l11.774-6.064v1.75
			l-9.921,4.974v0.051l9.921,4.974v1.751l-11.774-6.065V99.481z"/>
	</g>
	
		<line fill="#FFFFFF" stroke="#FFFFFF" stroke-width="7.6812" stroke-miterlimit="10" x1="124.249" y1="99.959" x2="146.708" y2="99.959"/>
	
		<line fill="#FFFFFF" stroke="#FFFFFF" stroke-width="7.6812" stroke-miterlimit="10" x1="152.271" y1="106.009" x2="176.032" y2="106.009"/>
	
		<line fill="#FFFFFF" stroke="#FFFFFF" stroke-width="7.6812" stroke-miterlimit="10" x1="152.271" y1="93.91" x2="176.032" y2="93.91"/>
	<g>
		<path fill="#FFFFFF" d="M97.151,190.998c-0.201-3.775-0.442-8.354-0.442-11.687h-0.08c-0.964,3.132-2.048,6.546-3.414,10.281
			l-4.779,13.132h-2.651l-4.417-12.892c-1.285-3.855-2.33-7.309-3.093-10.521h-0.08c-0.08,3.373-0.281,7.871-0.522,11.968
			l-0.723,11.606h-3.333l1.887-27.068h4.458l4.619,13.093c1.125,3.333,2.008,6.305,2.731,9.116h0.08
			c0.723-2.731,1.687-5.703,2.892-9.116l4.819-13.093h4.458l1.687,27.068h-3.454L97.151,190.998z"/>
		<path fill="#FFFFFF" d="M120.402,198.227c0,1.688,0.08,3.334,0.281,4.659h-3.173l-0.28-2.45h-0.121
			c-1.084,1.526-3.173,2.892-5.944,2.892c-3.936,0-5.944-2.771-5.944-5.582c0-4.699,4.177-7.27,11.687-7.229v-0.401
			c0-1.566-0.441-4.498-4.417-4.458c-1.848,0-3.735,0.522-5.101,1.446l-0.803-2.37c1.606-1.004,3.976-1.687,6.426-1.687
			c5.944,0,7.39,4.057,7.39,7.912V198.227z M116.988,192.966c-3.855-0.08-8.232,0.603-8.232,4.378c0,2.329,1.526,3.373,3.293,3.373
			c2.57,0,4.217-1.606,4.779-3.253c0.121-0.401,0.16-0.803,0.16-1.124V192.966z"/>
		<path fill="#FFFFFF" d="M130.201,178.789v4.658h5.061v2.691h-5.061v10.482c0,2.409,0.683,3.774,2.65,3.774
			c0.964,0,1.526-0.08,2.049-0.241l0.16,2.691c-0.683,0.241-1.768,0.481-3.133,0.481c-1.646,0-2.972-0.562-3.814-1.485
			c-0.965-1.085-1.366-2.812-1.366-5.101v-10.603h-3.013v-2.691h3.013v-3.614L130.201,178.789z"/>
		<path fill="#FFFFFF" d="M139.236,174.371h3.535v12.169h0.08c0.563-1.004,1.445-1.928,2.529-2.53
			c1.045-0.603,2.29-0.964,3.615-0.964c2.61,0,6.787,1.606,6.787,8.273v11.566h-3.534v-11.165c0-3.133-1.165-5.743-4.498-5.743
			c-2.289,0-4.056,1.606-4.739,3.494c-0.201,0.522-0.24,1.044-0.24,1.687v11.728h-3.535V174.371z"/>
	</g>
</g>
</svg>
