<?xml version="1.0" encoding="utf-8"?>
<!-- Generator: Adobe Illustrator 15.1.0, SVG Export Plug-In . SVG Version: 6.00 Build 0)  -->
<!DOCTYPE svg PUBLIC "-//W3C//DTD SVG 1.1//EN" "http://www.w3.org/Graphics/SVG/1.1/DTD/svg11.dtd">
<svg version="1.1" xmlns="http://www.w3.org/2000/svg" xmlns:xlink="http://www.w3.org/1999/xlink" x="0px" y="0px" width="231px"
	 height="229px" viewBox="0 0 231 229" enable-background="new 0 0 231 229" xml:space="preserve">
<g id="Layer_2" display="none">
</g>
<g id="Layer_6">
	<g>
		<path fill="#FFFFFF" d="M67.604,178.336h-8.233v-2.971h20.04v2.971h-8.273v24.098h-3.534V178.336z"/>
		<path fill="#FFFFFF" d="M81.419,193.357c0.08,4.778,3.092,6.746,6.667,6.746c2.53,0,4.096-0.441,5.381-1.004l0.643,2.531
			c-1.245,0.561-3.414,1.244-6.506,1.244c-5.984,0-9.559-3.977-9.559-9.84s3.454-10.441,9.117-10.441
			c6.386,0,8.032,5.542,8.032,9.116c0,0.724-0.04,1.245-0.121,1.647H81.419z M91.781,190.826c0.04-2.209-0.924-5.703-4.899-5.703
			c-3.615,0-5.141,3.254-5.422,5.703H91.781z"/>
		<path fill="#FFFFFF" d="M101.097,182.995l2.771,4.177c0.763,1.084,1.365,2.049,2.008,3.133h0.081
			c0.643-1.125,1.285-2.129,1.968-3.173l2.691-4.137h3.855l-6.627,9.397l6.788,10.041h-3.976l-2.892-4.378
			c-0.763-1.124-1.406-2.209-2.088-3.374h-0.081c-0.643,1.165-1.285,2.209-2.048,3.374l-2.812,4.378H96.84l6.908-9.92l-6.586-9.519
			H101.097z"/>
		<path fill="#FFFFFF" d="M122.824,178.336v4.659h5.06v2.69h-5.06v10.482c0,2.41,0.682,3.775,2.65,3.775
			c0.963,0,1.525-0.08,2.048-0.241l0.161,2.69c-0.684,0.242-1.768,0.482-3.133,0.482c-1.646,0-2.973-0.563-3.815-1.486
			c-0.964-1.084-1.366-2.811-1.366-5.1v-10.604h-3.012v-2.69h3.012v-3.614L122.824,178.336z"/>
		<path fill="#FFFFFF" d="M131.859,189.06c0-2.29-0.041-4.257-0.161-6.064h3.093l0.16,3.855h0.121
			c0.883-2.61,3.052-4.257,5.422-4.257c0.361,0,0.643,0.04,0.963,0.08v3.334c-0.361-0.081-0.723-0.081-1.205-0.081
			c-2.489,0-4.256,1.848-4.738,4.498c-0.08,0.481-0.121,1.085-0.121,1.647v10.361h-3.533V189.06z"/>
		<path fill="#FFFFFF" d="M149.088,177.533c0,1.205-0.844,2.168-2.249,2.168c-1.285,0-2.128-0.963-2.128-2.168
			s0.883-2.209,2.208-2.209C148.204,175.324,149.088,176.288,149.088,177.533z M145.152,202.434v-19.438h3.533v19.438H145.152z"/>
		<path fill="#FFFFFF" d="M156.195,182.995l2.771,4.177c0.764,1.084,1.365,2.049,2.008,3.133h0.08
			c0.643-1.125,1.285-2.129,1.969-3.173l2.69-4.137h3.855l-6.626,9.397l6.787,10.041h-3.977l-2.892-4.378
			c-0.763-1.124-1.405-2.209-2.089-3.374h-0.08c-0.643,1.165-1.285,2.209-2.048,3.374l-2.812,4.378h-3.896l6.907-9.92l-6.586-9.519
			H156.195z"/>
	</g>
	<line fill="none" stroke="#FFFFFF" stroke-width="0.5" stroke-miterlimit="10" x1="64.387" y1="98.967" x2="166.98" y2="98.967"/>
	
		<line fill="none" stroke="#FFFFFF" stroke-width="0.5" stroke-miterlimit="10" x1="62.137" y1="102.009" x2="169.107" y2="102.009"/>
	
		<line fill="none" stroke="#FFFFFF" stroke-width="0.75" stroke-miterlimit="10" x1="60.168" y1="104.821" x2="171.127" y2="104.821"/>
	
		<line fill="none" stroke="#FFFFFF" stroke-width="0.75" stroke-miterlimit="10" x1="57.48" y1="108.212" x2="173.23" y2="108.212"/>
	<line fill="none" stroke="#FFFFFF" stroke-miterlimit="10" x1="54.886" y1="112.045" x2="175.855" y2="112.045"/>
	<line fill="none" stroke="#FFFFFF" stroke-miterlimit="10" x1="51.792" y1="116.186" x2="178.855" y2="116.186"/>
	
		<line fill="none" stroke="#FFFFFF" stroke-width="1.5" stroke-miterlimit="10" x1="48.196" y1="120.617" x2="182.533" y2="120.617"/>
	
		<line fill="none" stroke="#FFFFFF" stroke-width="1.5" stroke-miterlimit="10" x1="44.448" y1="125.842" x2="186.303" y2="125.842"/>
	
		<line fill="none" stroke="#FFFFFF" stroke-width="0.25" stroke-miterlimit="10" x1="66.379" y1="96.266" x2="165.105" y2="96.266"/>
	
		<line fill="none" stroke="#FFFFFF" stroke-width="1.5" stroke-linejoin="round" stroke-miterlimit="10" x1="39.566" y1="131.359" x2="190.389" y2="131.359"/>
	
		<line fill="none" stroke="#FFFFFF" stroke-width="0.25" stroke-linejoin="round" stroke-miterlimit="10" x1="163.203" y1="93.483" x2="68.381" y2="93.483"/>
	<g>
		<polygon fill="#FFFFFF" points="188.93,131.996 163.203,93.606 163.203,93.351 190.389,130.613 		"/>
	</g>
	<g>
		<polygon fill="#FFFFFF" points="40.971,132.09 68.426,93.559 68.381,93.34 39.566,130.652 		"/>
	</g>
	<g>
		<polygon fill="#FFFFFF" points="54.936,130.643 53.436,130.643 77.475,93.559 77.752,93.559 		"/>
	</g>
	<g>
		<polygon fill="#FFFFFF" points="70.395,130.621 68.895,130.621 87.2,93.476 87.478,93.476 		"/>
	</g>
	<g>
		<polygon fill="#FFFFFF" points="85.727,130.684 84.227,130.684 96.186,93.483 96.463,93.483 		"/>
	</g>
	<g>
		<polygon fill="#FFFFFF" points="100.93,131.33 99.43,131.33 105.967,93.483 106.244,93.483 		"/>
	</g>
	<g>
		<polygon fill="#FFFFFF" points="116.564,130.969 115.065,130.969 115.658,93.483 115.936,93.483 		"/>
	</g>
	<g>
		<polygon fill="#FFFFFF" points="176.373,130.799 177.873,130.799 153.723,93.544 153.445,93.544 		"/>
	</g>
	<g>
		<polygon fill="#FFFFFF" points="161.154,130.861 162.654,130.861 143.914,93.455 143.637,93.455 		"/>
	</g>
	<g>
		<polygon fill="#FFFFFF" points="130.23,130.893 131.73,130.893 125.27,93.455 124.992,93.455 		"/>
	</g>
	<g>
		<polygon fill="#FFFFFF" points="145.592,130.861 147.092,130.861 134.915,93.434 134.638,93.434 		"/>
	</g>
	<g>
		<path fill="#FFFFFF" d="M39.459,131.205l1-100.723l1,100.723c0.005,0.553-0.438,1.004-0.99,1.01s-1.004-0.438-1.01-0.99
			C39.459,131.221,39.459,131.211,39.459,131.205z"/>
	</g>
	<g>
		<path fill="#FFFFFF" d="M158.765,102.063l0.204-55.07l0.204,55.07c0,0.113-0.091,0.204-0.203,0.205
			c-0.113,0-0.204-0.091-0.205-0.203V102.063z"/>
	</g>
	<g>
		<polygon fill="#FFFFFF" points="68.316,93.505 68.724,49.652 69.131,93.505 		"/>
	</g>
	<g>
		<path fill="#FFFFFF" d="M71.124,126.08l1-100.724l1,100.724c0.005,0.553-0.438,1.004-0.99,1.01s-1.004-0.438-1.01-0.99
			C71.124,126.096,71.124,126.086,71.124,126.08z"/>
	</g>
	<g>
		<path fill="#FFFFFF" d="M102.994,112.146l0.5-100.725l0.5,100.725c0.002,0.275-0.221,0.5-0.497,0.502s-0.501-0.221-0.503-0.498
			V112.146z"/>
	</g>
	<g>
		<polygon fill="#FFFFFF" points="143.751,126.004 144.751,25.28 145.751,126.004 		"/>
	</g>
	<g>
		<polygon fill="#FFFFFF" points="188.234,130.92 189.234,30.196 190.234,130.92 190.244,131.92 188.225,131.92 		"/>
	</g>
	<g>
		<polygon fill="#FFFFFF" points="162.01,93.22 162.418,67.397 162.826,93.22 162.832,93.627 162.004,93.627 		"/>
	</g>
</g>
</svg>
