<?xml version="1.0" encoding="utf-8"?>
<!-- Generator: Adobe Illustrator 15.1.0, SVG Export Plug-In . SVG Version: 6.00 Build 0)  -->
<!DOCTYPE svg PUBLIC "-//W3C//DTD SVG 1.1//EN" "http://www.w3.org/Graphics/SVG/1.1/DTD/svg11.dtd" [
	<!ENTITY ns_extend "http://ns.adobe.com/Extensibility/1.0/">
	<!ENTITY ns_ai "http://ns.adobe.com/AdobeIllustrator/10.0/">
	<!ENTITY ns_graphs "http://ns.adobe.com/Graphs/1.0/">
	<!ENTITY ns_vars "http://ns.adobe.com/Variables/1.0/">
	<!ENTITY ns_imrep "http://ns.adobe.com/ImageReplacement/1.0/">
	<!ENTITY ns_sfw "http://ns.adobe.com/SaveForWeb/1.0/">
	<!ENTITY ns_custom "http://ns.adobe.com/GenericCustomNamespace/1.0/">
	<!ENTITY ns_adobe_xpath "http://ns.adobe.com/XPath/1.0/">
]>
<svg version="1.1" xmlns:x="&ns_extend;" xmlns:i="&ns_ai;" xmlns:graph="&ns_graphs;"
	 xmlns="http://www.w3.org/2000/svg" xmlns:xlink="http://www.w3.org/1999/xlink" x="0px" y="0px" width="231px" height="229px"
	 viewBox="0 0 231 229" enable-background="new 0 0 231 229" xml:space="preserve">
<metadata>
	<sfw  xmlns="&ns_sfw;">
		<slices></slices>
		<sliceSourceBounds  x="-8076" y="-8306" width="16383" height="16383" bottomLeftOrigin="true"></sliceSourceBounds>
	</sfw>
</metadata>
<g id="Layer_8" display="none">
	<g display="inline">
		<path fill="#FFFFFF" d="M32.165,174.951c1.687-0.281,3.896-0.521,6.707-0.521c3.454,0,5.984,0.803,7.59,2.248
			c1.446,1.285,2.37,3.254,2.37,5.664c0,2.449-0.723,4.377-2.088,5.783c-1.888,1.967-4.86,2.971-8.273,2.971
			c-1.044,0-2.008-0.039-2.811-0.24v10.844h-3.494V174.951z M35.659,188.004c0.763,0.201,1.727,0.281,2.892,0.281
			c4.217,0,6.787-2.088,6.787-5.744c0-3.613-2.57-5.34-6.386-5.34c-1.526,0-2.69,0.119-3.293,0.281V188.004z"/>
		<path fill="#FFFFFF" d="M52.767,188.324c0-2.289-0.04-4.256-0.161-6.064h3.093l0.16,3.855h0.121
			c0.884-2.609,3.052-4.256,5.422-4.256c0.361,0,0.643,0.039,0.964,0.08v3.334c-0.361-0.08-0.723-0.08-1.205-0.08
			c-2.49,0-4.257,1.846-4.739,4.498c-0.08,0.48-0.121,1.084-0.121,1.646v10.361h-3.534V188.324z"/>
		<path fill="#FFFFFF" d="M83.089,191.818c0,7.189-5.021,10.322-9.679,10.322c-5.221,0-9.317-3.855-9.317-10
			c0-6.467,4.297-10.281,9.639-10.281C79.313,181.859,83.089,185.916,83.089,191.818z M67.707,192.02
			c0,4.258,2.41,7.471,5.863,7.471c3.374,0,5.904-3.174,5.904-7.551c0-3.293-1.646-7.43-5.823-7.43
			C69.514,184.51,67.707,188.365,67.707,192.02z"/>
		<path fill="#FFFFFF" d="M82.767,207.402c1.646-0.121,3.012-0.563,3.855-1.527c0.964-1.084,1.365-2.609,1.365-7.27V182.26h3.534
			v17.713c0,3.773-0.603,6.225-2.329,7.99c-1.566,1.566-4.137,2.209-6.024,2.209L82.767,207.402z M91.923,176.799
			c0,1.164-0.803,2.168-2.249,2.168c-1.285,0-2.128-1.004-2.128-2.168c0-1.205,0.884-2.209,2.209-2.209
			S91.923,175.594,91.923,176.799z"/>
		<path fill="#FFFFFF" d="M99.272,192.623c0.08,4.779,3.092,6.746,6.667,6.746c2.53,0,4.096-0.441,5.381-1.004l0.643,2.529
			c-1.245,0.563-3.414,1.246-6.506,1.246c-5.984,0-9.559-3.977-9.559-9.84s3.454-10.441,9.117-10.441
			c6.386,0,8.032,5.541,8.032,9.117c0,0.723-0.04,1.244-0.121,1.646H99.272z M109.634,190.092c0.04-2.209-0.924-5.703-4.899-5.703
			c-3.615,0-5.141,3.254-5.422,5.703H109.634z"/>
		<path fill="#FFFFFF" d="M131.28,201.016c-0.924,0.441-2.972,1.125-5.583,1.125c-5.863,0-9.679-3.977-9.679-9.92
			c0-5.984,4.097-10.361,10.442-10.361c2.088,0,3.936,0.521,4.899,1.043l-0.804,2.691c-0.843-0.441-2.168-0.924-4.096-0.924
			c-4.458,0-6.867,3.334-6.867,7.35c0,4.498,2.891,7.27,6.746,7.27c2.008,0,3.334-0.482,4.338-0.924L131.28,201.016z"/>
		<path fill="#FFFFFF" d="M140.194,177.602v4.658h5.061v2.691h-5.061v10.482c0,2.41,0.683,3.775,2.651,3.775
			c0.964,0,1.525-0.08,2.048-0.242l0.161,2.691c-0.684,0.242-1.768,0.482-3.133,0.482c-1.646,0-2.973-0.563-3.815-1.486
			c-0.964-1.084-1.365-2.811-1.365-5.1v-10.604h-3.013v-2.691h3.013v-3.613L140.194,177.602z"/>
		<path fill="#FFFFFF" d="M153.165,176.799c0,1.205-0.843,2.168-2.249,2.168c-1.285,0-2.128-0.963-2.128-2.168
			s0.884-2.209,2.209-2.209C152.282,174.59,153.165,175.555,153.165,176.799z M149.229,201.699V182.26h3.534v19.439H149.229z"/>
		<path fill="#FFFFFF" d="M176.218,191.818c0,7.189-5.021,10.322-9.679,10.322c-5.221,0-9.317-3.855-9.317-10
			c0-6.467,4.297-10.281,9.639-10.281C172.442,181.859,176.218,185.916,176.218,191.818z M160.836,192.02
			c0,4.258,2.41,7.471,5.863,7.471c3.374,0,5.904-3.174,5.904-7.551c0-3.293-1.646-7.43-5.824-7.43
			C162.644,184.51,160.836,188.365,160.836,192.02z"/>
		<path fill="#FFFFFF" d="M180.675,187.521c0-2.049-0.04-3.654-0.16-5.262h3.132l0.201,3.213h0.08
			c0.964-1.807,3.213-3.613,6.426-3.613c2.691,0,6.868,1.605,6.868,8.273v11.566h-3.534v-11.205c0-3.133-1.165-5.744-4.498-5.744
			c-2.289,0-4.097,1.646-4.739,3.615c-0.161,0.441-0.241,1.045-0.241,1.646v11.688h-3.534V187.521z"/>
	</g>
	<polygon display="inline" fill="#FFFFFF" points="89.772,151.682 50.159,151.682 50.159,22 179.84,22 179.84,151.682 
		140.229,151.682 140.229,121.15 136.804,121.15 136.804,112.297 118.734,112.297 118.734,121.113 111.193,121.113 111.193,112.297 
		93.197,112.297 93.197,121.15 89.772,121.15 	"/>
</g>
<g id="Layer_4" display="none">
	
		<circle display="inline" fill="none" stroke="#FFFFFF" stroke-width="7.3285" stroke-linecap="round" stroke-linejoin="round" cx="193.373" cy="110.179" r="17.748"/>
	
		<circle display="inline" fill="none" stroke="#FFFFFF" stroke-width="7.3285" stroke-linecap="round" stroke-linejoin="round" cx="141.407" cy="110.179" r="17.747"/>
	
		<circle display="inline" fill="none" stroke="#FFFFFF" stroke-width="7.3285" stroke-linecap="round" stroke-linejoin="round" cx="89.587" cy="110.179" r="17.75"/>
	<path display="inline" fill="none" stroke="#FFFFFF" stroke-width="7.3285" stroke-linecap="round" stroke-linejoin="round" d="
		M55.374,110.179c0,9.801-7.941,17.747-17.744,17.747c-9.803,0-17.75-7.946-17.75-17.747s7.947-17.748,17.75-17.748
		C47.433,92.431,55.374,100.378,55.374,110.179z"/>
	
		<circle display="inline" fill="none" stroke="#FFFFFF" stroke-width="7.3285" stroke-linecap="round" stroke-linejoin="round" cx="193.373" cy="58.948" r="17.748"/>
	<path display="inline" fill="none" stroke="#FFFFFF" stroke-width="7.3285" stroke-linecap="round" stroke-linejoin="round" d="
		M159.154,58.948c0,9.801-7.943,17.746-17.744,17.746c-9.802,0-17.75-7.945-17.75-17.746c0-9.803,7.948-17.749,17.75-17.749
		C151.211,41.199,159.154,49.146,159.154,58.948z"/>
	
		<circle display="inline" fill="none" stroke="#FFFFFF" stroke-width="7.3285" stroke-linecap="round" stroke-linejoin="round" cx="89.587" cy="58.948" r="17.75"/>
	<path display="inline" fill="none" stroke="#FFFFFF" stroke-width="7.3285" stroke-linecap="round" stroke-linejoin="round" d="
		M55.374,58.948c0,9.801-7.941,17.746-17.744,17.746c-9.803,0-17.75-7.945-17.75-17.746c0-9.803,7.947-17.749,17.75-17.749
		C47.433,41.199,55.374,49.146,55.374,58.948z"/>
	<g display="inline">
		<path fill="#FFFFFF" d="M80.003,193.301l-2.811,8.515h-3.615l9.237-27.068h4.177l9.237,27.068h-3.735l-2.892-8.515H80.003z
			 M88.919,190.57l-2.691-7.791c-0.603-1.768-1.004-3.374-1.406-4.939h-0.08c-0.402,1.565-0.803,3.252-1.366,4.898l-2.65,7.832
			H88.919z"/>
		<path fill="#FFFFFF" d="M99.963,188.723c0-2.49-0.08-4.498-0.161-6.346h3.133l0.201,3.334h0.08
			c1.406-2.369,3.735-3.735,6.908-3.735c4.739,0,8.272,3.976,8.272,9.84c0,6.987-4.297,10.441-8.875,10.441
			c-2.57,0-4.819-1.124-5.984-3.052h-0.08v10.563h-3.494V188.723z M103.457,193.904c0,0.521,0.04,1.004,0.161,1.445
			c0.643,2.449,2.771,4.137,5.301,4.137c3.735,0,5.904-3.053,5.904-7.51c0-3.855-2.048-7.189-5.783-7.189
			c-2.41,0-4.699,1.687-5.341,4.338c-0.121,0.441-0.241,0.963-0.241,1.405V193.904z"/>
		<path fill="#FFFFFF" d="M122.813,188.723c0-2.49-0.08-4.498-0.161-6.346h3.133l0.201,3.334h0.08
			c1.406-2.369,3.735-3.735,6.908-3.735c4.738,0,8.273,3.976,8.273,9.84c0,6.987-4.298,10.441-8.876,10.441
			c-2.57,0-4.819-1.124-5.984-3.052h-0.08v10.563h-3.494V188.723z M126.308,193.904c0,0.521,0.04,1.004,0.161,1.445
			c0.643,2.449,2.771,4.137,5.301,4.137c3.734,0,5.904-3.053,5.904-7.51c0-3.855-2.049-7.189-5.783-7.189
			c-2.41,0-4.699,1.687-5.342,4.338c-0.121,0.441-0.241,0.963-0.241,1.405V193.904z"/>
		<path fill="#FFFFFF" d="M145.182,198.241c1.085,0.643,2.933,1.365,4.699,1.365c2.53,0,3.735-1.245,3.735-2.892
			c0-1.687-1.004-2.57-3.574-3.534c-3.534-1.285-5.181-3.173-5.181-5.502c0-3.133,2.57-5.703,6.707-5.703
			c1.967,0,3.694,0.522,4.738,1.205l-0.844,2.57c-0.763-0.481-2.168-1.165-3.976-1.165c-2.088,0-3.213,1.205-3.213,2.65
			c0,1.607,1.125,2.33,3.655,3.334c3.333,1.245,5.1,2.932,5.1,5.823c0,3.454-2.69,5.863-7.229,5.863
			c-2.129,0-4.097-0.562-5.462-1.365L145.182,198.241z"/>
	</g>
</g>
<g id="compass_icon">
</g>
<g id="Layer_5" display="none">
	<g display="inline">
		<path fill="#FFFFFF" d="M96.739,189.811c-0.201-3.775-0.442-8.354-0.442-11.686h-0.08c-0.964,3.131-2.048,6.545-3.414,10.281
			l-4.779,13.131h-2.651l-4.417-12.891c-1.285-3.855-2.33-7.309-3.093-10.521h-0.08c-0.08,3.373-0.281,7.871-0.522,11.967
			l-0.723,11.607h-3.333l1.887-27.068h4.458l4.619,13.092c1.125,3.334,2.008,6.305,2.731,9.117h0.08
			c0.723-2.732,1.687-5.703,2.892-9.117l4.819-13.092h4.458l1.687,27.068h-3.454L96.739,189.811z"/>
		<path fill="#FFFFFF" d="M119.99,197.039c0,1.688,0.081,3.334,0.281,4.66H117.1l-0.281-2.451h-0.121
			c-1.084,1.527-3.172,2.893-5.943,2.893c-3.936,0-5.944-2.771-5.944-5.582c0-4.699,4.177-7.27,11.687-7.23v-0.4
			c0-1.566-0.442-4.498-4.418-4.459c-1.848,0-3.735,0.523-5.101,1.447l-0.803-2.371c1.606-1.004,3.976-1.686,6.426-1.686
			c5.944,0,7.389,4.057,7.389,7.912V197.039z M116.577,191.779c-3.855-0.08-8.233,0.602-8.233,4.377c0,2.33,1.526,3.373,3.293,3.373
			c2.57,0,4.217-1.605,4.779-3.252c0.121-0.402,0.161-0.803,0.161-1.125V191.779z"/>
		<path fill="#FFFFFF" d="M129.789,177.602v4.658h5.061v2.691h-5.061v10.482c0,2.41,0.684,3.775,2.65,3.775
			c0.965,0,1.527-0.08,2.049-0.242l0.16,2.691c-0.682,0.242-1.767,0.482-3.132,0.482c-1.647,0-2.972-0.563-3.815-1.486
			c-0.964-1.084-1.365-2.811-1.365-5.1v-10.604h-3.013v-2.691h3.013v-3.613L129.789,177.602z"/>
		<path fill="#FFFFFF" d="M138.825,173.184h3.534v12.17h0.08c0.563-1.004,1.446-1.928,2.53-2.531
			c1.044-0.602,2.29-0.963,3.614-0.963c2.611,0,6.787,1.605,6.787,8.273v11.566h-3.533v-11.166c0-3.133-1.165-5.742-4.498-5.742
			c-2.289,0-4.057,1.605-4.739,3.494c-0.201,0.521-0.241,1.043-0.241,1.686v11.729h-3.534V173.184z"/>
	</g>
	<g display="inline">
		<path fill="#FFFFFF" d="M53.108,80.595h-0.165l-9.282,5.01l-1.396-5.503l11.664-6.242h6.16v53.389h-6.981V80.595z"/>
		<path fill="#FFFFFF" d="M96.964,127.249v-4.436l5.667-5.503c13.635-12.978,19.877-19.877,19.877-27.927
			c0-5.421-2.546-10.432-10.514-10.432c-4.846,0-8.871,2.464-11.335,4.518l-2.3-5.092c3.614-3.039,8.953-5.421,15.031-5.421
			c11.499,0,16.346,7.885,16.346,15.524c0,9.856-7.146,17.824-18.399,28.666l-4.189,3.942v0.164h23.902v5.996H96.964z"/>
		<path fill="#FFFFFF" d="M158.232,119.035c2.054,1.232,6.735,3.286,11.828,3.286c9.199,0,12.156-5.832,12.074-10.35
			c-0.082-7.475-6.817-10.678-13.799-10.678h-4.025v-5.421h4.025c5.257,0,11.91-2.71,11.91-9.035c0-4.271-2.711-8.049-9.364-8.049
			c-4.271,0-8.378,1.889-10.678,3.532l-1.972-5.257c2.875-2.053,8.296-4.107,14.046-4.107c10.514,0,15.277,6.243,15.277,12.731
			c0,5.585-3.367,10.268-9.856,12.649v0.164c6.571,1.232,11.828,6.161,11.91,13.635c0,8.542-6.735,16.016-19.467,16.016
			c-5.996,0-11.253-1.889-13.881-3.613L158.232,119.035z"/>
	</g>
</g>
<g id="Layer_6">
	<g>
		<path fill="#FFFFFF" d="M69.508,189.854c-0.201-3.775-0.442-8.354-0.442-11.688h-0.08c-0.964,3.133-2.048,6.547-3.414,10.281
			l-4.779,13.133h-2.651l-4.417-12.893c-1.285-3.855-2.33-7.309-3.093-10.521h-0.08c-0.08,3.373-0.281,7.871-0.522,11.969
			l-0.723,11.605h-3.333l1.887-27.068h4.458l4.619,13.094c1.125,3.332,2.008,6.305,2.731,9.115h0.08
			c0.723-2.73,1.687-5.703,2.892-9.115l4.819-13.094h4.458l1.687,27.068H70.15L69.508,189.854z"/>
		<path fill="#FFFFFF" d="M81.072,192.664c0.081,4.779,3.093,6.748,6.667,6.748c2.53,0,4.097-0.443,5.382-1.004l0.643,2.529
			c-1.245,0.563-3.414,1.244-6.506,1.244c-5.984,0-9.558-3.975-9.558-9.838s3.454-10.443,9.116-10.443
			c6.386,0,8.032,5.543,8.032,9.117c0,0.723-0.04,1.246-0.12,1.646H81.072z M91.434,190.135c0.04-2.209-0.924-5.703-4.9-5.703
			c-3.614,0-5.141,3.252-5.421,5.703H91.434z"/>
		<path fill="#FFFFFF" d="M99.224,187.564c0-2.049-0.08-3.654-0.161-5.262h3.093l0.16,3.172h0.121
			c1.084-1.846,2.892-3.574,6.145-3.574c2.61,0,4.618,1.607,5.462,3.896h0.08c0.603-1.125,1.406-1.928,2.209-2.529
			c1.165-0.885,2.409-1.367,4.257-1.367c2.61,0,6.426,1.688,6.426,8.436v11.404h-3.453v-10.963c0-3.775-1.406-5.984-4.218-5.984
			c-2.048,0-3.574,1.486-4.217,3.172c-0.161,0.523-0.281,1.125-0.281,1.768v12.008h-3.454v-11.646c0-3.092-1.366-5.301-4.056-5.301
			c-2.169,0-3.815,1.768-4.378,3.533c-0.201,0.482-0.281,1.125-0.281,1.729v11.686h-3.454V187.564z"/>
		<path fill="#FFFFFF" d="M150.309,191.861c0,7.189-5.021,10.32-9.679,10.32c-5.222,0-9.317-3.855-9.317-10
			c0-6.465,4.297-10.281,9.639-10.281C146.533,181.9,150.309,185.957,150.309,191.861z M134.927,192.063
			c0,4.256,2.409,7.469,5.863,7.469c3.374,0,5.904-3.172,5.904-7.549c0-3.295-1.647-7.43-5.823-7.43
			C136.734,184.553,134.927,188.408,134.927,192.063z"/>
		<path fill="#FFFFFF" d="M154.766,188.367c0-2.289-0.04-4.258-0.16-6.064h3.092l0.161,3.855h0.12
			c0.884-2.611,3.053-4.258,5.422-4.258c0.361,0,0.643,0.041,0.964,0.082v3.332c-0.361-0.08-0.723-0.08-1.205-0.08
			c-2.489,0-4.257,1.848-4.739,4.498c-0.08,0.482-0.12,1.084-0.12,1.646v10.361h-3.534V188.367z"/>
		<path fill="#FFFFFF" d="M170.187,182.303l4.217,11.486c0.482,1.285,0.964,2.811,1.285,3.977h0.081
			c0.361-1.166,0.763-2.652,1.244-4.057l3.855-11.406h3.735l-5.302,13.855c-2.529,6.666-4.257,10.041-6.666,12.17
			c-1.768,1.484-3.454,2.088-4.338,2.248l-0.883-2.932c0.883-0.281,2.048-0.844,3.092-1.727c0.964-0.764,2.129-2.129,2.972-3.936
			c0.161-0.361,0.281-0.643,0.281-0.844s-0.08-0.482-0.281-0.924l-7.148-17.912H170.187z"/>
	</g>
	<path fill="#FFFFFF" d="M149.262,113.653c-0.606-0.199,31.983,7.296,35.883-16.809c3.865-23.897-5.382-32.323-15.221-39
		c0,0-9.357-13.244-24.313-9.847"/>
	<path fill="#FFFFFF" d="M114.067,39.005c0,0-16.222-8.241-34.495,4.701c0,0-15.071,0.659-18.405,18.792"/>
	<path fill="#FFFFFF" d="M61.167,60.498c0,0-28.551,15.646-8.74,49.03"/>
	<path fill="#FFFFFF" d="M54.345,109.528c4.217,5.798,9.568,6.041,16.883,7.019c2.438,0.326,4.91,0.549,7.326,0.773"/>
	<path fill="#FFFFFF" d="M114.067,39.005c0,0,20.717-4.363,34.422,8.991"/>
	<path fill="#FFFFFF" d="M151.262,111.653c0,0-6.25,10.75-23.154,10.25c-7.729-0.23-11.444-1.961-15.37-6.17"/>
	<g>
		<path fill="#FFFFFF" d="M82.199,120.459c0.219,0.332,0.433,0.689,0.573,1.102c0.145,0.412,0.186,0.885,0.119,1.326
			c-0.141,0.885-0.529,1.625-0.917,2.326c-0.802,1.395-1.694,2.68-2.571,3.979l-2.639,3.859c-0.833,1.238-1.589,2.539-2.092,3.842
			c-0.506,1.293-0.683,2.643-0.284,3.494c0.189,0.43,0.493,0.775,0.933,1.074c0.218,0.148,0.467,0.277,0.734,0.396
			c0.135,0.059,0.274,0.111,0.418,0.162c0.049,0.016,0.199,0.066,0.166,0.053c0.074,0.018,0.238,0.072,0.218,0.053
			c0.249,0.023,0.437-0.018,0.819-0.279c0.376-0.27,0.826-0.744,1.258-1.287c0.873-1.098,1.744-2.406,2.665-3.703
			c1.841-2.602,3.93-5.277,6.571-7.453c1.314-1.086,2.756-2.045,4.291-2.807c0.758-0.393,1.579-0.74,2.25-1.006l2.035-0.883
			c5.445-2.422,10.662-5.516,15.8-9.137l0.014-0.01c0.114-0.08,0.273-0.053,0.354,0.061c0.059,0.084,0.061,0.189,0.014,0.271
			c-1.597,2.824-3.746,5.254-6.104,7.459c-2.366,2.201-5.002,4.135-7.838,5.752c-0.709,0.416-1.427,0.773-2.176,1.148
			c-0.75,0.373-1.359,0.643-1.985,0.969c-1.241,0.654-2.444,1.367-3.605,2.174c-2.332,1.6-4.44,3.613-6.374,5.961
			c-0.988,1.166-1.915,2.406-3.076,3.674c-0.592,0.627-1.238,1.285-2.176,1.859c-0.917,0.586-2.371,0.951-3.643,0.549
			c-0.212-0.057-0.229-0.076-0.343-0.111c-0.217-0.078-0.249-0.098-0.382-0.152c-0.219-0.094-0.436-0.195-0.65-0.309
			c-0.432-0.227-0.853-0.5-1.251-0.83c-0.798-0.646-1.491-1.578-1.818-2.625c-0.337-1.043-0.32-2.105-0.144-3.031
			c0.178-0.936,0.498-1.773,0.872-2.549c0.755-1.555,1.728-2.873,2.761-4.125l3.076-3.539c1.016-1.178,2.048-2.348,2.951-3.564
			c0.438-0.609,0.875-1.23,1.064-1.879c0.207-0.637,0.021-1.328-0.325-2.018c-0.062-0.123-0.013-0.273,0.112-0.336
			c0.113-0.057,0.252-0.018,0.32,0.086L82.199,120.459z"/>
	</g>
	<g>
		<path fill="#FFFFFF" d="M69.858,113.713c1.867-0.055,3.729,0.148,5.599,0.521c1.852,0.42,3.744,1.037,5.418,2.392
			c0.821,0.676,1.624,1.557,2.096,2.689c0.476,1.131,0.474,2.426,0.144,3.494c-0.33,1.078-0.889,1.99-1.564,2.746
			c-0.67,0.76-1.445,1.389-2.357,1.842c-0.082,0.041-0.182,0.006-0.223-0.074c-0.018-0.037-0.021-0.078-0.012-0.113
			c0.232-0.98,0.521-1.854,0.754-2.691c0.225-0.84,0.406-1.629,0.47-2.346c0.066-0.719,0.061-1.324-0.036-1.943
			c-0.09-0.619-0.391-1.279-0.909-1.85c-1.044-1.141-2.61-2.02-4.231-2.717c-1.633-0.722-3.391-1.234-5.172-1.652l-0.006-0.002
			c-0.08-0.02-0.131-0.1-0.111-0.182C69.731,113.76,69.791,113.715,69.858,113.713z"/>
	</g>
	<path fill="#FFFFFF" d="M154.118,57.461c0,0-4.334-12.833-17.668-14.833c-13.332-2-11.213-5.167-25.606-4.667
		c-14.393,0.5-48.892,13.666-52.56,25.833c-3.666,12.167-9.548,45.397-3.993,48.624c5.555,3.226,19.078,5.224,22.369,5.132
		c3.291-0.09,4.284,3.357,3.954,5.133c-0.33,1.777-11.83,18.109-8.663,18.777c3.167,0.666,0.734,7.031,10.617-4.15
		c9.883-11.184,25.218-15.336,28.218-18.561c3-3.223-0.557-2.049,1.387-2.252c1.945-0.205,33.777-1.539,41.945-5.537
		C162.284,106.961,154.118,57.461,154.118,57.461z"/>
</g>
</svg>
