<?xml version="1.0" encoding="utf-8"?>
<!-- Generator: Adobe Illustrator 15.1.0, SVG Export Plug-In . SVG Version: 6.00 Build 0)  -->
<!DOCTYPE svg PUBLIC "-//W3C//DTD SVG 1.1//EN" "http://www.w3.org/Graphics/SVG/1.1/DTD/svg11.dtd">
<svg version="1.1" xmlns="http://www.w3.org/2000/svg" xmlns:xlink="http://www.w3.org/1999/xlink" x="0px" y="0px" width="231px"
	 height="229px" viewBox="0 0 231 229" enable-background="new 0 0 231 229" xml:space="preserve">
<g id="compass_icon">
</g>
<g id="Layer_3">
</g>
<g id="Layer_4">
	<g>
	</g>
	<g>
		<path fill="#FFFFFF" d="M51.523,179.202c1.566,1.004,3.815,1.767,6.225,1.767c3.574,0,5.663-1.888,5.663-4.618
			c0-2.49-1.446-3.977-5.101-5.342c-4.417-1.606-7.148-3.936-7.148-7.711c0-4.217,3.494-7.35,8.755-7.35
			c2.731,0,4.779,0.643,5.944,1.326l-0.964,2.851c-0.844-0.521-2.651-1.285-5.101-1.285c-3.695,0-5.101,2.209-5.101,4.057
			c0,2.53,1.646,3.775,5.382,5.221c4.578,1.768,6.867,3.977,6.867,7.952c0,4.177-3.052,7.831-9.438,7.831
			c-2.611,0-5.462-0.803-6.908-1.767L51.523,179.202z"/>
		<path fill="#FFFFFF" d="M75.78,159.362v4.658h5.06v2.691h-5.06v10.482c0,2.409,0.683,3.774,2.65,3.774
			c0.964,0,1.526-0.08,2.048-0.241l0.161,2.691c-0.683,0.241-1.767,0.481-3.132,0.481c-1.647,0-2.972-0.562-3.815-1.485
			c-0.964-1.085-1.366-2.812-1.366-5.101v-10.603h-3.012v-2.691h3.012v-3.614L75.78,159.362z"/>
		<path fill="#FFFFFF" d="M98.47,178.8c0,1.688,0.081,3.334,0.281,4.659h-3.173l-0.281-2.45h-0.12
			c-1.084,1.526-3.173,2.892-5.944,2.892c-3.936,0-5.944-2.771-5.944-5.582c0-4.699,4.177-7.27,11.687-7.229v-0.401
			c0-1.566-0.441-4.498-4.417-4.458c-1.847,0-3.735,0.522-5.101,1.446l-0.803-2.37c1.606-1.004,3.976-1.687,6.426-1.687
			c5.944,0,7.39,4.057,7.39,7.912V178.8z M95.057,173.539c-3.855-0.08-8.233,0.603-8.233,4.378c0,2.329,1.526,3.373,3.293,3.373
			c2.57,0,4.217-1.606,4.779-3.253c0.121-0.401,0.161-0.803,0.161-1.124V173.539z"/>
		<path fill="#FFFFFF" d="M118.027,182.776c-0.923,0.441-2.971,1.124-5.582,1.124c-5.864,0-9.679-3.976-9.679-9.919
			c0-5.984,4.096-10.362,10.441-10.362c2.089,0,3.936,0.522,4.9,1.044l-0.804,2.691c-0.843-0.441-2.168-0.924-4.096-0.924
			c-4.458,0-6.867,3.333-6.867,7.35c0,4.498,2.892,7.27,6.747,7.27c2.008,0,3.333-0.482,4.337-0.924L118.027,182.776z"/>
		<path fill="#FFFFFF" d="M125.658,172.937h0.08c0.482-0.683,1.125-1.525,1.688-2.209l5.742-6.707h4.217l-7.469,7.992l8.554,11.446
			h-4.337l-6.668-9.317l-1.807,2.008v7.31h-3.494v-28.515h3.494V172.937z"/>
		<path fill="#FFFFFF" d="M142.967,174.383c0.08,4.779,3.092,6.747,6.666,6.747c2.531,0,4.098-0.442,5.383-1.004l0.643,2.529
			c-1.246,0.563-3.414,1.245-6.507,1.245c-5.983,0-9.558-3.976-9.558-9.839s3.453-10.442,9.115-10.442
			c6.387,0,8.033,5.542,8.033,9.117c0,0.723-0.041,1.245-0.121,1.646H142.967z M153.328,171.853c0.04-2.209-0.924-5.703-4.9-5.703
			c-3.613,0-5.141,3.253-5.421,5.703H153.328z"/>
		<path fill="#FFFFFF" d="M177.865,154.944v23.494c0,1.728,0.081,3.695,0.162,5.021h-3.133l-0.161-3.374h-0.12
			c-1.045,2.169-3.374,3.815-6.547,3.815c-4.699,0-8.354-3.976-8.354-9.879c-0.04-6.466,4.016-10.402,8.715-10.402
			c3.012,0,4.98,1.406,5.863,2.932h0.081v-11.606H177.865z M174.372,171.933c0-0.441-0.04-1.044-0.161-1.486
			c-0.521-2.208-2.449-4.056-5.1-4.056c-3.655,0-5.824,3.213-5.824,7.47c0,3.936,1.969,7.189,5.744,7.189
			c2.369,0,4.537-1.607,5.18-4.218c0.121-0.481,0.161-0.964,0.161-1.525V171.933z"/>
		<path fill="#FFFFFF" d="M74.516,216.607c0,4.498-0.924,7.188-2.771,8.916c-1.928,1.727-4.659,2.329-7.109,2.329
			c-2.329,0-4.899-0.563-6.466-1.606l0.883-2.73c1.285,0.843,3.293,1.565,5.703,1.565c3.614,0,6.265-1.887,6.265-6.827v-2.128
			h-0.081c-1.044,1.807-3.172,3.253-6.185,3.253c-4.819,0-8.273-4.097-8.273-9.479c0-6.586,4.297-10.281,8.795-10.281
			c3.374,0,5.181,1.728,6.064,3.334h0.081l0.12-2.933h3.133c-0.121,1.366-0.161,2.973-0.161,5.302V216.607z M70.981,207.691
			c0-0.603-0.041-1.124-0.201-1.565c-0.643-2.089-2.33-3.775-4.94-3.775c-3.374,0-5.783,2.852-5.783,7.35
			c0,3.814,1.968,6.987,5.743,6.987c2.209,0,4.177-1.365,4.9-3.614c0.201-0.603,0.281-1.285,0.281-1.888V207.691z"/>
		<path fill="#FFFFFF" d="M93.993,214.8c0,1.688,0.081,3.334,0.281,4.659h-3.173l-0.281-2.45H90.7
			c-1.084,1.526-3.173,2.892-5.944,2.892c-3.936,0-5.944-2.771-5.944-5.582c0-4.699,4.177-7.27,11.687-7.229v-0.401
			c0-1.566-0.441-4.498-4.417-4.458c-1.847,0-3.735,0.522-5.101,1.446l-0.803-2.37c1.606-1.004,3.976-1.687,6.426-1.687
			c5.944,0,7.39,4.057,7.39,7.912V214.8z M90.579,209.539c-3.855-0.08-8.233,0.603-8.233,4.378c0,2.329,1.526,3.373,3.293,3.373
			c2.57,0,4.217-1.606,4.779-3.253c0.121-0.401,0.161-0.803,0.161-1.124V209.539z"/>
		<path fill="#FFFFFF" d="M99.695,205.282c0-2.049-0.08-3.654-0.161-5.262h3.092l0.161,3.173h0.12
			c1.084-1.847,2.892-3.574,6.145-3.574c2.611,0,4.619,1.606,5.462,3.896h0.081c0.603-1.124,1.405-1.928,2.209-2.529
			c1.165-0.884,2.409-1.366,4.257-1.366c2.611,0,6.426,1.687,6.426,8.435v11.405h-3.453v-10.964c0-3.775-1.406-5.984-4.217-5.984
			c-2.049,0-3.575,1.486-4.218,3.173c-0.161,0.522-0.281,1.125-0.281,1.768v12.008h-3.454v-11.646c0-3.093-1.365-5.302-4.056-5.302
			c-2.169,0-3.815,1.768-4.377,3.534c-0.201,0.482-0.281,1.125-0.281,1.728v11.687h-3.454V205.282z"/>
		<path fill="#FFFFFF" d="M135.156,210.383c0.08,4.779,3.092,6.747,6.666,6.747c2.531,0,4.098-0.442,5.383-1.004l0.643,2.529
			c-1.246,0.563-3.414,1.245-6.507,1.245c-5.983,0-9.558-3.976-9.558-9.839s3.453-10.442,9.115-10.442
			c6.387,0,8.033,5.542,8.033,9.117c0,0.723-0.041,1.245-0.121,1.646H135.156z M145.518,207.853c0.04-2.209-0.924-5.703-4.9-5.703
			c-3.613,0-5.141,3.253-5.421,5.703H145.518z"/>
		<path fill="#FFFFFF" d="M152.826,215.885c1.084,0.643,2.932,1.365,4.699,1.365c2.529,0,3.734-1.245,3.734-2.892
			c0-1.687-1.004-2.57-3.574-3.534c-3.535-1.285-5.182-3.173-5.182-5.502c0-3.133,2.57-5.703,6.707-5.703
			c1.969,0,3.695,0.522,4.74,1.205l-0.844,2.57c-0.764-0.481-2.169-1.165-3.977-1.165c-2.088,0-3.213,1.205-3.213,2.651
			c0,1.606,1.125,2.329,3.654,3.333c3.334,1.245,5.102,2.932,5.102,5.823c0,3.454-2.691,5.863-7.229,5.863
			c-2.128,0-4.097-0.562-5.462-1.365L152.826,215.885z"/>
	</g>
	<polygon opacity="0.5" fill="#FFFFFF" points="153.324,24.521 153.324,12.559 177.645,12.559 177.645,24.473 187.834,24.473 
		187.834,12.559 212.254,12.559 212.254,24.521 216.879,24.521 216.879,65.777 148.696,65.777 148.696,24.521 	"/>
	<polygon fill="none" stroke="#FFFFFF" stroke-width="2.6282" stroke-miterlimit="10" points="153.324,24.521 153.324,12.559 
		177.646,12.559 177.646,24.473 187.834,24.473 187.834,12.559 212.254,12.559 212.254,24.521 216.879,24.521 216.879,65.777 
		148.697,65.777 148.697,24.521 	"/>
	<polyline opacity="0.5" fill="#FFFFFF" points="212.255,65.827 216.88,65.827 216.88,107.082 148.697,107.082 148.697,65.827 
		153.324,65.827 	"/>
	<path opacity="0.55" fill="#FFFFFF" d="M177.646,65.777"/>
	<polyline fill="none" stroke="#FFFFFF" stroke-width="2.6282" stroke-miterlimit="10" points="212.255,65.827 216.88,65.827 
		216.88,107.082 148.697,107.082 148.697,65.827 212.255,65.827 	"/>
	<path fill="none" stroke="#FFFFFF" stroke-width="2.6282" stroke-miterlimit="10" d="M177.646,65.777"/>
	<polyline opacity="0.5" fill="#FFFFFF" points="212.255,106.646 216.88,106.646 216.88,147.902 148.697,147.902 148.697,106.646 
		153.324,106.646 	"/>
	<polyline fill="none" stroke="#FFFFFF" stroke-width="2.6282" stroke-miterlimit="10" points="212.255,106.646 216.88,106.646 
		216.88,147.902 148.697,147.902 148.697,106.646 212.255,106.646 	"/>
	<polygon fill="none" stroke="#FFFFFF" stroke-width="2.6282" stroke-miterlimit="10" points="85.142,65.826 85.142,53.863 
		109.463,53.863 109.463,65.777 119.652,65.777 119.652,53.863 144.07,53.863 144.07,65.826 148.695,65.826 148.695,107.082 
		80.515,107.082 80.515,65.826 	"/>
	<polyline opacity="0.5" fill="#FFFFFF" points="144.071,107.081 148.696,107.081 148.696,148.338 80.515,148.338 80.515,107.081 
		85.142,107.081 	"/>
	<polyline fill="none" stroke="#FFFFFF" stroke-width="2.6282" stroke-miterlimit="10" points="144.071,107.081 148.696,107.081 
		148.696,148.338 80.515,148.338 80.515,107.081 144.071,107.081 	"/>
	<polygon opacity="0.5" fill="#FFFFFF" points="85.143,65.826 85.143,53.863 109.463,53.863 109.463,65.777 119.652,65.777 
		119.652,53.863 144.071,53.863 144.071,65.826 148.696,65.826 148.696,107.082 80.515,107.082 80.515,65.826 	"/>
	<polygon fill="none" stroke="#FFFFFF" stroke-width="2.6282" stroke-miterlimit="10" points="16.96,107.507 16.96,95.545 
		41.281,95.545 41.281,107.459 51.47,107.459 51.47,95.545 75.888,95.545 75.888,107.507 80.514,107.507 80.514,148.764 
		12.333,148.764 12.333,107.507 	"/>
	<polygon opacity="0.5" fill="#FFFFFF" points="16.96,107.507 16.96,95.545 41.28,95.545 41.28,107.459 51.47,107.459 51.47,95.545 
		75.889,95.545 75.889,107.507 80.515,107.507 80.515,148.764 12.333,148.764 12.333,107.507 	"/>
</g>
</svg>
