<?xml version="1.0" encoding="utf-8"?>
<!-- Generator: Adobe Illustrator 15.1.0, SVG Export Plug-In . SVG Version: 6.00 Build 0)  -->
<!DOCTYPE svg PUBLIC "-//W3C//DTD SVG 1.1//EN" "http://www.w3.org/Graphics/SVG/1.1/DTD/svg11.dtd" [
	<!ENTITY ns_extend "http://ns.adobe.com/Extensibility/1.0/">
	<!ENTITY ns_ai "http://ns.adobe.com/AdobeIllustrator/10.0/">
	<!ENTITY ns_graphs "http://ns.adobe.com/Graphs/1.0/">
	<!ENTITY ns_vars "http://ns.adobe.com/Variables/1.0/">
	<!ENTITY ns_imrep "http://ns.adobe.com/ImageReplacement/1.0/">
	<!ENTITY ns_sfw "http://ns.adobe.com/SaveForWeb/1.0/">
	<!ENTITY ns_custom "http://ns.adobe.com/GenericCustomNamespace/1.0/">
	<!ENTITY ns_adobe_xpath "http://ns.adobe.com/XPath/1.0/">
]>
<svg version="1.1" xmlns:x="&ns_extend;" xmlns:i="&ns_ai;" xmlns:graph="&ns_graphs;"
	 xmlns="http://www.w3.org/2000/svg" xmlns:xlink="http://www.w3.org/1999/xlink" x="0px" y="0px" width="231px" height="229px"
	 viewBox="0 0 231 229" enable-background="new 0 0 231 229" xml:space="preserve">
<metadata>
	<sfw  xmlns="&ns_sfw;">
		<slices></slices>
		<sliceSourceBounds  height="16383" width="16383" y="-8306" x="-8076" bottomLeftOrigin="true"></sliceSourceBounds>
	</sfw>
</metadata>
<g id="compass_icon">
</g>
<g id="Layer_3">
</g>
<g id="Layer_4">
	<polygon fill="none" stroke="#FFFFFF" stroke-width="6" stroke-miterlimit="10" points="47.735,80.895 47.735,53.585 
		103.257,53.585 103.257,80.783 126.521,80.783 126.521,53.585 182.267,53.585 182.267,80.895 192.829,80.895 192.829,175.082 
		37.171,175.082 37.171,80.895 	"/>
	<path fill="none" stroke="#FFFFFF" stroke-width="6.0816" stroke-miterlimit="10" d="M47.337,127.574"/>
	
		<line fill="#FFFFFF" stroke="#FFFFFF" stroke-width="6" stroke-miterlimit="10" x1="46.168" y1="164.053" x2="109.5" y2="164.053"/>
	
		<line fill="#FFFFFF" stroke="#FFFFFF" stroke-width="6" stroke-miterlimit="10" x1="64.834" y1="149.553" x2="183.836" y2="149.553"/>
	
		<line fill="#FFFFFF" stroke="#FFFFFF" stroke-width="6" stroke-miterlimit="10" x1="142.54" y1="135.053" x2="183.836" y2="135.053"/>
	
		<line fill="#FFFFFF" stroke="#FFFFFF" stroke-width="6" stroke-miterlimit="10" x1="104.501" y1="120.553" x2="183.836" y2="120.553"/>
	
		<line fill="#FFFFFF" stroke="#FFFFFF" stroke-width="6" stroke-miterlimit="10" x1="46.168" y1="106.053" x2="152.167" y2="106.053"/>
	
		<line fill="#FFFFFF" stroke="#FFFFFF" stroke-width="6" stroke-miterlimit="10" x1="165.25" y1="63.886" x2="175.833" y2="63.886"/>
	
		<line fill="#FFFFFF" stroke="#FFFFFF" stroke-width="6" stroke-miterlimit="10" x1="86.167" y1="91.553" x2="183.835" y2="91.553"/>
	
		<line fill="#FFFFFF" stroke="#FFFFFF" stroke-width="6" stroke-miterlimit="10" x1="149.995" y1="77.053" x2="175.833" y2="77.053"/>
	<line fill="#FFFFFF" stroke="#FFFFFF" stroke-width="6" stroke-miterlimit="10" x1="56.5" y1="77.053" x2="94.167" y2="77.053"/>
	<line fill="#FFFFFF" stroke="#FFFFFF" stroke-width="6" stroke-miterlimit="10" x1="77.296" y1="63.886" x2="94.167" y2="63.886"/>
	<line fill="#FFFFFF" stroke="#FFFFFF" stroke-width="6" stroke-miterlimit="10" x1="46.168" y1="91.553" x2="80.167" y2="91.553"/>
	
		<line fill="#FFFFFF" stroke="#FFFFFF" stroke-width="6" stroke-miterlimit="10" x1="158.167" y1="106.053" x2="183.836" y2="106.053"/>
	<line fill="#FFFFFF" stroke="#FFFFFF" stroke-width="6" stroke-miterlimit="10" x1="46.168" y1="120.553" x2="98.5" y2="120.553"/>
	
		<line fill="#FFFFFF" stroke="#FFFFFF" stroke-width="6" stroke-miterlimit="10" x1="46.168" y1="135.053" x2="136.622" y2="135.053"/>
	
		<line fill="#FFFFFF" stroke="#FFFFFF" stroke-width="6" stroke-miterlimit="10" x1="46.168" y1="149.553" x2="58.833" y2="149.553"/>
	
		<line fill="#FFFFFF" stroke="#FFFFFF" stroke-width="6" stroke-miterlimit="10" x1="115.5" y1="164.053" x2="183.836" y2="164.053"/>
	<line fill="#FFFFFF" stroke="#FFFFFF" stroke-width="6" stroke-miterlimit="10" x1="56.833" y1="63.886" x2="71.296" y2="63.886"/>
	
		<line fill="#FFFFFF" stroke="#FFFFFF" stroke-width="6" stroke-miterlimit="10" x1="135.229" y1="63.886" x2="159.25" y2="63.886"/>
	
		<line fill="#FFFFFF" stroke="#FFFFFF" stroke-width="6" stroke-miterlimit="10" x1="135.167" y1="77.053" x2="143.995" y2="77.053"/>
</g>
</svg>
