<?xml version="1.0" encoding="utf-8"?>
<!-- Generator: Adobe Illustrator 15.1.0, SVG Export Plug-In . SVG Version: 6.00 Build 0)  -->
<!DOCTYPE svg PUBLIC "-//W3C//DTD SVG 1.1//EN" "http://www.w3.org/Graphics/SVG/1.1/DTD/svg11.dtd" [
	<!ENTITY ns_extend "http://ns.adobe.com/Extensibility/1.0/">
	<!ENTITY ns_ai "http://ns.adobe.com/AdobeIllustrator/10.0/">
	<!ENTITY ns_graphs "http://ns.adobe.com/Graphs/1.0/">
	<!ENTITY ns_vars "http://ns.adobe.com/Variables/1.0/">
	<!ENTITY ns_imrep "http://ns.adobe.com/ImageReplacement/1.0/">
	<!ENTITY ns_sfw "http://ns.adobe.com/SaveForWeb/1.0/">
	<!ENTITY ns_custom "http://ns.adobe.com/GenericCustomNamespace/1.0/">
	<!ENTITY ns_adobe_xpath "http://ns.adobe.com/XPath/1.0/">
]>
<svg version="1.1" xmlns:x="&ns_extend;" xmlns:i="&ns_ai;" xmlns:graph="&ns_graphs;"
	 xmlns="http://www.w3.org/2000/svg" xmlns:xlink="http://www.w3.org/1999/xlink" x="0px" y="0px" width="231px" height="229px"
	 viewBox="0 0 231 229" enable-background="new 0 0 231 229" xml:space="preserve">
<metadata>
	<sfw  xmlns="&ns_sfw;">
		<slices></slices>
		<sliceSourceBounds  x="-8076" y="-8306" width="16383" height="16383" bottomLeftOrigin="true"></sliceSourceBounds>
	</sfw>
</metadata>
<g id="Layer_8" display="none">
	<g display="inline">
		<path fill="#FFFFFF" d="M32.165,174.951c1.687-0.281,3.896-0.521,6.707-0.521c3.454,0,5.984,0.803,7.59,2.248
			c1.446,1.285,2.37,3.254,2.37,5.664c0,2.449-0.723,4.377-2.088,5.783c-1.888,1.967-4.86,2.971-8.273,2.971
			c-1.044,0-2.008-0.039-2.811-0.24v10.844h-3.494V174.951z M35.659,188.004c0.763,0.201,1.727,0.281,2.892,0.281
			c4.217,0,6.787-2.088,6.787-5.744c0-3.613-2.57-5.34-6.386-5.34c-1.526,0-2.69,0.119-3.293,0.281V188.004z"/>
		<path fill="#FFFFFF" d="M52.767,188.324c0-2.289-0.04-4.256-0.161-6.064h3.093l0.16,3.855h0.121
			c0.884-2.609,3.052-4.256,5.422-4.256c0.361,0,0.643,0.039,0.964,0.08v3.334c-0.361-0.08-0.723-0.08-1.205-0.08
			c-2.49,0-4.257,1.846-4.739,4.498c-0.08,0.48-0.121,1.084-0.121,1.646v10.361h-3.534V188.324z"/>
		<path fill="#FFFFFF" d="M83.089,191.818c0,7.189-5.021,10.322-9.679,10.322c-5.221,0-9.317-3.855-9.317-10
			c0-6.467,4.297-10.281,9.639-10.281C79.313,181.859,83.089,185.916,83.089,191.818z M67.707,192.02
			c0,4.258,2.41,7.471,5.863,7.471c3.374,0,5.904-3.174,5.904-7.551c0-3.293-1.646-7.43-5.823-7.43
			C69.514,184.51,67.707,188.365,67.707,192.02z"/>
		<path fill="#FFFFFF" d="M82.767,207.402c1.646-0.121,3.012-0.563,3.855-1.527c0.964-1.084,1.365-2.609,1.365-7.27V182.26h3.534
			v17.713c0,3.773-0.603,6.225-2.329,7.99c-1.566,1.566-4.137,2.209-6.024,2.209L82.767,207.402z M91.923,176.799
			c0,1.164-0.803,2.168-2.249,2.168c-1.285,0-2.128-1.004-2.128-2.168c0-1.205,0.884-2.209,2.209-2.209
			S91.923,175.594,91.923,176.799z"/>
		<path fill="#FFFFFF" d="M99.272,192.623c0.08,4.779,3.092,6.746,6.667,6.746c2.53,0,4.096-0.441,5.381-1.004l0.643,2.529
			c-1.245,0.563-3.414,1.246-6.506,1.246c-5.984,0-9.559-3.977-9.559-9.84s3.454-10.441,9.117-10.441
			c6.386,0,8.032,5.541,8.032,9.117c0,0.723-0.04,1.244-0.121,1.646H99.272z M109.634,190.092c0.04-2.209-0.924-5.703-4.899-5.703
			c-3.615,0-5.141,3.254-5.422,5.703H109.634z"/>
		<path fill="#FFFFFF" d="M131.28,201.016c-0.924,0.441-2.972,1.125-5.583,1.125c-5.863,0-9.679-3.977-9.679-9.92
			c0-5.984,4.097-10.361,10.442-10.361c2.088,0,3.936,0.521,4.899,1.043l-0.804,2.691c-0.843-0.441-2.168-0.924-4.096-0.924
			c-4.458,0-6.867,3.334-6.867,7.35c0,4.498,2.891,7.27,6.746,7.27c2.008,0,3.334-0.482,4.338-0.924L131.28,201.016z"/>
		<path fill="#FFFFFF" d="M140.194,177.602v4.658h5.061v2.691h-5.061v10.482c0,2.41,0.683,3.775,2.651,3.775
			c0.964,0,1.525-0.08,2.048-0.242l0.161,2.691c-0.684,0.242-1.768,0.482-3.133,0.482c-1.646,0-2.973-0.563-3.815-1.486
			c-0.964-1.084-1.365-2.811-1.365-5.1v-10.604h-3.013v-2.691h3.013v-3.613L140.194,177.602z"/>
		<path fill="#FFFFFF" d="M153.165,176.799c0,1.205-0.843,2.168-2.249,2.168c-1.285,0-2.128-0.963-2.128-2.168
			s0.884-2.209,2.209-2.209C152.282,174.59,153.165,175.555,153.165,176.799z M149.229,201.699V182.26h3.534v19.439H149.229z"/>
		<path fill="#FFFFFF" d="M176.218,191.818c0,7.189-5.021,10.322-9.679,10.322c-5.221,0-9.317-3.855-9.317-10
			c0-6.467,4.297-10.281,9.639-10.281C172.442,181.859,176.218,185.916,176.218,191.818z M160.836,192.02
			c0,4.258,2.41,7.471,5.863,7.471c3.374,0,5.904-3.174,5.904-7.551c0-3.293-1.646-7.43-5.824-7.43
			C162.644,184.51,160.836,188.365,160.836,192.02z"/>
		<path fill="#FFFFFF" d="M180.675,187.521c0-2.049-0.04-3.654-0.16-5.262h3.132l0.201,3.213h0.08
			c0.964-1.807,3.213-3.613,6.426-3.613c2.691,0,6.868,1.605,6.868,8.273v11.566h-3.534v-11.205c0-3.133-1.165-5.744-4.498-5.744
			c-2.289,0-4.097,1.646-4.739,3.615c-0.161,0.441-0.241,1.045-0.241,1.646v11.688h-3.534V187.521z"/>
	</g>
	<polygon display="inline" fill="#FFFFFF" points="89.772,151.682 50.159,151.682 50.159,22 179.84,22 179.84,151.682 
		140.229,151.682 140.229,121.15 136.804,121.15 136.804,112.297 118.734,112.297 118.734,121.113 111.193,121.113 111.193,112.297 
		93.197,112.297 93.197,121.15 89.772,121.15 	"/>
</g>
<g id="Layer_4" display="none">
	
		<circle display="inline" fill="none" stroke="#FFFFFF" stroke-width="7.3285" stroke-linecap="round" stroke-linejoin="round" cx="193.373" cy="110.179" r="17.748"/>
	
		<circle display="inline" fill="none" stroke="#FFFFFF" stroke-width="7.3285" stroke-linecap="round" stroke-linejoin="round" cx="141.407" cy="110.179" r="17.747"/>
	
		<circle display="inline" fill="none" stroke="#FFFFFF" stroke-width="7.3285" stroke-linecap="round" stroke-linejoin="round" cx="89.587" cy="110.179" r="17.75"/>
	<path display="inline" fill="none" stroke="#FFFFFF" stroke-width="7.3285" stroke-linecap="round" stroke-linejoin="round" d="
		M55.374,110.179c0,9.801-7.941,17.747-17.744,17.747c-9.803,0-17.75-7.946-17.75-17.747s7.947-17.748,17.75-17.748
		C47.433,92.431,55.374,100.378,55.374,110.179z"/>
	
		<circle display="inline" fill="none" stroke="#FFFFFF" stroke-width="7.3285" stroke-linecap="round" stroke-linejoin="round" cx="193.373" cy="58.948" r="17.748"/>
	<path display="inline" fill="none" stroke="#FFFFFF" stroke-width="7.3285" stroke-linecap="round" stroke-linejoin="round" d="
		M159.154,58.948c0,9.801-7.943,17.746-17.744,17.746c-9.802,0-17.75-7.945-17.75-17.746c0-9.803,7.948-17.749,17.75-17.749
		C151.211,41.199,159.154,49.146,159.154,58.948z"/>
	
		<circle display="inline" fill="none" stroke="#FFFFFF" stroke-width="7.3285" stroke-linecap="round" stroke-linejoin="round" cx="89.587" cy="58.948" r="17.75"/>
	<path display="inline" fill="none" stroke="#FFFFFF" stroke-width="7.3285" stroke-linecap="round" stroke-linejoin="round" d="
		M55.374,58.948c0,9.801-7.941,17.746-17.744,17.746c-9.803,0-17.75-7.945-17.75-17.746c0-9.803,7.947-17.749,17.75-17.749
		C47.433,41.199,55.374,49.146,55.374,58.948z"/>
	<g display="inline">
		<path fill="#FFFFFF" d="M80.003,193.301l-2.811,8.515h-3.615l9.237-27.068h4.177l9.237,27.068h-3.735l-2.892-8.515H80.003z
			 M88.919,190.57l-2.691-7.791c-0.603-1.768-1.004-3.374-1.406-4.939h-0.08c-0.402,1.565-0.803,3.252-1.366,4.898l-2.65,7.832
			H88.919z"/>
		<path fill="#FFFFFF" d="M99.963,188.723c0-2.49-0.08-4.498-0.161-6.346h3.133l0.201,3.334h0.08
			c1.406-2.369,3.735-3.735,6.908-3.735c4.739,0,8.272,3.976,8.272,9.84c0,6.987-4.297,10.441-8.875,10.441
			c-2.57,0-4.819-1.124-5.984-3.052h-0.08v10.563h-3.494V188.723z M103.457,193.904c0,0.521,0.04,1.004,0.161,1.445
			c0.643,2.449,2.771,4.137,5.301,4.137c3.735,0,5.904-3.053,5.904-7.51c0-3.855-2.048-7.189-5.783-7.189
			c-2.41,0-4.699,1.687-5.341,4.338c-0.121,0.441-0.241,0.963-0.241,1.405V193.904z"/>
		<path fill="#FFFFFF" d="M122.813,188.723c0-2.49-0.08-4.498-0.161-6.346h3.133l0.201,3.334h0.08
			c1.406-2.369,3.735-3.735,6.908-3.735c4.738,0,8.273,3.976,8.273,9.84c0,6.987-4.298,10.441-8.876,10.441
			c-2.57,0-4.819-1.124-5.984-3.052h-0.08v10.563h-3.494V188.723z M126.308,193.904c0,0.521,0.04,1.004,0.161,1.445
			c0.643,2.449,2.771,4.137,5.301,4.137c3.734,0,5.904-3.053,5.904-7.51c0-3.855-2.049-7.189-5.783-7.189
			c-2.41,0-4.699,1.687-5.342,4.338c-0.121,0.441-0.241,0.963-0.241,1.405V193.904z"/>
		<path fill="#FFFFFF" d="M145.182,198.241c1.085,0.643,2.933,1.365,4.699,1.365c2.53,0,3.735-1.245,3.735-2.892
			c0-1.687-1.004-2.57-3.574-3.534c-3.534-1.285-5.181-3.173-5.181-5.502c0-3.133,2.57-5.703,6.707-5.703
			c1.967,0,3.694,0.522,4.738,1.205l-0.844,2.57c-0.763-0.481-2.168-1.165-3.976-1.165c-2.088,0-3.213,1.205-3.213,2.65
			c0,1.607,1.125,2.33,3.655,3.334c3.333,1.245,5.1,2.932,5.1,5.823c0,3.454-2.69,5.863-7.229,5.863
			c-2.129,0-4.097-0.562-5.462-1.365L145.182,198.241z"/>
	</g>
</g>
<g id="compass_icon">
</g>
<g id="Layer_5" display="none">
	<g display="inline">
		<path fill="#FFFFFF" d="M96.739,189.811c-0.201-3.775-0.442-8.354-0.442-11.686h-0.08c-0.964,3.131-2.048,6.545-3.414,10.281
			l-4.779,13.131h-2.651l-4.417-12.891c-1.285-3.855-2.33-7.309-3.093-10.521h-0.08c-0.08,3.373-0.281,7.871-0.522,11.967
			l-0.723,11.607h-3.333l1.887-27.068h4.458l4.619,13.092c1.125,3.334,2.008,6.305,2.731,9.117h0.08
			c0.723-2.732,1.687-5.703,2.892-9.117l4.819-13.092h4.458l1.687,27.068h-3.454L96.739,189.811z"/>
		<path fill="#FFFFFF" d="M119.99,197.039c0,1.688,0.081,3.334,0.281,4.66H117.1l-0.281-2.451h-0.121
			c-1.084,1.527-3.172,2.893-5.943,2.893c-3.936,0-5.944-2.771-5.944-5.582c0-4.699,4.177-7.27,11.687-7.23v-0.4
			c0-1.566-0.442-4.498-4.418-4.459c-1.848,0-3.735,0.523-5.101,1.447l-0.803-2.371c1.606-1.004,3.976-1.686,6.426-1.686
			c5.944,0,7.389,4.057,7.389,7.912V197.039z M116.577,191.779c-3.855-0.08-8.233,0.602-8.233,4.377c0,2.33,1.526,3.373,3.293,3.373
			c2.57,0,4.217-1.605,4.779-3.252c0.121-0.402,0.161-0.803,0.161-1.125V191.779z"/>
		<path fill="#FFFFFF" d="M129.789,177.602v4.658h5.061v2.691h-5.061v10.482c0,2.41,0.684,3.775,2.65,3.775
			c0.965,0,1.527-0.08,2.049-0.242l0.16,2.691c-0.682,0.242-1.767,0.482-3.132,0.482c-1.647,0-2.972-0.563-3.815-1.486
			c-0.964-1.084-1.365-2.811-1.365-5.1v-10.604h-3.013v-2.691h3.013v-3.613L129.789,177.602z"/>
		<path fill="#FFFFFF" d="M138.825,173.184h3.534v12.17h0.08c0.563-1.004,1.446-1.928,2.53-2.531
			c1.044-0.602,2.29-0.963,3.614-0.963c2.611,0,6.787,1.605,6.787,8.273v11.566h-3.533v-11.166c0-3.133-1.165-5.742-4.498-5.742
			c-2.289,0-4.057,1.605-4.739,3.494c-0.201,0.521-0.241,1.043-0.241,1.686v11.729h-3.534V173.184z"/>
	</g>
	<g display="inline">
		<path fill="#FFFFFF" d="M53.108,80.595h-0.165l-9.282,5.01l-1.396-5.503l11.664-6.242h6.16v53.389h-6.981V80.595z"/>
		<path fill="#FFFFFF" d="M96.964,127.249v-4.436l5.667-5.503c13.635-12.978,19.877-19.877,19.877-27.927
			c0-5.421-2.546-10.432-10.514-10.432c-4.846,0-8.871,2.464-11.335,4.518l-2.3-5.092c3.614-3.039,8.953-5.421,15.031-5.421
			c11.499,0,16.346,7.885,16.346,15.524c0,9.856-7.146,17.824-18.399,28.666l-4.189,3.942v0.164h23.902v5.996H96.964z"/>
		<path fill="#FFFFFF" d="M158.232,119.035c2.054,1.232,6.735,3.286,11.828,3.286c9.199,0,12.156-5.832,12.074-10.35
			c-0.082-7.475-6.817-10.678-13.799-10.678h-4.025v-5.421h4.025c5.257,0,11.91-2.71,11.91-9.035c0-4.271-2.711-8.049-9.364-8.049
			c-4.271,0-8.378,1.889-10.678,3.532l-1.972-5.257c2.875-2.053,8.296-4.107,14.046-4.107c10.514,0,15.277,6.243,15.277,12.731
			c0,5.585-3.367,10.268-9.856,12.649v0.164c6.571,1.232,11.828,6.161,11.91,13.635c0,8.542-6.735,16.016-19.467,16.016
			c-5.996,0-11.253-1.889-13.881-3.613L158.232,119.035z"/>
	</g>
</g>
<g id="Layer_6">
	<g>
		<path fill="none" stroke="#FFFFFF" stroke-width="4.0392" stroke-linecap="round" stroke-linejoin="round" d="M162.197,126.485
			c12.592-12.594,19.666-29.674,19.666-47.485"/>
		<path fill="none" stroke="#FFFFFF" stroke-width="4.0392" stroke-linecap="round" stroke-linejoin="round" d="M114.714,146.153
			c17.808,0,34.89-7.076,47.483-19.668"/>
		<path fill="none" stroke="#FFFFFF" stroke-width="4.0392" stroke-linecap="round" stroke-linejoin="round" d="M67.23,126.485
			c12.593,12.592,29.672,19.668,47.483,19.668"/>
		<path fill="none" stroke="#FFFFFF" stroke-width="4.0392" stroke-linecap="round" stroke-linejoin="round" d="M47.562,79
			c0,17.811,7.075,34.892,19.668,47.485"/>
		<path fill="none" stroke="#FFFFFF" stroke-width="4.0392" stroke-linecap="round" stroke-linejoin="round" d="M67.23,31.52
			C54.637,44.112,47.562,61.191,47.562,79"/>
		<path fill="none" stroke="#FFFFFF" stroke-width="4.0392" stroke-linecap="round" stroke-linejoin="round" d="M114.714,11.851
			c-17.811,0-34.891,7.075-47.483,19.668"/>
		<path fill="none" stroke="#FFFFFF" stroke-width="4.0392" stroke-linecap="round" stroke-linejoin="round" d="M162.197,31.52
			c-12.594-12.594-29.676-19.668-47.483-19.668"/>
		<path fill="none" stroke="#FFFFFF" stroke-width="4.0392" stroke-linecap="round" stroke-linejoin="round" d="M181.863,79
			c0-17.809-7.074-34.888-19.666-47.48"/>
		<path fill="none" stroke="#FFFFFF" stroke-width="4.0392" stroke-linecap="round" stroke-linejoin="round" d="M138.454,102.743
			c6.297-6.294,9.833-14.836,9.833-23.743"/>
		<path fill="none" stroke="#FFFFFF" stroke-width="4.0392" stroke-linecap="round" stroke-linejoin="round" d="M114.714,112.577
			c8.903,0,17.443-3.537,23.74-9.834"/>
		<path fill="none" stroke="#FFFFFF" stroke-width="4.0392" stroke-linecap="round" stroke-linejoin="round" d="M90.971,102.743
			c6.297,6.297,14.836,9.834,23.743,9.834"/>
		<path fill="none" stroke="#FFFFFF" stroke-width="4.0392" stroke-linecap="round" stroke-linejoin="round" d="M81.138,79
			c0,8.907,3.537,17.448,9.833,23.743"/>
		<path fill="none" stroke="#FFFFFF" stroke-width="4.0392" stroke-linecap="round" stroke-linejoin="round" d="M90.971,55.26
			c-6.296,6.297-9.833,14.838-9.833,23.74"/>
		<path fill="none" stroke="#FFFFFF" stroke-width="4.0392" stroke-linecap="round" stroke-linejoin="round" d="M114.714,45.426
			c-8.906,0-17.445,3.538-23.743,9.834"/>
		<path fill="none" stroke="#FFFFFF" stroke-width="4.0392" stroke-linecap="round" stroke-linejoin="round" d="M138.454,55.26
			c-6.297-6.297-14.837-9.834-23.74-9.834"/>
		<path fill="none" stroke="#FFFFFF" stroke-width="4.0392" stroke-linecap="round" stroke-linejoin="round" d="M148.287,79
			c0-8.902-3.536-17.443-9.833-23.74"/>
		
			<line fill="none" stroke="#FFFFFF" stroke-width="4.0392" stroke-linecap="round" stroke-linejoin="round" x1="114.714" y1="45.426" x2="114.714" y2="11.851"/>
		
			<line fill="none" stroke="#FFFFFF" stroke-width="4.0392" stroke-linecap="round" stroke-linejoin="round" x1="90.971" y1="55.26" x2="67.23" y2="31.52"/>
		
			<line fill="none" stroke="#FFFFFF" stroke-width="4.0392" stroke-linecap="round" stroke-linejoin="round" x1="81.138" y1="79" x2="47.562" y2="79"/>
		
			<line fill="none" stroke="#FFFFFF" stroke-width="4.0392" stroke-linecap="round" stroke-linejoin="round" x1="90.971" y1="102.743" x2="67.23" y2="126.485"/>
		
			<line fill="none" stroke="#FFFFFF" stroke-width="4.0392" stroke-linecap="round" stroke-linejoin="round" x1="114.714" y1="112.577" x2="114.714" y2="146.153"/>
		
			<line fill="none" stroke="#FFFFFF" stroke-width="4.0392" stroke-linecap="round" stroke-linejoin="round" x1="138.454" y1="102.743" x2="162.197" y2="126.485"/>
		
			<line fill="none" stroke="#FFFFFF" stroke-width="4.0392" stroke-linecap="round" stroke-linejoin="round" x1="148.287" y1="79" x2="181.863" y2="79"/>
		
			<line fill="none" stroke="#FFFFFF" stroke-width="4.0392" stroke-linecap="round" stroke-linejoin="round" x1="138.454" y1="55.26" x2="162.197" y2="31.52"/>
	</g>
	<g>
		<path fill="#FFFFFF" d="M87.607,183.021c-1.245,0.643-3.855,1.285-7.148,1.285c-7.631,0-13.333-4.819-13.333-13.735
			c0-8.514,5.743-14.217,14.137-14.217c3.333,0,5.502,0.723,6.426,1.205l-0.883,2.852c-1.285-0.643-3.173-1.125-5.422-1.125
			c-6.346,0-10.563,4.057-10.563,11.165c0,6.667,3.815,10.884,10.361,10.884c2.169,0,4.338-0.441,5.743-1.125L87.607,183.021z"/>
		<path fill="#FFFFFF" d="M109.053,173.984c0,7.189-5.02,10.321-9.679,10.321c-5.221,0-9.317-3.854-9.317-10
			c0-6.466,4.297-10.281,9.639-10.281C105.277,164.024,109.053,168.081,109.053,173.984z M93.671,174.186
			c0,4.257,2.41,7.47,5.864,7.47c3.373,0,5.903-3.173,5.903-7.55c0-3.293-1.646-7.43-5.823-7.43
			C95.478,166.676,93.671,170.531,93.671,174.186z"/>
		<path fill="#FFFFFF" d="M113.509,155.35h3.534v28.515h-3.534V155.35z"/>
		<path fill="#FFFFFF" d="M140.578,173.984c0,7.189-5.021,10.321-9.68,10.321c-5.221,0-9.316-3.854-9.316-10
			c0-6.466,4.297-10.281,9.639-10.281C136.803,164.024,140.578,168.081,140.578,173.984z M125.195,174.186
			c0,4.257,2.41,7.47,5.863,7.47c3.375,0,5.904-3.173,5.904-7.55c0-3.293-1.646-7.43-5.823-7.43
			C127.003,166.676,125.195,170.531,125.195,174.186z"/>
		<path fill="#FFFFFF" d="M145.035,170.49c0-2.289-0.041-4.257-0.161-6.064h3.093l0.16,3.855h0.121
			c0.883-2.609,3.052-4.257,5.422-4.257c0.361,0,0.643,0.04,0.963,0.081v3.333c-0.361-0.081-0.723-0.081-1.205-0.081
			c-2.489,0-4.256,1.848-4.738,4.498c-0.08,0.482-0.121,1.085-0.121,1.647v10.361h-3.533V170.49z"/>
		<path fill="#FFFFFF" d="M69.958,204.977c-0.201-3.775-0.442-8.354-0.442-11.687h-0.08c-0.964,3.132-2.048,6.546-3.414,10.281
			l-4.779,13.133h-2.651l-4.417-12.893c-1.285-3.855-2.33-7.309-3.093-10.521h-0.08c-0.08,3.373-0.281,7.871-0.522,11.968
			l-0.723,11.606h-3.333l1.887-27.068h4.458l4.619,13.092c1.125,3.334,2.008,6.306,2.731,9.117h0.08
			c0.723-2.731,1.687-5.703,2.892-9.117l4.819-13.092h4.458l1.687,27.068H70.6L69.958,204.977z"/>
		<path fill="#FFFFFF" d="M81.522,207.788c0.081,4.779,3.093,6.747,6.667,6.747c2.53,0,4.097-0.442,5.382-1.004l0.643,2.53
			c-1.245,0.562-3.414,1.244-6.506,1.244c-5.984,0-9.558-3.976-9.558-9.839c0-5.864,3.454-10.442,9.116-10.442
			c6.386,0,8.032,5.543,8.032,9.117c0,0.723-0.04,1.244-0.12,1.646H81.522z M91.884,205.258c0.04-2.209-0.924-5.703-4.9-5.703
			c-3.614,0-5.141,3.253-5.421,5.703H91.884z"/>
		<path fill="#FFFFFF" d="M99.674,202.688c0-2.048-0.08-3.655-0.161-5.261h3.093l0.16,3.172h0.121
			c1.084-1.847,2.892-3.574,6.145-3.574c2.61,0,4.618,1.606,5.462,3.896h0.08c0.603-1.124,1.406-1.928,2.209-2.53
			c1.164-0.883,2.409-1.365,4.256-1.365c2.611,0,6.426,1.688,6.426,8.434v11.406h-3.453V205.9c0-3.775-1.406-5.984-4.217-5.984
			c-2.049,0-3.574,1.486-4.217,3.173c-0.161,0.522-0.281,1.125-0.281,1.768v12.008h-3.454v-11.646c0-3.093-1.366-5.302-4.056-5.302
			c-2.169,0-3.815,1.768-4.378,3.534c-0.201,0.482-0.281,1.125-0.281,1.728v11.687h-3.454V202.688z"/>
		<path fill="#FFFFFF" d="M150.758,206.984c0,7.189-5.02,10.321-9.678,10.321c-5.222,0-9.318-3.855-9.318-10
			c0-6.466,4.297-10.281,9.639-10.281C146.982,197.024,150.758,201.081,150.758,206.984z M135.377,207.186
			c0,4.257,2.409,7.47,5.863,7.47c3.373,0,5.903-3.173,5.903-7.55c0-3.294-1.646-7.431-5.823-7.431
			C137.184,199.675,135.377,203.53,135.377,207.186z"/>
		<path fill="#FFFFFF" d="M155.215,203.49c0-2.289-0.039-4.257-0.16-6.063h3.092l0.162,3.855h0.119
			c0.885-2.611,3.053-4.258,5.422-4.258c0.361,0,0.643,0.04,0.965,0.08v3.334c-0.361-0.08-0.723-0.08-1.205-0.08
			c-2.49,0-4.258,1.847-4.739,4.498c-0.081,0.481-0.12,1.084-0.12,1.646v10.361h-3.535V203.49z"/>
		<path fill="#FFFFFF" d="M170.637,197.427l4.217,11.485c0.482,1.285,0.963,2.812,1.285,3.977h0.08
			c0.361-1.165,0.764-2.651,1.245-4.057l3.855-11.405h3.735l-5.302,13.855c-2.53,6.666-4.257,10.04-6.667,12.168
			c-1.768,1.486-3.453,2.089-4.338,2.25l-0.883-2.933c0.883-0.28,2.049-0.843,3.092-1.727c0.965-0.763,2.129-2.129,2.973-3.936
			c0.16-0.361,0.281-0.643,0.281-0.844c0-0.2-0.08-0.481-0.281-0.924l-7.148-17.911H170.637z"/>
	</g>
	<path fill="#FFFFFF" d="M125.053,86.332c-0.182-0.06,9.639,2.199,10.814-5.066c1.166-7.202-1.621-9.741-4.586-11.753
		c0,0-2.82-3.991-7.328-2.968"/>
	<path fill="#FFFFFF" d="M114.447,63.835c0,0-4.889-2.484-10.396,1.417c0,0-4.542,0.198-5.547,5.663"/>
	<path fill="#FFFFFF" d="M98.504,70.312c0,0-8.604,4.715-2.634,14.776"/>
	<path fill="#FFFFFF" d="M96.448,85.088c1.271,1.748,2.884,1.82,5.088,2.115c0.734,0.099,1.479,0.166,2.208,0.233"/>
	<path fill="#FFFFFF" d="M114.447,63.835c0,0,6.242-1.315,10.373,2.709"/>
	<path fill="#FFFFFF" d="M125.656,85.729c0,0-1.884,3.239-6.979,3.089c-2.328-0.07-3.449-0.591-4.632-1.859"/>
	<g>
		<path fill="#FFFFFF" d="M104.843,88.383c0.132,0.189,0.257,0.455,0.208,0.73c-0.041,0.268-0.159,0.49-0.275,0.702
			c-0.241,0.42-0.511,0.808-0.775,1.199c-0.52,0.788-1.118,1.533-1.428,2.32c-0.154,0.39-0.207,0.795-0.09,1.056
			c0.098,0.253,0.409,0.452,0.749,0.53c0.077,0.01,0.138-0.011,0.252-0.086c0.114-0.084,0.249-0.229,0.379-0.392
			c0.261-0.331,0.522-0.727,0.798-1.119c0.555-0.785,1.188-1.589,1.984-2.242c0.402-0.318,0.826-0.623,1.291-0.848
			c0.488-0.244,0.885-0.381,1.292-0.569c1.64-0.732,3.214-1.661,4.761-2.754l0.006-0.003c0.034-0.024,0.082-0.016,0.105,0.018
			c0.018,0.025,0.019,0.058,0.004,0.083c-0.992,1.678-2.506,2.994-4.202,3.979c-0.921,0.509-1.638,0.775-2.341,1.292
			c-0.702,0.484-1.334,1.093-1.918,1.799c-0.301,0.35-0.58,0.723-0.934,1.103c-0.179,0.188-0.374,0.386-0.654,0.558
			c-0.279,0.171-0.713,0.285-1.093,0.16c-0.549-0.173-1.114-0.552-1.334-1.205c-0.194-0.644,0.001-1.22,0.215-1.679
			c0.46-0.94,1.161-1.595,1.757-2.31c0.306-0.355,0.617-0.708,0.889-1.074c0.285-0.366,0.484-0.751,0.223-1.175
			c-0.021-0.036-0.011-0.082,0.024-0.104c0.034-0.021,0.078-0.012,0.101,0.021L104.843,88.383z"/>
	</g>
	<g>
		<path fill="#FFFFFF" d="M101.123,86.35c0.562-0.004,1.123,0.044,1.688,0.157c0.555,0.135,1.124,0.319,1.633,0.722
			c0.252,0.2,0.487,0.471,0.631,0.811c0.137,0.342,0.146,0.729,0.044,1.052c-0.212,0.647-0.646,1.102-1.182,1.383
			c-0.024,0.013-0.054,0.003-0.066-0.021c-0.006-0.011-0.007-0.024-0.004-0.036c0.146-0.581,0.334-1.079,0.368-1.518
			c0.026-0.415,0.039-0.774-0.285-1.143c-0.31-0.351-0.784-0.616-1.275-0.819c-0.491-0.217-1.02-0.384-1.559-0.498
			c-0.024-0.004-0.041-0.028-0.037-0.052C101.082,86.366,101.102,86.351,101.123,86.35z"/>
	</g>
	<path fill="#FFFFFF" d="M126.518,69.397c0,0-1.307-3.867-5.325-4.47c-4.019-0.603-3.38-1.557-7.718-1.406
		c-4.337,0.15-14.734,4.118-15.839,7.785c-1.104,3.667-2.877,13.682-1.203,14.654c1.674,0.972,5.75,1.575,6.742,1.547
		c0.991-0.027,1.291,1.012,1.191,1.547c-0.1,0.536-3.565,5.458-2.611,5.659c0.955,0.201,0.222,2.119,3.2-1.25
		c2.978-3.371,7.6-4.622,8.504-5.594c0.904-0.971-0.168-0.617,0.418-0.679c0.587-0.062,10.18-0.464,12.642-1.668
		C128.979,84.315,126.518,69.397,126.518,69.397z"/>
	<g>
		<line fill="#FFFFFF" x1="-173.5" y1="-60" x2="186" y2="-60"/>
		<g>
			<line fill="none" stroke="#FFFFFF" stroke-width="3" stroke-miterlimit="10" x1="-173.5" y1="-60" x2="-167.5" y2="-60"/>
			
				<line fill="none" stroke="#FFFFFF" stroke-width="3" stroke-miterlimit="10" stroke-dasharray="11.9828,11.9828" x1="-155.517" y1="-60" x2="174.009" y2="-60"/>
			<line fill="none" stroke="#FFFFFF" stroke-width="3" stroke-miterlimit="10" x1="180" y1="-60" x2="186" y2="-60"/>
		</g>
	</g>
</g>
</svg>
