<?xml version="1.0" encoding="utf-8"?>
<!-- Generator: Adobe Illustrator 15.1.0, SVG Export Plug-In . SVG Version: 6.00 Build 0)  -->
<!DOCTYPE svg PUBLIC "-//W3C//DTD SVG 1.1//EN" "http://www.w3.org/Graphics/SVG/1.1/DTD/svg11.dtd">
<svg version="1.1" xmlns="http://www.w3.org/2000/svg" xmlns:xlink="http://www.w3.org/1999/xlink" x="0px" y="0px" width="231px"
	 height="229px" viewBox="0 0 231 229" enable-background="new 0 0 231 229" xml:space="preserve">
<g id="compass_icon">
</g>
<g id="Layer_3">
</g>
<g id="Layer_4">
	<g>
		<path fill="#FFFFFF" d="M58.972,218.656c-1.245,0.643-3.855,1.285-7.148,1.285c-7.631,0-13.333-4.819-13.333-13.734
			c0-8.515,5.743-14.218,14.137-14.218c3.333,0,5.502,0.724,6.426,1.205l-0.883,2.852c-1.285-0.643-3.173-1.125-5.422-1.125
			c-6.346,0-10.563,4.057-10.563,11.165c0,6.667,3.815,10.884,10.361,10.884c2.169,0,4.338-0.441,5.743-1.124L58.972,218.656z"/>
		<path fill="#FFFFFF" d="M80.418,209.62c0,7.189-5.02,10.321-9.679,10.321c-5.221,0-9.317-3.855-9.317-10
			c0-6.466,4.297-10.281,9.639-10.281C76.643,199.66,80.418,203.717,80.418,209.62z M65.036,209.821c0,4.257,2.41,7.47,5.864,7.47
			c3.373,0,5.903-3.173,5.903-7.55c0-3.294-1.646-7.43-5.823-7.43C66.843,202.312,65.036,206.167,65.036,209.821z"/>
		<path fill="#FFFFFF" d="M84.875,190.985h3.534V219.5h-3.534V190.985z"/>
		<path fill="#FFFFFF" d="M110.618,214.158c0,2.049,0.04,3.815,0.16,5.342h-3.132l-0.201-3.173h-0.081
			c-0.883,1.566-2.972,3.614-6.426,3.614c-3.052,0-6.707-1.727-6.707-8.514v-11.366h3.534v10.724c0,3.694,1.165,6.225,4.337,6.225
			c2.37,0,4.017-1.646,4.659-3.253c0.201-0.481,0.321-1.124,0.321-1.807v-11.889h3.534V214.158z"/>
		<path fill="#FFFFFF" d="M116.48,205.323c0-2.049-0.08-3.654-0.161-5.262h3.093l0.16,3.173h0.121
			c1.084-1.847,2.891-3.574,6.145-3.574c2.61,0,4.618,1.606,5.461,3.896h0.081c0.603-1.124,1.405-1.928,2.209-2.529
			c1.165-0.884,2.409-1.366,4.257-1.366c2.611,0,6.426,1.687,6.426,8.435V219.5h-3.453v-10.964c0-3.775-1.406-5.984-4.217-5.984
			c-2.049,0-3.575,1.486-4.218,3.173c-0.161,0.522-0.28,1.125-0.28,1.768V219.5h-3.455v-11.646c0-3.093-1.365-5.302-4.056-5.302
			c-2.169,0-3.815,1.768-4.378,3.534c-0.201,0.482-0.281,1.125-0.281,1.728V219.5h-3.453V205.323z"/>
		<path fill="#FFFFFF" d="M149.974,205.323c0-2.049-0.04-3.654-0.161-5.262h3.133l0.201,3.213h0.08
			c0.965-1.807,3.213-3.614,6.426-3.614c2.691,0,6.867,1.606,6.867,8.273V219.5h-3.533v-11.205c0-3.133-1.165-5.743-4.498-5.743
			c-2.289,0-4.097,1.646-4.739,3.615c-0.161,0.441-0.241,1.044-0.241,1.646V219.5h-3.534V205.323z"/>
		<path fill="#FFFFFF" d="M171.78,215.926c1.085,0.643,2.933,1.365,4.698,1.365c2.531,0,3.736-1.245,3.736-2.892
			c0-1.687-1.004-2.57-3.574-3.534c-3.535-1.285-5.182-3.173-5.182-5.502c0-3.133,2.57-5.703,6.707-5.703
			c1.968,0,3.695,0.522,4.738,1.205l-0.843,2.57c-0.763-0.481-2.169-1.165-3.976-1.165c-2.088,0-3.213,1.205-3.213,2.651
			c0,1.606,1.125,2.329,3.654,3.333c3.334,1.245,5.101,2.932,5.101,5.823c0,3.454-2.69,5.863-7.229,5.863
			c-2.128,0-4.096-0.562-5.461-1.365L171.78,215.926z"/>
	</g>
	<polygon opacity="0.5" fill="#FFFFFF" points="121.055,43.558 121.055,30.858 146.872,30.858 146.872,43.506 157.689,43.506 
		157.689,30.858 183.612,30.858 183.612,43.558 188.522,43.558 188.522,87.354 116.142,87.354 116.142,43.558 	"/>
	<polygon fill="none" stroke="#FFFFFF" stroke-width="2.79" stroke-miterlimit="10" points="121.055,43.558 121.055,30.858 
		146.873,30.858 146.873,43.506 157.689,43.506 157.689,30.858 183.612,30.858 183.612,43.558 188.522,43.558 188.522,87.354 
		116.143,87.354 116.143,43.558 	"/>
	<polyline opacity="0.5" fill="#FFFFFF" points="183.613,87.407 188.523,87.407 188.523,131.203 116.143,131.203 116.143,87.407 
		121.055,87.407 	"/>
	<path opacity="0.55" fill="#FFFFFF" d="M146.873,87.354"/>
	<polyline fill="none" stroke="#FFFFFF" stroke-width="2.79" stroke-miterlimit="10" points="183.613,87.407 188.523,87.407 
		188.523,131.203 116.143,131.203 116.143,87.407 183.613,87.407 	"/>
	<path fill="none" stroke="#FFFFFF" stroke-width="2.79" stroke-miterlimit="10" d="M146.873,87.354"/>
	<polyline opacity="0.5" fill="#FFFFFF" points="183.613,130.74 188.523,130.74 188.523,174.536 116.143,174.536 116.143,130.74 
		121.055,130.74 	"/>
	<polyline fill="none" stroke="#FFFFFF" stroke-width="2.79" stroke-miterlimit="10" points="183.613,130.74 188.523,130.74 
		188.523,174.536 116.143,174.536 116.143,130.74 183.613,130.74 	"/>
	<polygon opacity="0.8" fill="#FFFFFF" points="48.674,130.739 48.674,118.041 74.492,118.041 74.492,130.688 85.309,130.688 
		85.309,118.041 111.232,118.041 111.232,130.739 116.143,130.739 116.143,174.536 43.762,174.536 43.762,130.739 	"/>
	<polygon fill="none" stroke="#FFFFFF" stroke-width="2.79" stroke-miterlimit="10" points="48.674,130.739 48.674,118.04 
		74.492,118.04 74.492,130.688 85.309,130.688 85.309,118.04 111.231,118.04 111.231,130.739 116.142,130.739 116.142,174.536 
		43.762,174.536 43.762,130.739 	"/>
</g>
</svg>
