<?xml version="1.0" encoding="utf-8"?>
<!-- Generator: Adobe Illustrator 15.1.0, SVG Export Plug-In . SVG Version: 6.00 Build 0)  -->
<!DOCTYPE svg PUBLIC "-//W3C//DTD SVG 1.1//EN" "http://www.w3.org/Graphics/SVG/1.1/DTD/svg11.dtd">
<svg version="1.1" xmlns="http://www.w3.org/2000/svg" xmlns:xlink="http://www.w3.org/1999/xlink" x="0px" y="0px" width="231px"
	 height="229px" viewBox="0 0 231 229" enable-background="new 0 0 231 229" xml:space="preserve">
<g id="compass_icon">
</g>
<g id="Layer_3">
</g>
<g id="Layer_4">
	<g>
		<path fill="#FFFFFF" d="M36.284,168.943l-2.811,8.515h-3.615l9.237-27.068h4.177l9.237,27.068h-3.735l-2.892-8.515H36.284z
			 M45.2,166.213l-2.691-7.791c-0.603-1.768-1.004-3.374-1.406-4.94h-0.08c-0.402,1.566-0.803,3.253-1.366,4.9l-2.65,7.831H45.2z"/>
		<path fill="#FFFFFF" d="M72.629,148.943v23.494c0,1.728,0.081,3.695,0.161,5.021h-3.133l-0.161-3.374h-0.121
			c-1.044,2.169-3.374,3.815-6.546,3.815c-4.699,0-8.354-3.976-8.354-9.879c-0.041-6.466,4.016-10.402,8.715-10.402
			c3.012,0,4.98,1.406,5.863,2.932h0.081v-11.606H72.629z M69.135,165.932c0-0.441-0.041-1.044-0.161-1.486
			c-0.522-2.208-2.45-4.056-5.101-4.056c-3.655,0-5.823,3.213-5.823,7.47c0,3.936,1.968,7.189,5.743,7.189
			c2.369,0,4.538-1.607,5.181-4.218c0.12-0.481,0.161-0.964,0.161-1.525V165.932z"/>
		<path fill="#FFFFFF" d="M79.897,158.02l3.815,10.884c0.643,1.808,1.165,3.414,1.566,5.021h0.121
			c0.442-1.606,1.004-3.213,1.646-5.021l3.775-10.884h3.695l-7.631,19.438h-3.374l-7.39-19.438H79.897z"/>
		<path fill="#FFFFFF" d="M111.343,172.799c0,1.688,0.081,3.334,0.281,4.659h-3.173l-0.281-2.45h-0.12
			c-1.084,1.526-3.173,2.892-5.944,2.892c-3.936,0-5.944-2.771-5.944-5.582c0-4.699,4.177-7.27,11.687-7.229v-0.401
			c0-1.566-0.441-4.498-4.417-4.458c-1.847,0-3.735,0.522-5.101,1.446l-0.803-2.37c1.606-1.004,3.976-1.687,6.426-1.687
			c5.944,0,7.39,4.057,7.39,7.912V172.799z M107.929,167.538c-3.855-0.08-8.233,0.603-8.233,4.378c0,2.329,1.526,3.373,3.293,3.373
			c2.57,0,4.217-1.606,4.779-3.253c0.121-0.401,0.161-0.803,0.161-1.124V167.538z"/>
		<path fill="#FFFFFF" d="M117.045,163.281c0-2.049-0.041-3.654-0.161-5.262h3.133l0.2,3.213h0.081
			c0.964-1.807,3.213-3.614,6.426-3.614c2.69,0,6.867,1.606,6.867,8.273v11.566h-3.534v-11.205c0-3.133-1.164-5.743-4.498-5.743
			c-2.289,0-4.096,1.646-4.738,3.615c-0.161,0.441-0.242,1.044-0.242,1.646v11.687h-3.533V163.281z"/>
		<path fill="#FFFFFF" d="M153.188,176.775c-0.923,0.441-2.972,1.124-5.582,1.124c-5.864,0-9.679-3.976-9.679-9.919
			c0-5.984,4.096-10.362,10.441-10.362c2.089,0,3.936,0.522,4.9,1.044l-0.804,2.691c-0.843-0.441-2.169-0.924-4.097-0.924
			c-4.457,0-6.867,3.333-6.867,7.35c0,4.498,2.892,7.27,6.747,7.27c2.008,0,3.333-0.482,4.337-0.924L153.188,176.775z"/>
		<path fill="#FFFFFF" d="M159.052,168.382c0.081,4.779,3.093,6.747,6.667,6.747c2.53,0,4.097-0.442,5.382-1.004l0.643,2.529
			c-1.245,0.563-3.414,1.245-6.507,1.245c-5.983,0-9.558-3.976-9.558-9.839s3.454-10.442,9.116-10.442
			c6.386,0,8.032,5.542,8.032,9.117c0,0.723-0.04,1.245-0.12,1.646H159.052z M169.414,165.852c0.039-2.209-0.924-5.703-4.9-5.703
			c-3.614,0-5.141,3.253-5.422,5.703H169.414z"/>
		<path fill="#FFFFFF" d="M193.951,148.943v23.494c0,1.728,0.08,3.695,0.16,5.021h-3.133l-0.16-3.374h-0.121
			c-1.043,2.169-3.373,3.815-6.546,3.815c-4.698,0-8.354-3.976-8.354-9.879c-0.04-6.466,4.017-10.402,8.716-10.402
			c3.012,0,4.979,1.406,5.863,2.932h0.08v-11.606H193.951z M190.457,165.932c0-0.441-0.04-1.044-0.16-1.486
			c-0.522-2.208-2.45-4.056-5.102-4.056c-3.654,0-5.822,3.213-5.822,7.47c0,3.936,1.967,7.189,5.742,7.189
			c2.369,0,4.539-1.607,5.182-4.218c0.12-0.481,0.16-0.964,0.16-1.525V165.932z"/>
		<path fill="#FFFFFF" d="M33.192,186.39h14.579v2.932H36.726v8.996h10.201v2.892H36.726v12.249h-3.534V186.39z"/>
		<path fill="#FFFFFF" d="M51.625,200.084c0-2.289-0.04-4.257-0.161-6.064h3.093l0.16,3.855h0.121
			c0.884-2.61,3.052-4.257,5.422-4.257c0.361,0,0.643,0.04,0.964,0.081v3.333c-0.361-0.08-0.723-0.08-1.205-0.08
			c-2.49,0-4.257,1.847-4.739,4.498c-0.08,0.481-0.121,1.084-0.121,1.646v10.361h-3.534V200.084z"/>
		<path fill="#FFFFFF" d="M66.324,204.382c0.081,4.779,3.093,6.747,6.667,6.747c2.53,0,4.097-0.442,5.382-1.004l0.643,2.529
			c-1.245,0.563-3.414,1.245-6.506,1.245c-5.984,0-9.558-3.976-9.558-9.839s3.454-10.442,9.116-10.442
			c6.386,0,8.032,5.542,8.032,9.117c0,0.723-0.04,1.245-0.12,1.646H66.324z M76.686,201.852c0.04-2.209-0.924-5.703-4.9-5.703
			c-3.614,0-5.141,3.253-5.421,5.703H76.686z"/>
		<path fill="#FFFFFF" d="M86.444,204.382c0.08,4.779,3.092,6.747,6.667,6.747c2.53,0,4.096-0.442,5.381-1.004l0.643,2.529
			c-1.245,0.563-3.414,1.245-6.506,1.245c-5.984,0-9.559-3.976-9.559-9.839s3.454-10.442,9.117-10.442
			c6.386,0,8.032,5.542,8.032,9.117c0,0.723-0.04,1.245-0.121,1.646H86.444z M96.806,201.852c0.04-2.209-0.924-5.703-4.899-5.703
			c-3.615,0-5.141,3.253-5.422,5.703H96.806z"/>
		<path fill="#FFFFFF" d="M113.23,186.791c1.526-0.361,3.976-0.603,6.385-0.603c3.494,0,5.743,0.603,7.391,1.968
			c1.405,1.045,2.289,2.65,2.289,4.779c0,2.65-1.768,4.939-4.579,5.944V199c2.57,0.603,5.583,2.73,5.583,6.747
			c0,2.329-0.924,4.137-2.33,5.422c-1.848,1.727-4.899,2.53-9.316,2.53c-2.41,0-4.258-0.161-5.422-0.321V186.791z M116.725,197.875
			h3.172c3.654,0,5.824-1.968,5.824-4.578c0-3.133-2.37-4.418-5.904-4.418c-1.606,0-2.53,0.121-3.092,0.241V197.875z
			 M116.725,210.808c0.723,0.12,1.686,0.16,2.932,0.16c3.614,0,6.947-1.325,6.947-5.261c0-3.654-3.173-5.221-6.988-5.221h-2.891
			V210.808z"/>
		<path fill="#FFFFFF" d="M151.142,208.116c0,2.049,0.04,3.815,0.16,5.342h-3.132l-0.201-3.173h-0.08
			c-0.884,1.566-2.973,3.614-6.426,3.614c-3.053,0-6.707-1.727-6.707-8.514V194.02h3.534v10.724c0,3.694,1.165,6.225,4.337,6.225
			c2.369,0,4.017-1.646,4.659-3.253c0.2-0.481,0.321-1.124,0.321-1.807V194.02h3.534V208.116z"/>
		<path fill="#FFFFFF" d="M160.939,188.559c0,1.204-0.843,2.168-2.248,2.168c-1.285,0-2.129-0.964-2.129-2.168
			c0-1.205,0.883-2.209,2.209-2.209C160.057,186.35,160.939,187.313,160.939,188.559z M157.004,213.458V194.02h3.534v19.438H157.004
			z"/>
		<path fill="#FFFFFF" d="M166.4,184.943h3.535v28.515H166.4V184.943z"/>
		<path fill="#FFFFFF" d="M192.626,184.943v23.494c0,1.728,0.08,3.695,0.16,5.021h-3.132l-0.161-3.374h-0.12
			c-1.045,2.169-3.374,3.815-6.547,3.815c-4.699,0-8.354-3.976-8.354-9.879c-0.04-6.466,4.017-10.402,8.715-10.402
			c3.013,0,4.98,1.406,5.863,2.932h0.081v-11.606H192.626z M189.132,201.932c0-0.441-0.04-1.044-0.161-1.486
			c-0.521-2.208-2.449-4.056-5.1-4.056c-3.655,0-5.824,3.213-5.824,7.47c0,3.936,1.969,7.189,5.743,7.189
			c2.37,0,4.538-1.607,5.181-4.218c0.121-0.481,0.161-0.964,0.161-1.525V201.932z"/>
	</g>
	<polygon fill="none" stroke="#FFFFFF" stroke-width="3.1502" stroke-miterlimit="10" points="33.046,70.913 33.046,57.458 
		60.399,57.514 60.399,70.857 71.859,70.913 71.859,57.315 99.323,57.182 99.323,70.913 104.527,70.913 104.527,117.313 
		27.841,117.313 27.841,70.913 	"/>
	<path fill="#FFFFFF" d="M196.793,69.667V55.103l-29.127,0.293v14.27l-12.156-0.058V55.455l-29.012-0.058v14.27h-5.52v49.214h81.336
		V69.667H196.793z M176.91,99.862h-12.919v12.919h-5.349V99.862h-12.919v-5.347h12.919V81.596h5.349v12.919h12.919V99.862z"/>
	
		<line fill="none" stroke="#FFFFFF" stroke-width="4.6762" stroke-miterlimit="10" x1="52.266" y1="94.076" x2="79.803" y2="94.076"/>
</g>
</svg>
