<?xml version="1.0" encoding="utf-8"?>
<!-- Generator: Adobe Illustrator 15.1.0, SVG Export Plug-In . SVG Version: 6.00 Build 0)  -->
<!DOCTYPE svg PUBLIC "-//W3C//DTD SVG 1.1//EN" "http://www.w3.org/Graphics/SVG/1.1/DTD/svg11.dtd" [
	<!ENTITY ns_extend "http://ns.adobe.com/Extensibility/1.0/">
	<!ENTITY ns_ai "http://ns.adobe.com/AdobeIllustrator/10.0/">
	<!ENTITY ns_graphs "http://ns.adobe.com/Graphs/1.0/">
	<!ENTITY ns_vars "http://ns.adobe.com/Variables/1.0/">
	<!ENTITY ns_imrep "http://ns.adobe.com/ImageReplacement/1.0/">
	<!ENTITY ns_sfw "http://ns.adobe.com/SaveForWeb/1.0/">
	<!ENTITY ns_custom "http://ns.adobe.com/GenericCustomNamespace/1.0/">
	<!ENTITY ns_adobe_xpath "http://ns.adobe.com/XPath/1.0/">
]>
<svg version="1.1" xmlns:x="&ns_extend;" xmlns:i="&ns_ai;" xmlns:graph="&ns_graphs;"
	 xmlns="http://www.w3.org/2000/svg" xmlns:xlink="http://www.w3.org/1999/xlink" x="0px" y="0px" width="231px" height="229px"
	 viewBox="0 0 231 229" enable-background="new 0 0 231 229" xml:space="preserve">
<metadata>
	<sfw  xmlns="&ns_sfw;">
		<slices></slices>
		<sliceSourceBounds  x="-8076" y="-8306" width="16383" height="16383" bottomLeftOrigin="true"></sliceSourceBounds>
	</sfw>
</metadata>
<g id="Layer_4" display="none">
	
		<circle display="inline" fill="none" stroke="#FFFFFF" stroke-width="7.3285" stroke-linecap="round" stroke-linejoin="round" cx="193.373" cy="110.179" r="17.748"/>
	
		<circle display="inline" fill="none" stroke="#FFFFFF" stroke-width="7.3285" stroke-linecap="round" stroke-linejoin="round" cx="141.407" cy="110.179" r="17.747"/>
	
		<circle display="inline" fill="none" stroke="#FFFFFF" stroke-width="7.3285" stroke-linecap="round" stroke-linejoin="round" cx="89.587" cy="110.179" r="17.75"/>
	<path display="inline" fill="none" stroke="#FFFFFF" stroke-width="7.3285" stroke-linecap="round" stroke-linejoin="round" d="
		M55.374,110.179c0,9.801-7.941,17.747-17.744,17.747c-9.803,0-17.75-7.946-17.75-17.747s7.947-17.748,17.75-17.748
		C47.433,92.431,55.374,100.378,55.374,110.179z"/>
	
		<circle display="inline" fill="none" stroke="#FFFFFF" stroke-width="7.3285" stroke-linecap="round" stroke-linejoin="round" cx="193.373" cy="58.948" r="17.748"/>
	<path display="inline" fill="none" stroke="#FFFFFF" stroke-width="7.3285" stroke-linecap="round" stroke-linejoin="round" d="
		M159.154,58.948c0,9.801-7.943,17.746-17.744,17.746c-9.802,0-17.75-7.945-17.75-17.746c0-9.803,7.948-17.749,17.75-17.749
		C151.211,41.199,159.154,49.146,159.154,58.948z"/>
	
		<circle display="inline" fill="none" stroke="#FFFFFF" stroke-width="7.3285" stroke-linecap="round" stroke-linejoin="round" cx="89.587" cy="58.948" r="17.75"/>
	<path display="inline" fill="none" stroke="#FFFFFF" stroke-width="7.3285" stroke-linecap="round" stroke-linejoin="round" d="
		M55.374,58.948c0,9.801-7.941,17.746-17.744,17.746c-9.803,0-17.75-7.945-17.75-17.746c0-9.803,7.947-17.749,17.75-17.749
		C47.433,41.199,55.374,49.146,55.374,58.948z"/>
	<g display="inline">
		<path fill="#FFFFFF" d="M80.003,193.301l-2.811,8.515h-3.615l9.237-27.068h4.177l9.237,27.068h-3.735l-2.892-8.515H80.003z
			 M88.919,190.57l-2.691-7.791c-0.603-1.768-1.004-3.374-1.406-4.939h-0.08c-0.402,1.565-0.803,3.252-1.366,4.898l-2.65,7.832
			H88.919z"/>
		<path fill="#FFFFFF" d="M99.963,188.723c0-2.49-0.08-4.498-0.161-6.346h3.133l0.201,3.334h0.08
			c1.406-2.369,3.735-3.735,6.908-3.735c4.739,0,8.272,3.976,8.272,9.84c0,6.987-4.297,10.441-8.875,10.441
			c-2.57,0-4.819-1.124-5.984-3.052h-0.08v10.563h-3.494V188.723z M103.457,193.904c0,0.521,0.04,1.004,0.161,1.445
			c0.643,2.449,2.771,4.137,5.301,4.137c3.735,0,5.904-3.053,5.904-7.51c0-3.855-2.048-7.189-5.783-7.189
			c-2.41,0-4.699,1.687-5.341,4.338c-0.121,0.441-0.241,0.963-0.241,1.405V193.904z"/>
		<path fill="#FFFFFF" d="M122.813,188.723c0-2.49-0.08-4.498-0.161-6.346h3.133l0.201,3.334h0.08
			c1.406-2.369,3.735-3.735,6.908-3.735c4.738,0,8.273,3.976,8.273,9.84c0,6.987-4.298,10.441-8.876,10.441
			c-2.57,0-4.819-1.124-5.984-3.052h-0.08v10.563h-3.494V188.723z M126.308,193.904c0,0.521,0.04,1.004,0.161,1.445
			c0.643,2.449,2.771,4.137,5.301,4.137c3.734,0,5.904-3.053,5.904-7.51c0-3.855-2.049-7.189-5.783-7.189
			c-2.41,0-4.699,1.687-5.342,4.338c-0.121,0.441-0.241,0.963-0.241,1.405V193.904z"/>
		<path fill="#FFFFFF" d="M145.182,198.241c1.085,0.643,2.933,1.365,4.699,1.365c2.53,0,3.735-1.245,3.735-2.892
			c0-1.687-1.004-2.57-3.574-3.534c-3.534-1.285-5.181-3.173-5.181-5.502c0-3.133,2.57-5.703,6.707-5.703
			c1.967,0,3.694,0.522,4.738,1.205l-0.844,2.57c-0.763-0.481-2.168-1.165-3.976-1.165c-2.088,0-3.213,1.205-3.213,2.65
			c0,1.607,1.125,2.33,3.655,3.334c3.333,1.245,5.1,2.932,5.1,5.823c0,3.454-2.69,5.863-7.229,5.863
			c-2.129,0-4.097-0.562-5.462-1.365L145.182,198.241z"/>
	</g>
</g>
<g id="compass_icon">
</g>
<g id="Layer_3">
	<path fill="none" stroke="#FFFFFF" stroke-width="2.4897" stroke-miterlimit="10" d="M85.729,99.278"/>
	<g>
		<path fill="#FFFFFF" d="M113.309,100.508c-3.383,3.317-6.899,6.966-12.34,6.966c-5.573,0-9.487-4.047-9.487-9.687
			c0-5.308,4.246-9.819,10.018-9.819c4.976,0,8.625,3.848,11.809,7.033c3.384-3.384,6.9-7.033,12.341-7.033
			c5.572,0,9.487,4.047,9.487,9.819c0,5.175-4.246,9.687-10.085,9.687C120.143,107.474,116.493,103.626,113.309,100.508z
			 M110.655,97.788c-2.588-2.389-5.308-5.905-9.156-5.905c-3.317,0-5.838,2.72-5.838,5.905c0,3.317,2.388,5.772,5.706,5.772
			C105.082,103.56,108.134,100.375,110.655,97.788z M130.957,97.788c0-3.384-2.389-5.905-5.64-5.905
			c-3.781,0-6.833,3.317-9.354,5.905c2.588,2.322,5.308,5.772,9.222,5.772C128.436,103.56,130.957,100.906,130.957,97.788z"/>
	</g>
	<polygon fill="none" stroke="#FFFFFF" stroke-width="3.6394" stroke-miterlimit="10" points="74.083,76.145 74.083,59.579 
		107.761,59.579 107.761,76.077 121.871,76.077 121.871,59.579 155.686,59.579 155.686,76.145 162.093,76.145 162.093,133.276 
		67.675,133.276 67.675,76.145 	"/>
	<g>
		<path fill="#FFFFFF" d="M35.146,177.679h14.578v2.932H38.68v8.996H48.88v2.892H38.68v12.249h-3.534V177.679z"/>
		<path fill="#FFFFFF" d="M53.579,191.373c0-2.289-0.04-4.257-0.161-6.064h3.092l0.161,3.855h0.12
			c0.884-2.61,3.052-4.257,5.422-4.257c0.361,0,0.643,0.04,0.964,0.081v3.333c-0.361-0.08-0.723-0.08-1.205-0.08
			c-2.49,0-4.257,1.847-4.739,4.498c-0.081,0.481-0.121,1.084-0.121,1.646v10.361h-3.534V191.373z"/>
		<path fill="#FFFFFF" d="M68.278,195.671c0.08,4.779,3.092,6.747,6.667,6.747c2.53,0,4.096-0.442,5.381-1.004l0.643,2.529
			c-1.245,0.563-3.414,1.245-6.506,1.245c-5.984,0-9.559-3.976-9.559-9.839s3.454-10.442,9.117-10.442
			c6.386,0,8.032,5.542,8.032,9.117c0,0.723-0.04,1.245-0.121,1.646H68.278z M78.64,193.141c0.04-2.209-0.924-5.703-4.899-5.703
			c-3.615,0-5.141,3.253-5.422,5.703H78.64z"/>
		<path fill="#FFFFFF" d="M88.397,195.671c0.081,4.779,3.093,6.747,6.667,6.747c2.53,0,4.097-0.442,5.382-1.004l0.643,2.529
			c-1.245,0.563-3.414,1.245-6.506,1.245c-5.984,0-9.558-3.976-9.558-9.839s3.454-10.442,9.116-10.442
			c6.386,0,8.032,5.542,8.032,9.117c0,0.723-0.04,1.245-0.12,1.646H88.397z M98.759,193.141c0.04-2.209-0.924-5.703-4.9-5.703
			c-3.614,0-5.141,3.253-5.421,5.703H98.759z"/>
		<path fill="#FFFFFF" d="M115.184,178.08c1.526-0.361,3.977-0.603,6.386-0.603c3.494,0,5.743,0.603,7.39,1.968
			c1.405,1.045,2.289,2.65,2.289,4.779c0,2.65-1.768,4.939-4.578,5.944v0.12c2.57,0.603,5.582,2.73,5.582,6.747
			c0,2.329-0.924,4.137-2.329,5.422c-1.848,1.727-4.899,2.53-9.317,2.53c-2.41,0-4.258-0.161-5.422-0.321V178.08z M118.678,189.164
			h3.173c3.654,0,5.823-1.968,5.823-4.578c0-3.133-2.369-4.418-5.904-4.418c-1.605,0-2.529,0.121-3.092,0.241V189.164z
			 M118.678,202.097c0.723,0.12,1.687,0.16,2.932,0.16c3.614,0,6.947-1.325,6.947-5.261c0-3.654-3.172-5.221-6.987-5.221h-2.892
			V202.097z"/>
		<path fill="#FFFFFF" d="M153.095,199.405c0,2.049,0.04,3.815,0.16,5.342h-3.133l-0.2-3.173h-0.08
			c-0.884,1.566-2.973,3.614-6.426,3.614c-3.053,0-6.707-1.727-6.707-8.514v-11.366h3.534v10.724c0,3.694,1.164,6.225,4.337,6.225
			c2.37,0,4.017-1.646,4.659-3.253c0.2-0.481,0.321-1.124,0.321-1.807v-11.889h3.534V199.405z"/>
		<path fill="#FFFFFF" d="M162.893,179.848c0,1.204-0.843,2.168-2.249,2.168c-1.285,0-2.128-0.964-2.128-2.168
			c0-1.205,0.884-2.209,2.209-2.209C162.01,177.639,162.893,178.603,162.893,179.848z M158.957,204.747v-19.438h3.534v19.438
			H158.957z"/>
		<path fill="#FFFFFF" d="M168.354,176.232h3.534v28.515h-3.534V176.232z"/>
		<path fill="#FFFFFF" d="M194.579,176.232v23.494c0,1.728,0.08,3.695,0.161,5.021h-3.133l-0.161-3.374h-0.12
			c-1.044,2.169-3.373,3.815-6.546,3.815c-4.699,0-8.354-3.976-8.354-9.879c-0.04-6.466,4.016-10.402,8.715-10.402
			c3.012,0,4.979,1.406,5.863,2.932h0.08v-11.606H194.579z M191.085,193.221c0-0.441-0.04-1.044-0.16-1.486
			c-0.522-2.208-2.45-4.056-5.101-4.056c-3.654,0-5.823,3.213-5.823,7.47c0,3.936,1.968,7.189,5.743,7.189
			c2.369,0,4.538-1.607,5.181-4.218c0.12-0.481,0.16-0.964,0.16-1.525V193.221z"/>
	</g>
</g>
</svg>
