<?xml version="1.0" encoding="utf-8"?>
<!-- Generator: Adobe Illustrator 15.1.0, SVG Export Plug-In . SVG Version: 6.00 Build 0)  -->
<!DOCTYPE svg PUBLIC "-//W3C//DTD SVG 1.1//EN" "http://www.w3.org/Graphics/SVG/1.1/DTD/svg11.dtd">
<svg version="1.1" id="Layer_4" xmlns="http://www.w3.org/2000/svg" xmlns:xlink="http://www.w3.org/1999/xlink" x="0px" y="0px"
	 width="231px" height="229px" viewBox="0 0 231 229" enable-background="new 0 0 231 229" xml:space="preserve">
<g>
	<path fill="#FFFFFF" d="M39.305,190.408c-0.201-3.775-0.442-8.354-0.442-11.688h-0.08c-0.964,3.133-2.048,6.547-3.414,10.281
		l-4.779,13.134h-2.651l-4.417-12.892c-1.285-3.855-2.33-7.311-3.093-10.523h-0.08c-0.08,3.374-0.281,7.872-0.522,11.969
		l-0.723,11.606h-3.333l1.887-27.068h4.458l4.619,13.093c1.125,3.333,2.008,6.305,2.731,9.116h0.08
		c0.723-2.731,1.687-5.703,2.892-9.116l4.819-13.093h4.458l1.687,27.068h-3.454L39.305,190.408z"/>
	<path fill="#FFFFFF" d="M62.557,197.637c0,1.688,0.081,3.334,0.281,4.659h-3.173l-0.281-2.45h-0.121
		c-1.084,1.526-3.173,2.892-5.944,2.892c-3.936,0-5.944-2.771-5.944-5.582c0-4.698,4.177-7.269,11.687-7.229v-0.401
		c0-1.565-0.442-4.498-4.418-4.458c-1.848,0-3.735,0.522-5.101,1.446l-0.803-2.37c1.606-1.004,3.976-1.687,6.426-1.687
		c5.944,0,7.39,4.057,7.39,7.912V197.637z M59.143,192.376c-3.855-0.08-8.233,0.603-8.233,4.378c0,2.329,1.526,3.373,3.293,3.373
		c2.57,0,4.217-1.606,4.779-3.253c0.121-0.401,0.161-0.804,0.161-1.124V192.376z"/>
	<path fill="#FFFFFF" d="M67.777,198.722c1.084,0.643,2.932,1.365,4.699,1.365c2.53,0,3.735-1.245,3.735-2.892
		c0-1.687-1.004-2.57-3.575-3.534c-3.534-1.285-5.181-3.173-5.181-5.502c0-3.133,2.57-5.703,6.707-5.703
		c1.968,0,3.695,0.522,4.739,1.205l-0.844,2.57c-0.763-0.481-2.168-1.165-3.976-1.165c-2.089,0-3.213,1.205-3.213,2.65
		c0,1.607,1.124,2.33,3.654,3.334c3.333,1.245,5.101,2.932,5.101,5.823c0,3.454-2.691,5.863-7.229,5.863
		c-2.128,0-4.096-0.562-5.462-1.365L67.777,198.722z"/>
	<path fill="#FFFFFF" d="M88.419,178.199v4.658h5.06v2.691h-5.06v10.482c0,2.409,0.683,3.774,2.65,3.774
		c0.964,0,1.526-0.08,2.048-0.241l0.161,2.691c-0.683,0.241-1.767,0.481-3.133,0.481c-1.646,0-2.972-0.562-3.815-1.485
		c-0.964-1.085-1.366-2.812-1.366-5.101v-10.603h-3.012v-2.691h3.012v-3.614L88.419,178.199z"/>
	<path fill="#FFFFFF" d="M99.182,193.22c0.08,4.778,3.092,6.747,6.667,6.747c2.53,0,4.096-0.441,5.381-1.004l0.643,2.53
		c-1.245,0.562-3.414,1.244-6.506,1.244c-5.984,0-9.559-3.976-9.559-9.839s3.454-10.442,9.117-10.442
		c6.386,0,8.032,5.542,8.032,9.116c0,0.724-0.04,1.246-0.121,1.647H99.182z M109.543,190.689c0.04-2.209-0.924-5.703-4.899-5.703
		c-3.615,0-5.141,3.253-5.422,5.703H109.543z"/>
	<path fill="#FFFFFF" d="M117.334,188.922c0-2.289-0.041-4.257-0.161-6.064h3.093l0.16,3.855h0.121
		c0.883-2.609,3.052-4.257,5.422-4.257c0.361,0,0.643,0.04,0.963,0.081v3.333c-0.361-0.081-0.723-0.081-1.205-0.081
		c-2.489,0-4.256,1.848-4.738,4.498c-0.08,0.482-0.121,1.085-0.121,1.647v10.361h-3.533V188.922z"/>
	<path fill="#FFFFFF" d="M130.627,188.119c0-2.049-0.08-3.654-0.161-5.262h3.093l0.16,3.174h0.121
		c1.084-1.848,2.891-3.575,6.145-3.575c2.61,0,4.618,1.606,5.461,3.896h0.081c0.603-1.124,1.405-1.928,2.209-2.529
		c1.165-0.884,2.409-1.366,4.257-1.366c2.611,0,6.426,1.687,6.426,8.435v11.405h-3.453v-10.964c0-3.775-1.406-5.984-4.217-5.984
		c-2.049,0-3.575,1.486-4.218,3.173c-0.161,0.522-0.28,1.124-0.28,1.767v12.009h-3.455v-11.646c0-3.093-1.365-5.302-4.056-5.302
		c-2.169,0-3.815,1.768-4.378,3.534c-0.201,0.482-0.281,1.125-0.281,1.728v11.687h-3.453V188.119z"/>
	<path fill="#FFFFFF" d="M168.056,177.396c0,1.204-0.843,2.168-2.249,2.168c-1.285,0-2.129-0.964-2.129-2.168
		c0-1.205,0.884-2.209,2.209-2.209C167.172,175.188,168.056,176.15,168.056,177.396z M164.119,202.296v-19.438h3.535v19.438H164.119
		z"/>
	<path fill="#FFFFFF" d="M173.518,188.119c0-2.049-0.041-3.654-0.161-5.262h3.133l0.2,3.213h0.08
		c0.965-1.807,3.213-3.614,6.426-3.614c2.691,0,6.868,1.606,6.868,8.273v11.566h-3.534v-11.205c0-3.132-1.164-5.743-4.498-5.743
		c-2.289,0-4.096,1.646-4.738,3.615c-0.161,0.441-0.242,1.044-0.242,1.646v11.687h-3.533V188.119z"/>
	<path fill="#FFFFFF" d="M212.553,173.781v23.494c0,1.728,0.08,3.695,0.16,5.021h-3.133l-0.16-3.374h-0.121
		c-1.043,2.169-3.373,3.815-6.545,3.815c-4.699,0-8.354-3.976-8.354-9.88c-0.041-6.465,4.016-10.401,8.715-10.401
		c3.012,0,4.979,1.405,5.863,2.933h0.08v-11.607H212.553z M209.059,190.77c0-0.441-0.041-1.044-0.16-1.486
		c-0.523-2.209-2.451-4.056-5.102-4.056c-3.654,0-5.822,3.213-5.822,7.47c0,3.936,1.967,7.188,5.742,7.188
		c2.369,0,4.539-1.606,5.182-4.216c0.119-0.482,0.16-0.965,0.16-1.527V190.77z"/>
</g>
<path fill="none" stroke="#FFFFFF" stroke-width="2.4369" stroke-miterlimit="10" d="M118.579,122.955"/>
<path fill="none" stroke="#FFFFFF" stroke-width="7.8261" stroke-miterlimit="10" d="M128.692,94.754v-17.4
	c0-15.452,12.526-27.978,27.979-27.978s27.979,12.526,27.979,27.978v17.4"/>
<g>
	<path fill="#FFFFFF" d="M183.279,90.059h-53.217c-5.187,0-9.392,4.205-9.392,9.391v39.521c0,5.188,4.205,9.393,9.392,9.393h53.217
		c5.187,0,9.392-4.205,9.392-9.393V99.45C192.671,94.263,188.466,90.059,183.279,90.059z M161.563,120.922v13.746h-9.783v-13.746
		c-2.583-1.627-4.304-4.498-4.304-7.777c0-5.078,4.117-9.195,9.195-9.195s9.195,4.117,9.195,9.195
		C165.866,116.424,164.146,119.295,161.563,120.922z"/>
</g>
<polygon fill="none" stroke="#FFFFFF" stroke-width="5.3216" stroke-miterlimit="10" points="40.124,100.805 40.124,88.41 
	65.322,88.363 65.322,101.075 75.883,101.11 75.883,88.461 101.185,88.461 101.185,100.805 105.979,100.805 105.979,143.555 
	35.329,143.555 35.329,100.805 "/>
</svg>
