<?xml version="1.0" encoding="utf-8"?>
<!-- Generator: Adobe Illustrator 15.1.0, SVG Export Plug-In . SVG Version: 6.00 Build 0)  -->
<!DOCTYPE svg PUBLIC "-//W3C//DTD SVG 1.1//EN" "http://www.w3.org/Graphics/SVG/1.1/DTD/svg11.dtd" [
	<!ENTITY ns_extend "http://ns.adobe.com/Extensibility/1.0/">
	<!ENTITY ns_ai "http://ns.adobe.com/AdobeIllustrator/10.0/">
	<!ENTITY ns_graphs "http://ns.adobe.com/Graphs/1.0/">
	<!ENTITY ns_vars "http://ns.adobe.com/Variables/1.0/">
	<!ENTITY ns_imrep "http://ns.adobe.com/ImageReplacement/1.0/">
	<!ENTITY ns_sfw "http://ns.adobe.com/SaveForWeb/1.0/">
	<!ENTITY ns_custom "http://ns.adobe.com/GenericCustomNamespace/1.0/">
	<!ENTITY ns_adobe_xpath "http://ns.adobe.com/XPath/1.0/">
]>
<svg version="1.1" xmlns:x="&ns_extend;" xmlns:i="&ns_ai;" xmlns:graph="&ns_graphs;"
	 xmlns="http://www.w3.org/2000/svg" xmlns:xlink="http://www.w3.org/1999/xlink" x="0px" y="0px" width="231px" height="229px"
	 viewBox="0 0 231 229" enable-background="new 0 0 231 229" xml:space="preserve">
<metadata>
	<sfw  xmlns="&ns_sfw;">
		<slices></slices>
		<sliceSourceBounds  x="-8076" y="-8306" width="16383" height="16383" bottomLeftOrigin="true"></sliceSourceBounds>
	</sfw>
</metadata>
<g id="Layer_4" display="none">
	
		<circle display="inline" fill="none" stroke="#FFFFFF" stroke-width="7.3285" stroke-linecap="round" stroke-linejoin="round" cx="193.373" cy="110.179" r="17.748"/>
	
		<circle display="inline" fill="none" stroke="#FFFFFF" stroke-width="7.3285" stroke-linecap="round" stroke-linejoin="round" cx="141.407" cy="110.179" r="17.747"/>
	
		<circle display="inline" fill="none" stroke="#FFFFFF" stroke-width="7.3285" stroke-linecap="round" stroke-linejoin="round" cx="89.587" cy="110.179" r="17.75"/>
	<path display="inline" fill="none" stroke="#FFFFFF" stroke-width="7.3285" stroke-linecap="round" stroke-linejoin="round" d="
		M55.374,110.179c0,9.801-7.941,17.747-17.744,17.747c-9.803,0-17.75-7.946-17.75-17.747s7.947-17.748,17.75-17.748
		C47.433,92.431,55.374,100.378,55.374,110.179z"/>
	
		<circle display="inline" fill="none" stroke="#FFFFFF" stroke-width="7.3285" stroke-linecap="round" stroke-linejoin="round" cx="193.373" cy="58.948" r="17.748"/>
	<path display="inline" fill="none" stroke="#FFFFFF" stroke-width="7.3285" stroke-linecap="round" stroke-linejoin="round" d="
		M159.154,58.948c0,9.801-7.943,17.746-17.744,17.746c-9.802,0-17.75-7.945-17.75-17.746c0-9.803,7.948-17.749,17.75-17.749
		C151.211,41.199,159.154,49.146,159.154,58.948z"/>
	
		<circle display="inline" fill="none" stroke="#FFFFFF" stroke-width="7.3285" stroke-linecap="round" stroke-linejoin="round" cx="89.587" cy="58.948" r="17.75"/>
	<path display="inline" fill="none" stroke="#FFFFFF" stroke-width="7.3285" stroke-linecap="round" stroke-linejoin="round" d="
		M55.374,58.948c0,9.801-7.941,17.746-17.744,17.746c-9.803,0-17.75-7.945-17.75-17.746c0-9.803,7.947-17.749,17.75-17.749
		C47.433,41.199,55.374,49.146,55.374,58.948z"/>
	<g display="inline">
		<path fill="#FFFFFF" d="M80.003,193.301l-2.811,8.515h-3.615l9.237-27.068h4.177l9.237,27.068h-3.735l-2.892-8.515H80.003z
			 M88.919,190.57l-2.691-7.791c-0.603-1.768-1.004-3.374-1.406-4.939h-0.08c-0.402,1.565-0.803,3.252-1.366,4.898l-2.65,7.832
			H88.919z"/>
		<path fill="#FFFFFF" d="M99.963,188.723c0-2.49-0.08-4.498-0.161-6.346h3.133l0.201,3.334h0.08
			c1.406-2.369,3.735-3.735,6.908-3.735c4.739,0,8.272,3.976,8.272,9.84c0,6.987-4.297,10.441-8.875,10.441
			c-2.57,0-4.819-1.124-5.984-3.052h-0.08v10.563h-3.494V188.723z M103.457,193.904c0,0.521,0.04,1.004,0.161,1.445
			c0.643,2.449,2.771,4.137,5.301,4.137c3.735,0,5.904-3.053,5.904-7.51c0-3.855-2.048-7.189-5.783-7.189
			c-2.41,0-4.699,1.687-5.341,4.338c-0.121,0.441-0.241,0.963-0.241,1.405V193.904z"/>
		<path fill="#FFFFFF" d="M122.813,188.723c0-2.49-0.08-4.498-0.161-6.346h3.133l0.201,3.334h0.08
			c1.406-2.369,3.735-3.735,6.908-3.735c4.738,0,8.273,3.976,8.273,9.84c0,6.987-4.298,10.441-8.876,10.441
			c-2.57,0-4.819-1.124-5.984-3.052h-0.08v10.563h-3.494V188.723z M126.308,193.904c0,0.521,0.04,1.004,0.161,1.445
			c0.643,2.449,2.771,4.137,5.301,4.137c3.734,0,5.904-3.053,5.904-7.51c0-3.855-2.049-7.189-5.783-7.189
			c-2.41,0-4.699,1.687-5.342,4.338c-0.121,0.441-0.241,0.963-0.241,1.405V193.904z"/>
		<path fill="#FFFFFF" d="M145.182,198.241c1.085,0.643,2.933,1.365,4.699,1.365c2.53,0,3.735-1.245,3.735-2.892
			c0-1.687-1.004-2.57-3.574-3.534c-3.534-1.285-5.181-3.173-5.181-5.502c0-3.133,2.57-5.703,6.707-5.703
			c1.967,0,3.694,0.522,4.738,1.205l-0.844,2.57c-0.763-0.481-2.168-1.165-3.976-1.165c-2.088,0-3.213,1.205-3.213,2.65
			c0,1.607,1.125,2.33,3.655,3.334c3.333,1.245,5.1,2.932,5.1,5.823c0,3.454-2.69,5.863-7.229,5.863
			c-2.129,0-4.097-0.562-5.462-1.365L145.182,198.241z"/>
	</g>
</g>
<g id="compass_icon">
</g>
<g id="Layer_8">
</g>
<g id="Layer_5">
	<path fill="none" stroke="#FFFFFF" stroke-width="2.4897" stroke-miterlimit="10" d="M88.326,98.331"/>
	<polygon fill="none" stroke="#FFFFFF" stroke-width="3" stroke-miterlimit="10" points="156.979,30.972 156.979,24.691 
		169.747,24.691 169.747,30.946 175.097,30.946 175.097,24.691 187.916,24.691 187.916,30.972 190.346,30.972 190.346,52.631 
		154.55,52.631 154.55,30.972 	"/>
	<g>
		<path fill="#FFFFFF" d="M70.886,189.196c-0.201-3.775-0.442-8.354-0.442-11.687h-0.08c-0.964,3.132-2.048,6.546-3.414,10.281
			l-4.779,13.132H59.52l-4.417-12.892c-1.285-3.855-2.33-7.309-3.093-10.521h-0.08c-0.08,3.373-0.281,7.871-0.522,11.968
			l-0.723,11.606h-3.333l1.887-27.068h4.458l4.619,13.093c1.125,3.333,2.008,6.305,2.731,9.116h0.08
			c0.723-2.731,1.687-5.703,2.892-9.116l4.819-13.093h4.458l1.687,27.068h-3.454L70.886,189.196z"/>
		<path fill="#FFFFFF" d="M82.45,192.008c0.081,4.779,3.093,6.747,6.667,6.747c2.53,0,4.097-0.442,5.382-1.004l0.643,2.529
			c-1.245,0.563-3.414,1.245-6.506,1.245c-5.984,0-9.558-3.976-9.558-9.839s3.454-10.442,9.116-10.442
			c6.386,0,8.032,5.542,8.032,9.117c0,0.723-0.04,1.245-0.12,1.646H82.45z M92.812,189.478c0.04-2.209-0.924-5.703-4.9-5.703
			c-3.614,0-5.141,3.253-5.421,5.703H92.812z"/>
		<path fill="#FFFFFF" d="M100.602,186.907c0-2.049-0.08-3.654-0.161-5.262h3.093l0.16,3.173h0.121
			c1.084-1.847,2.892-3.574,6.145-3.574c2.61,0,4.618,1.606,5.462,3.896h0.08c0.603-1.124,1.406-1.928,2.209-2.529
			c1.164-0.884,2.41-1.366,4.257-1.366c2.61,0,6.426,1.687,6.426,8.435v11.405h-3.454V190.12c0-3.775-1.405-5.984-4.217-5.984
			c-2.048,0-3.574,1.486-4.217,3.173c-0.16,0.522-0.281,1.125-0.281,1.768v12.008h-3.454v-11.646c0-3.093-1.366-5.302-4.056-5.302
			c-2.169,0-3.815,1.768-4.378,3.534c-0.201,0.482-0.281,1.125-0.281,1.728v11.687h-3.454V186.907z"/>
		<path fill="#FFFFFF" d="M151.687,191.204c0,7.189-5.021,10.321-9.679,10.321c-5.221,0-9.317-3.855-9.317-10
			c0-6.466,4.297-10.281,9.639-10.281C147.911,181.244,151.687,185.301,151.687,191.204z M136.305,191.405
			c0,4.257,2.41,7.47,5.863,7.47c3.374,0,5.904-3.173,5.904-7.55c0-3.294-1.646-7.43-5.824-7.43
			C138.111,183.896,136.305,187.751,136.305,191.405z"/>
		<path fill="#FFFFFF" d="M156.144,187.71c0-2.289-0.04-4.257-0.16-6.064h3.092l0.161,3.855h0.12
			c0.884-2.61,3.053-4.257,5.422-4.257c0.361,0,0.643,0.04,0.964,0.081v3.333c-0.361-0.08-0.723-0.08-1.205-0.08
			c-2.489,0-4.257,1.847-4.739,4.498c-0.08,0.481-0.12,1.084-0.12,1.646v10.361h-3.534V187.71z"/>
		<path fill="#FFFFFF" d="M171.564,181.646l4.217,11.486c0.482,1.285,0.964,2.812,1.285,3.977h0.081
			c0.361-1.165,0.763-2.651,1.244-4.057l3.855-11.406h3.735l-5.302,13.856c-2.529,6.666-4.257,10.04-6.666,12.169
			c-1.768,1.485-3.454,2.088-4.338,2.248l-0.883-2.932c0.883-0.281,2.048-0.843,3.092-1.727c0.964-0.763,2.129-2.129,2.972-3.936
			c0.161-0.361,0.281-0.643,0.281-0.844s-0.08-0.481-0.281-0.924l-7.148-17.912H171.564z"/>
	</g>
	<path fill="#FFFFFF" d="M50.097,125.273"/>
	<path fill="none" stroke="#FFFFFF" stroke-width="3" stroke-miterlimit="10" d="M70.737,110.999
		c5.636-3.911,8.027-9.442,8.027-16.823c0-11.967-9.7-21.667-21.667-21.667c-11.967,0-21.667,9.7-21.667,21.667
		c0,7.381,2.389,12.911,8.025,16.823c-9.234,5.115-15.525,15.908-15.525,31.816c0,3.896,13.059,7.057,29.167,7.057
		c16.108,0,29.167-3.16,29.167-7.057C86.264,126.907,79.973,116.114,70.737,110.999z"/>
	<polygon fill="#FFFFFF" stroke="#FFFFFF" stroke-width="3" stroke-miterlimit="10" points="41.583,29.995 41.583,23.714 
		54.351,23.714 54.351,29.968 59.7,29.968 59.7,23.714 72.52,23.714 72.52,29.995 74.949,29.995 74.949,51.654 39.153,51.654 
		39.153,29.995 	"/>
	<g>
		<path fill="#FFFFFF" d="M106.038,130.179l-6.883-20.991h2.959l3.27,10.34c0.872,2.834,1.65,5.388,2.242,7.849h0.062
			c0.592-2.43,1.433-5.077,2.398-7.817l3.55-10.371h2.897l-7.506,20.991H106.038z"/>
		<path fill="#FFFFFF" d="M118.468,126.877c1.215,0.779,2.958,1.371,4.827,1.371c2.771,0,4.392-1.464,4.392-3.582
			c0-1.931-1.122-3.083-3.956-4.142c-3.426-1.246-5.543-3.053-5.543-5.98c0-3.27,2.709-5.699,6.789-5.699
			c2.118,0,3.706,0.498,4.609,1.028l-0.748,2.211c-0.653-0.405-2.055-0.997-3.955-0.997c-2.865,0-3.955,1.713-3.955,3.146
			c0,1.962,1.277,2.927,4.174,4.049c3.55,1.37,5.325,3.083,5.325,6.166c0,3.239-2.367,6.073-7.318,6.073
			c-2.024,0-4.236-0.623-5.357-1.37L118.468,126.877z"/>
	</g>
	<path fill="#FFFFFF" stroke="#FFFFFF" stroke-width="3" stroke-miterlimit="10" d="M186.405,110.999
		c5.636-3.911,8.026-9.441,8.026-16.823c0-11.967-9.699-21.667-21.666-21.667s-21.667,9.7-21.667,21.667
		c0,7.381,2.39,12.911,8.024,16.823c-9.234,5.115-15.524,15.908-15.524,31.816c0,3.896,13.059,7.057,29.167,7.057
		c16.107,0,29.166-3.16,29.166-7.057C201.932,126.907,195.641,116.114,186.405,110.999z"/>
</g>
</svg>
