<?xml version="1.0" encoding="utf-8"?>
<!-- Generator: Adobe Illustrator 15.1.0, SVG Export Plug-In . SVG Version: 6.00 Build 0)  -->
<!DOCTYPE svg PUBLIC "-//W3C//DTD SVG 1.1//EN" "http://www.w3.org/Graphics/SVG/1.1/DTD/svg11.dtd">
<svg version="1.1" xmlns="http://www.w3.org/2000/svg" xmlns:xlink="http://www.w3.org/1999/xlink" x="0px" y="0px" width="231px"
	 height="229px" viewBox="0 0 231 229" enable-background="new 0 0 231 229" xml:space="preserve">
<g id="compass_icon">
</g>
<g id="Layer_3">
</g>
<g id="Layer_5" display="none">
	<g display="inline">
		<line fill="#FFFFFF" x1="422" y1="-929" x2="422" y2="83"/>
		<g>
			<rect x="392" y="-843" fill="#FFFFFF" width="60" height="840"/>
			<g>
				<polygon fill="#FFFFFF" points="362.85,-825 422.674,-928.623 482.51,-825 				"/>
			</g>
			<g>
				<polygon fill="#FFFFFF" points="362.85,-21 422.674,82.623 482.51,-21 				"/>
			</g>
		</g>
	</g>
	<g display="inline">
		<line fill="#FFFFFF" x1="884" y1="-905" x2="884" y2="107"/>
		<g>
			<polygon fill="#FFFFFF" points="914,21 854,21 876.938,-819 891.188,-819 			"/>
			<g>
				<polygon fill="#FFFFFF" points="861.85,-819 883.57,-856.623 905.295,-819 				"/>
			</g>
			<g>
				<polygon fill="#FFFFFF" points="824.85,3 884.674,106.623 944.51,3 				"/>
			</g>
		</g>
		<g>
			<g>
				<polygon fill="#FFFFFF" points="1385,-516 1325,-516 1347.938,-839 1362.188,-839 				"/>
				<g>
					<polygon fill="#FFFFFF" points="1332.85,-839 1354.57,-876.623 1376.295,-839 					"/>
				</g>
				<g>
					<polygon fill="#FFFFFF" points="1295.85,-534 1355.674,-430.377 1415.51,-534 					"/>
				</g>
			</g>
		</g>
	</g>
	<line display="inline" fill="none" stroke="#FFFFFF" stroke-miterlimit="10" x1="870" y1="-823.5" x2="901.25" y2="-823.5"/>
	
		<line display="inline" fill="none" stroke="#FFFFFF" stroke-miterlimit="10" x1="884.125" y1="-825.313" x2="898.25" y2="-825.313"/>
</g>
<g id="Layer_4">
	<g>
		<path fill="#FFFFFF" d="M31.884,215.561c1.566,1.004,3.815,1.767,6.225,1.767c3.574,0,5.663-1.888,5.663-4.618
			c0-2.49-1.446-3.976-5.101-5.342c-4.417-1.606-7.148-3.936-7.148-7.711c0-4.217,3.494-7.35,8.755-7.35
			c2.731,0,4.779,0.643,5.944,1.325l-0.964,2.852c-0.844-0.521-2.651-1.285-5.101-1.285c-3.695,0-5.101,2.209-5.101,4.057
			c0,2.53,1.646,3.775,5.382,5.221c4.578,1.768,6.867,3.977,6.867,7.952c0,4.177-3.052,7.831-9.438,7.831
			c-2.611,0-5.462-0.803-6.908-1.767L31.884,215.561z"/>
		<path fill="#FFFFFF" d="M52.004,191.303h3.534v12.169h0.081c0.562-1.004,1.446-1.928,2.53-2.53
			c1.044-0.603,2.29-0.964,3.615-0.964c2.61,0,6.787,1.606,6.787,8.273v11.566h-3.534v-11.165c0-3.132-1.165-5.743-4.498-5.743
			c-2.289,0-4.056,1.606-4.739,3.494c-0.201,0.522-0.241,1.045-0.241,1.688v11.727h-3.534V191.303z"/>
		<path fill="#FFFFFF" d="M90.558,214.476c0,2.049,0.041,3.815,0.161,5.342h-3.133l-0.201-3.173h-0.081
			c-0.883,1.566-2.972,3.614-6.426,3.614c-3.052,0-6.707-1.727-6.707-8.514V200.38h3.534v10.723c0,3.694,1.165,6.225,4.338,6.225
			c2.369,0,4.016-1.646,4.658-3.253c0.201-0.481,0.321-1.124,0.321-1.808V200.38h3.534V214.476z"/>
		<path fill="#FFFFFF" d="M96.782,219.817V203.07h-2.691v-2.69h2.691v-0.924c0-2.731,0.643-5.222,2.249-6.787
			c1.325-1.285,3.092-1.808,4.739-1.808c1.285,0,2.33,0.281,3.012,0.563l-0.482,2.73c-0.522-0.241-1.205-0.441-2.249-0.441
			c-3.012,0-3.775,2.61-3.775,5.622v1.045h4.699v2.69h-4.699v16.747H96.782z"/>
		<path fill="#FFFFFF" d="M108.508,219.817V203.07h-2.69v-2.69h2.69v-0.924c0-2.731,0.643-5.222,2.249-6.787
			c1.326-1.285,3.093-1.808,4.739-1.808c1.285,0,2.329,0.281,3.012,0.563l-0.481,2.73c-0.522-0.241-1.205-0.441-2.249-0.441
			c-3.012,0-3.775,2.61-3.775,5.622v1.045h4.699v2.69h-4.699v16.747H108.508z"/>
		<path fill="#FFFFFF" d="M119.873,191.303h3.534v28.515h-3.534V191.303z"/>
		<path fill="#FFFFFF" d="M131.318,210.741c0.08,4.779,3.093,6.747,6.667,6.747c2.53,0,4.097-0.442,5.382-1.004l0.643,2.53
			c-1.245,0.562-3.414,1.244-6.506,1.244c-5.984,0-9.559-3.976-9.559-9.839c0-5.864,3.453-10.442,9.116-10.442
			c6.386,0,8.032,5.543,8.032,9.117c0,0.723-0.04,1.244-0.12,1.646H131.318z M141.68,208.211c0.041-2.209-0.924-5.703-4.899-5.703
			c-3.614,0-5.141,3.253-5.421,5.703H141.68z"/>
		<path fill="#FFFFFF" d="M157.703,215.802c1.004,0.602,3.293,1.605,5.783,1.605c4.498,0,5.943-2.851,5.903-5.06
			c-0.04-3.655-3.333-5.222-6.747-5.222h-1.968v-2.65h1.968c2.57,0,5.823-1.325,5.823-4.418c0-2.088-1.325-3.936-4.578-3.936
			c-2.089,0-4.097,0.924-5.221,1.728l-0.964-2.57c1.405-1.005,4.057-2.009,6.867-2.009c5.141,0,7.471,3.053,7.471,6.226
			c0,2.73-1.647,5.02-4.82,6.185v0.08c3.213,0.603,5.783,3.013,5.824,6.667c0,4.177-3.294,7.831-9.519,7.831
			c-2.932,0-5.502-0.924-6.787-1.767L157.703,215.802z"/>
		<path fill="#FFFFFF" d="M178.706,193.07c1.687-0.281,3.896-0.522,6.707-0.522c3.454,0,5.983,0.804,7.591,2.249
			c1.445,1.285,2.369,3.253,2.369,5.663c0,2.449-0.723,4.377-2.088,5.783c-1.889,1.968-4.86,2.972-8.273,2.972
			c-1.045,0-2.008-0.04-2.812-0.241v10.844h-3.494V193.07z M182.2,206.122c0.763,0.201,1.727,0.281,2.892,0.281
			c4.217,0,6.787-2.088,6.787-5.743c0-3.614-2.57-5.341-6.386-5.341c-1.526,0-2.69,0.12-3.293,0.281V206.122z"/>
	</g>
	<g>
		<g>
			<path fill="#FFFFFF" d="M42.735,147.933c3.396-0.08,6.646-0.403,9.911-1c3.249-0.574,6.437-1.419,9.524-2.534
				c6.185-2.222,11.938-5.533,17.207-9.547c5.3-3.983,10.143-8.646,14.728-13.612c4.593-4.964,8.964-10.216,13.322-15.552
				c4.355-5.341,8.736-10.743,13.4-16c4.658-5.256,9.595-10.391,15.089-15.05c5.498-4.638,11.601-8.771,18.301-11.86
				c6.688-3.083,13.94-5.129,21.282-5.779c2.38-0.211,4.479,1.545,4.69,3.925c0.209,2.343-1.5,4.416-3.824,4.68
				c-6.409,0.72-12.676,2.33-18.537,5.038c-5.873,2.673-11.337,6.327-16.42,10.56c-10.237,8.449-18.883,19.084-27.887,29.581
				c-4.503,5.263-9.065,10.566-13.998,15.615c-4.937,5.036-10.227,9.857-16.109,14.007c-5.889,4.119-12.396,7.526-19.326,9.697
				c-3.459,1.09-7.011,1.878-10.59,2.354c-3.564,0.457-7.229,0.607-10.74,0.496l-0.044-0.002c-1.385-0.044-2.472-1.202-2.428-2.587
				C40.329,149.025,41.416,147.967,42.735,147.933z"/>
			<g>
				<polygon fill="#FFFFFF" points="172.209,74.106 193.933,61.709 172.334,49.092 				"/>
			</g>
		</g>
	</g>
	<g>
		<g>
			<path fill="#FFFFFF" d="M42.991,51.515c3.512-0.112,7.176,0.039,10.739,0.496c3.58,0.477,7.132,1.265,10.591,2.355
				c6.931,2.171,13.438,5.578,19.327,9.697c5.883,4.15,11.172,8.972,16.108,14.008c4.934,5.05,9.494,10.351,14,15.617
				c9.004,10.49,17.648,21.135,27.886,29.581c5.085,4.231,10.548,7.888,16.421,10.562c5.861,2.708,12.129,4.314,18.538,5.035
				c2.373,0.267,4.081,2.406,3.814,4.78c-0.263,2.337-2.35,4.028-4.68,3.824c-7.342-0.649-14.597-2.693-21.284-5.776
				c-6.701-3.089-12.802-7.225-18.301-11.861c-5.495-4.66-10.431-9.795-15.09-15.052c-4.67-5.264-9.035-10.653-13.401-16.001
				c-4.356-5.334-8.729-10.587-13.321-15.552c-4.586-4.965-9.428-9.629-14.729-13.613c-5.269-4.014-11.022-7.325-17.207-9.547
				c-3.088-1.115-6.275-1.96-9.524-2.534c-3.265-0.597-6.516-0.92-9.912-1.001c-1.386-0.033-2.481-1.182-2.448-2.567
				c0.031-1.336,1.102-2.403,2.421-2.448L42.991,51.515z"/>
			<g>
				<polygon fill="#FFFFFF" points="172.555,155.215 194.164,142.62 172.45,130.201 				"/>
			</g>
		</g>
	</g>
</g>
</svg>
