<?xml version="1.0" encoding="utf-8"?>
<!-- Generator: Adobe Illustrator 15.1.0, SVG Export Plug-In . SVG Version: 6.00 Build 0)  -->
<!DOCTYPE svg PUBLIC "-//W3C//DTD SVG 1.1//EN" "http://www.w3.org/Graphics/SVG/1.1/DTD/svg11.dtd">
<svg version="1.1" xmlns="http://www.w3.org/2000/svg" xmlns:xlink="http://www.w3.org/1999/xlink" x="0px" y="0px" width="231px"
	 height="229px" viewBox="0 0 231 229" enable-background="new 0 0 231 229" xml:space="preserve">
<g id="compass_icon">
</g>
<g id="Layer_3">
</g>
<g id="Layer_5">
	<polygon fill="none" stroke="#FFFFFF" stroke-width="6" stroke-miterlimit="10" points="46.646,45.627 46.646,18.318 
		102.167,18.318 102.167,45.516 125.431,45.516 125.431,18.318 181.178,18.318 181.178,45.627 191.74,45.627 191.74,139.814 
		36.081,139.814 36.081,45.627 	"/>
	<path fill="none" stroke="#FFFFFF" stroke-width="6.0816" stroke-miterlimit="10" d="M46.247,92.307"/>
	<g>
	</g>
	
		<line fill="#FFFFFF" stroke="#FFFFFF" stroke-width="6" stroke-miterlimit="10" x1="45.078" y1="128.785" x2="97.41" y2="128.785"/>
	
		<line fill="#FFFFFF" stroke="#FFFFFF" stroke-width="6" stroke-miterlimit="10" x1="63.744" y1="114.285" x2="95.667" y2="114.285"/>
	
		<line fill="#FFFFFF" stroke="#FFFFFF" stroke-width="6" stroke-miterlimit="10" x1="144.341" y1="99.785" x2="182.746" y2="99.785"/>
	
		<line fill="#FFFFFF" stroke="#FFFFFF" stroke-width="6" stroke-miterlimit="10" x1="147.709" y1="85.285" x2="181.118" y2="85.285"/>
	
		<line fill="#FFFFFF" stroke="#FFFFFF" stroke-width="6" stroke-miterlimit="10" x1="147.341" y1="70.785" x2="154.077" y2="70.785"/>
	
		<line fill="#FFFFFF" stroke="#FFFFFF" stroke-width="6" stroke-miterlimit="10" x1="164.16" y1="28.619" x2="174.743" y2="28.619"/>
	
		<line fill="#FFFFFF" stroke="#FFFFFF" stroke-width="6" stroke-miterlimit="10" x1="138.491" y1="56.285" x2="182.746" y2="56.285"/>
	
		<line fill="#FFFFFF" stroke="#FFFFFF" stroke-width="6" stroke-miterlimit="10" x1="148.905" y1="41.785" x2="174.743" y2="41.785"/>
	<line fill="#FFFFFF" stroke="#FFFFFF" stroke-width="6" stroke-miterlimit="10" x1="55.41" y1="41.785" x2="93.077" y2="41.785"/>
	<line fill="#FFFFFF" stroke="#FFFFFF" stroke-width="6" stroke-miterlimit="10" x1="76.207" y1="28.619" x2="93.077" y2="28.619"/>
	<line fill="#FFFFFF" stroke="#FFFFFF" stroke-width="6" stroke-miterlimit="10" x1="45.078" y1="56.285" x2="79.076" y2="56.285"/>
	
		<line fill="#FFFFFF" stroke="#FFFFFF" stroke-width="6" stroke-miterlimit="10" x1="157.077" y1="70.785" x2="182.746" y2="70.785"/>
	<line fill="#FFFFFF" stroke="#FFFFFF" stroke-width="6" stroke-miterlimit="10" x1="45.078" y1="85.285" x2="79.076" y2="85.285"/>
	<line fill="#FFFFFF" stroke="#FFFFFF" stroke-width="6" stroke-miterlimit="10" x1="45.078" y1="99.785" x2="83.376" y2="99.785"/>
	
		<line fill="#FFFFFF" stroke="#FFFFFF" stroke-width="6" stroke-miterlimit="10" x1="45.078" y1="114.285" x2="57.744" y2="114.285"/>
	
		<line fill="#FFFFFF" stroke="#FFFFFF" stroke-width="6" stroke-miterlimit="10" x1="131.667" y1="128.785" x2="182.746" y2="128.785"/>
	<line fill="#FFFFFF" stroke="#FFFFFF" stroke-width="6" stroke-miterlimit="10" x1="55.744" y1="28.619" x2="70.207" y2="28.619"/>
	<line fill="#FFFFFF" stroke="#FFFFFF" stroke-width="6" stroke-miterlimit="10" x1="134.14" y1="28.619" x2="158.16" y2="28.619"/>
	
		<line fill="#FFFFFF" stroke="#FFFFFF" stroke-width="6" stroke-miterlimit="10" x1="134.077" y1="41.785" x2="142.905" y2="41.785"/>
	<g>
		<path fill="#FFFFFF" d="M75.4,148.766h3.534v24.137h11.566v2.932H75.4V148.766z"/>
		<path fill="#FFFFFF" d="M98.211,150.934c0,1.205-0.843,2.168-2.249,2.168c-1.285,0-2.128-0.963-2.128-2.168
			s0.883-2.209,2.208-2.209C97.327,148.725,98.211,149.689,98.211,150.934z M94.275,175.834v-19.439h3.534v19.439H94.275z"/>
		<path fill="#FFFFFF" d="M120.299,172.982c0,4.498-0.924,7.188-2.771,8.916c-1.927,1.727-4.659,2.328-7.108,2.328
			c-2.329,0-4.899-0.563-6.466-1.605l0.883-2.73c1.285,0.842,3.293,1.564,5.703,1.564c3.614,0,6.265-1.887,6.265-6.826V172.5h-0.08
			c-1.044,1.807-3.173,3.254-6.185,3.254c-4.819,0-8.273-4.098-8.273-9.479c0-6.586,4.297-10.281,8.795-10.281
			c3.374,0,5.181,1.727,6.064,3.334h0.081l0.119-2.934h3.133c-0.12,1.367-0.16,2.973-0.16,5.303V172.982z M116.765,164.066
			c0-0.604-0.04-1.125-0.2-1.566c-0.643-2.088-2.33-3.775-4.94-3.775c-3.374,0-5.783,2.852-5.783,7.35
			c0,3.814,1.968,6.988,5.743,6.988c2.209,0,4.177-1.365,4.9-3.615c0.2-0.602,0.281-1.285,0.281-1.887V164.066z"/>
		<path fill="#FFFFFF" d="M126.121,147.318h3.534v12.17h0.081c0.562-1.004,1.445-1.928,2.529-2.531
			c1.045-0.602,2.289-0.963,3.615-0.963c2.609,0,6.787,1.605,6.787,8.273v11.566h-3.535v-11.166c0-3.133-1.164-5.742-4.498-5.742
			c-2.289,0-4.056,1.605-4.738,3.494c-0.201,0.521-0.241,1.043-0.241,1.686v11.729h-3.534V147.318z"/>
		<path fill="#FFFFFF" d="M152.506,151.736v4.658h5.061v2.691h-5.061v10.482c0,2.41,0.684,3.775,2.65,3.775
			c0.965,0,1.527-0.08,2.049-0.242l0.16,2.691c-0.682,0.242-1.767,0.482-3.133,0.482c-1.646,0-2.971-0.563-3.814-1.486
			c-0.964-1.084-1.365-2.811-1.365-5.1v-10.604h-3.012v-2.691h3.012v-3.613L152.506,151.736z"/>
		<path fill="#FFFFFF" d="M25.923,185.086c1.687-0.281,3.896-0.521,6.707-0.521c3.454,0,5.984,0.803,7.59,2.248
			c1.446,1.285,2.37,3.254,2.37,5.664c0,2.449-0.723,4.377-2.088,5.783c-1.888,1.967-4.859,2.971-8.273,2.971
			c-1.044,0-2.008-0.039-2.811-0.24v10.844h-3.494V185.086z M29.417,198.139c0.763,0.201,1.727,0.281,2.892,0.281
			c4.217,0,6.787-2.088,6.787-5.744c0-3.613-2.57-5.34-6.386-5.34c-1.526,0-2.691,0.119-3.293,0.281V198.139z"/>
		<path fill="#FFFFFF" d="M46.525,198.459c0-2.289-0.04-4.256-0.161-6.064h3.092l0.161,3.855h0.12
			c0.884-2.609,3.052-4.256,5.422-4.256c0.361,0,0.643,0.039,0.964,0.08v3.334c-0.361-0.08-0.723-0.08-1.205-0.08
			c-2.49,0-4.257,1.846-4.739,4.498c-0.081,0.48-0.121,1.084-0.121,1.646v10.361h-3.534V198.459z"/>
		<path fill="#FFFFFF" d="M76.847,201.953c0,7.189-5.02,10.322-9.679,10.322c-5.221,0-9.317-3.855-9.317-10
			c0-6.467,4.297-10.281,9.639-10.281C73.071,191.994,76.847,196.051,76.847,201.953z M61.465,202.154
			c0,4.258,2.41,7.471,5.864,7.471c3.373,0,5.903-3.174,5.903-7.551c0-3.293-1.646-7.43-5.823-7.43
			C63.272,194.645,61.465,198.5,61.465,202.154z"/>
		<path fill="#FFFFFF" d="M97.93,208.982c0,4.498-0.924,7.188-2.771,8.916c-1.928,1.727-4.658,2.328-7.108,2.328
			c-2.329,0-4.899-0.563-6.466-1.605l0.884-2.73c1.285,0.842,3.293,1.564,5.703,1.564c3.615,0,6.265-1.887,6.265-6.826V208.5h-0.08
			c-1.044,1.807-3.173,3.254-6.185,3.254c-4.819,0-8.273-4.098-8.273-9.479c0-6.586,4.297-10.281,8.795-10.281
			c3.374,0,5.181,1.727,6.064,3.334h0.08l0.121-2.934h3.133c-0.121,1.367-0.161,2.973-0.161,5.303V208.982z M94.396,200.066
			c0-0.604-0.04-1.125-0.201-1.566c-0.643-2.088-2.329-3.775-4.939-3.775c-3.374,0-5.783,2.852-5.783,7.35
			c0,3.814,1.968,6.988,5.743,6.988c2.208,0,4.177-1.365,4.899-3.615c0.201-0.602,0.281-1.285,0.281-1.887V200.066z"/>
		<path fill="#FFFFFF" d="M103.512,198.459c0-2.289-0.04-4.256-0.161-6.064h3.093l0.16,3.855h0.121
			c0.884-2.609,3.052-4.256,5.422-4.256c0.361,0,0.643,0.039,0.964,0.08v3.334c-0.361-0.08-0.723-0.08-1.205-0.08
			c-2.49,0-4.257,1.846-4.739,4.498c-0.08,0.48-0.121,1.084-0.121,1.646v10.361h-3.534V198.459z"/>
		<path fill="#FFFFFF" d="M130.098,207.174c0,1.688,0.081,3.334,0.281,4.66h-3.172l-0.281-2.451h-0.121
			c-1.084,1.527-3.172,2.893-5.943,2.893c-3.936,0-5.944-2.771-5.944-5.582c0-4.699,4.176-7.27,11.686-7.23v-0.4
			c0-1.566-0.441-4.498-4.417-4.459c-1.847,0-3.735,0.523-5.101,1.447l-0.803-2.371c1.605-1.004,3.976-1.686,6.426-1.686
			c5.943,0,7.389,4.057,7.389,7.912V207.174z M126.685,201.914c-3.855-0.08-8.233,0.602-8.233,4.377c0,2.33,1.526,3.373,3.293,3.373
			c2.57,0,4.217-1.605,4.779-3.252c0.121-0.402,0.161-0.803,0.161-1.125V201.914z"/>
		<path fill="#FFFFFF" d="M135.801,197.656c0-2.049-0.08-3.654-0.161-5.262h3.093l0.16,3.174h0.121
			c1.084-1.848,2.891-3.574,6.145-3.574c2.61,0,4.618,1.605,5.461,3.895h0.081c0.603-1.123,1.405-1.928,2.209-2.529
			c1.165-0.883,2.409-1.365,4.257-1.365c2.611,0,6.426,1.686,6.426,8.434v11.406h-3.453v-10.965c0-3.775-1.406-5.984-4.217-5.984
			c-2.049,0-3.575,1.486-4.218,3.174c-0.161,0.521-0.28,1.125-0.28,1.768v12.008h-3.455v-11.646c0-3.094-1.365-5.303-4.056-5.303
			c-2.169,0-3.815,1.768-4.378,3.535c-0.201,0.482-0.281,1.125-0.281,1.727v11.688h-3.453V197.656z"/>
		<path fill="#FFFFFF" d="M171.262,202.758c0.08,4.779,3.092,6.746,6.666,6.746c2.531,0,4.098-0.441,5.383-1.004l0.643,2.529
			c-1.246,0.563-3.414,1.246-6.507,1.246c-5.983,0-9.558-3.977-9.558-9.84s3.453-10.441,9.115-10.441
			c6.387,0,8.033,5.541,8.033,9.117c0,0.723-0.041,1.244-0.121,1.646H171.262z M181.623,200.227c0.04-2.209-0.924-5.703-4.9-5.703
			c-3.613,0-5.141,3.254-5.421,5.703H181.623z"/>
		<path fill="#FFFFFF" d="M189.414,198.459c0-2.289-0.041-4.256-0.161-6.064h3.093l0.16,3.855h0.121
			c0.883-2.609,3.052-4.256,5.422-4.256c0.361,0,0.643,0.039,0.963,0.08v3.334c-0.361-0.08-0.723-0.08-1.205-0.08
			c-2.489,0-4.256,1.846-4.738,4.498c-0.08,0.48-0.121,1.084-0.121,1.646v10.361h-3.533V198.459z"/>
	</g>
	<line fill="#FFFFFF" stroke="#FFFFFF" stroke-width="6" stroke-miterlimit="10" x1="83.376" y1="56.285" x2="90.333" y2="56.285"/>
	
		<line fill="#FFFFFF" stroke="#FFFFFF" stroke-width="6" stroke-miterlimit="10" x1="131.667" y1="114.285" x2="151.077" y2="114.285"/>
	
		<line fill="#FFFFFF" stroke="#FFFFFF" stroke-width="6" stroke-miterlimit="10" x1="157.077" y1="114.285" x2="182.746" y2="114.285"/>
	<line fill="#FFFFFF" stroke="#FFFFFF" stroke-width="6" stroke-miterlimit="10" x1="46.247" y1="68.334" x2="52.983" y2="68.334"/>
	<line fill="#FFFFFF" stroke="#FFFFFF" stroke-width="6" stroke-miterlimit="10" x1="56.983" y1="68.334" x2="82.652" y2="68.334"/>
	<g>
		<path fill="#FFFFFF" d="M109.493,113.696h15.513v-8.927h0.217c0.59-0.262,1.168-0.547,1.744-0.854
			c13.641-7.243,18.824-24.172,11.576-37.81c-5.02-9.451-14.688-14.841-24.692-14.85h0.122c-10.005,0.009-19.673,5.399-24.696,14.85
			c-7.245,13.638-2.063,30.567,11.577,37.81c0.577,0.308,1.157,0.593,1.748,0.854h0.213v8.927h15.514"/>
		
			<line fill="#FFFFFF" stroke="#FFFFFF" stroke-width="2" stroke-miterlimit="10" x1="103.373" y1="118.033" x2="124.34" y2="118.033"/>
		
			<line fill="#FFFFFF" stroke="#FFFFFF" stroke-width="2" stroke-miterlimit="10" x1="107.844" y1="123.205" x2="119.867" y2="123.205"/>
	</g>
</g>
</svg>
