<?xml version="1.0" encoding="utf-8"?>
<!-- Generator: Adobe Illustrator 15.1.0, SVG Export Plug-In . SVG Version: 6.00 Build 0)  -->
<!DOCTYPE svg PUBLIC "-//W3C//DTD SVG 1.1//EN" "http://www.w3.org/Graphics/SVG/1.1/DTD/svg11.dtd">
<svg version="1.1" xmlns="http://www.w3.org/2000/svg" xmlns:xlink="http://www.w3.org/1999/xlink" x="0px" y="0px" width="231px"
	 height="229px" viewBox="0 0 231 229" enable-background="new 0 0 231 229" xml:space="preserve">
<g id="compass_icon">
</g>
<g id="Layer_3">
</g>
<g id="Layer_4">
	<g>
		<path fill="#FFFFFF" d="M73.228,167.042l-2.688,8.139h-3.455l8.83-25.876h3.993l8.83,25.876h-3.57l-2.764-8.139H73.228z
			 M81.75,164.432l-2.572-7.448c-0.576-1.689-0.959-3.225-1.343-4.723h-0.077c-0.384,1.498-0.768,3.11-1.305,4.685l-2.534,7.486
			H81.75z"/>
		<path fill="#FFFFFF" d="M92.925,156.6l3.647,10.403c0.614,1.728,1.113,3.264,1.498,4.8h0.115c0.422-1.536,0.959-3.072,1.574-4.8
			l3.609-10.403h3.532l-7.294,18.581H96.38L89.316,156.6H92.925z"/>
		<path fill="#FFFFFF" d="M122.986,170.728c0,1.612,0.077,3.187,0.269,4.453h-3.032l-0.27-2.342h-0.115
			c-1.036,1.459-3.032,2.764-5.682,2.764c-3.762,0-5.682-2.648-5.682-5.336c0-4.492,3.993-6.949,11.172-6.91v-0.384
			c0-1.498-0.422-4.3-4.223-4.262c-1.766,0-3.57,0.499-4.875,1.382l-0.768-2.265c1.536-0.96,3.801-1.612,6.143-1.612
			c5.682,0,7.064,3.877,7.064,7.563V170.728z M119.723,165.698c-3.686-0.077-7.87,0.575-7.87,4.185c0,2.227,1.459,3.225,3.148,3.225
			c2.457,0,4.031-1.535,4.568-3.109c0.115-0.384,0.153-0.768,0.153-1.075V165.698z"/>
		<path fill="#FFFFFF" d="M132.355,152.146v4.453h4.837v2.572h-4.837v10.02c0,2.304,0.652,3.609,2.534,3.609
			c0.921,0,1.458-0.077,1.958-0.23l0.153,2.572c-0.653,0.23-1.689,0.46-2.995,0.46c-1.573,0-2.841-0.537-3.646-1.42
			c-0.922-1.037-1.306-2.688-1.306-4.876v-10.135h-2.879V156.6h2.879v-3.455L132.355,152.146z"/>
		<path fill="#FFFFFF" d="M154.048,170.728c0,1.612,0.077,3.187,0.269,4.453h-3.032l-0.27-2.342h-0.115
			c-1.036,1.459-3.032,2.764-5.682,2.764c-3.762,0-5.682-2.648-5.682-5.336c0-4.492,3.992-6.949,11.172-6.91v-0.384
			c0-1.498-0.423-4.3-4.224-4.262c-1.766,0-3.57,0.499-4.875,1.382l-0.768-2.265c1.535-0.96,3.801-1.612,6.143-1.612
			c5.682,0,7.063,3.877,7.063,7.563V170.728z M150.785,165.698c-3.686-0.077-7.871,0.575-7.871,4.185
			c0,2.227,1.459,3.225,3.148,3.225c2.457,0,4.031-1.535,4.568-3.109c0.115-0.384,0.154-0.768,0.154-1.075V165.698z"/>
		<path fill="#FFFFFF" d="M159.501,162.396c0-2.188-0.038-4.069-0.153-5.797h2.956l0.153,3.686h0.115
			c0.845-2.496,2.918-4.069,5.183-4.069c0.346,0,0.614,0.038,0.921,0.076v3.187c-0.345-0.076-0.69-0.076-1.151-0.076
			c-2.38,0-4.069,1.766-4.53,4.3c-0.076,0.46-0.115,1.036-0.115,1.573v9.905h-3.378V162.396z"/>
		<path fill="#FFFFFF" d="M6.056,184.03c1.612-0.269,3.724-0.499,6.411-0.499c3.302,0,5.72,0.768,7.256,2.149
			c1.382,1.229,2.265,3.11,2.265,5.413c0,2.342-0.691,4.185-1.997,5.528c-1.804,1.882-4.645,2.841-7.908,2.841
			c-0.999,0-1.92-0.038-2.688-0.229v10.365h-3.34V184.03z M9.396,196.507c0.729,0.192,1.651,0.27,2.764,0.27
			c4.031,0,6.488-1.997,6.488-5.49c0-3.455-2.457-5.106-6.104-5.106c-1.459,0-2.572,0.115-3.148,0.27V196.507z"/>
		<path fill="#FFFFFF" d="M25.752,196.814c0-2.188-0.039-4.069-0.154-5.797h2.956l0.154,3.686h0.115
			c0.844-2.496,2.917-4.069,5.183-4.069c0.346,0,0.614,0.038,0.921,0.076v3.187c-0.346-0.076-0.691-0.076-1.152-0.076
			c-2.38,0-4.069,1.766-4.53,4.3c-0.077,0.46-0.115,1.036-0.115,1.573v9.905h-3.378V196.814z"/>
		<path fill="#FFFFFF" d="M54.739,200.154c0,6.872-4.799,9.866-9.252,9.866c-4.991,0-8.907-3.686-8.907-9.559
			c0-6.182,4.108-9.828,9.214-9.828C51.13,190.634,54.739,194.511,54.739,200.154z M40.035,200.347c0,4.069,2.304,7.141,5.605,7.141
			c3.225,0,5.644-3.033,5.644-7.218c0-3.148-1.574-7.103-5.567-7.103C41.763,193.167,40.035,196.853,40.035,200.347z"/>
		<path fill="#FFFFFF" d="M74.896,206.873c0,4.3-0.883,6.872-2.649,8.522c-1.843,1.651-4.453,2.227-6.795,2.227
			c-2.227,0-4.684-0.537-6.181-1.535l0.845-2.61c1.229,0.806,3.148,1.497,5.451,1.497c3.456,0,5.989-1.805,5.989-6.526v-2.035H71.48
			c-0.999,1.728-3.033,3.109-5.913,3.109c-4.606,0-7.908-3.916-7.908-9.06c0-6.297,4.108-9.828,8.408-9.828
			c3.225,0,4.952,1.65,5.797,3.187h0.077l0.115-2.803h2.995c-0.115,1.305-0.154,2.841-0.154,5.067V206.873z M71.518,198.35
			c0-0.575-0.038-1.074-0.192-1.497c-0.614-1.996-2.227-3.608-4.722-3.608c-3.225,0-5.528,2.726-5.528,7.025
			c0,3.647,1.881,6.68,5.49,6.68c2.111,0,3.993-1.305,4.684-3.455c0.192-0.575,0.269-1.229,0.269-1.804V198.35z"/>
		<path fill="#FFFFFF" d="M80.235,196.814c0-2.188-0.039-4.069-0.154-5.797h2.956l0.154,3.686h0.115
			c0.844-2.496,2.917-4.069,5.183-4.069c0.346,0,0.614,0.038,0.921,0.076v3.187c-0.346-0.076-0.691-0.076-1.152-0.076
			c-2.38,0-4.069,1.766-4.53,4.3c-0.077,0.46-0.115,1.036-0.115,1.573v9.905h-3.378V196.814z"/>
		<path fill="#FFFFFF" d="M105.651,205.146c0,1.612,0.077,3.187,0.269,4.453h-3.033l-0.269-2.342h-0.115
			c-1.037,1.459-3.033,2.764-5.682,2.764c-3.762,0-5.682-2.648-5.682-5.336c0-4.492,3.993-6.949,11.172-6.91v-0.384
			c0-1.498-0.422-4.3-4.223-4.262c-1.766,0-3.57,0.499-4.875,1.382l-0.768-2.265c1.536-0.96,3.801-1.612,6.143-1.612
			c5.682,0,7.064,3.877,7.064,7.563V205.146z M102.388,200.116c-3.686-0.077-7.87,0.575-7.87,4.185c0,2.227,1.459,3.225,3.148,3.225
			c2.457,0,4.031-1.535,4.568-3.109c0.115-0.384,0.154-0.768,0.154-1.075V200.116z"/>
		<path fill="#FFFFFF" d="M111.105,196.047c0-1.958-0.077-3.494-0.154-5.029h2.956l0.154,3.032h0.115
			c1.037-1.766,2.764-3.416,5.874-3.416c2.495,0,4.415,1.535,5.222,3.724h0.076c0.576-1.075,1.344-1.843,2.111-2.419
			c1.113-0.845,2.304-1.305,4.07-1.305c2.495,0,6.143,1.612,6.143,8.062v10.903h-3.302v-10.48c0-3.609-1.344-5.721-4.031-5.721
			c-1.958,0-3.417,1.421-4.031,3.033c-0.153,0.499-0.269,1.075-0.269,1.689v11.479h-3.302v-11.134c0-2.956-1.306-5.067-3.878-5.067
			c-2.072,0-3.646,1.689-4.184,3.379c-0.192,0.46-0.269,1.074-0.269,1.65v11.172h-3.301V196.047z"/>
		<path fill="#FFFFFF" d="M143.127,196.047c0-1.958-0.077-3.494-0.153-5.029h2.956l0.153,3.032h0.115
			c1.036-1.766,2.764-3.416,5.874-3.416c2.495,0,4.415,1.535,5.221,3.724h0.077c0.575-1.075,1.344-1.843,2.111-2.419
			c1.113-0.845,2.304-1.305,4.069-1.305c2.495,0,6.143,1.612,6.143,8.062v10.903h-3.302v-10.48c0-3.609-1.344-5.721-4.031-5.721
			c-1.958,0-3.416,1.421-4.03,3.033c-0.154,0.499-0.27,1.075-0.27,1.689v11.479h-3.301v-11.134c0-2.956-1.306-5.067-3.878-5.067
			c-2.073,0-3.647,1.689-4.185,3.379c-0.192,0.46-0.269,1.074-0.269,1.65v11.172h-3.302V196.047z"/>
		<path fill="#FFFFFF" d="M178.91,185.796c0,1.152-0.806,2.073-2.149,2.073c-1.229,0-2.035-0.921-2.035-2.073
			c0-1.151,0.845-2.111,2.112-2.111C178.066,183.685,178.91,184.606,178.91,185.796z M175.148,209.599v-18.581h3.378v18.581H175.148
			z"/>
		<path fill="#FFFFFF" d="M184.133,196.047c0-1.958-0.039-3.494-0.153-5.029h2.994l0.192,3.071h0.076
			c0.922-1.728,3.071-3.455,6.143-3.455c2.572,0,6.565,1.535,6.565,7.908v11.057h-3.379v-10.711c0-2.995-1.113-5.49-4.3-5.49
			c-2.188,0-3.916,1.574-4.53,3.455c-0.153,0.423-0.23,0.998-0.23,1.574v11.172h-3.378V196.047z"/>
		<path fill="#FFFFFF" d="M221.335,206.873c0,4.3-0.883,6.872-2.648,8.522c-1.843,1.651-4.454,2.227-6.796,2.227
			c-2.227,0-4.684-0.537-6.181-1.535l0.845-2.61c1.229,0.806,3.148,1.497,5.451,1.497c3.455,0,5.989-1.805,5.989-6.526v-2.035
			h-0.077c-0.998,1.728-3.032,3.109-5.912,3.109c-4.606,0-7.908-3.916-7.908-9.06c0-6.297,4.107-9.828,8.407-9.828
			c3.226,0,4.953,1.65,5.798,3.187h0.076l0.115-2.803h2.994c-0.115,1.305-0.153,2.841-0.153,5.067V206.873z M217.957,198.35
			c0-0.575-0.039-1.074-0.192-1.497c-0.614-1.996-2.227-3.608-4.722-3.608c-3.226,0-5.528,2.726-5.528,7.025
			c0,3.647,1.881,6.68,5.489,6.68c2.112,0,3.993-1.305,4.684-3.455c0.192-0.575,0.27-1.229,0.27-1.804V198.35z"/>
	</g>
	<polygon fill="none" stroke="#FFFFFF" stroke-width="2.7901" stroke-miterlimit="10" points="26.816,86.055 26.816,73.355 
		52.634,73.355 52.634,86.003 63.452,86.003 63.452,73.355 89.374,73.355 89.374,86.055 94.286,86.055 94.286,129.852 
		21.903,129.852 21.903,86.055 	"/>
	<path fill="none" stroke="#FFFFFF" stroke-width="2.828" stroke-miterlimit="10" d="M26.63,107.761"/>
	<g>
	</g>
	
		<line fill="#FFFFFF" stroke="#FFFFFF" stroke-width="2.7901" stroke-miterlimit="10" x1="26.087" y1="124.723" x2="55.537" y2="124.723"/>
	
		<line fill="#FFFFFF" stroke="#FFFFFF" stroke-width="2.7901" stroke-miterlimit="10" x1="34.767" y1="117.98" x2="90.104" y2="117.98"/>
	
		<line fill="#FFFFFF" stroke="#FFFFFF" stroke-width="2.7901" stroke-miterlimit="10" x1="70.901" y1="111.239" x2="90.104" y2="111.239"/>
	
		<line fill="#FFFFFF" stroke="#FFFFFF" stroke-width="2.7901" stroke-miterlimit="10" x1="53.212" y1="104.496" x2="90.104" y2="104.496"/>
	
		<line fill="#FFFFFF" stroke="#FFFFFF" stroke-width="2.7901" stroke-miterlimit="10" x1="26.087" y1="97.753" x2="75.377" y2="97.753"/>
	
		<line fill="#FFFFFF" stroke="#FFFFFF" stroke-width="2.7901" stroke-miterlimit="10" x1="81.461" y1="78.146" x2="86.382" y2="78.146"/>
	
		<line fill="#FFFFFF" stroke="#FFFFFF" stroke-width="2.7901" stroke-miterlimit="10" x1="44.687" y1="91.011" x2="90.103" y2="91.011"/>
	
		<line fill="#FFFFFF" stroke="#FFFFFF" stroke-width="2.7901" stroke-miterlimit="10" x1="74.368" y1="84.268" x2="86.382" y2="84.268"/>
	
		<line fill="#FFFFFF" stroke="#FFFFFF" stroke-width="2.7901" stroke-miterlimit="10" x1="30.892" y1="84.268" x2="48.407" y2="84.268"/>
	
		<line fill="#FFFFFF" stroke="#FFFFFF" stroke-width="2.7901" stroke-miterlimit="10" x1="40.562" y1="78.146" x2="48.407" y2="78.146"/>
	
		<line fill="#FFFFFF" stroke="#FFFFFF" stroke-width="2.7901" stroke-miterlimit="10" x1="26.087" y1="91.011" x2="41.896" y2="91.011"/>
	
		<line fill="#FFFFFF" stroke="#FFFFFF" stroke-width="2.7901" stroke-miterlimit="10" x1="78.167" y1="97.753" x2="90.104" y2="97.753"/>
	
		<line fill="#FFFFFF" stroke="#FFFFFF" stroke-width="2.7901" stroke-miterlimit="10" x1="26.087" y1="104.496" x2="50.422" y2="104.496"/>
	
		<line fill="#FFFFFF" stroke="#FFFFFF" stroke-width="2.7901" stroke-miterlimit="10" x1="26.087" y1="111.239" x2="68.149" y2="111.239"/>
	
		<line fill="#FFFFFF" stroke="#FFFFFF" stroke-width="2.7901" stroke-miterlimit="10" x1="26.087" y1="117.98" x2="31.977" y2="117.98"/>
	
		<line fill="#FFFFFF" stroke="#FFFFFF" stroke-width="2.7901" stroke-miterlimit="10" x1="58.327" y1="124.723" x2="90.104" y2="124.723"/>
	
		<line fill="#FFFFFF" stroke="#FFFFFF" stroke-width="2.7901" stroke-miterlimit="10" x1="31.047" y1="78.146" x2="37.772" y2="78.146"/>
	
		<line fill="#FFFFFF" stroke="#FFFFFF" stroke-width="2.7901" stroke-miterlimit="10" x1="67.501" y1="78.146" x2="78.671" y2="78.146"/>
	
		<line fill="#FFFFFF" stroke="#FFFFFF" stroke-width="2.7901" stroke-miterlimit="10" x1="67.472" y1="84.268" x2="71.578" y2="84.268"/>
	<polygon opacity="0.7" fill="none" stroke="#FFFFFF" stroke-width="2.7901" stroke-miterlimit="10" points="137.849,50.719 
		137.849,38.02 163.667,38.02 163.667,50.667 174.483,50.667 174.483,38.02 200.407,38.02 200.407,50.719 205.317,50.719 
		205.317,94.516 132.937,94.516 132.937,50.719 	"/>
	<path opacity="0.7" fill="none" stroke="#FFFFFF" stroke-width="2.828" stroke-miterlimit="10" d="M137.663,72.425"/>
	<g opacity="0.7">
	</g>
	
		<line opacity="0.7" fill="#FFFFFF" stroke="#FFFFFF" stroke-width="2.7901" stroke-miterlimit="10" x1="137.12" y1="89.388" x2="166.569" y2="89.388"/>
	
		<line opacity="0.7" fill="#FFFFFF" stroke="#FFFFFF" stroke-width="2.7901" stroke-miterlimit="10" x1="145.8" y1="82.645" x2="201.136" y2="82.645"/>
	
		<line opacity="0.7" fill="#FFFFFF" stroke="#FFFFFF" stroke-width="2.7901" stroke-miterlimit="10" x1="181.933" y1="75.903" x2="201.136" y2="75.903"/>
	
		<line opacity="0.7" fill="#FFFFFF" stroke="#FFFFFF" stroke-width="2.7901" stroke-miterlimit="10" x1="164.245" y1="69.161" x2="201.136" y2="69.161"/>
	
		<line opacity="0.7" fill="#FFFFFF" stroke="#FFFFFF" stroke-width="2.7901" stroke-miterlimit="10" x1="137.12" y1="62.417" x2="186.409" y2="62.417"/>
	
		<line opacity="0.7" fill="#FFFFFF" stroke="#FFFFFF" stroke-width="2.7901" stroke-miterlimit="10" x1="192.493" y1="42.81" x2="197.415" y2="42.81"/>
	
		<line opacity="0.7" fill="#FFFFFF" stroke="#FFFFFF" stroke-width="2.7901" stroke-miterlimit="10" x1="155.72" y1="55.674" x2="201.136" y2="55.674"/>
	
		<line opacity="0.7" fill="#FFFFFF" stroke="#FFFFFF" stroke-width="2.7901" stroke-miterlimit="10" x1="185.399" y1="48.932" x2="197.415" y2="48.932"/>
	
		<line opacity="0.7" fill="#FFFFFF" stroke="#FFFFFF" stroke-width="2.7901" stroke-miterlimit="10" x1="141.925" y1="48.932" x2="159.438" y2="48.932"/>
	
		<line opacity="0.7" fill="#FFFFFF" stroke="#FFFFFF" stroke-width="2.7901" stroke-miterlimit="10" x1="151.595" y1="42.81" x2="159.438" y2="42.81"/>
	
		<line opacity="0.7" fill="#FFFFFF" stroke="#FFFFFF" stroke-width="2.7901" stroke-miterlimit="10" x1="137.12" y1="55.674" x2="152.929" y2="55.674"/>
	
		<line opacity="0.7" fill="#FFFFFF" stroke="#FFFFFF" stroke-width="2.7901" stroke-miterlimit="10" x1="189.2" y1="62.417" x2="201.136" y2="62.417"/>
	
		<line opacity="0.7" fill="#FFFFFF" stroke="#FFFFFF" stroke-width="2.7901" stroke-miterlimit="10" x1="137.12" y1="69.161" x2="161.454" y2="69.161"/>
	
		<line opacity="0.7" fill="#FFFFFF" stroke="#FFFFFF" stroke-width="2.7901" stroke-miterlimit="10" x1="137.12" y1="75.903" x2="179.181" y2="75.903"/>
	
		<line opacity="0.7" fill="#FFFFFF" stroke="#FFFFFF" stroke-width="2.7901" stroke-miterlimit="10" x1="137.12" y1="82.645" x2="143.009" y2="82.645"/>
	
		<line opacity="0.7" fill="#FFFFFF" stroke="#FFFFFF" stroke-width="2.7901" stroke-miterlimit="10" x1="169.36" y1="89.388" x2="201.136" y2="89.388"/>
	
		<line opacity="0.7" fill="#FFFFFF" stroke="#FFFFFF" stroke-width="2.7901" stroke-miterlimit="10" x1="142.079" y1="42.81" x2="148.804" y2="42.81"/>
	
		<line opacity="0.7" fill="#FFFFFF" stroke="#FFFFFF" stroke-width="2.7901" stroke-miterlimit="10" x1="178.534" y1="42.81" x2="189.704" y2="42.81"/>
	
		<line opacity="0.7" fill="#FFFFFF" stroke="#FFFFFF" stroke-width="2.7901" stroke-miterlimit="10" x1="178.505" y1="48.932" x2="182.61" y2="48.932"/>
	<g>
		<g>
			<polyline fill="none" stroke="#FFFFFF" stroke-width="2.79" stroke-linecap="square" stroke-linejoin="round" points="
				99.835,100.992 113.169,100.992 113.169,65.992 121.829,65.992 			"/>
			<g>
				<polygon fill="#FFFFFF" points="120.608,70.142 127.836,65.969 120.608,61.796 				"/>
			</g>
		</g>
	</g>
</g>
</svg>
