<?xml version="1.0" encoding="utf-8"?>
<!-- Generator: Adobe Illustrator 15.1.0, SVG Export Plug-In . SVG Version: 6.00 Build 0)  -->
<!DOCTYPE svg PUBLIC "-//W3C//DTD SVG 1.1//EN" "http://www.w3.org/Graphics/SVG/1.1/DTD/svg11.dtd" [
	<!ENTITY ns_extend "http://ns.adobe.com/Extensibility/1.0/">
	<!ENTITY ns_ai "http://ns.adobe.com/AdobeIllustrator/10.0/">
	<!ENTITY ns_graphs "http://ns.adobe.com/Graphs/1.0/">
	<!ENTITY ns_vars "http://ns.adobe.com/Variables/1.0/">
	<!ENTITY ns_imrep "http://ns.adobe.com/ImageReplacement/1.0/">
	<!ENTITY ns_sfw "http://ns.adobe.com/SaveForWeb/1.0/">
	<!ENTITY ns_custom "http://ns.adobe.com/GenericCustomNamespace/1.0/">
	<!ENTITY ns_adobe_xpath "http://ns.adobe.com/XPath/1.0/">
]>
<svg version="1.1" xmlns:x="&ns_extend;" xmlns:i="&ns_ai;" xmlns:graph="&ns_graphs;"
	 xmlns="http://www.w3.org/2000/svg" xmlns:xlink="http://www.w3.org/1999/xlink" x="0px" y="0px" width="231px" height="229px"
	 viewBox="0 0 231 229" enable-background="new 0 0 231 229" xml:space="preserve">
<metadata>
	<sfw  xmlns="&ns_sfw;">
		<slices></slices>
		<sliceSourceBounds  x="-8076" y="-8306" width="16383" height="16383" bottomLeftOrigin="true"></sliceSourceBounds>
	</sfw>
</metadata>
<g id="Layer_4" display="none">
	
		<circle display="inline" fill="none" stroke="#FFFFFF" stroke-width="7.3285" stroke-linecap="round" stroke-linejoin="round" cx="193.373" cy="110.179" r="17.748"/>
	
		<circle display="inline" fill="none" stroke="#FFFFFF" stroke-width="7.3285" stroke-linecap="round" stroke-linejoin="round" cx="141.407" cy="110.179" r="17.747"/>
	
		<circle display="inline" fill="none" stroke="#FFFFFF" stroke-width="7.3285" stroke-linecap="round" stroke-linejoin="round" cx="89.587" cy="110.179" r="17.75"/>
	<path display="inline" fill="none" stroke="#FFFFFF" stroke-width="7.3285" stroke-linecap="round" stroke-linejoin="round" d="
		M55.374,110.179c0,9.801-7.941,17.747-17.744,17.747c-9.803,0-17.75-7.946-17.75-17.747s7.947-17.748,17.75-17.748
		C47.433,92.431,55.374,100.378,55.374,110.179z"/>
	
		<circle display="inline" fill="none" stroke="#FFFFFF" stroke-width="7.3285" stroke-linecap="round" stroke-linejoin="round" cx="193.373" cy="58.948" r="17.748"/>
	<path display="inline" fill="none" stroke="#FFFFFF" stroke-width="7.3285" stroke-linecap="round" stroke-linejoin="round" d="
		M159.154,58.948c0,9.801-7.943,17.746-17.744,17.746c-9.802,0-17.75-7.945-17.75-17.746c0-9.803,7.948-17.749,17.75-17.749
		C151.211,41.199,159.154,49.146,159.154,58.948z"/>
	
		<circle display="inline" fill="none" stroke="#FFFFFF" stroke-width="7.3285" stroke-linecap="round" stroke-linejoin="round" cx="89.587" cy="58.948" r="17.75"/>
	<path display="inline" fill="none" stroke="#FFFFFF" stroke-width="7.3285" stroke-linecap="round" stroke-linejoin="round" d="
		M55.374,58.948c0,9.801-7.941,17.746-17.744,17.746c-9.803,0-17.75-7.945-17.75-17.746c0-9.803,7.947-17.749,17.75-17.749
		C47.433,41.199,55.374,49.146,55.374,58.948z"/>
	<g display="inline">
		<path fill="#FFFFFF" d="M80.003,193.301l-2.811,8.515h-3.615l9.237-27.068h4.177l9.237,27.068h-3.735l-2.892-8.515H80.003z
			 M88.919,190.57l-2.691-7.791c-0.603-1.768-1.004-3.374-1.406-4.939h-0.08c-0.402,1.565-0.803,3.252-1.366,4.898l-2.65,7.832
			H88.919z"/>
		<path fill="#FFFFFF" d="M99.963,188.723c0-2.49-0.08-4.498-0.161-6.346h3.133l0.201,3.334h0.08
			c1.406-2.369,3.735-3.735,6.908-3.735c4.739,0,8.272,3.976,8.272,9.84c0,6.987-4.297,10.441-8.875,10.441
			c-2.57,0-4.819-1.124-5.984-3.052h-0.08v10.563h-3.494V188.723z M103.457,193.904c0,0.521,0.04,1.004,0.161,1.445
			c0.643,2.449,2.771,4.137,5.301,4.137c3.735,0,5.904-3.053,5.904-7.51c0-3.855-2.048-7.189-5.783-7.189
			c-2.41,0-4.699,1.687-5.341,4.338c-0.121,0.441-0.241,0.963-0.241,1.405V193.904z"/>
		<path fill="#FFFFFF" d="M122.813,188.723c0-2.49-0.08-4.498-0.161-6.346h3.133l0.201,3.334h0.08
			c1.406-2.369,3.735-3.735,6.908-3.735c4.738,0,8.273,3.976,8.273,9.84c0,6.987-4.298,10.441-8.876,10.441
			c-2.57,0-4.819-1.124-5.984-3.052h-0.08v10.563h-3.494V188.723z M126.308,193.904c0,0.521,0.04,1.004,0.161,1.445
			c0.643,2.449,2.771,4.137,5.301,4.137c3.734,0,5.904-3.053,5.904-7.51c0-3.855-2.049-7.189-5.783-7.189
			c-2.41,0-4.699,1.687-5.342,4.338c-0.121,0.441-0.241,0.963-0.241,1.405V193.904z"/>
		<path fill="#FFFFFF" d="M145.182,198.241c1.085,0.643,2.933,1.365,4.699,1.365c2.53,0,3.735-1.245,3.735-2.892
			c0-1.687-1.004-2.57-3.574-3.534c-3.534-1.285-5.181-3.173-5.181-5.502c0-3.133,2.57-5.703,6.707-5.703
			c1.967,0,3.694,0.522,4.738,1.205l-0.844,2.57c-0.763-0.481-2.168-1.165-3.976-1.165c-2.088,0-3.213,1.205-3.213,2.65
			c0,1.607,1.125,2.33,3.655,3.334c3.333,1.245,5.1,2.932,5.1,5.823c0,3.454-2.69,5.863-7.229,5.863
			c-2.129,0-4.097-0.562-5.462-1.365L145.182,198.241z"/>
	</g>
</g>
<g id="compass_icon">
</g>
<g id="Layer_8">
	<path fill="none" stroke="#FFFFFF" stroke-width="1.4704" stroke-miterlimit="10" d="M164.438,69.885"/>
	<polygon fill="none" stroke="#FFFFFF" stroke-width="4.4112" stroke-miterlimit="10" points="62.553,37.074 62.551,66.759 
		161.312,66.759 161.312,37.074 157.981,37.074 157.981,28.29 140.412,28.466 140.412,37.074 133.079,37.039 133.079,28.501 
		115.58,28.466 115.58,37.074 108.246,37.074 108.246,28.466 90.712,28.466 90.712,37.074 83.698,37.074 83.698,28.528 
		65.81,28.528 65.81,37.074 	"/>
	<polyline fill="none" stroke="#FFFFFF" stroke-width="4.4112" stroke-miterlimit="10" points="142.515,66.759 142.515,102.196 
		83.951,102.196 83.951,66.759 	"/>
	<path fill="none" stroke="#FFFFFF" stroke-width="1.4704" stroke-miterlimit="10" d="M78.741,98.027"/>
	<polygon fill="none" stroke="#FFFFFF" stroke-width="2.2056" stroke-miterlimit="10" points="166.521,23.256 166.521,71.97 
		147.725,71.97 147.725,142.842 78.741,142.842 78.741,71.97 57.463,71.97 57.463,23.256 166.521,23.248 	"/>
	<path fill="none" stroke="#FFFFFF" stroke-width="2.2056" stroke-miterlimit="10" d="M147.725,98.027"/>
	<polyline fill="none" stroke="#FFFFFF" stroke-width="4.4112" stroke-miterlimit="10" points="142.515,102.196 142.515,137.631 
		83.951,137.631 83.951,102.196 	"/>
	<path fill="none" stroke="#FFFFFF" stroke-width="2.7142" stroke-miterlimit="10" d="M172.271,57.794"/>
	
		<line fill="none" stroke="#FFFFFF" stroke-width="2.7142" stroke-miterlimit="10" x1="167.257" y1="26.668" x2="167.259" y2="67.68"/>
	<g>
		<path fill="#FFFFFF" d="M45.587,175.613h-8.233v-2.973h20.04v2.973h-8.273v24.096h-3.534V175.613z"/>
		<path fill="#FFFFFF" d="M71.37,195.051c0,1.688,0.081,3.334,0.281,4.658h-3.173l-0.281-2.449h-0.12
			c-1.084,1.525-3.173,2.891-5.944,2.891c-3.936,0-5.944-2.77-5.944-5.582c0-4.699,4.177-7.27,11.687-7.229v-0.402
			c0-1.566-0.441-4.498-4.417-4.457c-1.847,0-3.735,0.521-5.101,1.445l-0.803-2.369c1.606-1.004,3.976-1.688,6.426-1.688
			c5.944,0,7.39,4.057,7.39,7.912V195.051z M67.956,189.789c-3.855-0.08-8.233,0.604-8.233,4.379c0,2.328,1.526,3.373,3.293,3.373
			c2.57,0,4.217-1.607,4.779-3.254c0.121-0.4,0.161-0.803,0.161-1.123V189.789z"/>
		<path fill="#FFFFFF" d="M77.072,185.533c0-2.049-0.04-3.654-0.161-5.262h3.133l0.201,3.213h0.08
			c0.964-1.807,3.213-3.615,6.426-3.615c2.691,0,6.868,1.607,6.868,8.273v11.566h-3.534v-11.205c0-3.133-1.165-5.742-4.498-5.742
			c-2.289,0-4.096,1.646-4.739,3.615c-0.161,0.441-0.241,1.043-0.241,1.646v11.686h-3.534V185.533z"/>
		<path fill="#FFFFFF" d="M115.987,196.857c0,4.498-0.924,7.189-2.771,8.916c-1.928,1.727-4.659,2.33-7.109,2.33
			c-2.329,0-4.899-0.563-6.466-1.607l0.883-2.73c1.285,0.844,3.293,1.566,5.703,1.566c3.614,0,6.265-1.887,6.265-6.828v-2.127
			h-0.081c-1.044,1.807-3.172,3.252-6.185,3.252c-4.819,0-8.273-4.096-8.273-9.479c0-6.586,4.297-10.281,8.795-10.281
			c3.374,0,5.181,1.729,6.064,3.334h0.081l0.12-2.932h3.133c-0.121,1.365-0.161,2.973-0.161,5.301V196.857z M112.453,187.941
			c0-0.602-0.041-1.123-0.201-1.564c-0.643-2.09-2.33-3.775-4.94-3.775c-3.374,0-5.783,2.852-5.783,7.35
			c0,3.814,1.968,6.986,5.743,6.986c2.209,0,4.177-1.365,4.9-3.613c0.201-0.604,0.281-1.285,0.281-1.889V187.941z"/>
		<path fill="#FFFFFF" d="M121.568,186.336c0-2.289-0.04-4.258-0.16-6.064h3.092l0.16,3.855h0.121
			c0.884-2.611,3.053-4.258,5.422-4.258c0.361,0,0.643,0.041,0.964,0.082v3.332c-0.361-0.08-0.724-0.08-1.204-0.08
			c-2.49,0-4.258,1.848-4.74,4.498c-0.08,0.482-0.12,1.084-0.12,1.646v10.361h-3.534V186.336z"/>
		<path fill="#FFFFFF" d="M148.154,195.051c0,1.688,0.081,3.334,0.281,4.658h-3.172l-0.281-2.449h-0.121
			c-1.084,1.525-3.172,2.891-5.943,2.891c-3.936,0-5.943-2.77-5.943-5.582c0-4.699,4.176-7.27,11.686-7.229v-0.402
			c0-1.566-0.441-4.498-4.417-4.457c-1.847,0-3.735,0.521-5.101,1.445l-0.803-2.369c1.605-1.004,3.976-1.688,6.426-1.688
			c5.943,0,7.389,4.057,7.389,7.912V195.051z M144.741,189.789c-3.855-0.08-8.233,0.604-8.233,4.379
			c0,2.328,1.526,3.373,3.293,3.373c2.57,0,4.217-1.607,4.779-3.254c0.121-0.4,0.161-0.803,0.161-1.123V189.789z"/>
		<path fill="#FFFFFF" d="M153.857,185.533c0-2.049-0.08-3.654-0.161-5.262h3.093l0.16,3.172h0.121
			c1.084-1.846,2.891-3.574,6.145-3.574c2.61,0,4.618,1.607,5.461,3.896h0.081c0.603-1.125,1.405-1.928,2.209-2.529
			c1.165-0.885,2.409-1.367,4.257-1.367c2.611,0,6.426,1.688,6.426,8.436v11.404h-3.453v-10.963c0-3.775-1.406-5.984-4.217-5.984
			c-2.049,0-3.575,1.486-4.218,3.172c-0.161,0.523-0.28,1.125-0.28,1.768v12.008h-3.455v-11.646c0-3.092-1.365-5.301-4.056-5.301
			c-2.169,0-3.815,1.768-4.378,3.533c-0.201,0.482-0.281,1.125-0.281,1.729v11.686h-3.453V185.533z"/>
	</g>
</g>
</svg>
