<?xml version="1.0" encoding="utf-8"?>
<!-- Generator: Adobe Illustrator 15.1.0, SVG Export Plug-In . SVG Version: 6.00 Build 0)  -->
<!DOCTYPE svg PUBLIC "-//W3C//DTD SVG 1.1//EN" "http://www.w3.org/Graphics/SVG/1.1/DTD/svg11.dtd" [
	<!ENTITY ns_extend "http://ns.adobe.com/Extensibility/1.0/">
	<!ENTITY ns_ai "http://ns.adobe.com/AdobeIllustrator/10.0/">
	<!ENTITY ns_graphs "http://ns.adobe.com/Graphs/1.0/">
	<!ENTITY ns_vars "http://ns.adobe.com/Variables/1.0/">
	<!ENTITY ns_imrep "http://ns.adobe.com/ImageReplacement/1.0/">
	<!ENTITY ns_sfw "http://ns.adobe.com/SaveForWeb/1.0/">
	<!ENTITY ns_custom "http://ns.adobe.com/GenericCustomNamespace/1.0/">
	<!ENTITY ns_adobe_xpath "http://ns.adobe.com/XPath/1.0/">
]>
<svg version="1.1" xmlns:x="&ns_extend;" xmlns:i="&ns_ai;" xmlns:graph="&ns_graphs;"
	 xmlns="http://www.w3.org/2000/svg" xmlns:xlink="http://www.w3.org/1999/xlink" x="0px" y="0px" width="231px" height="229px"
	 viewBox="0 0 231 229" enable-background="new 0 0 231 229" xml:space="preserve">
<metadata>
	<sfw  xmlns="&ns_sfw;">
		<slices></slices>
		<sliceSourceBounds  x="-8076" y="-8306" width="16383" height="16383" bottomLeftOrigin="true"></sliceSourceBounds>
	</sfw>
</metadata>
<g id="Layer_4" display="none">
	
		<circle display="inline" fill="none" stroke="#FFFFFF" stroke-width="7.3285" stroke-linecap="round" stroke-linejoin="round" cx="193.373" cy="110.179" r="17.748"/>
	
		<circle display="inline" fill="none" stroke="#FFFFFF" stroke-width="7.3285" stroke-linecap="round" stroke-linejoin="round" cx="141.407" cy="110.179" r="17.747"/>
	
		<circle display="inline" fill="none" stroke="#FFFFFF" stroke-width="7.3285" stroke-linecap="round" stroke-linejoin="round" cx="89.587" cy="110.179" r="17.75"/>
	<path display="inline" fill="none" stroke="#FFFFFF" stroke-width="7.3285" stroke-linecap="round" stroke-linejoin="round" d="
		M55.374,110.179c0,9.801-7.941,17.747-17.744,17.747c-9.803,0-17.75-7.946-17.75-17.747s7.947-17.748,17.75-17.748
		C47.433,92.431,55.374,100.378,55.374,110.179z"/>
	
		<circle display="inline" fill="none" stroke="#FFFFFF" stroke-width="7.3285" stroke-linecap="round" stroke-linejoin="round" cx="193.373" cy="58.948" r="17.748"/>
	<path display="inline" fill="none" stroke="#FFFFFF" stroke-width="7.3285" stroke-linecap="round" stroke-linejoin="round" d="
		M159.154,58.948c0,9.801-7.943,17.746-17.744,17.746c-9.802,0-17.75-7.945-17.75-17.746c0-9.803,7.948-17.749,17.75-17.749
		C151.211,41.199,159.154,49.146,159.154,58.948z"/>
	
		<circle display="inline" fill="none" stroke="#FFFFFF" stroke-width="7.3285" stroke-linecap="round" stroke-linejoin="round" cx="89.587" cy="58.948" r="17.75"/>
	<path display="inline" fill="none" stroke="#FFFFFF" stroke-width="7.3285" stroke-linecap="round" stroke-linejoin="round" d="
		M55.374,58.948c0,9.801-7.941,17.746-17.744,17.746c-9.803,0-17.75-7.945-17.75-17.746c0-9.803,7.947-17.749,17.75-17.749
		C47.433,41.199,55.374,49.146,55.374,58.948z"/>
	<g display="inline">
		<path fill="#FFFFFF" d="M80.003,193.301l-2.811,8.515h-3.615l9.237-27.068h4.177l9.237,27.068h-3.735l-2.892-8.515H80.003z
			 M88.919,190.57l-2.691-7.791c-0.603-1.768-1.004-3.374-1.406-4.939h-0.08c-0.402,1.565-0.803,3.252-1.366,4.898l-2.65,7.832
			H88.919z"/>
		<path fill="#FFFFFF" d="M99.963,188.723c0-2.49-0.08-4.498-0.161-6.346h3.133l0.201,3.334h0.08
			c1.406-2.369,3.735-3.735,6.908-3.735c4.739,0,8.272,3.976,8.272,9.84c0,6.987-4.297,10.441-8.875,10.441
			c-2.57,0-4.819-1.124-5.984-3.052h-0.08v10.563h-3.494V188.723z M103.457,193.904c0,0.521,0.04,1.004,0.161,1.445
			c0.643,2.449,2.771,4.137,5.301,4.137c3.735,0,5.904-3.053,5.904-7.51c0-3.855-2.048-7.189-5.783-7.189
			c-2.41,0-4.699,1.687-5.341,4.338c-0.121,0.441-0.241,0.963-0.241,1.405V193.904z"/>
		<path fill="#FFFFFF" d="M122.813,188.723c0-2.49-0.08-4.498-0.161-6.346h3.133l0.201,3.334h0.08
			c1.406-2.369,3.735-3.735,6.908-3.735c4.738,0,8.273,3.976,8.273,9.84c0,6.987-4.298,10.441-8.876,10.441
			c-2.57,0-4.819-1.124-5.984-3.052h-0.08v10.563h-3.494V188.723z M126.308,193.904c0,0.521,0.04,1.004,0.161,1.445
			c0.643,2.449,2.771,4.137,5.301,4.137c3.734,0,5.904-3.053,5.904-7.51c0-3.855-2.049-7.189-5.783-7.189
			c-2.41,0-4.699,1.687-5.342,4.338c-0.121,0.441-0.241,0.963-0.241,1.405V193.904z"/>
		<path fill="#FFFFFF" d="M145.182,198.241c1.085,0.643,2.933,1.365,4.699,1.365c2.53,0,3.735-1.245,3.735-2.892
			c0-1.687-1.004-2.57-3.574-3.534c-3.534-1.285-5.181-3.173-5.181-5.502c0-3.133,2.57-5.703,6.707-5.703
			c1.967,0,3.694,0.522,4.738,1.205l-0.844,2.57c-0.763-0.481-2.168-1.165-3.976-1.165c-2.088,0-3.213,1.205-3.213,2.65
			c0,1.607,1.125,2.33,3.655,3.334c3.333,1.245,5.1,2.932,5.1,5.823c0,3.454-2.69,5.863-7.229,5.863
			c-2.129,0-4.097-0.562-5.462-1.365L145.182,198.241z"/>
	</g>
</g>
<g id="compass_icon">
</g>
<g id="Layer_8" display="none">
	<path display="inline" fill="none" stroke="#FFFFFF" stroke-width="1.4704" stroke-miterlimit="10" d="M164.438,69.885"/>
	<polygon display="inline" fill="none" stroke="#FFFFFF" stroke-width="4.4112" stroke-miterlimit="10" points="62.553,37.074 
		62.551,66.759 161.312,66.759 161.312,37.074 157.981,37.074 157.981,28.29 140.412,28.466 140.412,37.074 133.079,37.039 
		133.079,28.501 115.58,28.466 115.58,37.074 108.246,37.074 108.246,28.466 90.712,28.466 90.712,37.074 83.698,37.074 
		83.698,28.528 65.81,28.528 65.81,37.074 	"/>
	<polyline display="inline" fill="none" stroke="#FFFFFF" stroke-width="4.4112" stroke-miterlimit="10" points="142.515,66.759 
		142.515,102.196 83.951,102.196 83.951,66.759 	"/>
	<path display="inline" fill="none" stroke="#FFFFFF" stroke-width="1.4704" stroke-miterlimit="10" d="M78.741,98.027"/>
	<polygon display="inline" fill="none" stroke="#FFFFFF" stroke-width="2.2056" stroke-miterlimit="10" points="166.521,23.256 
		166.521,71.97 147.725,71.97 147.725,142.842 78.741,142.842 78.741,71.97 57.463,71.97 57.463,23.256 166.521,23.248 	"/>
	<path display="inline" fill="none" stroke="#FFFFFF" stroke-width="2.2056" stroke-miterlimit="10" d="M147.725,98.027"/>
	<polyline display="inline" fill="none" stroke="#FFFFFF" stroke-width="4.4112" stroke-miterlimit="10" points="142.515,102.196 
		142.515,137.631 83.951,137.631 83.951,102.196 	"/>
	<path display="inline" fill="none" stroke="#FFFFFF" stroke-width="2.7142" stroke-miterlimit="10" d="M172.271,57.794"/>
	
		<line display="inline" fill="none" stroke="#FFFFFF" stroke-width="2.7142" stroke-miterlimit="10" x1="167.257" y1="26.668" x2="167.259" y2="67.68"/>
	<g display="inline">
		<path fill="#FFFFFF" d="M45.587,175.613h-8.233v-2.973h20.04v2.973h-8.273v24.096h-3.534V175.613z"/>
		<path fill="#FFFFFF" d="M71.37,195.051c0,1.688,0.081,3.334,0.281,4.658h-3.173l-0.281-2.449h-0.12
			c-1.084,1.525-3.173,2.891-5.944,2.891c-3.936,0-5.944-2.77-5.944-5.582c0-4.699,4.177-7.27,11.687-7.229v-0.402
			c0-1.566-0.441-4.498-4.417-4.457c-1.847,0-3.735,0.521-5.101,1.445l-0.803-2.369c1.606-1.004,3.976-1.688,6.426-1.688
			c5.944,0,7.39,4.057,7.39,7.912V195.051z M67.956,189.789c-3.855-0.08-8.233,0.604-8.233,4.379c0,2.328,1.526,3.373,3.293,3.373
			c2.57,0,4.217-1.607,4.779-3.254c0.121-0.4,0.161-0.803,0.161-1.123V189.789z"/>
		<path fill="#FFFFFF" d="M77.072,185.533c0-2.049-0.04-3.654-0.161-5.262h3.133l0.201,3.213h0.08
			c0.964-1.807,3.213-3.615,6.426-3.615c2.691,0,6.868,1.607,6.868,8.273v11.566h-3.534v-11.205c0-3.133-1.165-5.742-4.498-5.742
			c-2.289,0-4.096,1.646-4.739,3.615c-0.161,0.441-0.241,1.043-0.241,1.646v11.686h-3.534V185.533z"/>
		<path fill="#FFFFFF" d="M115.987,196.857c0,4.498-0.924,7.189-2.771,8.916c-1.928,1.727-4.659,2.33-7.109,2.33
			c-2.329,0-4.899-0.563-6.466-1.607l0.883-2.73c1.285,0.844,3.293,1.566,5.703,1.566c3.614,0,6.265-1.887,6.265-6.828v-2.127
			h-0.081c-1.044,1.807-3.172,3.252-6.185,3.252c-4.819,0-8.273-4.096-8.273-9.479c0-6.586,4.297-10.281,8.795-10.281
			c3.374,0,5.181,1.729,6.064,3.334h0.081l0.12-2.932h3.133c-0.121,1.365-0.161,2.973-0.161,5.301V196.857z M112.453,187.941
			c0-0.602-0.041-1.123-0.201-1.564c-0.643-2.09-2.33-3.775-4.94-3.775c-3.374,0-5.783,2.852-5.783,7.35
			c0,3.814,1.968,6.986,5.743,6.986c2.209,0,4.177-1.365,4.9-3.613c0.201-0.604,0.281-1.285,0.281-1.889V187.941z"/>
		<path fill="#FFFFFF" d="M121.568,186.336c0-2.289-0.04-4.258-0.16-6.064h3.092l0.16,3.855h0.121
			c0.884-2.611,3.053-4.258,5.422-4.258c0.361,0,0.643,0.041,0.964,0.082v3.332c-0.361-0.08-0.724-0.08-1.204-0.08
			c-2.49,0-4.258,1.848-4.74,4.498c-0.08,0.482-0.12,1.084-0.12,1.646v10.361h-3.534V186.336z"/>
		<path fill="#FFFFFF" d="M148.154,195.051c0,1.688,0.081,3.334,0.281,4.658h-3.172l-0.281-2.449h-0.121
			c-1.084,1.525-3.172,2.891-5.943,2.891c-3.936,0-5.943-2.77-5.943-5.582c0-4.699,4.176-7.27,11.686-7.229v-0.402
			c0-1.566-0.441-4.498-4.417-4.457c-1.847,0-3.735,0.521-5.101,1.445l-0.803-2.369c1.605-1.004,3.976-1.688,6.426-1.688
			c5.943,0,7.389,4.057,7.389,7.912V195.051z M144.741,189.789c-3.855-0.08-8.233,0.604-8.233,4.379
			c0,2.328,1.526,3.373,3.293,3.373c2.57,0,4.217-1.607,4.779-3.254c0.121-0.4,0.161-0.803,0.161-1.123V189.789z"/>
		<path fill="#FFFFFF" d="M153.857,185.533c0-2.049-0.08-3.654-0.161-5.262h3.093l0.16,3.172h0.121
			c1.084-1.846,2.891-3.574,6.145-3.574c2.61,0,4.618,1.607,5.461,3.896h0.081c0.603-1.125,1.405-1.928,2.209-2.529
			c1.165-0.885,2.409-1.367,4.257-1.367c2.611,0,6.426,1.688,6.426,8.436v11.404h-3.453v-10.963c0-3.775-1.406-5.984-4.217-5.984
			c-2.049,0-3.575,1.486-4.218,3.172c-0.161,0.523-0.28,1.125-0.28,1.768v12.008h-3.455v-11.646c0-3.092-1.365-5.301-4.056-5.301
			c-2.169,0-3.815,1.768-4.378,3.533c-0.201,0.482-0.281,1.125-0.281,1.729v11.686h-3.453V185.533z"/>
	</g>
</g>
<g id="Layer_5">
	<g>
		<path fill="#FFFFFF" d="M32.207,145.506c1.687-0.281,3.896-0.523,6.707-0.523c3.454,0,5.984,0.805,7.59,2.25
			c1.446,1.285,2.37,3.252,2.37,5.662c0,2.449-0.723,4.377-2.088,5.783c-1.888,1.969-4.859,2.973-8.273,2.973
			c-1.044,0-2.008-0.041-2.811-0.242v10.844h-3.494V145.506z M35.701,158.557c0.763,0.201,1.727,0.281,2.892,0.281
			c4.217,0,6.787-2.088,6.787-5.742c0-3.615-2.57-5.342-6.386-5.342c-1.526,0-2.691,0.121-3.293,0.281V158.557z"/>
		<path fill="#FFFFFF" d="M52.809,158.879c0-2.289-0.04-4.258-0.161-6.064h3.092l0.161,3.855h0.12
			c0.884-2.611,3.052-4.258,5.422-4.258c0.361,0,0.643,0.041,0.964,0.082v3.332c-0.361-0.08-0.723-0.08-1.205-0.08
			c-2.49,0-4.257,1.848-4.739,4.498c-0.081,0.482-0.121,1.084-0.121,1.646v10.361h-3.534V158.879z"/>
		<path fill="#FFFFFF" d="M83.131,162.373c0,7.189-5.02,10.32-9.679,10.32c-5.221,0-9.317-3.855-9.317-10
			c0-6.465,4.297-10.281,9.639-10.281C79.355,152.412,83.131,156.469,83.131,162.373z M67.749,162.574
			c0,4.256,2.41,7.469,5.864,7.469c3.373,0,5.903-3.172,5.903-7.549c0-3.295-1.646-7.43-5.823-7.43
			C69.556,155.064,67.749,158.92,67.749,162.574z"/>
		<path fill="#FFFFFF" d="M82.808,177.955c1.647-0.121,3.012-0.563,3.855-1.525c0.964-1.084,1.366-2.611,1.366-7.27v-16.346h3.534
			v17.711c0,3.775-0.603,6.225-2.33,7.992c-1.566,1.566-4.136,2.209-6.024,2.209L82.808,177.955z M91.965,147.354
			c0,1.164-0.804,2.168-2.249,2.168c-1.285,0-2.129-1.004-2.129-2.168c0-1.205,0.884-2.209,2.209-2.209
			S91.965,146.148,91.965,147.354z"/>
		<path fill="#FFFFFF" d="M99.314,163.176c0.081,4.779,3.093,6.748,6.667,6.748c2.53,0,4.097-0.443,5.382-1.004l0.643,2.529
			c-1.245,0.563-3.414,1.244-6.506,1.244c-5.984,0-9.558-3.975-9.558-9.838s3.454-10.443,9.116-10.443
			c6.386,0,8.032,5.543,8.032,9.117c0,0.723-0.04,1.246-0.12,1.646H99.314z M109.676,160.646c0.04-2.209-0.924-5.703-4.9-5.703
			c-3.614,0-5.141,3.252-5.421,5.703H109.676z"/>
		<path fill="#FFFFFF" d="M131.322,171.57c-0.924,0.441-2.973,1.123-5.582,1.123c-5.864,0-9.68-3.975-9.68-9.918
			c0-5.984,4.097-10.363,10.441-10.363c2.09,0,3.937,0.523,4.9,1.045l-0.803,2.691c-0.844-0.441-2.17-0.924-4.098-0.924
			c-4.457,0-6.867,3.332-6.867,7.35c0,4.498,2.893,7.27,6.748,7.27c2.008,0,3.332-0.482,4.337-0.924L131.322,171.57z"/>
		<path fill="#FFFFFF" d="M140.236,148.156v4.658h5.061v2.691h-5.061v10.482c0,2.408,0.683,3.773,2.65,3.773
			c0.964,0,1.526-0.08,2.049-0.24l0.16,2.691c-0.683,0.24-1.768,0.48-3.133,0.48c-1.646,0-2.972-0.561-3.814-1.484
			c-0.965-1.086-1.366-2.813-1.366-5.102v-10.602h-3.013v-2.691h3.013v-3.615L140.236,148.156z"/>
		<path fill="#FFFFFF" d="M153.208,147.354c0,1.203-0.843,2.168-2.249,2.168c-1.285,0-2.129-0.965-2.129-2.168
			c0-1.205,0.884-2.209,2.209-2.209C152.324,145.145,153.208,146.107,153.208,147.354z M149.271,172.252v-19.438h3.535v19.438
			H149.271z"/>
		<path fill="#FFFFFF" d="M176.26,162.373c0,7.189-5.02,10.32-9.68,10.32c-5.221,0-9.316-3.855-9.316-10
			c0-6.465,4.297-10.281,9.639-10.281C172.484,152.412,176.26,156.469,176.26,162.373z M160.878,162.574
			c0,4.256,2.409,7.469,5.864,7.469c3.373,0,5.902-3.172,5.902-7.549c0-3.295-1.646-7.43-5.822-7.43
			C162.686,155.064,160.878,158.92,160.878,162.574z"/>
		<path fill="#FFFFFF" d="M180.717,158.076c0-2.049-0.04-3.654-0.16-5.262h3.133l0.2,3.213h0.081
			c0.963-1.807,3.213-3.615,6.426-3.615c2.689,0,6.867,1.607,6.867,8.273v11.566h-3.535v-11.205c0-3.133-1.164-5.742-4.498-5.742
			c-2.289,0-4.096,1.646-4.738,3.615c-0.16,0.441-0.241,1.043-0.241,1.646v11.686h-3.534V158.076z"/>
		<path fill="#FFFFFF" d="M64.234,183.506c1.687-0.281,3.896-0.523,6.707-0.523c3.454,0,5.984,0.805,7.59,2.25
			c1.446,1.285,2.37,3.252,2.37,5.662c0,2.449-0.723,4.377-2.088,5.783c-1.888,1.969-4.859,2.973-8.273,2.973
			c-1.044,0-2.008-0.041-2.811-0.242v10.844h-3.494V183.506z M67.729,196.557c0.763,0.201,1.727,0.281,2.892,0.281
			c4.217,0,6.787-2.088,6.787-5.742c0-3.615-2.57-5.342-6.386-5.342c-1.526,0-2.691,0.121-3.293,0.281V196.557z"/>
		<path fill="#FFFFFF" d="M101.142,204.91c0,2.049,0.04,3.816,0.16,5.342H98.17l-0.201-3.172h-0.081
			c-0.883,1.566-2.972,3.613-6.426,3.613c-3.052,0-6.707-1.727-6.707-8.514v-11.365h3.534v10.723c0,3.695,1.165,6.225,4.337,6.225
			c2.37,0,4.017-1.646,4.659-3.252c0.201-0.482,0.321-1.125,0.321-1.807v-11.889h3.534V204.91z"/>
		<path fill="#FFFFFF" d="M104.795,208.205l8.755-11.447c0.883-1.084,1.687-2.008,2.57-3.051v-0.082h-10.522v-2.811h14.78v2.209
			l-8.675,11.285c-0.844,1.084-1.606,2.088-2.49,3.053v0.08h11.326v2.811h-15.744V208.205z"/>
		<path fill="#FFFFFF" d="M121.984,208.205l8.754-11.447c0.885-1.084,1.688-2.008,2.57-3.051v-0.082h-10.521v-2.811h14.779v2.209
			l-8.676,11.285c-0.843,1.084-1.605,2.088-2.489,3.053v0.08h11.325v2.811h-15.742V208.205z"/>
		<path fill="#FFFFFF" d="M141.381,181.738h3.534v28.514h-3.534V181.738z"/>
		<path fill="#FFFFFF" d="M152.826,201.176c0.08,4.779,3.093,6.748,6.667,6.748c2.53,0,4.097-0.443,5.382-1.004l0.643,2.529
			c-1.245,0.563-3.414,1.244-6.506,1.244c-5.984,0-9.559-3.975-9.559-9.838s3.453-10.443,9.116-10.443
			c6.386,0,8.032,5.543,8.032,9.117c0,0.723-0.04,1.246-0.121,1.646H152.826z M163.188,198.646c0.041-2.209-0.924-5.703-4.898-5.703
			c-3.615,0-5.141,3.252-5.422,5.703H163.188z"/>
	</g>
	
		<line fill="#FFFFFF" stroke="#FFFFFF" stroke-width="3" stroke-miterlimit="10" x1="114.999" y1="11.544" x2="114.999" y2="132.646"/>
	<line fill="#FFFFFF" stroke="#FFFFFF" stroke-width="3" stroke-miterlimit="10" x1="174.97" y1="72.095" x2="53.868" y2="72.095"/>
	<polygon fill="none" stroke="#FFFFFF" stroke-width="3" stroke-miterlimit="10" points="130.735,41.121 130.735,36.086 
		140.972,36.105 140.972,41.1 145.261,41.121 145.261,36.086 155.538,35.982 155.538,41.121 157.485,41.121 157.485,58.484 
		128.788,58.484 128.788,41.121 	"/>
	
		<rect x="71.26" y="32.839" fill="none" stroke="#FFFFFF" stroke-width="3" stroke-miterlimit="10" width="28.788" height="28.788"/>
	
		<rect x="75.696" y="37.592" fill="none" stroke="#FFFFFF" stroke-width="2.5825" stroke-miterlimit="10" width="7.234" height="7.234"/>
	
		<rect x="88.334" y="37.605" fill="none" stroke="#FFFFFF" stroke-width="2.5825" stroke-miterlimit="10" width="7.235" height="7.235"/>
	
		<rect x="75.666" y="49.626" fill="none" stroke="#FFFFFF" stroke-width="2.5825" stroke-miterlimit="10" width="7.234" height="7.235"/>
	
		<rect x="88.304" y="49.641" fill="none" stroke="#FFFFFF" stroke-width="2.5825" stroke-miterlimit="10" width="7.235" height="7.234"/>
	<polygon fill="none" stroke="#FFFFFF" stroke-width="3" stroke-miterlimit="10" points="73.252,94.566 73.252,89.532 
		83.488,89.552 83.488,94.546 87.778,94.566 87.778,89.532 98.055,89.428 98.055,94.566 100.002,94.566 100.002,111.931 
		71.305,111.931 71.305,94.566 	"/>
	<g>
		<path fill="#FFFFFF" stroke="#FFFFFF" stroke-width="1.6279" stroke-miterlimit="10" d="M141.693,104.684l-0.068-0.889
			c-0.205-1.812,0.41-3.862,2.119-5.913c1.538-1.812,2.393-3.145,2.393-4.683c0-1.743-1.094-2.905-3.247-2.939
			c-1.23,0-2.598,0.41-3.452,1.06l-0.82-2.153c1.162-0.82,3.076-1.367,4.888-1.367c3.931,0,5.708,2.427,5.708,5.024
			c0,2.324-1.299,3.999-2.939,5.947c-1.504,1.777-2.051,3.315-1.948,5.059l0.068,0.854H141.693z M140.976,109.503
			c0-1.265,0.854-2.153,2.017-2.153c1.23,0,2.017,0.889,2.017,2.153c0,1.196-0.786,2.12-2.051,2.12
			C141.796,111.623,140.976,110.7,140.976,109.503z"/>
	</g>
</g>
</svg>
