<?xml version="1.0" encoding="utf-8"?>
<!-- Generator: Adobe Illustrator 15.1.0, SVG Export Plug-In . SVG Version: 6.00 Build 0)  -->
<!DOCTYPE svg PUBLIC "-//W3C//DTD SVG 1.1//EN" "http://www.w3.org/Graphics/SVG/1.1/DTD/svg11.dtd">
<svg version="1.1" xmlns="http://www.w3.org/2000/svg" xmlns:xlink="http://www.w3.org/1999/xlink" x="0px" y="0px" width="231px"
	 height="229px" viewBox="0 0 231 229" enable-background="new 0 0 231 229" xml:space="preserve">
<g id="compass_icon">
</g>
<g id="Layer_3">
</g>
<g id="Layer_5">
	<g>
		<path fill="#FFFFFF" d="M11.146,219.5l-6.867-27.068h3.695l3.213,13.694c0.803,3.374,1.526,6.747,2.008,9.357h0.081
			c0.441-2.69,1.285-5.903,2.209-9.397l3.614-13.654h3.655l3.293,13.735c0.763,3.213,1.486,6.426,1.888,9.276h0.081
			c0.562-2.972,1.325-5.983,2.168-9.357l3.574-13.654h3.575L29.661,219.5h-3.655l-3.414-14.097
			c-0.844-3.454-1.406-6.104-1.767-8.835h-0.081c-0.441,2.69-1.084,5.341-2.088,8.835L14.801,219.5H11.146z"/>
		<path fill="#FFFFFF" d="M52.913,214.841c0,1.688,0.081,3.334,0.281,4.659h-3.173l-0.281-2.45H49.62
			c-1.084,1.526-3.173,2.892-5.944,2.892c-3.936,0-5.944-2.771-5.944-5.582c0-4.699,4.177-7.27,11.687-7.229v-0.401
			c0-1.566-0.442-4.498-4.418-4.458c-1.848,0-3.735,0.522-5.101,1.446l-0.803-2.37c1.606-1.004,3.976-1.687,6.426-1.687
			c5.944,0,7.39,4.057,7.39,7.912V214.841z M49.5,209.58c-3.855-0.08-8.233,0.603-8.233,4.378c0,2.329,1.526,3.373,3.293,3.373
			c2.57,0,4.217-1.606,4.779-3.253c0.121-0.401,0.161-0.803,0.161-1.124V209.58z"/>
		<path fill="#FFFFFF" d="M72.47,218.817c-0.923,0.441-2.972,1.124-5.582,1.124c-5.864,0-9.679-3.976-9.679-9.919
			c0-5.984,4.096-10.362,10.441-10.362c2.089,0,3.936,0.522,4.9,1.044l-0.803,2.691c-0.843-0.441-2.169-0.924-4.097-0.924
			c-4.458,0-6.867,3.333-6.867,7.35c0,4.498,2.892,7.27,6.747,7.27c2.008,0,3.333-0.482,4.337-0.924L72.47,218.817z"/>
		<path fill="#FFFFFF" d="M80.101,208.978h0.081c0.481-0.683,1.124-1.525,1.687-2.209l5.743-6.707h4.217l-7.47,7.992l8.554,11.446
			h-4.337l-6.667-9.317l-1.807,2.008v7.31h-3.494v-28.515h3.494V208.978z"/>
		<path fill="#FFFFFF" d="M117.609,214.841c0,1.688,0.081,3.334,0.281,4.659h-3.172l-0.281-2.45h-0.12
			c-1.084,1.526-3.173,2.892-5.944,2.892c-3.936,0-5.944-2.771-5.944-5.582c0-4.699,4.177-7.27,11.687-7.229v-0.401
			c0-1.566-0.441-4.498-4.417-4.458c-1.847,0-3.735,0.522-5.101,1.446l-0.803-2.37c1.606-1.004,3.976-1.687,6.426-1.687
			c5.944,0,7.389,4.057,7.389,7.912V214.841z M114.196,209.58c-3.855-0.08-8.233,0.603-8.233,4.378c0,2.329,1.526,3.373,3.293,3.373
			c2.57,0,4.217-1.606,4.779-3.253c0.121-0.401,0.161-0.803,0.161-1.124V209.58z"/>
		<path fill="#FFFFFF" d="M131.825,190.985h3.494v12.209h0.081c1.244-2.168,3.493-3.534,6.626-3.534c4.859,0,8.233,4.017,8.233,9.88
			c0,6.948-4.418,10.401-8.756,10.401c-2.811,0-5.061-1.084-6.546-3.614h-0.081l-0.2,3.173h-3.013
			c0.081-1.325,0.161-3.293,0.161-5.021V190.985z M135.319,211.709c0,0.441,0.04,0.884,0.161,1.285
			c0.643,2.449,2.73,4.137,5.301,4.137c3.734,0,5.904-3.013,5.904-7.471c0-3.896-2.009-7.229-5.824-7.229
			c-2.369,0-4.618,1.687-5.342,4.337c-0.119,0.442-0.2,0.924-0.2,1.486V211.709z"/>
		<path fill="#FFFFFF" d="M154.676,190.985h3.534V219.5h-3.534V190.985z"/>
		<path fill="#FFFFFF" d="M181.744,209.62c0,7.189-5.02,10.321-9.68,10.321c-5.221,0-9.316-3.855-9.316-10
			c0-6.466,4.297-10.281,9.639-10.281C177.969,199.66,181.744,203.717,181.744,209.62z M166.362,209.821
			c0,4.257,2.409,7.47,5.864,7.47c3.373,0,5.902-3.173,5.902-7.55c0-3.294-1.646-7.43-5.822-7.43
			C168.17,202.312,166.362,206.167,166.362,209.821z"/>
		<path fill="#FFFFFF" d="M200.057,218.817c-0.924,0.441-2.973,1.124-5.582,1.124c-5.864,0-9.68-3.976-9.68-9.919
			c0-5.984,4.097-10.362,10.441-10.362c2.09,0,3.937,0.522,4.9,1.044l-0.803,2.691c-0.844-0.441-2.17-0.924-4.098-0.924
			c-4.457,0-6.867,3.333-6.867,7.35c0,4.498,2.893,7.27,6.748,7.27c2.008,0,3.332-0.482,4.337-0.924L200.057,218.817z"/>
		<path fill="#FFFFFF" d="M207.688,208.978h0.08c0.48-0.683,1.123-1.525,1.686-2.209l5.744-6.707h4.217l-7.471,7.992l8.555,11.446
			h-4.338l-6.666-9.317l-1.807,2.008v7.31h-3.495v-28.515h3.495V208.978z"/>
	</g>
	<polygon opacity="0.55" fill="none" stroke="#FFFFFF" stroke-miterlimit="10" points="84.032,87.106 84.032,74.407 109.85,74.407 
		109.85,87.054 120.667,87.054 120.667,74.407 146.59,74.407 146.59,87.106 151.5,87.106 151.5,130.902 79.119,130.902 
		79.119,87.106 	"/>
	<polygon fill="none" stroke="#FFFFFF" stroke-width="2.79" stroke-miterlimit="10" points="84.032,87.106 84.032,74.407 
		109.851,74.407 109.851,87.054 120.667,87.054 120.667,74.407 146.59,74.407 146.59,87.106 151.5,87.106 151.5,130.902 
		79.12,130.902 79.12,87.106 	"/>
	<path opacity="0.55" fill="#FFFFFF" d="M109.851,130.902"/>
	<polyline fill="none" stroke="#FFFFFF" stroke-width="2.79" stroke-miterlimit="10" points="146.591,130.955 151.501,130.955 
		151.501,174.752 79.12,174.752 79.12,130.955 146.591,130.955 	"/>
	<path fill="none" stroke="#FFFFFF" stroke-width="2.79" stroke-miterlimit="10" d="M109.851,130.902"/>
	<polygon fill="#FFFFFF" points="84.47,38.87 84.47,26.17 110.288,26.17 110.288,38.818 121.104,38.818 121.104,26.17 
		147.026,26.17 147.026,38.87 151.937,38.87 151.937,82.667 79.558,82.667 79.558,38.87 	"/>
	<polygon fill="#FFFFFF" points="135.884,92.091 165.426,97.543 151.297,89.917 188.108,92.679 161.301,86.639 199.769,86.29 
		164.376,82.756 198.647,79.349 160.042,78.859 184.902,72.914 148.969,75.542 160.623,67.963 132.834,73.31 129.524,65.251 
		114.101,72.502 96.319,65.19 95.618,73.241 66.073,67.789 80.2,75.416 43.392,72.654 70.192,78.693 31.726,79.042 67.123,82.577 
		32.851,85.983 71.454,86.474 46.597,92.418 82.532,89.791 70.871,97.369 98.663,92.022 101.976,100.081 117.397,92.832 
		135.18,100.143 	"/>
</g>
</svg>
